<svg version="1.1" viewBox="0.0 0.0 960.0 540.0" fill="none" stroke="none" stroke-linecap="square" stroke-miterlimit="10" xmlns:xlink="http://www.w3.org/1999/xlink" xmlns="http://www.w3.org/2000/svg"><clipPath id="g863613a65a_7_48.0"><path d="m0 0l960.0 0l0 540.0l-960.0 0l0 -540.0z" clip-rule="nonzero"/></clipPath><g clip-path="url(#g863613a65a_7_48.0)"><path fill="#212121" d="m0 0l960.0 0l0 540.0l-960.0 0z" fill-rule="evenodd"/><path fill="#000000" fill-opacity="0.0" d="m91.35433 52.992126l777.2914 0l0 434.01575l-777.2914 0z" fill-rule="evenodd"/><path fill="#ffffff" d="m170.244 92.30875l0 50.03125l-5.9375 0l0 -42.390625l-0.140625 0l-8.96875 7.5625l-3.53125 -4.3125l13.421875 -10.890625l5.15625 0zm48.536728 0l16.953125 39.21875l0.15625 0l17.09375 -39.21875l8.625 0l0 50.03125l-5.9375 0l0 -41.96875l-0.140625 0l-17.953125 41.96875l-3.609375 0l-17.9375 -41.96875l-0.140625 0l0 41.96875l-5.9375 0l0 -50.03125l8.828125 0zm70.022766 16.109375q7.703125 0 12.578125 4.78125q4.875 4.765625 5.09375 12.609375q0 7.5625 -4.953125 12.40625q-4.953125 4.828125 -12.71875 4.96875q-7.765625 0 -12.640625 -4.90625q-4.875 -4.90625 -5.015625 -12.46875q0 -7.640625 4.9375 -12.46875q4.953125 -4.84375 12.71875 -4.921875zm-11.734375 17.390625q0 5.4375 3.28125 8.796875q3.296875 3.359375 8.453125 3.5q5.15625 0 8.40625 -3.421875q3.25 -3.4375 3.328125 -8.875q0 -5.375 -3.296875 -8.828125q-3.28125 -3.46875 -8.5 -3.46875q-5.09375 0 -8.34375 3.4375q-3.25 3.421875 -3.328125 8.859375zm54.204224 -17.390625q6.21875 0 9.390625 3.609375q3.1875 3.609375 3.1875 9.609375l0 20.703125l-5.515625 0l0 -20.0625q0 -3.8125 -1.765625 -6.25q-1.765625 -2.4375 -5.796875 -2.515625q-5.09375 0 -7.671875 3.359375q-2.578125 3.359375 -2.578125 9.28125l0 16.1875l-5.5 0l0 -25.71875q0 -0.359375 -0.28125 -7.34375l5.21875 0q0.140625 4.9375 0.140625 5.4375l0.140625 0q1.34375 -2.828125 4.34375 -4.5625q3.015625 -1.734375 6.6875 -1.734375zm31.363037 -8.546875l0 9.40625l9.75 0l0 4.65625l-9.75 0l0 17.671875q0 3.953125 1.265625 5.234375q1.28125 1.265625 3.6875 1.265625q2.75 0 4.875 -1.140625l0.203125 5.015625q-2.828125 1.203125 -6.421875 1.203125q-5.09375 0 -7.109375 -2.5q-2.0 -2.515625 -2.0 -8.234375l0 -18.515625l-7.21875 0l0 -4.65625l7.21875 0l0 -9.40625l5.5 0zm22.042908 -10.953125l0 24.953125l0.140625 0q1.484375 -2.484375 4.375 -3.96875q2.90625 -1.484375 6.296875 -1.484375q6.21875 0 9.359375 3.609375q3.15625 3.609375 3.15625 9.609375l0 20.703125l-5.515625 0l0 -20.0625q0 -3.8125 -1.765625 -6.25q-1.765625 -2.4375 -5.796875 -2.515625q-5.09375 0 -7.671875 3.359375q-2.578125 3.359375 -2.578125 9.078125l0 16.390625l-5.5 0l0 -53.421875l5.5 0zm69.17734 19.5q7.703125 0 12.578125 4.78125q4.875 4.765625 5.09375 12.609375q0 7.5625 -4.953125 12.40625q-4.953125 4.828125 -12.71875 4.96875q-7.765625 0 -12.640625 -4.90625q-4.875 -4.90625 -5.015625 -12.46875q0 -7.640625 4.9375 -12.46875q4.953125 -4.84375 12.71875 -4.921875zm-11.734375 17.390625q0 5.4375 3.28125 8.796875q3.296875 3.359375 8.453125 3.5q5.15625 0 8.40625 -3.421875q3.25 -3.4375 3.328125 -8.875q0 -5.375 -3.296875 -8.828125q-3.28125 -3.46875 -8.5 -3.46875q-5.09375 0 -8.34375 3.4375q-3.25 3.421875 -3.328125 8.859375zm52.4386 -37.734375q2.75 0 4.296875 0.84375l-0.765625 4.953125q-1.984375 -0.703125 -3.75 -0.703125q-3.46875 0 -4.703125 2.015625q-1.234375 2.0 -1.234375 6.671875l0 7.421875l8.0625 0l0 4.65625l-8.0625 0l0 28.40625l-5.5 0l0 -28.40625l-7.21875 0l0 -4.65625l7.21875 0l0 -7.5q0 -13.703125 11.65625 -13.703125zm59.83667 4.234375l0 5.515625l-25.5 0l0 15.6875l23.8125 0l0 5.515625l-23.8125 0l0 17.796875l26.78125 0l0 5.515625l-32.71875 0l0 -50.03125l31.4375 0zm13.352295 16.96875l8.765625 11.859375l8.265625 -11.859375l6.71875 0l-11.375 15.25l13.625 17.8125l-7.265625 0l-10.46875 -14.265625l-10.3125 14.265625l-6.84375 0l13.5625 -17.8125l-11.875 -15.25l7.203125 0zm48.6875 -0.859375q7.84375 0 12.578125 4.953125q4.734375 4.953125 4.796875 12.4375q0 7.421875 -4.8125 12.328125q-4.796875 4.90625 -11.71875 5.046875q-4.234375 0 -7.671875 -1.828125q-3.421875 -1.84375 -5.046875 -4.875l-0.140625 0l0 21.96875l-5.5 0l0 -49.171875l5.5 0l0 4.796875l0.140625 0q4.875 -5.65625 11.875 -5.65625zm-12.015625 17.390625q0 5.4375 3.28125 8.796875q3.296875 3.359375 8.453125 3.5q5.15625 0 8.40625 -3.421875q3.25 -3.4375 3.328125 -8.875q0 -5.375 -3.296875 -8.828125q-3.28125 -3.46875 -8.515625 -3.46875q-5.078125 0 -8.328125 3.4375q-3.25 3.421875 -3.328125 8.859375zm52.999146 -17.390625q7.34375 0 11.46875 4.640625q4.140625 4.625 4.21875 13.09375l0 1.34375l-26.71875 0q0.4375 4.59375 3.46875 7.5625q3.03125 2.96875 7.421875 3.046875q6.703125 0 10.453125 -5.015625l4.171875 3.25q-2.609375 3.390625 -6.15625 5.125q-3.53125 1.71875 -8.46875 1.71875q-7.5625 0 -12.15625 -4.90625q-4.59375 -4.90625 -4.65625 -12.46875q0 -7.484375 4.6875 -12.359375q4.703125 -4.890625 12.265625 -5.03125zm9.75 14.421875q-0.21875 -4.3125 -2.796875 -6.8125q-2.578125 -2.515625 -7.234375 -2.515625q-4.25 0 -7.140625 2.40625q-2.890625 2.40625 -3.609375 6.921875l20.78125 0zm30.738037 -14.421875q6.21875 0 9.390625 3.609375q3.1875 3.609375 3.1875 9.609375l0 20.703125l-5.515625 0l0 -20.0625q0 -3.8125 -1.765625 -6.25q-1.765625 -2.4375 -5.796875 -2.515625q-5.09375 0 -7.671875 3.359375q-2.578125 3.359375 -2.578125 9.28125l0 16.1875l-5.5 0l0 -25.71875q0 -0.359375 -0.28125 -7.34375l5.21875 0q0.140625 4.9375 0.140625 5.4375l0.140625 0q1.34375 -2.828125 4.34375 -4.5625q3.015625 -1.734375 6.6875 -1.734375zm33.128662 0q7.921875 0.078125 11.234375 6.015625l-4.59375 3.03125q-2.390625 -3.953125 -6.984375 -3.953125q-2.765625 0 -4.640625 1.28125q-1.859375 1.265625 -1.859375 3.3125q0 3.3125 8.265625 4.796875q5.9375 1.0625 8.40625 3.46875q2.46875 2.40625 2.46875 6.4375q0 4.875 -3.609375 7.625q-3.59375 2.75 -9.609375 2.75q-4.65625 0 -7.65625 -1.484375q-3.0 -1.484375 -5.203125 -4.65625l4.390625 -3.390625q2.046875 2.46875 4.015625 3.46875q1.984375 0.984375 4.453125 0.984375q3.1875 0 5.234375 -1.375q2.046875 -1.390625 2.046875 -3.71875q0 -2.40625 -2.15625 -3.59375q-2.15625 -1.203125 -7.171875 -2.203125q-4.9375 -1.0625 -7.171875 -3.171875q-2.21875 -2.125 -2.21875 -5.875q0 -4.15625 3.421875 -6.90625q3.4375 -2.765625 8.9375 -2.84375zm35.052612 0q7.34375 0 11.46875 4.640625q4.140625 4.625 4.21875 13.09375l0 1.34375l-26.71875 0q0.4375 4.59375 3.46875 7.5625q3.03125 2.96875 7.421875 3.046875q6.703125 0 10.453125 -5.015625l4.171875 3.25q-2.609375 3.390625 -6.15625 5.125q-3.53125 1.71875 -8.46875 1.71875q-7.5625 0 -12.15625 -4.90625q-4.59375 -4.90625 -4.65625 -12.46875q0 -7.484375 4.6875 -12.359375q4.703125 -4.890625 12.265625 -5.03125zm9.75 14.421875q-0.21875 -4.3125 -2.796875 -6.8125q-2.578125 -2.515625 -7.234375 -2.515625q-4.25 0 -7.140625 2.40625q-2.890625 2.40625 -3.609375 6.921875l20.78125 0zm24.581787 -14.421875q7.921875 0.078125 11.234375 6.015625l-4.59375 3.03125q-2.390625 -3.953125 -6.984375 -3.953125q-2.765625 0 -4.640625 1.28125q-1.859375 1.265625 -1.859375 3.3125q0 3.3125 8.265625 4.796875q5.9375 1.0625 8.40625 3.46875q2.46875 2.40625 2.46875 6.4375q0 4.875 -3.609375 7.625q-3.59375 2.75 -9.609375 2.75q-4.65625 0 -7.65625 -1.484375q-3.0 -1.484375 -5.203125 -4.65625l4.390625 -3.390625q2.046875 2.46875 4.015625 3.46875q1.984375 0.984375 4.453125 0.984375q3.1875 0 5.234375 -1.375q2.046875 -1.390625 2.046875 -3.71875q0 -2.40625 -2.15625 -3.59375q-2.15625 -1.203125 -7.171875 -2.203125q-4.9375 -1.0625 -7.171875 -3.171875q-2.21875 -2.125 -2.21875 -5.875q0 -4.15625 3.421875 -6.90625q3.4375 -2.765625 8.9375 -2.84375z" fill-rule="nonzero"/><path fill="#ffffff" d="m420.0731 214.825l0 19.765625l19.75 0l0 5.71875l-19.75 0l0 19.749985l-5.71875 0l0 -19.749985l-19.765625 0l0 -5.71875l19.765625 0l0 -19.765625l5.71875 0z" fill-rule="nonzero"/><path fill="#ffffff" d="m242.21117 323.30872q7.90625 0 12.21875 3.21875q4.3125153 3.21875 4.3750153 9.078125q0 4.3125 -2.375 7.21875q-2.3593903 2.890625 -6.3750153 4.09375l0 0.140625q4.875 0.421875 8.07814 3.921875q3.21875 3.5 3.21875 8.375q0 6.640625 -5.015625 10.28125q-5.0156403 3.625 -14.26564 3.703125l-15.125 0l0 -50.03125l15.265625 0zm-0.859375 21.203125q5.453125 0 8.265625 -1.9375q2.828125 -1.953125 2.828125 -6.1875q0 -7.421875 -10.453125 -7.5625l-9.109375 0l0 15.6875l8.46875 0zm1.84375 23.3125q5.375 0 8.578125 -2.359375q3.21875 -2.375 3.21875 -6.328125q0 -4.515625 -3.1875 -6.8125q-3.171875 -2.296875 -8.6875 -2.296875l-10.234375 0l0 17.796875l10.3125 0zm32.7791 -27.546875l0 20.0625q0 3.8125 1.796875 6.25q1.8125 2.4375 5.765625 2.515625q5.09375 0 7.671875 -3.390625q2.578125 -3.390625 2.578125 -9.046875l0 -16.390625l5.515625 0l0 25.71875q0.0625 1.96875 0.28125 7.34375l-5.234375 0q-0.0625 -3.390625 -0.140625 -5.4375l-0.140625 0q-1.265625 2.75 -4.28125 4.515625q-3.0 1.765625 -6.8125 1.765625q-6.078125 -0.0625 -9.296875 -3.625q-3.203125 -3.578125 -3.203125 -9.578125l0 -20.703125l5.5 0zm48.269287 -21.203125q2.75 0 4.296875 0.84375l-0.765625 4.953125q-1.984375 -0.703125 -3.75 -0.703125q-3.46875 0 -4.703125 2.015625q-1.234375 2.0 -1.234375 6.671875l0 7.421875l8.0625 0l0 4.65625l-8.0625 0l0 28.40625l-5.5 0l0 -28.40625l-7.21875 0l0 -4.65625l7.21875 0l0 -7.5q0 -13.703125 11.65625 -13.703125zm20.98471 0q2.7500305 0 4.2969055 0.84375l-0.765625 4.953125q-1.9844055 -0.703125 -3.7500305 -0.703125q-3.46875 0 -4.703125 2.015625q-1.234375 2.0 -1.234375 6.671875l0 7.421875l8.0625 0l0 4.65625l-8.0625 0l0 28.40625l-5.5 0l0 -28.40625l-7.21875 0l0 -4.65625l7.21875 0l0 -7.5q0 -13.703125 11.65625 -13.703125zm22.819244 20.34375q7.34375 0 11.46875 4.640625q4.140625 4.625 4.21875 13.09375l0 1.34375l-26.71875 0q0.4375 4.59375 3.46875 7.5625q3.03125 2.96875 7.421875 3.046875q6.703125 0 10.453125 -5.015625l4.171875 3.25q-2.609375 3.390625 -6.15625 5.125q-3.53125 1.71875 -8.46875 1.71875q-7.5625 0 -12.15625 -4.90625q-4.59375 -4.90625 -4.65625 -12.46875q0 -7.484375 4.6875 -12.359375q4.703125 -4.890625 12.265625 -5.03125zm9.75 14.421875q-0.21875 -4.3125 -2.796875 -6.8125q-2.578125 -2.515625 -7.234375 -2.515625q-4.25 0 -7.140625 2.40625q-2.890625 2.40625 -3.609375 6.921875l20.78125 0zm30.738037 -14.421875q1.265625 0 2.25 0.359375l-0.34375 5.578125q-1.5625 -0.421875 -2.96875 -0.421875q-4.8125 0 -7.25 3.15625q-2.4375 3.140625 -2.4375 8.859375l0 16.390625l-5.5 0l0 -25.71875q0 -0.984375 -0.28125 -7.34375l5.21875 0q0.140625 4.9375 0.140625 5.4375l0.140625 0q1.34375 -2.828125 4.34375 -4.5625q3.015625 -1.734375 6.6875 -1.734375zm44.01346 0q7.703125 0 12.578125 4.78125q4.875 4.765625 5.09375 12.609375q0 7.5625 -4.953125 12.40625q-4.953125 4.828125 -12.71875 4.96875q-7.765625 0 -12.640625 -4.90625q-4.875 -4.90625 -5.015625 -12.46875q0 -7.640625 4.9375 -12.46875q4.953125 -4.84375 12.71875 -4.921875zm-11.734375 17.390625q0 5.4375 3.28125 8.796875q3.296875 3.359375 8.453125 3.5q5.15625 0 8.40625 -3.421875q3.25 -3.4375 3.328125 -8.875q0 -5.375 -3.296875 -8.828125q-3.28125 -3.46875 -8.5 -3.46875q-5.09375 0 -8.34375 3.4375q-3.25 3.421875 -3.328125 8.859375zm52.4386 -37.734375q2.75 0 4.296875 0.84375l-0.765625 4.953125q-1.984375 -0.703125 -3.75 -0.703125q-3.46875 0 -4.703125 2.015625q-1.234375 2.0 -1.234375 6.671875l0 7.421875l8.0625 0l0 4.65625l-8.0625 0l0 28.40625l-5.5 0l0 -28.40625l-7.21875 0l0 -4.65625l7.21875 0l0 -7.5q0 -13.703125 11.65625 -13.703125zm40.27417 -1.265625l3.390625 0l0 4.65625q4.234375 0 7.796875 1.53125q3.578125 1.515625 5.96875 4.125l-4.71875 4.3125q-3.40625 -4.390625 -9.046875 -4.453125l0 17.59375q8.125 2.328125 11.46875 5.65625q3.359375 3.3125 3.359375 8.6875q0 5.71875 -4.03125 9.6875q-4.015625 3.953125 -10.796875 4.578125l0 5.015625l-3.390625 0l0 -5.015625q-10.328125 0 -15.125 -6.5625l4.9375 -4.3125q1.421875 2.265625 4.3125 3.78125q2.90625 1.515625 5.875 1.59375l0 -17.953125q-7.21875 -1.90625 -10.609375 -5.4375q-3.390625 -3.53125 -3.390625 -8.90625q0 -5.296875 3.8125 -9.25q3.828125 -3.96875 10.1875 -4.671875l0 -4.65625zm-7.640625 18.65625q0 3.03125 1.90625 4.90625q1.90625 1.875 5.734375 3.28125l0 -16.671875q-3.609375 0.703125 -5.625 3.0q-2.015625 2.296875 -2.015625 5.484375zm11.03125 32.21875q3.8125 -0.5 6.140625 -2.859375q2.328125 -2.375 2.328125 -5.625q0 -3.046875 -1.984375 -5.125q-1.96875 -2.078125 -6.484375 -3.421875l0 17.03125zm51.284912 -45.375l0 5.515625l-20.40625 0l-0.21875 13.5q2.546875 -1.203125 6.4375 -1.203125q7.125 0 11.5 4.671875q4.390625 4.65625 4.453125 11.796875q0 7.34375 -4.875 11.9375q-4.875 4.59375 -12.28125 4.65625q-10.390625 0 -14.765625 -9.109375l5.921875 -2.265625q2.96875 6.15625 9.328125 6.296875q4.734375 0 7.734375 -3.25q3.015625 -3.25 3.015625 -8.265625q0 -5.171875 -3.328125 -8.265625q-3.3125 -3.109375 -9.046875 -3.109375q-4.9375 0 -10.171875 3.109375l0.5 -26.015625l26.203125 0zm25.441162 -0.84375q8.265625 0 12.609375 6.859375q4.34375 6.84375 4.34375 19.0q0 12.4375 -4.34375 19.078125q-4.34375 6.640625 -12.609375 6.78125q-8.265625 0 -12.578125 -6.84375q-4.3125 -6.859375 -4.375 -19.015625q0 -12.21875 4.34375 -19.0q4.34375 -6.78125 12.609375 -6.859375zm-11.015625 25.859375q0 10.171875 2.8125 15.484375q2.828125 5.296875 8.203125 5.296875q5.375 0 8.15625 -5.265625q2.796875 -5.265625 2.875 -15.515625q-0.078125 -20.625 -11.09375 -20.765625q-5.234375 0 -8.0625 5.1875q-2.828125 5.1875 -2.890625 15.578125zm50.300537 -25.859375q8.265625 0 12.609375 6.859375q4.34375 6.84375 4.34375 19.0q0 12.4375 -4.34375 19.078125q-4.34375 6.640625 -12.609375 6.78125q-8.265625 0 -12.578125 -6.84375q-4.3125 -6.859375 -4.375 -19.015625q0 -12.21875 4.34375 -19.0q4.34375 -6.78125 12.609375 -6.859375zm-11.015625 25.859375q0 10.171875 2.8125 15.484375q2.828125 5.296875 8.203125 5.296875q5.375 0 8.15625 -5.265625q2.796875 -5.265625 2.875 -15.515625q-0.078125 -20.625 -11.09375 -20.765625q-5.234375 0 -8.0625 5.1875q-2.828125 5.1875 -2.890625 15.578125zm91.56799 -9.25l-29.609375 11.09375l29.609375 10.953125l0 4.59375l-35.46875 -13.296875l0 -4.578125l35.46875 -13.359375l0 4.59375zm0 29.671875l0 4.171875l-35.46875 0l0 -4.171875l35.46875 0z" fill-rule="nonzero"/><path fill="#000000" fill-opacity="0.0" d="m930.0852 515.117l0 0c-8.514893 0.2816162 -16.82782 -1.8654785 -23.029663 -5.948181c-6.2018433 -4.0827026 -9.7595215 -9.750092 -9.855896 -15.700562l31.399536 -0.24795532z" fill-rule="evenodd"/><path fill="#000000" fill-opacity="0.0" d="m930.0852 515.117l0 0c-8.514893 0.2816162 -16.82782 -1.8654785 -23.029663 -5.948181c-6.2018433 -4.0827026 -9.7595215 -9.750092 -9.855896 -15.700562" fill-rule="evenodd"/><path stroke="#ffffff" stroke-width="2.0" stroke-linejoin="round" stroke-linecap="butt" d="m930.0852 515.117l0 0c-8.514893 0.2816162 -16.82782 -1.8654785 -23.029663 -5.948181c-6.2018433 -4.0827026 -9.7595215 -9.750092 -9.855896 -15.700562" fill-rule="evenodd"/><path fill="#000000" fill-opacity="0.0" d="m891.86096 492.13654l0.1574707 31.968506" fill-rule="evenodd"/><path stroke="#ffffff" stroke-width="2.0" stroke-linejoin="round" stroke-linecap="butt" d="m891.86096 492.13654l0.1574707 31.968506" fill-rule="evenodd"/><path fill="#000000" fill-opacity="0.0" d="m891.86096 522.99115l40.125977 0.28344727" fill-rule="evenodd"/><path stroke="#ffffff" stroke-width="2.0" stroke-linejoin="round" stroke-linecap="butt" d="m891.86096 522.99115l40.125977 0.28344727" fill-rule="evenodd"/></g></svg>