<svg version="1.1" viewBox="0.0 0.0 960.0 540.0" fill="none" stroke="none" stroke-linecap="square" stroke-miterlimit="10" xmlns:xlink="http://www.w3.org/1999/xlink" xmlns="http://www.w3.org/2000/svg"><clipPath id="g883a9f9e80_0_4.0"><path d="m0 0l960.0 0l0 540.0l-960.0 0l0 -540.0z" clip-rule="nonzero"/></clipPath><g clip-path="url(#g883a9f9e80_0_4.0)"><path fill="#212121" d="m0 0l960.0 0l0 540.0l-960.0 0z" fill-rule="evenodd"/><path fill="#000000" fill-opacity="0.0" d="m145.91339 116.249344l710.3622 0l0 338.17322l-710.3622 0z" fill-rule="evenodd"/><path fill="#ffffff" d="m169.33527 118.45658q5.140625 0 8.3125 2.765625q3.171875 2.765625 3.234375 7.2968674q0 3.0 -1.8125 5.46875q-1.796875 2.453125 -4.8125 3.4375l0 0.109375q3.5625 0.65625 5.75 3.3125q2.1875 2.65625 2.1875 6.421875q0 5.140625 -3.53125 8.140625q-3.53125 3.0 -9.265625 3.0625q-9.5625 -0.0625 -12.46875 -8.140625l4.65625 -1.53125q0.921875 2.953125 2.71875 4.34375q1.8125 1.390625 5.09375 1.390625q3.390625 0 5.625 -2.203125q2.25 -2.21875 2.25 -5.390625q0 -3.5 -2.5 -5.484375q-2.484375 -2.0 -7.5625 -2.0l-1.140625 0l0 -3.9375l1.640625 0q8.578125 0 8.578125 -6.71875q0 -2.8437424 -1.84375 -4.6249924q-1.828125 -1.78125 -4.78125 -1.78125q-5.015625 0 -7.09375 4.328125l-4.4375 -1.703125q1.375 -3.171875 4.328125 -4.859375q2.953125 -1.703125 6.875 -1.703125zm31.763885 24.281242l0 3.921875l-13.390625 0l0 -3.921875l13.390625 0zm23.934906 -23.624992l-10.375 16.124992l0.109375 0.109375q2.1875 -1.140625 5.1875 -1.140625q5.140625 0 8.390625 3.453125q3.25 3.4375 3.296875 8.671875q0 5.359375 -3.609375 8.71875q-3.59375 3.359375 -9.34375 3.421875q-5.734375 0 -9.34375 -3.40625q-3.609375 -3.421875 -3.609375 -8.734375q0 -2.671875 0.796875 -5.15625q0.796875 -2.484375 2.875 -5.71875l10.265625 -16.343742l5.359375 0zm-14.703125 27.218742q0.0625 3.609375 2.359375 5.890625q2.296875 2.265625 6.0 2.3125q3.671875 0 5.984375 -2.296875q2.328125 -2.296875 2.390625 -5.90625q0 -3.703125 -2.4375 -5.9375q-2.4375 -2.25 -5.984375 -2.25q-3.609375 0 -5.96875 2.328125q-2.34375 2.3125 -2.34375 5.859375zm50.395813 -27.218742l13.125 30.343742l0.109375 0l13.21875 -30.343742l6.671875 0l0 38.703117l-4.59375 0l0 -32.468742l-0.109375 0l-13.875 32.468742l-2.796875 0l-13.875 -32.468742l-0.109375 0l0 32.468742l-4.5937347 0l0 -38.703117l6.8281097 0zm54.166992 12.468742q5.953125 0 9.71875 3.6875q3.78125 3.6875 3.9375 9.75q0 5.859375 -3.828125 9.609375q-3.8125 3.734375 -9.828125 3.84375q-6.015625 0 -9.796875 -3.796875q-3.765625 -3.796875 -3.875 -9.65625q0 -5.890625 3.828125 -9.640625q3.828125 -3.75 9.84375 -3.796875zm-9.078125 13.4375q0 4.21875 2.546875 6.8125q2.546875 2.59375 6.53125 2.703125q3.984375 0 6.5 -2.640625q2.515625 -2.65625 2.578125 -6.875q0 -4.140625 -2.546875 -6.8125q-2.546875 -2.6875 -6.59375 -2.6875q-3.921875 0 -6.4375 2.65625q-2.515625 2.640625 -2.578125 6.84375zm41.918945 -13.4375q4.8125 0 7.265625 2.796875q2.46875 2.78125 2.46875 7.421875l0 16.015625l-4.265625 0l0 -15.515625q0 -2.953125 -1.375 -4.84375q-1.359375 -1.890625 -4.46875 -1.9375q-3.9375 0 -5.9375 2.59375q-1.984375 2.59375 -1.984375 7.1875l0 12.515625l-4.265625 0l0 -19.890625q0 -0.28125 -0.21875 -5.6875l4.046875 0q0.109375 3.828125 0.109375 4.203125l0.109375 0q1.03125 -2.1875 3.34375 -3.515625q2.328125 -1.34375 5.171875 -1.34375zm24.27951 -6.6093674l0 7.2656174l7.53125 0l0 3.609375l-7.53125 0l0 13.65625q0 3.0625 0.984375 4.046875q0.984375 0.984375 2.828125 0.984375q2.140625 0 3.78125 -0.875l0.15625 3.890625q-2.1875 0.921875 -4.96875 0.921875q-3.9375 0 -5.5 -1.9375q-1.546875 -1.9375 -1.546875 -6.375l0 -14.3125l-5.578125 0l0 -3.609375l5.578125 0l0 -7.2656174l4.265625 0zm17.051514 -8.46875l0 19.281242l0.109375 0q1.140625 -1.90625 3.375 -3.046875q2.25 -1.15625 4.875 -1.15625q4.8125 0 7.234375 2.796875q2.4375 2.78125 2.4375 7.421875l0 16.015625l-4.265625 0l0 -15.515625q0 -2.953125 -1.375 -4.84375q-1.359375 -1.890625 -4.46875 -1.9375q-3.9375 0 -5.9375 2.59375q-1.984375 2.59375 -1.984375 7.015625l0 12.6875l-4.265625 0l0 -41.312492l4.265625 0zm33.93576 15.078117q6.125 0.046875 8.6875 4.640625l-3.546875 2.359375q-1.859375 -3.0625 -5.40625 -3.0625q-2.140625 0 -3.59375 0.984375q-1.4375 0.984375 -1.4375 2.5625q0 2.578125 6.390625 3.71875q4.59375 0.828125 6.5 2.6875q1.921875 1.84375 1.921875 4.96875q0 3.765625 -2.796875 5.90625q-2.78125 2.125 -7.421875 2.125q-3.609375 0 -5.9375 -1.140625q-2.328125 -1.15625 -4.015625 -3.609375l3.390625 -2.625q1.578125 1.90625 3.109375 2.671875q1.53125 0.765625 3.453125 0.765625q2.453125 0 4.03125 -1.0625q1.59375 -1.0625 1.59375 -2.875q0 -1.859375 -1.671875 -2.78125q-1.65625 -0.9375 -5.546875 -1.703125q-3.828125 -0.8125 -5.546875 -2.453125q-1.71875 -1.640625 -1.71875 -4.53125q0 -3.234375 2.640625 -5.359375q2.65625 -2.140625 6.921875 -2.1875zm23.34607 -12.468742l-4.484375 13.124992l-4.15625 0l3.65625 -13.124992l4.984375 0zm34.701416 12.468742q5.953125 0 9.71875 3.6875q3.78125 3.6875 3.9375 9.75q0 5.859375 -3.828125 9.609375q-3.8125 3.734375 -9.828125 3.84375q-6.015625 0 -9.796875 -3.796875q-3.765625 -3.796875 -3.875 -9.65625q0 -5.890625 3.828125 -9.640625q3.828125 -3.75 9.84375 -3.796875zm-9.078125 13.4375q0 4.21875 2.546875 6.8125q2.546875 2.59375 6.53125 2.703125q3.984375 0 6.5 -2.640625q2.515625 -2.65625 2.578125 -6.875q0 -4.140625 -2.546875 -6.8125q-2.546875 -2.6875 -6.59375 -2.6875q-3.921875 0 -6.4375 2.65625q-2.515625 2.640625 -2.578125 6.84375zm40.55957 -29.171867q2.125 0 3.328125 0.65625l-0.59375 3.8125q-1.53125 -0.546875 -2.90625 -0.546875q-2.671875 0 -3.625 1.5625q-0.953125 1.5625 -0.953125 5.171875l0 5.7343674l6.21875 0l0 3.609375l-6.21875 0l0 21.96875l-4.265625 0l0 -21.96875l-5.578125 0l0 -3.609375l5.578125 0l0 -5.7968674q0 -10.59375 9.015625 -10.59375zm46.286194 3.265625l0 4.265625l-19.71875 0l0 12.140617l18.40625 0l0 4.265625l-18.40625 0l0 13.765625l20.703125 0l0 4.265625l-25.296875 0l0 -38.703117l24.3125 0zm10.333008 13.124992l6.78125 9.1875l6.390625 -9.1875l5.203125 0l-8.8125 11.8125l10.5625 13.765625l-5.640625 0l-8.078125 -11.046875l-7.984375 11.046875l-5.3125 0l10.5 -13.765625l-9.1875 -11.8125l5.578125 0zm37.65631 -0.65625q6.078125 0 9.734375 3.828125q3.65625 3.828125 3.71875 9.609375q0 5.75 -3.71875 9.546875q-3.71875 3.796875 -9.078125 3.90625q-3.28125 0 -5.9375 -1.421875q-2.640625 -1.421875 -3.890625 -3.765625l-0.109375 0l0 17.0l-4.265625 0l0 -38.046875l4.265625 0l0 3.71875l0.109375 0q3.765625 -4.375 9.171875 -4.375zm-9.28125 13.4375q0 4.21875 2.53125 6.8125q2.546875 2.59375 6.53125 2.703125q4.0 0 6.515625 -2.640625q2.515625 -2.65625 2.5625 -6.875q0 -4.140625 -2.546875 -6.8125q-2.53125 -2.6875 -6.578125 -2.6875q-3.9375 0 -6.453125 2.65625q-2.515625 2.640625 -2.5625 6.84375zm40.98871 -13.4375q5.6875 0 8.875 3.578125q3.203125 3.578125 3.25 10.140625l0 1.03125l-20.65625 0q0.328125 3.5625 2.671875 5.859375q2.359375 2.296875 5.75 2.34375q5.1875 0 8.09375 -3.875l3.21875 2.515625q-2.015625 2.625 -4.75 3.96875q-2.734375 1.328125 -6.5625 1.328125q-5.84375 0 -9.40625 -3.796875q-3.546875 -3.796875 -3.609375 -9.65625q0 -5.78125 3.640625 -9.546875q3.640625 -3.78125 9.484375 -3.890625zm7.546875 11.15625q-0.171875 -3.34375 -2.171875 -5.28125q-1.984375 -1.9375 -5.59375 -1.9375q-3.28125 0 -5.53125 1.859375q-2.234375 1.859375 -2.78125 5.359375l16.078125 0zm23.763916 -11.15625q4.8125 0 7.265625 2.796875q2.46875 2.78125 2.46875 7.421875l0 16.015625l-4.265625 0l0 -15.515625q0 -2.953125 -1.375 -4.84375q-1.359375 -1.890625 -4.46875 -1.9375q-3.9375 0 -5.9375 2.59375q-1.984375 2.59375 -1.984375 7.1875l0 12.515625l-4.265686 0l0 -19.890625q0 -0.28125 -0.21875 -5.6875l4.046936 0q0.109375 3.828125 0.109375 4.203125l0.109375 0q1.03125 -2.1875 3.34375 -3.515625q2.328125 -1.34375 5.171875 -1.34375zm25.638855 0q6.125 0.046875 8.6875 4.640625l-3.546875 2.359375q-1.859375 -3.0625 -5.40625 -3.0625q-2.140625 0 -3.59375 0.984375q-1.4375 0.984375 -1.4375 2.5625q0 2.578125 6.390625 3.71875q4.59375 0.828125 6.5 2.6875q1.921875 1.84375 1.921875 4.96875q0 3.765625 -2.796875 5.90625q-2.78125 2.125 -7.421875 2.125q-3.609375 0 -5.9375 -1.140625q-2.328125 -1.15625 -4.015625 -3.609375l3.390625 -2.625q1.578125 1.90625 3.109375 2.671875q1.53125 0.765625 3.453125 0.765625q2.453125 0 4.03125 -1.0625q1.59375 -1.0625 1.59375 -2.875q0 -1.859375 -1.671875 -2.78125q-1.65625 -0.9375 -5.546875 -1.703125q-3.828125 -0.8125 -5.546875 -2.453125q-1.71875 -1.640625 -1.71875 -4.53125q0 -3.234375 2.640625 -5.359375q2.65625 -2.140625 6.921875 -2.1875zm27.111694 0q5.6875 0 8.875 3.578125q3.203125 3.578125 3.25 10.140625l0 1.03125l-20.65625 0q0.328125 3.5625 2.671875 5.859375q2.359375 2.296875 5.75 2.34375q5.1875 0 8.09375 -3.875l3.21875 2.515625q-2.015625 2.625 -4.75 3.96875q-2.734375 1.328125 -6.5625 1.328125q-5.84375 0 -9.40625 -3.796875q-3.546875 -3.796875 -3.609375 -9.65625q0 -5.78125 3.640625 -9.546875q3.640625 -3.78125 9.484375 -3.890625zm7.546875 11.15625q-0.171875 -3.34375 -2.171875 -5.28125q-1.984375 -1.9375 -5.59375 -1.9375q-3.28125 0 -5.53125 1.859375q-2.234375 1.859375 -2.78125 5.359375l16.078125 0zm19.013855 -11.15625q6.125 0.046875 8.6875 4.640625l-3.546875 2.359375q-1.859375 -3.0625 -5.40625 -3.0625q-2.140625 0 -3.59375 0.984375q-1.4375 0.984375 -1.4375 2.5625q0 2.578125 6.390625 3.71875q4.59375 0.828125 6.5 2.6875q1.921875 1.84375 1.921875 4.96875q0 3.765625 -2.796875 5.90625q-2.78125 2.125 -7.421875 2.125q-3.609375 0 -5.9375 -1.140625q-2.328125 -1.15625 -4.015625 -3.609375l3.390625 -2.625q1.578125 1.90625 3.109375 2.671875q1.53125 0.765625 3.453125 0.765625q2.453125 0 4.03125 -1.0625q1.59375 -1.0625 1.59375 -2.875q0 -1.859375 -1.671875 -2.78125q-1.65625 -0.9375 -5.546875 -1.703125q-3.828125 -0.8125 -5.546875 -2.453125q-1.71875 -1.640625 -1.71875 -4.53125q0 -3.234375 2.640625 -5.359375q2.65625 -2.140625 6.921875 -2.1875z" fill-rule="nonzero"/><path fill="#ffffff" d="m174.58527 239.11284l0 38.70311l-4.59375 0l0 -32.79686l-0.109375 0l-6.9375 5.84375l-2.734375 -3.328125l10.390625 -8.421875l3.984375 0zm31.270828 0l10.875 17.499985l11.203125 -17.499985l5.515625 0l-14.421875 22.031235l0 16.671875l-4.59375 0l0 -16.671875l-14.421875 -22.031235l5.84375 0zm36.725952 12.46875q5.6875 0 8.875 3.578125q3.203125 3.5781097 3.25 10.14061l0 1.03125l-20.65625 0q0.328125 3.5625 2.671875 5.859375q2.359375 2.296875 5.75 2.34375q5.1875 0 8.09375 -3.875l3.21875 2.515625q-2.015625 2.625 -4.75 3.96875q-2.734375 1.328125 -6.5625 1.328125q-5.84375 0 -9.40625 -3.796875q-3.546875 -3.796875 -3.609375 -9.65625q0 -5.78125 3.640625 -9.54686q3.640625 -3.78125 9.484375 -3.890625zm7.546875 11.156235q-0.171875 -3.34375 -2.171875 -5.28125q-1.984375 -1.9374847 -5.59375 -1.9374847q-3.28125 0 -5.53125 1.8593597q-2.234375 1.859375 -2.78125 5.359375l16.078125 0zm21.029495 -11.156235q5.578125 0 8.125 2.625q2.546875 2.6249847 2.59375 7.9218597l0 11.484375q0 1.640625 0.390625 4.203125l-4.109375 0q-0.265625 -0.484375 -0.265625 -3.828125l-0.109375 0q-2.90625 4.375 -8.421875 4.484375q-4.203125 0 -6.859375 -2.09375q-2.65625 -2.109375 -2.65625 -5.5q0 -4.65625 3.828125 -6.8125q3.828125 -2.15625 11.96875 -2.15625l1.96875 0l0 -0.703125q0 -5.5781097 -6.34375 -5.6874847q-4.578125 0 -7.59375 2.7812347l-2.671875 -2.7812347q3.9375 -3.828125 10.15625 -3.9375zm-6.71875 18.85936q0 4.3125 5.640625 4.421875q3.328125 0 5.421875 -2.125q2.109375 -2.140625 2.109375 -6.234375l0 -0.984375l-4.703125 0q-3.765625 0 -6.09375 1.203125q-2.3125 1.203125 -2.375 3.71875zm37.819733 -18.85936q0.984375 0 1.75 0.265625l-0.265625 4.3281097q-1.203125 -0.32810974 -2.296875 -0.32810974q-3.71875 0 -5.609375 2.4374847q-1.875 2.421875 -1.875 6.84375l0 12.6875l-4.265625 0l0 -19.890625q0 -0.765625 -0.21875 -5.6874847l4.046875 0q0.109375 3.8281097 0.109375 4.2031097l0.109375 0q1.03125 -2.1874847 3.34375 -3.5156097q2.328125 -1.34375 5.171875 -1.34375zm34.05847 0q5.953125 0 9.71875 3.6875q3.78125 3.6874847 3.9375 9.749985q0 5.859375 -3.828125 9.609375q-3.8125 3.734375 -9.828125 3.84375q-6.015625 0 -9.796875 -3.796875q-3.765625 -3.796875 -3.875 -9.65625q0 -5.890625 3.828125 -9.64061q3.828125 -3.75 9.84375 -3.796875zm-9.078125 13.437485q0 4.21875 2.546875 6.8125q2.546875 2.59375 6.53125 2.703125q3.984375 0 6.5 -2.640625q2.515625 -2.65625 2.578125 -6.875q0 -4.140625 -2.546875 -6.8125q-2.546875 -2.6874847 -6.59375 -2.6874847q-3.921875 0 -6.4375 2.6562347q-2.515625 2.640625 -2.578125 6.84375zm40.55957 -29.17186q2.125 0 3.328125 0.65625l-0.59375 3.8125q-1.53125 -0.546875 -2.90625 -0.546875q-2.671875 0 -3.625 1.5625q-0.953125 1.5625 -0.953125 5.171875l0 5.734375l6.21875 0l0 3.609375l-6.21875 0l0 21.968735l-4.265625 0l0 -21.968735l-5.578125 0l0 -3.609375l5.578125 0l0 -5.796875q0 -10.59375 9.015625 -10.59375zm26.567413 3.265625l0 38.70311l-4.59375 0l0 -38.70311l4.59375 0zm21.413757 12.46875q4.8125 0 7.265625 2.796875q2.46875 2.7812347 2.46875 7.4218597l0 16.015625l-4.265625 0l0 -15.515625q0 -2.953125 -1.375 -4.84375q-1.359375 -1.8906097 -4.46875 -1.9374847q-3.9375 0 -5.9375 2.5937347q-1.984375 2.59375 -1.984375 7.1875l0 12.515625l-4.265625 0l0 -19.890625q0 -0.28125 -0.21875 -5.6874847l4.046875 0q0.109375 3.8281097 0.109375 4.2031097l0.109375 0q1.03125 -2.1874847 3.34375 -3.5156097q2.328125 -1.34375 5.171875 -1.34375zm29.62326 0q6.078125 0 9.796875 4.046875l-3.390625 2.9999847q-2.578125 -3.1093597 -6.453125 -3.1093597q-3.984375 0 -6.3125 2.5937347q-2.328125 2.59375 -2.328125 6.90625q0 4.109375 2.484375 6.796875q2.5 2.671875 6.15625 2.71875q4.203125 0 6.5 -3.171875l3.171875 3.015625q-3.546875 4.03125 -9.671875 4.09375q-5.84375 -0.0625 -9.484375 -3.71875q-3.640625 -3.65625 -3.75 -9.734375q0.0625 -6.109375 3.828125 -9.76561q3.78125 -3.671875 9.453125 -3.671875zm26.734924 0q5.953125 0 9.71875 3.6875q3.78125 3.6874847 3.9375 9.749985q0 5.859375 -3.828125 9.609375q-3.8125 3.734375 -9.828125 3.84375q-6.015625 0 -9.796875 -3.796875q-3.765625 -3.796875 -3.875 -9.65625q0 -5.890625 3.828125 -9.64061q3.828125 -3.75 9.84375 -3.796875zm-9.078125 13.437485q0 4.21875 2.546875 6.8125q2.546875 2.59375 6.53125 2.703125q3.984375 0 6.5 -2.640625q2.515625 -2.65625 2.578125 -6.875q0 -4.140625 -2.546875 -6.8125q-2.546875 -2.6874847 -6.59375 -2.6874847q-3.921875 0 -6.4375 2.6562347q-2.515625 2.640625 -2.578125 6.84375zm41.981445 -13.437485q5.84375 0 8.03125 4.8593597q1.53125 -2.5156097 3.4375 -3.6874847q1.921875 -1.171875 4.703125 -1.171875q4.984375 0 7.328125 2.59375q2.34375 2.5937347 2.34375 7.8437347l0 15.796875l-4.25 0l0 -15.46875q0 -6.7187347 -6.234375 -6.8281097q-2.90625 0 -4.765625 2.1562347q-1.84375 2.15625 -1.84375 5.21875l0 14.921875l-4.265625 0l0 -14.8125q0 -3.765625 -1.09375 -5.625q-1.09375 -1.8593597 -3.890625 -1.8593597q-3.875 0 -5.875 2.5937347q-1.984375 2.59375 -1.984375 7.1875l0 12.515625l-4.265625 0l0 -19.890625q-0.0625 -1.921875 -0.21875 -5.6874847l4.046875 0q0.109375 3.7656097 0.109375 4.2031097l0.109375 0q1.03125 -2.1874847 3.328125 -3.5156097q2.296875 -1.34375 5.25 -1.34375zm45.582764 0q5.6875 0 8.875 3.578125q3.203125 3.5781097 3.25 10.14061l0 1.03125l-20.65625 0q0.328125 3.5625 2.671875 5.859375q2.359375 2.296875 5.75 2.34375q5.1875 0 8.09375 -3.875l3.21875 2.515625q-2.015625 2.625 -4.75 3.96875q-2.734375 1.328125 -6.5625 1.328125q-5.84375 0 -9.40625 -3.796875q-3.546875 -3.796875 -3.609375 -9.65625q0 -5.78125 3.640625 -9.54686q3.640625 -3.78125 9.484375 -3.890625zm7.546875 11.156235q-0.171875 -3.34375 -2.171875 -5.28125q-1.984375 -1.9374847 -5.59375 -1.9374847q-3.28125 0 -5.53125 1.8593597q-2.234375 1.859375 -2.78125 5.359375l16.078125 0z" fill-rule="nonzero"/><path fill="#ffffff" d="m174.58527 359.11282l0 38.703125l-4.59375 0l0 -32.796875l-0.109375 0l-6.9375 5.84375l-2.734375 -3.328125l10.390625 -8.421875l3.984375 0zm25.90451 -0.65625q6.40625 0 9.765625 5.3125q3.359375 5.296875 3.359375 14.703125q0 9.609375 -3.359375 14.75q-3.359375 5.140625 -9.765625 5.25q-6.390625 0 -9.734375 -5.296875q-3.328125 -5.3125 -3.375 -14.703125q0 -9.453125 3.359375 -14.703125q3.359375 -5.25 9.75 -5.3125zm-8.515625 20.015625q0 7.859375 2.1875 11.96875q2.1875 4.09375 6.328125 4.09375q4.15625 0 6.3125 -4.0625q2.171875 -4.078125 2.21875 -12.0q-0.046875 -15.96875 -8.578125 -16.078125q-4.046875 0 -6.234375 4.03125q-2.1875 4.015625 -2.234375 12.046875zm33.12326 -19.359375l0 16.734375l0.65625 0l17.59375 -16.734375l6.609375 0l-19.125 17.65625l20.0625 21.046875l-6.734375 0l-18.40625 -19.671875l-0.65625 0l0 19.671875l-4.59375 0l0 -38.703125l4.59375 0zm41.636566 -2.296875l3.453125 1.3125l-16.453125 42.03125l-3.453125 -1.359375l16.453125 -41.984375zm25.316559 2.296875l16.453125 38.703125l-5.359375 0l-3.9375 -9.515625l-19.34375 0l-4.0 9.515625l-5.1875 0l17.046875 -38.703125l4.328125 0zm-2.359375 5.90625l-8.03125 19.03125l15.796875 0l-7.65625 -19.03125l-0.109375 0zm48.696777 -8.515625l0 41.3125l-4.25 0l0 -4.53125l-0.109375 0q-1.3125 2.453125 -4.0 3.828125q-2.671875 1.359375 -5.84375 1.359375q-5.40625 0 -9.046875 -3.84375q-3.640625 -3.859375 -3.75 -9.609375q0 -5.84375 3.75 -9.609375q3.75 -3.78125 9.703125 -3.828125q5.515625 0 9.1875 4.375l0.109375 0l0 -19.453125l4.25 0zm-22.40625 28.515625q0 4.21875 2.546875 6.84375q2.546875 2.625 6.53125 2.671875q3.984375 0 6.46875 -2.625q2.5 -2.625 2.609375 -6.890625q0 -4.140625 -2.546875 -6.8125q-2.546875 -2.6875 -6.59375 -2.6875q-3.921875 0 -6.421875 2.65625q-2.484375 2.640625 -2.59375 6.84375zm34.55121 -12.78125l0 15.515625q0 2.953125 1.390625 4.84375q1.390625 1.890625 4.453125 1.9375q3.9375 0 5.921875 -2.625q2.0 -2.625 2.0 -7.0l0 -12.671875l4.265625 0l0 19.890625q0.0625 1.53125 0.21875 5.6875l-4.046875 0q-0.046875 -2.625 -0.109375 -4.203125l-0.109375 0q-0.984375 2.125 -3.3125 3.5q-2.3125 1.359375 -5.265625 1.359375q-4.703125 -0.0625 -7.1875 -2.8125q-2.484375 -2.765625 -2.484375 -7.40625l0 -16.015625l4.265625 0zm30.763885 -15.734375l0 41.3125l-4.265625 0l0 -41.3125l4.265625 0zm14.930023 8.46875l0 7.265625l7.53125 0l0 3.609375l-7.53125 0l0 13.65625q0 3.0625 0.984375 4.046875q0.984375 0.984375 2.828125 0.984375q2.140625 0 3.78125 -0.875l0.15625 3.890625q-2.1875 0.921875 -4.96875 0.921875q-3.9375 0 -5.5 -1.9375q-1.546875 -1.9375 -1.546875 -6.375l0 -14.3125l-5.578125 0l0 -3.609375l5.578125 0l0 -7.265625l4.265625 0zm43.93347 2.015625l0 12.46875l12.46875 0l0 3.609375l-12.46875 0l0 12.453125l-3.609375 0l0 -12.453125l-12.453125 0l0 -3.609375l12.453125 0l0 -12.46875l3.609375 0zm57.50177 -7.875l0 4.265625l-15.796875 0l-0.15625 10.4375q1.96875 -0.921875 4.96875 -0.921875q5.515625 0 8.90625 3.609375q3.390625 3.609375 3.453125 9.125q0 5.6875 -3.78125 9.234375q-3.765625 3.546875 -9.515625 3.609375q-8.03125 0 -11.421875 -7.046875l4.59375 -1.75q2.296875 4.75 7.21875 4.859375q3.65625 0 5.984375 -2.515625q2.328125 -2.515625 2.328125 -6.390625q0 -3.984375 -2.578125 -6.390625q-2.5625 -2.40625 -6.984375 -2.40625q-3.828125 0 -7.875 2.40625l0.375 -20.125l20.28125 0zm13.8888855 0l0 16.734375l0.6562195 0l17.59375 -16.734375l6.609375 0l-19.125 17.65625l20.0625 21.046875l-6.734375 0l-18.40625 -19.671875l-0.6562195 0l0 19.671875l-4.59375 0l0 -38.703125l4.59375 0zm41.636566 -2.296875l3.453125 1.3125l-16.453125 42.03125l-3.453125 -1.359375l16.453125 -41.984375zm25.863464 1.3125q4.53125 0 8.03125 1.625q3.5 1.609375 5.625 4.453125l-3.984375 2.890625q-1.75 -2.34375 -4.328125 -3.515625q-2.5625 -1.1875 -5.34375 -1.1875q-6.1875 0 -10.421875 4.703125q-4.234375 4.703125 -4.34375 11.375q0 6.875 4.203125 11.453125q4.21875 4.5625 10.5625 4.609375q6.9375 0 11.203125 -5.40625l3.4375 2.890625q-5.078125 6.78125 -14.640625 6.78125q-8.484375 0 -14.03125 -5.84375q-5.546875 -5.859375 -5.65625 -14.484375q0 -8.640625 5.59375 -14.4375q5.609375 -5.796875 14.09375 -5.90625zm24.540527 -1.625l0 19.28125l0.109375 0q1.140625 -1.90625 3.375 -3.046875q2.25 -1.15625 4.875 -1.15625q4.8125 0 7.234375 2.796875q2.4375 2.78125 2.4375 7.421875l0 16.015625l-4.265625 0l0 -15.515625q0 -2.953125 -1.375 -4.84375q-1.359375 -1.890625 -4.46875 -1.9375q-3.9375 0 -5.9375 2.59375q-1.984375 2.59375 -1.984375 7.015625l0 12.6875l-4.265625 0l0 -41.3125l4.265625 0zm28.638855 2.609375q1.25 0 2.171875 0.90625q0.9375 0.90625 0.9375 2.21875q0 1.359375 -0.875 2.234375q-0.875 0.875 -2.234375 0.875q-1.375 0 -2.25 -0.875q-0.875 -0.875 -0.875 -2.234375q0 -1.3125 0.921875 -2.21875q0.9375 -0.90625 2.203125 -0.90625zm2.125 13.125l0 25.578125l-4.265625 0l0 -25.578125l4.265625 0zm13.117554 -15.734375l0 41.3125l-4.265625 0l0 -41.3125l4.265625 0zm33.992493 0l0 41.3125l-4.25 0l0 -4.53125l-0.109375 0q-1.3125 2.453125 -4.0 3.828125q-2.671875 1.359375 -5.84375 1.359375q-5.40625 0 -9.046875 -3.84375q-3.640625 -3.859375 -3.75 -9.609375q0 -5.84375 3.75 -9.609375q3.75 -3.78125 9.703125 -3.828125q5.515625 0 9.1875 4.375l0.109375 0l0 -19.453125l4.25 0zm-22.40625 28.515625q0 4.21875 2.546875 6.84375q2.546875 2.625 6.53125 2.671875q3.984375 0 6.46875 -2.625q2.5 -2.625 2.609375 -6.890625q0 -4.140625 -2.546875 -6.8125q-2.546875 -2.6875 -6.59375 -2.6875q-3.921875 0 -6.421875 2.65625q-2.484375 2.640625 -2.59375 6.84375zm55.370667 -25.03125q-6.890625 9.625 -7.0 22.09375q0 6.0 1.421875 10.8125q1.421875 4.8125 5.578125 11.375l-2.953125 2.078125q-3.875 -5.421875 -5.9375 -11.84375q-2.046875 -6.421875 -2.046875 -12.484375q0 -13.28125 7.984375 -24.21875l2.953125 2.1875zm17.819458 -0.875q6.234375 0 9.703125 2.6875q3.46875 2.671875 3.578125 7.921875q0 5.078125 -3.390625 7.84375q-3.390625 2.765625 -9.078125 2.875l-7.96875 0l0 17.375l-4.59375 0l0 -38.703125l11.75 0zm0.8125 17.0625q3.5 0 5.515625 -1.6875q2.03125 -1.703125 2.03125 -4.703125q0 -3.015625 -2.0 -4.703125q-1.984375 -1.703125 -5.546875 -1.703125l-7.96875 0l0 12.796875l7.96875 0zm30.723694 -4.59375q5.6875 0 8.875 3.578125q3.203125 3.578125 3.25 10.140625l0 1.03125l-20.65625 0q0.328125 3.5625 2.671875 5.859375q2.359375 2.296875 5.75 2.34375q5.1875 0 8.09375 -3.875l3.21875 2.515625q-2.015625 2.625 -4.75 3.96875q-2.734375 1.328125 -6.5625 1.328125q-5.84375 0 -9.40625 -3.796875q-3.546875 -3.796875 -3.609375 -9.65625q0 -5.78125 3.640625 -9.546875q3.640625 -3.78125 9.484375 -3.890625zm7.546875 11.15625q-0.171875 -3.34375 -2.171875 -5.28125q-1.984375 -1.9375 -5.59375 -1.9375q-3.28125 0 -5.53125 1.859375q-2.234375 1.859375 -2.78125 5.359375l16.078125 0zm17.654541 -17.765625l0 7.265625l7.53125 0l0 3.609375l-7.53125 0l0 13.65625q0 3.0625 0.984375 4.046875q0.984375 0.984375 2.828125 0.984375q2.140625 0 3.78125 -0.875l0.15625 3.890625q-2.1875 0.921875 -4.96875 0.921875q-3.9375 0 -5.5 -1.9375q-1.546875 -1.9375 -1.546875 -6.375l0 -14.3125l-5.578125 0l0 -3.609375l5.578125 0l0 -7.265625l4.265625 0zm20.598389 6.609375q6.125 0.046875 8.6875 4.640625l-3.546875 2.359375q-1.859375 -3.0625 -5.40625 -3.0625q-2.140625 0 -3.59375 0.984375q-1.4375 0.984375 -1.4375 2.5625q0 2.578125 6.390625 3.71875q4.59375 0.828125 6.5 2.6875q1.921875 1.84375 1.921875 4.96875q0 3.765625 -2.796875 5.90625q-2.78125 2.125 -7.421875 2.125q-3.609375 0 -5.9375 -1.140625q-2.328125 -1.15625 -4.015625 -3.609375l3.390625 -2.625q1.578125 1.90625 3.109375 2.671875q1.53125 0.765625 3.453125 0.765625q2.453125 0 4.03125 -1.0625q1.59375 -1.0625 1.59375 -2.875q0 -1.859375 -1.671875 -2.78125q-1.65625 -0.9375 -5.546875 -1.703125q-3.828125 -0.8125 -5.546875 -2.453125q-1.71875 -1.640625 -1.71875 -4.53125q0 -3.234375 2.640625 -5.359375q2.65625 -2.140625 6.921875 -2.1875zm15.627319 -13.78125q3.78125 5.3125 5.875 11.59375q2.109375 6.28125 2.109375 12.6875q0 13.328125 -7.984375 24.265625l-2.953125 -2.1875q6.890625 -9.625 7.0 -22.140625q0 -5.90625 -1.34375 -10.59375q-1.328125 -4.703125 -5.65625 -11.546875l2.953125 -2.078125z" fill-rule="nonzero"/><path fill="#000000" fill-opacity="0.0" d="m930.0852 515.117l0 0c-8.514893 0.2816162 -16.82782 -1.8654785 -23.029663 -5.948181c-6.2018433 -4.0827026 -9.7595215 -9.750092 -9.855896 -15.700562l31.399536 -0.24795532z" fill-rule="evenodd"/><path fill="#000000" fill-opacity="0.0" d="m930.0852 515.117l0 0c-8.514893 0.2816162 -16.82782 -1.8654785 -23.029663 -5.948181c-6.2018433 -4.0827026 -9.7595215 -9.750092 -9.855896 -15.700562" fill-rule="evenodd"/><path stroke="#ffffff" stroke-width="2.0" stroke-linejoin="round" stroke-linecap="butt" d="m930.0852 515.117l0 0c-8.514893 0.2816162 -16.82782 -1.8654785 -23.029663 -5.948181c-6.2018433 -4.0827026 -9.7595215 -9.750092 -9.855896 -15.700562" fill-rule="evenodd"/><path fill="#000000" fill-opacity="0.0" d="m891.86096 492.13654l0.1574707 31.968506" fill-rule="evenodd"/><path stroke="#ffffff" stroke-width="2.0" stroke-linejoin="round" stroke-linecap="butt" d="m891.86096 492.13654l0.1574707 31.968506" fill-rule="evenodd"/><path fill="#000000" fill-opacity="0.0" d="m891.86096 522.99115l40.125977 0.28344727" fill-rule="evenodd"/><path stroke="#ffffff" stroke-width="2.0" stroke-linejoin="round" stroke-linecap="butt" d="m891.86096 522.99115l40.125977 0.28344727" fill-rule="evenodd"/></g></svg>