<svg version="1.1" viewBox="0.0 0.0 960.0 540.0" fill="none" stroke="none" stroke-linecap="square" stroke-miterlimit="10" xmlns:xlink="http://www.w3.org/1999/xlink" xmlns="http://www.w3.org/2000/svg"><clipPath id="g81d67687b8_1_0.0"><path d="m0 0l960.0 0l0 540.0l-960.0 0l0 -540.0z" clip-rule="nonzero"/></clipPath><g clip-path="url(#g81d67687b8_1_0.0)"><path fill="#ffffff" d="m0 0l960.0 0l0 540.0l-960.0 0z" fill-rule="evenodd"/><path fill="#000000" fill-opacity="0.0" d="m32.72441 161.12599l894.55115 0l0 206.89763l-894.55115 0z" fill-rule="evenodd"/><path fill="#000000" d="m87.10133 288.5748l0 -45.71875l22.796875 0q4.859375 0 8.046875 1.796875q3.203125 1.796875 4.84375 4.96875q1.640625 3.15625 1.640625 7.484375q0 4.34375 -1.734375 7.640625q-1.734375 3.296875 -5.046875 5.09375q-3.296875 1.796875 -8.03125 1.796875l-15.0625 0l0 16.9375l-7.453125 0zm7.453125 -23.328125l14.734375 0q3.53125 0 5.5625 -2.125q2.03125 -2.140625 2.03125 -5.9375q0 -2.53125 -0.859375 -4.296875q-0.859375 -1.765625 -2.53125 -2.703125q-1.671875 -0.9375 -4.203125 -0.9375l-14.734375 0l0 16.0zm44.26187 24.125q-1.65625 0 -3.59375 -0.40625q-1.9375 -0.390625 -3.640625 -1.453125q-1.6875 -1.078125 -2.765625 -2.96875q-1.0625 -1.90625 -1.0625 -4.96875q0 -3.59375 1.65625 -5.921875q1.671875 -2.34375 4.671875 -3.671875q3.0 -1.34375 7.171875 -1.875q4.171875 -0.53125 9.09375 -0.53125l0 -3.46875q0 -1.734375 -0.5625 -3.0625q-0.5625 -1.328125 -2.0625 -2.0625q-1.5 -0.734375 -4.296875 -0.734375q-2.8125 0 -4.375 0.703125q-1.5625 0.703125 -2.203125 1.734375q-0.625 1.03125 -0.625 2.234375l0 1.0l-6.671875 0q-0.0625 -0.34375 -0.0625 -0.671875q0 -0.328125 0 -0.796875q0 -3.140625 1.765625 -5.296875q1.765625 -2.171875 4.96875 -3.296875q3.203125 -1.140625 7.390625 -1.140625q4.53125 0 7.5625 1.296875q3.046875 1.296875 4.578125 3.703125q1.53125 2.390625 1.53125 5.796875l0 17.796875q0 1.265625 0.625 1.796875q0.640625 0.53125 1.5 0.53125l2.40625 0l0 4.671875q-0.796875 0.328125 -2.0 0.65625q-1.203125 0.34375 -2.796875 0.34375q-1.796875 0 -3.03125 -0.640625q-1.234375 -0.625 -2.0 -1.78125q-0.765625 -1.171875 -1.03125 -2.640625l-0.40625 0q-1.203125 1.53125 -2.90625 2.703125q-1.6875 1.15625 -3.890625 1.78125q-2.203125 0.640625 -4.9375 0.640625zm1.9375 -5.734375q2.0625 0 3.828125 -0.625q1.765625 -0.640625 3.03125 -1.796875q1.265625 -1.171875 2.0 -2.796875q0.734375 -1.640625 0.734375 -3.578125l0 -2.328125q-4.59375 0 -8.0625 0.53125q-3.46875 0.53125 -5.40625 1.96875q-1.921875 1.4375 -1.921875 3.96875q0 1.53125 0.65625 2.5625q0.671875 1.03125 2.0 1.5625q1.34375 0.53125 3.140625 0.53125zm38.785995 5.734375q-3.65625 0 -6.46875 -0.796875q-2.796875 -0.796875 -4.65625 -2.1875q-1.859375 -1.40625 -2.828125 -3.375q-0.96875 -1.96875 -0.96875 -4.375q0 -0.328125 0.03125 -0.59375q0.03125 -0.265625 0.03125 -0.46875l6.875 0q0 0.203125 0 0.375q0 0.15625 0 0.359375q0 2.0625 1.125 3.296875q1.140625 1.234375 3.03125 1.734375q1.90625 0.5 4.171875 0.5q2.0 0 3.6875 -0.5q1.703125 -0.5 2.796875 -1.5q1.109375 -1.0 1.109375 -2.53125q0 -2.0 -1.40625 -3.0625q-1.390625 -1.0625 -3.65625 -1.703125q-2.265625 -0.640625 -4.734375 -1.359375q-2.203125 -0.609375 -4.375 -1.296875q-2.15625 -0.703125 -3.890625 -1.828125q-1.734375 -1.140625 -2.796875 -2.875q-1.0625 -1.734375 -1.0625 -4.34375q0 -2.46875 1.0625 -4.328125q1.0625 -1.859375 2.953125 -3.125q1.90625 -1.28125 4.53125 -1.9375q2.640625 -0.671875 5.78125 -0.671875q3.265625 0 5.796875 0.703125q2.53125 0.703125 4.296875 1.96875q1.765625 1.265625 2.703125 3.03125q0.9375 1.765625 0.9375 3.765625q0 0.40625 -0.046875 0.84375q-0.03125 0.421875 -0.03125 0.5625l-6.796875 0l0 -0.609375q0 -1.328125 -0.734375 -2.390625q-0.734375 -1.078125 -2.296875 -1.734375q-1.5625 -0.671875 -4.171875 -0.671875q-1.71875 0 -3.0625 0.296875q-1.328125 0.296875 -2.203125 0.84375q-0.859375 0.53125 -1.296875 1.265625q-0.4375 0.71875 -0.4375 1.65625q0 1.53125 1.09375 2.375q1.109375 0.828125 2.90625 1.390625q1.8125 0.5625 3.875 1.234375q2.390625 0.671875 4.859375 1.375q2.46875 0.6875 4.5625 1.765625q2.109375 1.0625 3.40625 2.9375q1.296875 1.859375 1.296875 4.984375q0 2.875 -1.140625 5.015625q-1.125 2.125 -3.15625 3.421875q-2.03125 1.296875 -4.765625 1.921875q-2.734375 0.640625 -5.9375 0.640625zm34.927933 0q-3.65625 0 -6.46875 -0.796875q-2.796875 -0.796875 -4.65625 -2.1875q-1.859375 -1.40625 -2.828125 -3.375q-0.96875 -1.96875 -0.96875 -4.375q0 -0.328125 0.03125 -0.59375q0.03125 -0.265625 0.03125 -0.46875l6.875 0q0 0.203125 0 0.375q0 0.15625 0 0.359375q0 2.0625 1.125 3.296875q1.140625 1.234375 3.03125 1.734375q1.90625 0.5 4.171875 0.5q2.0 0 3.6875 -0.5q1.703125 -0.5 2.796875 -1.5q1.109375 -1.0 1.109375 -2.53125q0 -2.0 -1.40625 -3.0625q-1.390625 -1.0625 -3.65625 -1.703125q-2.265625 -0.640625 -4.734375 -1.359375q-2.203125 -0.609375 -4.375 -1.296875q-2.15625 -0.703125 -3.890625 -1.828125q-1.734375 -1.140625 -2.796875 -2.875q-1.0625 -1.734375 -1.0625 -4.34375q0 -2.46875 1.0625 -4.328125q1.0625 -1.859375 2.953125 -3.125q1.90625 -1.28125 4.53125 -1.9375q2.640625 -0.671875 5.78125 -0.671875q3.265625 0 5.796875 0.703125q2.53125 0.703125 4.296875 1.96875q1.765625 1.265625 2.703125 3.03125q0.9375 1.765625 0.9375 3.765625q0 0.40625 -0.046875 0.84375q-0.03125 0.421875 -0.03125 0.5625l-6.796875 0l0 -0.609375q0 -1.328125 -0.734375 -2.390625q-0.734375 -1.078125 -2.296875 -1.734375q-1.5625 -0.671875 -4.171875 -0.671875q-1.71875 0 -3.0625 0.296875q-1.328125 0.296875 -2.203125 0.84375q-0.859375 0.53125 -1.296875 1.265625q-0.4375 0.71875 -0.4375 1.65625q0 1.53125 1.09375 2.375q1.109375 0.828125 2.90625 1.390625q1.8125 0.5625 3.875 1.234375q2.390625 0.671875 4.859375 1.375q2.46875 0.6875 4.5625 1.765625q2.109375 1.0625 3.40625 2.9375q1.296875 1.859375 1.296875 4.984375q0 2.875 -1.140625 5.015625q-1.125 2.125 -3.15625 3.421875q-2.03125 1.296875 -4.765625 1.921875q-2.734375 0.640625 -5.9375 0.640625zm22.006058 -41.921875l0 -7.0625l6.921875 0l0 7.0625l-6.921875 0zm0 41.125l0 -35.0625l6.921875 0l0 35.0625l-6.921875 0zm24.989197 0l-12.999985 -35.0625l7.265625 0l6.0781097 16.734375q0.390625 1.203125 0.984375 3.109375q0.609375 1.890625 1.203125 3.890625q0.609375 2.0 1.078125 3.59375l0.328125 0q0.40625 -1.53125 0.96875 -3.5q0.5625 -1.96875 1.15625 -3.890625q0.609375 -1.9375 1.078125 -3.203125l6.0 -16.734375l7.0625 0l-13.0625 35.0625l-7.140625 0zm39.667603 0.796875q-5.40625 0 -9.046875 -1.96875q-3.625 -1.96875 -5.5 -6.03125q-1.859375 -4.0625 -1.859375 -10.328125q0 -6.328125 1.859375 -10.359375q1.875 -4.03125 5.546875 -6.0q3.671875 -1.96875 9.125 -1.96875q5.0 0 8.359375 1.90625q3.375 1.890625 5.109375 5.765625q1.734375 3.859375 1.734375 9.71875l0 2.671875l-24.59375 0q0.125 3.734375 1.125 6.234375q1.0 2.5 3.03125 3.671875q2.046875 1.15625 5.171875 1.15625q1.9375 0 3.46875 -0.5q1.53125 -0.5 2.59375 -1.46875q1.078125 -0.96875 1.671875 -2.328125q0.59375 -1.359375 0.59375 -3.09375l6.796875 0q0 3.125 -1.0625 5.53125q-1.0625 2.390625 -3.09375 4.03125q-2.03125 1.625 -4.84375 2.5q-2.796875 0.859375 -6.1875 0.859375zm-9.140625 -21.65625l17.203125 0q0 -2.609375 -0.578125 -4.375q-0.5625 -1.765625 -1.625 -2.890625q-1.0625 -1.140625 -2.53125 -1.640625q-1.46875 -0.5 -3.328125 -0.5q-2.796875 0 -4.765625 1.0q-1.96875 1.0 -3.046875 3.109375q-1.0625 2.09375 -1.328125 5.296875z" fill-rule="nonzero"/><path fill="#000000" d="m338.12903 288.5748l0 -45.71875l7.453125 0l0 45.71875l-7.453125 0zm17.326324 0l0 -35.0625l5.734375 0l0.59375 5.0l0.46875 0q1.265625 -1.9375 3.0 -3.203125q1.734375 -1.265625 3.828125 -1.921875q2.109375 -0.671875 4.640625 -0.671875q3.328125 0 5.859375 1.171875q2.53125 1.15625 3.96875 3.765625q1.4375 2.59375 1.4375 7.0l0 23.921875l-6.9375 0l0 -22.859375q0 -2.0 -0.5 -3.328125q-0.5 -1.34375 -1.4375 -2.140625q-0.921875 -0.796875 -2.203125 -1.125q-1.265625 -0.34375 -2.796875 -0.34375q-2.390625 0 -4.359375 1.171875q-1.96875 1.15625 -3.171875 3.234375q-1.203125 2.0625 -1.203125 4.859375l0 20.53125l-6.921875 0zm52.115967 0.796875q-5.265625 0 -8.796875 -1.96875q-3.53125 -1.96875 -5.296875 -6.03125q-1.765625 -4.0625 -1.765625 -10.328125q0 -6.265625 1.796875 -10.296875q1.796875 -4.03125 5.359375 -6.03125q3.578125 -2.0 8.78125 -2.0q3.59375 0 6.25 0.90625q2.671875 0.890625 4.53125 2.65625q1.875 1.765625 2.765625 4.375q0.90625 2.59375 0.90625 5.921875l-7.0 0q0 -2.796875 -0.796875 -4.59375q-0.796875 -1.796875 -2.46875 -2.703125q-1.65625 -0.90625 -4.328125 -0.90625q-2.796875 0 -4.734375 1.3125q-1.921875 1.296875 -2.921875 3.9375q-1.0 2.625 -1.0 6.890625l0 1.125q0 4.078125 0.953125 6.78125q0.96875 2.6875 2.9375 4.0q1.96875 1.296875 5.03125 1.296875q2.671875 0 4.296875 -0.96875q1.640625 -0.96875 2.46875 -2.796875q0.84375 -1.84375 0.84375 -4.4375l6.71875 0q0 3.125 -0.90625 5.671875q-0.890625 2.53125 -2.71875 4.359375q-1.828125 1.828125 -4.5625 2.828125q-2.734375 1.0 -6.34375 1.0zm36.46118 0q-5.453125 0 -9.21875 -1.96875q-3.765625 -1.96875 -5.671875 -6.03125q-1.90625 -4.0625 -1.90625 -10.328125q0 -6.328125 1.90625 -10.359375q1.90625 -4.03125 5.671875 -6.0q3.765625 -1.96875 9.21875 -1.96875q5.609375 0 9.34375 1.96875q3.734375 1.96875 5.625 6.0q1.90625 4.03125 1.90625 10.359375q0 6.265625 -1.90625 10.328125q-1.890625 4.0625 -5.625 6.03125q-3.734375 1.96875 -9.34375 1.96875zm0 -5.734375q3.34375 0 5.46875 -1.296875q2.140625 -1.296875 3.171875 -3.953125q1.03125 -2.671875 1.03125 -6.75l0 -1.1875q0 -4.078125 -1.03125 -6.734375q-1.03125 -2.671875 -3.171875 -3.96875q-2.125 -1.296875 -5.46875 -1.296875q-3.265625 0 -5.40625 1.296875q-2.125 1.296875 -3.15625 3.96875q-1.03125 2.65625 -1.03125 6.734375l0 1.1875q0 4.078125 1.03125 6.75q1.03125 2.65625 3.15625 3.953125q2.140625 1.296875 5.40625 1.296875zm23.938782 4.9375l0 -35.0625l5.734375 0l0.59375 5.0l0.46875 0q1.203125 -1.9375 2.765625 -3.203125q1.5625 -1.265625 3.53125 -1.921875q1.96875 -0.671875 4.234375 -0.671875q3.265625 0 5.6875 1.34375q2.4375 1.328125 3.703125 4.453125l0.46875 0q1.203125 -1.859375 2.796875 -3.15625q1.609375 -1.3125 3.640625 -1.96875q2.03125 -0.671875 4.359375 -0.671875q3.140625 0 5.53125 1.109375q2.4062805 1.09375 3.7969055 3.65625q1.40625 2.5625 1.40625 6.828125l0 24.265625l-6.9219055 0l0 -23.0q0 -2.0 -0.46875 -3.296875q-0.46875 -1.296875 -1.265625 -2.0625q-0.796875 -0.765625 -1.9375 -1.09375q-1.140625 -0.34375 -2.46875 -0.34375q-2.203125 0 -3.9375 1.171875q-1.71875 1.15625 -2.796875 3.234375q-1.0625 2.0625 -1.0625 4.859375l0 20.53125l-6.9375 0l0 -23.0q0 -2.0 -0.46875 -3.296875q-0.453125 -1.296875 -1.265625 -2.0625q-0.796875 -0.765625 -1.9375 -1.09375q-1.125 -0.34375 -2.390625 -0.34375q-2.203125 0 -4.0 1.171875q-1.796875 1.15625 -2.875 3.234375q-1.0625 2.0625 -1.0625 4.859375l0 20.53125l-6.921875 0zm71.85574 0.796875q-5.40625 0 -9.046875 -1.96875q-3.625 -1.96875 -5.5 -6.03125q-1.859375 -4.0625 -1.859375 -10.328125q0 -6.328125 1.859375 -10.359375q1.875 -4.03125 5.546875 -6.0q3.671875 -1.96875 9.125 -1.96875q5.0 0 8.359375 1.90625q3.375 1.890625 5.109375 5.765625q1.734375 3.859375 1.734375 9.71875l0 2.671875l-24.59375 0q0.125 3.734375 1.125 6.234375q1.0 2.5 3.03125 3.671875q2.046875 1.15625 5.171875 1.15625q1.9375 0 3.46875 -0.5q1.53125 -0.5 2.59375 -1.46875q1.078125 -0.96875 1.671875 -2.328125q0.59375 -1.359375 0.59375 -3.09375l6.796875 0q0 3.125 -1.0625 5.53125q-1.0625 2.390625 -3.09375 4.03125q-2.03125 1.625 -4.84375 2.5q-2.796875 0.859375 -6.1875 0.859375zm-9.140625 -21.65625l17.203125 0q0 -2.609375 -0.578125 -4.375q-0.5625 -1.765625 -1.625 -2.890625q-1.0625 -1.140625 -2.53125 -1.640625q-1.46875 -0.5 -3.328125 -0.5q-2.796875 0 -4.765625 1.0q-1.96875 1.0 -3.046875 3.109375q-1.0625 2.09375 -1.328125 5.296875zm46.592163 20.59375l0 -6.40625l26.0625 -10.453125l-26.0625 -10.46875l0 -6.40625l31.671875 13.34375l0 7.125l-31.671875 13.265625zm55.204895 0.265625l0 -45.71875l7.453125 0l0 39.25l22.796875 0l0 6.46875l-30.25 0zm35.85681 -41.125l0 -7.0625l6.921875 0l0 7.0625l-6.921875 0zm0 41.125l0 -35.0625l6.921875 0l0 35.0625l-6.921875 0zm17.395508 0l0 -29.328125l-5.140625 0l0 -5.734375l5.140625 0l0 -5.0625q0 -2.203125 0.703125 -4.125q0.703125 -1.9375 2.46875 -3.203125q1.765625 -1.265625 5.03125 -1.265625q0.921875 0 1.890625 0.09375q0.96875 0.09375 1.828125 0.296875q0.875 0.203125 1.546875 0.46875l0 4.859375l-3.40625 0q-1.59375 0 -2.359375 0.8125q-0.765625 0.796875 -0.765625 2.328125l0 4.796875l6.53125 0l0 5.734375l-6.53125 0l0 29.328125l-6.9375 0zm32.1969 0.796875q-5.40625 0 -9.046875 -1.96875q-3.625 -1.96875 -5.5 -6.03125q-1.859375 -4.0625 -1.859375 -10.328125q0 -6.328125 1.859375 -10.359375q1.875 -4.03125 5.546875 -6.0q3.671875 -1.96875 9.125 -1.96875q5.0 0 8.359375 1.90625q3.375 1.890625 5.109375 5.765625q1.734375 3.859375 1.734375 9.71875l0 2.671875l-24.59375 0q0.125 3.734375 1.125 6.234375q1.0 2.5 3.03125 3.671875q2.046875 1.15625 5.171875 1.15625q1.9375 0 3.46875 -0.5q1.53125 -0.5 2.59375 -1.46875q1.078125 -0.96875 1.671875 -2.328125q0.59375 -1.359375 0.59375 -3.09375l6.796875 0q0 3.125 -1.0625 5.53125q-1.0625 2.390625 -3.09375 4.03125q-2.03125 1.625 -4.84375 2.5q-2.796875 0.859375 -6.1875 0.859375zm-9.140625 -21.65625l17.203125 0q0 -2.609375 -0.578125 -4.375q-0.5625 -1.765625 -1.625 -2.890625q-1.0625 -1.140625 -2.53125 -1.640625q-1.46875 -0.5 -3.328125 -0.5q-2.796875 0 -4.765625 1.0q-1.96875 1.0 -3.046875 3.109375q-1.0625 2.09375 -1.328125 5.296875zm44.458862 21.65625q-3.65625 0 -6.46875 -0.796875q-2.796875 -0.796875 -4.65625 -2.1875q-1.859375 -1.40625 -2.828125 -3.375q-0.96875 -1.96875 -0.96875 -4.375q0 -0.328125 0.03125 -0.59375q0.03125 -0.265625 0.03125 -0.46875l6.875 0q0 0.203125 0 0.375q0 0.15625 0 0.359375q0 2.0625 1.125 3.296875q1.140625 1.234375 3.03125 1.734375q1.90625 0.5 4.171875 0.5q2.0 0 3.6875 -0.5q1.703125 -0.5 2.796875 -1.5q1.109375 -1.0 1.109375 -2.53125q0 -2.0 -1.40625 -3.0625q-1.390625 -1.0625 -3.65625 -1.703125q-2.265625 -0.640625 -4.734375 -1.359375q-2.203125 -0.609375 -4.375 -1.296875q-2.15625 -0.703125 -3.890625 -1.828125q-1.734375 -1.140625 -2.796875 -2.875q-1.0625 -1.734375 -1.0625 -4.34375q0 -2.46875 1.0625 -4.328125q1.0625 -1.859375 2.953125 -3.125q1.90625 -1.28125 4.53125 -1.9375q2.640625 -0.671875 5.78125 -0.671875q3.265625 0 5.796875 0.703125q2.53125 0.703125 4.296875 1.96875q1.765625 1.265625 2.703125 3.03125q0.9375 1.765625 0.9375 3.765625q0 0.40625 -0.046875 0.84375q-0.03125 0.421875 -0.03125 0.5625l-6.796875 0l0 -0.609375q0 -1.328125 -0.734375 -2.390625q-0.734375 -1.078125 -2.296875 -1.734375q-1.5625 -0.671875 -4.171875 -0.671875q-1.71875 0 -3.0625 0.296875q-1.328125 0.296875 -2.203125 0.84375q-0.859375 0.53125 -1.296875 1.265625q-0.4375 0.71875 -0.4375 1.65625q0 1.53125 1.09375 2.375q1.109375 0.828125 2.90625 1.390625q1.8125 0.5625 3.875 1.234375q2.390625 0.671875 4.859375 1.375q2.46875 0.6875 4.5625 1.765625q2.109375 1.0625 3.40625 2.9375q1.296875 1.859375 1.296875 4.984375q0 2.875 -1.140625 5.015625q-1.125 2.125 -3.15625 3.421875q-2.03125 1.296875 -4.765625 1.921875q-2.734375 0.640625 -5.9375 0.640625zm30.740479 0q-3.0 0 -4.703125 -1.15625q-1.703125 -1.171875 -2.40625 -3.0q-0.6875 -1.84375 -0.6875 -3.90625l0 -22.0625l-4.40625 0l0 -5.734375l4.53125 0l1.265625 -9.796875l5.53125 0l0 9.796875l6.328125 0l0 5.734375l-6.328125 0l0 21.265625q0 1.53125 0.671875 2.328125q0.671875 0.796875 2.203125 0.796875l3.453125 0l0 4.671875q-0.65625 0.265625 -1.625 0.5q-0.96875 0.234375 -1.96875 0.390625q-1.0 0.171875 -1.859375 0.171875zm15.3927 11.328125q-2.0 0 -3.34375 -0.296875q-1.328125 -0.296875 -1.65625 -0.359375l0 -5.0l3.328125 0q1.46875 0 2.96875 -0.671875q1.5 -0.671875 2.703125 -2.140625q1.203125 -1.453125 2.0 -3.65625l-13.671875 -35.0625l7.265625 0l6.8125 17.46875q0.453125 1.203125 1.015625 3.0q0.578125 1.796875 1.140625 3.671875q0.5625 1.859375 0.96875 3.328125l0.328125 0q0.34375 -1.0 0.703125 -2.296875q0.375 -1.3125 0.765625 -2.703125q0.40625 -1.40625 0.796875 -2.703125q0.40625 -1.296875 0.671875 -2.234375l5.671875 -17.53125l7.0625 0l-11.859375 33.734375q-1.0 2.796875 -2.203125 5.265625q-1.203125 2.46875 -2.78125 4.296875q-1.5625 1.828125 -3.703125 2.859375q-2.125 1.03125 -4.984375 1.03125zm30.597778 -12.125l0 -48.1875l6.921875 0l0 48.1875l-6.921875 0zm30.395508 0.796875q-5.40625 0 -9.046875 -1.96875q-3.625 -1.96875 -5.5 -6.03125q-1.859375 -4.0625 -1.859375 -10.328125q0 -6.328125 1.859375 -10.359375q1.875 -4.03125 5.546875 -6.0q3.671875 -1.96875 9.125 -1.96875q5.0 0 8.359375 1.90625q3.375 1.890625 5.109375 5.765625q1.734375 3.859375 1.734375 9.71875l0 2.671875l-24.59375 0q0.125 3.734375 1.125 6.234375q1.0 2.5 3.03125 3.671875q2.046875 1.15625 5.171875 1.15625q1.9375 0 3.46875 -0.5q1.53125 -0.5 2.59375 -1.46875q1.078125 -0.96875 1.671875 -2.328125q0.59375 -1.359375 0.59375 -3.09375l6.796875 0q0 3.125 -1.0625 5.53125q-1.0625 2.390625 -3.09375 4.03125q-2.03125 1.625 -4.84375 2.5q-2.796875 0.859375 -6.1875 0.859375zm-9.140625 -21.65625l17.203125 0q0 -2.609375 -0.578125 -4.375q-0.5625 -1.765625 -1.625 -2.890625q-1.0625 -1.140625 -2.53125 -1.640625q-1.46875 -0.5 -3.328125 -0.5q-2.796875 0 -4.765625 1.0q-1.96875 1.0 -3.046875 3.109375q-1.0625 2.09375 -1.328125 5.296875z" fill-rule="nonzero"/><path fill="#000000" fill-opacity="0.0" d="m930.0852 515.117l0 0c-8.514893 0.2816162 -16.82782 -1.8654785 -23.029663 -5.948181c-6.2018433 -4.0827026 -9.7595215 -9.750092 -9.855896 -15.700562l31.399536 -0.24795532z" fill-rule="evenodd"/><path fill="#000000" fill-opacity="0.0" d="m930.0852 515.117l0 0c-8.514893 0.2816162 -16.82782 -1.8654785 -23.029663 -5.948181c-6.2018433 -4.0827026 -9.7595215 -9.750092 -9.855896 -15.700562" fill-rule="evenodd"/><path stroke="#000000" stroke-width="2.0" stroke-linejoin="round" stroke-linecap="butt" d="m930.0852 515.117l0 0c-8.514893 0.2816162 -16.82782 -1.8654785 -23.029663 -5.948181c-6.2018433 -4.0827026 -9.7595215 -9.750092 -9.855896 -15.700562" fill-rule="evenodd"/><path fill="#000000" fill-opacity="0.0" d="m891.86096 492.13654l0.1574707 31.968506" fill-rule="evenodd"/><path stroke="#000000" stroke-width="2.0" stroke-linejoin="round" stroke-linecap="butt" d="m891.86096 492.13654l0.1574707 31.968506" fill-rule="evenodd"/><path fill="#000000" fill-opacity="0.0" d="m891.86096 522.99115l40.125977 0.28344727" fill-rule="evenodd"/><path stroke="#000000" stroke-width="2.0" stroke-linejoin="round" stroke-linecap="butt" d="m891.86096 522.99115l40.125977 0.28344727" fill-rule="evenodd"/></g></svg>