<svg version="1.1" viewBox="0.0 0.0 960.0 540.0" fill="none" stroke="none" stroke-linecap="square" stroke-miterlimit="10" xmlns:xlink="http://www.w3.org/1999/xlink" xmlns="http://www.w3.org/2000/svg"><clipPath id="g13e308dba53_0_1.0"><path d="m0 0l960.0 0l0 540.0l-960.0 0l0 -540.0z" clip-rule="nonzero"/></clipPath><g clip-path="url(#g13e308dba53_0_1.0)"><path fill="#121212" d="m0 0l960.0 0l0 540.0l-960.0 0z" fill-rule="evenodd"/><path fill="#000000" fill-opacity="0.0" d="m930.0852 515.117l0 0c-8.514893 0.2816162 -16.82782 -1.8654785 -23.029663 -5.948181c-6.2018433 -4.0827026 -9.7595215 -9.750092 -9.855896 -15.700562l31.399536 -0.24795532z" fill-rule="evenodd"/><path fill="#000000" fill-opacity="0.0" d="m930.0852 515.117l0 0c-8.514893 0.2816162 -16.82782 -1.8654785 -23.029663 -5.948181c-6.2018433 -4.0827026 -9.7595215 -9.750092 -9.855896 -15.700562" fill-rule="evenodd"/><path stroke="#ffffff" stroke-width="2.0" stroke-linejoin="round" stroke-linecap="butt" d="m930.0852 515.117l0 0c-8.514893 0.2816162 -16.82782 -1.8654785 -23.029663 -5.948181c-6.2018433 -4.0827026 -9.7595215 -9.750092 -9.855896 -15.700562" fill-rule="evenodd"/><path fill="#000000" fill-opacity="0.0" d="m891.86096 492.13654l0.1574707 31.968506" fill-rule="evenodd"/><path stroke="#ffffff" stroke-width="2.0" stroke-linejoin="round" stroke-linecap="butt" d="m891.86096 492.13654l0.1574707 31.968506" fill-rule="evenodd"/><path fill="#000000" fill-opacity="0.0" d="m891.86096 522.99115l40.125977 0.28344727" fill-rule="evenodd"/><path stroke="#ffffff" stroke-width="2.0" stroke-linejoin="round" stroke-linecap="butt" d="m891.86096 522.99115l40.125977 0.28344727" fill-rule="evenodd"/><path fill="#000000" fill-opacity="0.0" d="m11.9763775 38.10499l920.0 0l0 148.6614l-920.0 0z" fill-rule="evenodd"/><path fill="#f3f3f3" d="m54.57013 71.53623q13.796875 0 22.125 6.40625q8.34375 6.40625 8.34375 18.125l-16.203125 0q-0.359375 -5.71875 -3.90625 -8.609375q-3.546875 -2.890625 -11.046875 -2.890625q-5.09375 0 -8.359375 2.234375q-3.25 2.234375 -3.25 6.40625q0 2.859375 1.359375 4.265625q1.359375 1.40625 5.546875 2.953125q4.1875 1.53125 18.296875 4.859375q9.484375 2.296875 14.796875 7.765625q5.3125 5.46875 5.3125 13.84375q0 11.046867 -8.28125 17.749992q-8.28125 6.6875 -23.328125 6.6875q-14.375 0 -23.4375 -7.078125q-9.062502 -7.09375 -9.062502 -19.593742l0 -0.421875l16.203127 0q0.09375 7.0937424 4.71875 10.578117q4.640625 3.484375 12.140625 3.484375q6.78125 0 10.8125 -2.46875q4.03125 -2.46875 4.03125 -7.0q0 -3.7031174 -3.09375 -6.0624924q-3.09375 -2.375 -9.921875 -4.09375q-8.75 -1.984375 -15.890625 -4.1875q-7.125 -2.21875 -11.796877 -7.1875q-4.65625 -4.984375 -4.65625 -12.734375q0 -10.265625 8.203127 -16.640625q8.203125 -6.390625 20.34375 -6.390625zm66.71199 21.359375q12.234375 0 18.1875 4.015625q5.96875 4.0 5.96875 11.296875l0 29.578117q0 3.328125 0.4375 6.671875q0.453125 3.328125 1.5 5.046875l-15.375 0q-0.40625 -1.25 -0.703125 -2.578125q-0.28125 -1.328125 -0.390625 -2.6875q-3.171875 3.28125 -7.890625 5.03125q-4.703125 1.75 -10.640625 1.75q-8.546875 0 -13.65625 -4.296875q-5.09375 -4.296875 -5.09375 -12.265625q0 -7.7187424 4.78125 -11.796867q4.796875 -4.09375 17.453125 -5.5q8.796875 -0.828125 11.609375 -2.15625q2.8125 -1.328125 2.8125 -4.609375q0 -3.703125 -2.15625 -5.546875q-2.15625 -1.84375 -7.578125 -1.84375q-4.6875 0 -7.1875 2.0q-2.5 2.0 -2.90625 6.328125l-15.15625 0q0.625 -9.0625 7.46875 -13.75q6.84375 -4.6875 18.515625 -4.6875zm-12.546875 40.937492q0 3.28125 2.234375 5.15625q2.234375 1.875 7.078125 1.875q6.046875 0 9.140625 -3.171875q3.09375 -3.1875 3.09375 -9.28125l0 -5.8749924q-1.34375 1.078125 -3.5625 1.625q-2.21875 0.546875 -8.0 1.390625q-5.140625 0.671875 -7.5625 2.6874924q-2.421875 2.0 -2.421875 5.59375zm59.103394 -39.484367l11.65625 37.656242l0.21875 0l11.609375 -37.656242l15.046875 0l-18.6875 55.156242l-16.828125 0l-18.90625 -55.156242l15.890625 0zm60.41646 -20.984375l0 12.453125l-15.15625 0l0 -12.453125l15.15625 0zm0 20.984375l0 55.156242l-15.15625 0l0 -55.156242l15.15625 0zm43.528564 -1.453125q10.578125 0 15.34375 5.34375q4.765625 5.328125 4.765625 16.796875l0 34.468742l-15.15625 0l0 -31.609367q0 -6.453125 -2.21875 -9.765625q-2.21875 -3.3125 -7.46875 -3.3125q-6.296875 0 -9.03125 3.75q-2.734375 3.75 -2.734375 11.515625l0 29.421867l-15.109375 0l0 -55.156242l14.375 0l0 7.71875l0.3125 0q2.765625 -4.4375 7.1875 -6.796875q4.421875 -2.375 9.734375 -2.375zm53.535492 0q6.046875 0 10.0 2.25q3.953125 2.234375 6.453125 6.546875l0.21875 0l0 -7.34375l14.375 0l0 52.078117q0 11.09375 -7.0625 17.53125q-7.0625 6.4375 -21.4375 6.4375q-9.734375 0 -16.71875 -4.671875q-6.96875 -4.65625 -7.640625 -13.046875l15.0 0q1.03125 4.015625 3.9375 5.8125q2.921875 1.796875 7.359375 1.796875q5.828125 0 9.0 -3.515625q3.1875 -3.515625 3.1875 -9.765625l0 -7.65625l-0.21875 0q-2.234375 4.0625 -6.59375 6.3125q-4.34375 2.234375 -9.96875 2.234375q-11.140625 0 -17.34375 -7.390625q-6.1875 -7.40625 -6.1875 -20.312492q0 -11.671875 6.484375 -19.484375q6.484375 -7.8125 17.15625 -7.8125zm-8.484375 27.078125q0 7.765625 3.203125 12.140617q3.203125 4.375 9.03125 4.375q5.984375 0 9.453125 -4.375q3.46875 -4.3749924 3.46875 -10.937492q0 -8.078125 -3.28125 -12.46875q-3.28125 -4.40625 -9.6875 -4.40625q-5.625 0 -8.90625 4.28125q-3.28125 4.265625 -3.28125 11.390625zm74.30615 -27.078125q11.25 0 17.375 4.453125q6.125 4.453125 6.953125 13.09375l-14.421875 0q-0.3125 -3.90625 -2.921875 -5.671875q-2.609375 -1.765625 -7.453125 -1.765625q-4.359375 0 -6.375 1.296875q-2.0 1.296875 -2.0 3.796875q0 2.5625 2.625 4.203125q2.640625 1.640625 10.59375 3.140625q12.71875 2.453125 17.0625 6.3125q4.34375 3.84375 4.34375 10.093742q0 9.375 -6.84375 14.28125q-6.84375 4.890625 -18.3125 4.890625q-11.453125 0 -18.453125 -4.875q-7.0 -4.875 -7.46875 -14.5625l14.421875 0q0 4.375 3.296875 6.828125q3.3125 2.453125 8.3125 2.453125q4.421875 0 7.1875 -1.90625q2.765625 -1.90625 2.765625 -5.125q0 -2.875 -3.59375 -4.6875q-3.59375 -1.8281174 -13.171875 -3.8124924q-9.484375 -1.875 -13.703125 -5.359375q-4.21875 -3.484375 -4.21875 -9.421875q0 -8.75 6.1875 -13.203125q6.203125 -4.453125 17.8125 -4.453125zm107.38733 -19.53125q9.21875 0 15.546875 5.9375q6.328125 5.9375 6.328125 15.109375q0 7.1875 -3.0 11.90625q-2.984375 4.703125 -9.078125 7.15625l0 0.203125q5.359375 1.40625 8.21875 6.40625q2.875 5.0 3.140625 15.312492q0.203125 10.3125 2.96875 14.109375l-16.78125 0q-1.453125 -3.703125 -1.96875 -11.984375q-0.78125 -11.249992 -3.78125 -14.499992q-3.0 -3.25 -9.1875 -3.25l-17.140625 0l0 29.734367l-16.765625 0l0 -76.14062l41.5 0zm-6.03125 34.421875q5.25 0 8.1875 -2.546875q2.953125 -2.546875 2.953125 -8.328125q0 -5.421875 -2.84375 -7.96875q-2.828125 -2.5625 -8.296875 -2.5625l-18.703125 0l0 21.40625l18.703125 0zm65.30499 -14.890625q12.234375 0 18.1875 4.015625q5.96875 4.0 5.96875 11.296875l0 29.578117q0 3.328125 0.4375 6.671875q0.453125 3.328125 1.5 5.046875l-15.375 0q-0.40625 -1.25 -0.703125 -2.578125q-0.28125 -1.328125 -0.390625 -2.6875q-3.171875 3.28125 -7.890625 5.03125q-4.703125 1.75 -10.640625 1.75q-8.546875 0 -13.65625 -4.296875q-5.09375 -4.296875 -5.09375 -12.265625q0 -7.7187424 4.78125 -11.796867q4.796875 -4.09375 17.453125 -5.5q8.796875 -0.828125 11.609375 -2.15625q2.8125 -1.328125 2.8125 -4.609375q0 -3.703125 -2.15625 -5.546875q-2.15625 -1.84375 -7.578125 -1.84375q-4.6875 0 -7.1875 2.0q-2.5 2.0 -2.90625 6.328125l-15.15625 0q0.625 -9.0625 7.46875 -13.75q6.84375 -4.6875 18.515625 -4.6875zm-12.546875 40.937492q0 3.28125 2.234375 5.15625q2.234375 1.875 7.078125 1.875q6.046875 0 9.140625 -3.171875q3.09375 -3.1875 3.09375 -9.28125l0 -5.8749924q-1.34375 1.078125 -3.5625 1.625q-2.21875 0.546875 -8.0 1.390625q-5.140625 0.671875 -7.5625 2.6874924q-2.421875 2.0 -2.421875 5.59375zm67.65027 -55.984367l0 16.5l11.078125 0l0 10.15625l-11.078125 0l0 27.656242q0 3.390625 1.265625 4.71875q1.28125 1.328125 5.125 1.328125q1.3125 0 2.5 -0.109375q1.203125 -0.109375 2.1875 -0.3125l0 11.828125q-1.875 0.3125 -4.1875 0.40625q-2.3125 0.109375 -4.5625 0.109375q-9.828125 0 -13.65625 -3.359375q-3.828125 -3.359375 -3.828125 -9.40625l0 -32.859367l-9.171875 0l0 -10.15625l9.171875 0l0 -16.5l15.15625 0zm43.324463 15.046875q12.234375 0 19.546875 8.421875q7.328125 8.40625 7.328125 21.46875l-0.109375 2.8125l-39.78125 0q0.3125 7.1406174 3.71875 10.578117q3.40625 3.4375 9.765625 3.4375q4.109375 0 7.59375 -2.109375q3.5 -2.109375 4.4375 -5.078125l13.328125 0q-3.078125 9.375 -9.484375 13.984375q-6.40625 4.609375 -16.34375 4.609375q-12.765625 0 -20.46875 -8.078125q-7.703125 -8.078125 -7.703125 -20.937492q0 -12.34375 7.890625 -20.71875q7.890625 -8.390625 20.28125 -8.390625zm-13.015625 23.125l24.625 0q-1.09375 -6.09375 -3.9375 -8.90625q-2.828125 -2.8125 -8.203125 -2.8125q-5.515625 0 -8.75 3.125q-3.21875 3.125 -3.734375 8.59375z" fill-rule="nonzero"/><path fill="#000000" fill-opacity="0.0" d="m15.118111 205.27559l929.7638 0l0 213.32283l-929.7638 0z" fill-rule="evenodd"/><path fill="#f3f3f3" d="m45.64936 232.59122q-5.390625 8.4375 -7.96875 17.390625q-2.578125 8.9375 -2.578125 19.484375q0 10.703125 2.546875 19.734375q2.5625 9.03125 8.0 17.734375l-5.203125 0q-6.875 -10.703125 -9.734375 -19.5625q-2.84375 -8.875 -2.84375 -17.90625q0 -9.375 3.203125 -19.0q3.203125 -9.625 9.375 -17.875l5.203125 0zm19.25 -5.265625l4.421875 0l0 5.34375q6.28125 0.75 10.140625 4.703125q3.875 3.9375 5.59375 11.125l-6.796875 0q-0.8125 -4.109375 -3.15625 -6.390625q-2.34375 -2.28125 -5.78125 -2.875l0 19.6875l5.0 1.328125q3.0 0.828125 6.0625 2.875q3.078125 2.046875 4.75 5.09375q1.6875 3.046875 1.6875 6.84375q0 7.34375 -4.671875 11.984375q-4.671875 4.625 -12.796875 5.40625l0 6.5625l-4.453125 0l0 -6.5625q-8.15625 -0.90625 -12.765625 -5.765625q-4.609375 -4.875 -5.3125 -13.03125l6.796875 0q0.234375 5.109375 3.171875 8.296875q2.953125 3.1875 8.109375 4.078125l0 -21.203125q-9.171875 -2.15625 -12.796875 -5.53125q-3.609375 -3.375 -3.609375 -9.90625q0 -6.71875 4.40625 -11.40625q4.421875 -4.6875 12.0 -5.390625l0 -5.265625zm-9.171875 21.359375q0 3.515625 2.046875 5.578125q2.046875 2.046875 7.125 3.453125l0 -18.71875q-4.21875 0.4375 -6.703125 2.953125q-2.46875 2.515625 -2.46875 6.734375zm13.59375 37.34375q5.15625 -0.390625 7.734375 -3.0q2.578125 -2.625 2.578125 -7.234375q0 -3.515625 -2.15625 -5.78125q-2.140625 -2.265625 -8.15625 -4.0625l0 20.078125zm50.546875 -36.328125l12.062492 33.828125l0.15625 0l11.609375 -33.828125l7.21875 0l-17.578125 45.796875q-2.765625 7.140625 -5.328125 9.640625q-2.5624924 2.5 -7.0937424 2.5q-1.25 0 -2.421875 -0.15625q-1.171875 -0.15625 -2.296875 -0.546875l0 -6.25q0.96875 0.3125 1.96875 0.625q1.0 0.3125 2.015625 0.3125q4.140625 0 5.78125 -4.140625q1.640625 -4.140625 2.6093674 -6.640625l-16.406242 -41.140625l7.703125 0zm54.640617 -0.9375q9.375 0 14.71875 6.0625q5.359375 6.046875 5.359375 15.625q0 9.640625 -5.46875 15.625q-5.46875 5.984375 -14.609375 5.984375q-8.984375 0 -14.53125 -5.875q-5.546875 -5.890625 -5.546875 -15.734375q0 -9.84375 5.421875 -15.765625q5.4375 -5.921875 14.65625 -5.921875zm-12.890625 21.6875q0 7.109375 3.625 11.34375q3.640625 4.234375 9.265625 4.234375q5.59375 0 9.234375 -4.25q3.65625 -4.265625 3.65625 -11.328125q0 -7.078125 -3.640625 -11.390625q-3.625 -4.3125 -9.328125 -4.3125q-5.46875 0 -9.140625 4.234375q-3.671875 4.234375 -3.671875 11.46875zm47.78125 -20.75l0 28.203125q0 3.515625 2.234375 5.828125q2.25 2.296875 6.203125 2.296875q5.859375 0 9.03125 -3.5625q3.1875 -3.578125 3.1875 -9.125l0 -23.640625l6.796875 0l0 41.375l-6.40625 0l0 -6.5625l-0.15625 0q-2.265625 3.9375 -5.671875 5.75q-3.390625 1.796875 -7.796875 1.796875q-7.234375 0 -10.734375 -3.734375q-3.484375 -3.734375 -3.484375 -11.046875l0 -27.578125l6.796875 0zm77.1875 -0.9375q7.578125 0 12.296875 3.59375q4.734375 3.59375 5.546875 10.625l-7.03125 0q-0.8125 -4.015625 -3.5 -6.125q-2.671875 -2.109375 -6.734375 -2.109375q-6.328125 0 -9.609375 4.234375q-3.28125 4.234375 -3.28125 11.9375q0 6.875 3.234375 11.0q3.25 4.109375 8.84375 4.109375q4.953125 0 7.828125 -2.671875q2.875 -2.671875 3.53125 -7.40625l6.953125 0q-1.125 7.734375 -5.8125 11.921875q-4.6875 4.1875 -12.421875 4.1875q-9.03125 0 -14.1875 -5.6875q-5.15625 -5.6875 -5.15625 -15.453125q0 -10.15625 5.21875 -16.15625q5.21875 -6.0 14.28125 -6.0zm42.609375 0q8.4375 0 11.96875 3.015625q3.546875 3.0 3.546875 8.046875q0 21.515625 0 23.859375q0 2.34375 2.140625 2.34375q0.46875 0 1.015625 -0.109375q0.546875 -0.125 1.0625 -0.28125l0 5.28125q-0.9375 0.546875 -2.171875 0.84375q-1.234375 0.296875 -2.671875 0.296875q-2.8125 0 -4.296875 -1.578125q-1.484375 -1.59375 -1.484375 -4.84375q-2.703125 3.203125 -6.375 4.8125q-3.671875 1.609375 -8.203125 1.609375q-6.40625 0 -10.046875 -3.03125q-3.625 -3.03125 -3.625 -8.578125q0 -5.59375 3.546875 -8.84375q3.5625 -3.265625 16.734375 -4.90625q4.453125 -0.59375 6.03125 -1.71875q1.578125 -1.140625 1.578125 -3.40625q0 -3.4375 -2.203125 -5.125q-2.203125 -1.703125 -7.015625 -1.703125q-5.03125 0 -7.5625 1.921875q-2.515625 1.90625 -2.703125 5.921875l-6.796875 0q0.3125 -6.875 4.84375 -10.34375q4.53125 -3.484375 12.6875 -3.484375zm-11.953125 31.171875q0 2.890625 2.109375 4.5q2.109375 1.59375 5.90625 1.59375q5.734375 0 9.171875 -2.84375q3.4375 -2.859375 3.4375 -6.375l0 -7.109375q-1.71875 1.21875 -4.453125 1.65625q-2.734375 0.421875 -7.265625 1.046875q-4.53125 0.65625 -6.71875 2.453125q-2.1875 1.796875 -2.1875 5.078125zm58.046875 -31.171875q7.46875 0 10.84375 3.828125q3.375 3.828125 3.375 10.9375l0 27.546875l-6.796875 0l0 -28.25q0 -3.515625 -2.25 -5.796875q-2.234375 -2.28125 -6.21875 -2.28125q-5.75 0 -8.96875 3.53125q-3.21875 3.53125 -3.21875 9.15625l0 23.640625l-6.796875 0l0 -41.375l6.40625 0l0 6.5625l0.15625 0q2.265625 -3.859375 5.5625 -5.671875q3.296875 -1.828125 7.90625 -1.828125zm60.4375 0q8.359375 0 12.421875 3.25q4.0625 3.234375 4.453125 9.6875l-6.796875 0l0 -0.078125q-0.28125 -3.28125 -2.875 -5.078125q-2.59375 -1.796875 -6.703125 -1.796875q-4.09375 0 -6.46875 1.390625q-2.359375 1.375 -2.359375 3.875q0 2.265625 2.09375 3.71875q2.09375 1.4375 6.3125 2.34375l6.40625 1.4375q6.015625 1.328125 9.140625 4.09375q3.125 2.75 3.125 7.390625q0 6.09375 -4.734375 9.578125q-4.71875 3.484375 -12.890625 3.484375q-7.921875 0 -12.578125 -3.5625q-4.640625 -3.5625 -4.953125 -10.46875l6.828125 0q0.125 3.859375 3.046875 5.9375q2.9375 2.0625 8.046875 2.0625q4.921875 0 7.453125 -1.5625q2.546875 -1.5625 2.546875 -4.609375q0 -2.765625 -2.515625 -4.390625q-2.515625 -1.625 -10.328125 -3.1875q-7.8125 -1.515625 -11.0 -4.3125q-3.1875 -2.796875 -3.1875 -7.4375q0 -5.4375 4.40625 -8.59375q4.421875 -3.171875 11.109375 -3.171875zm43.15625 0q8.4375 0 11.96875 3.015625q3.546875 3.0 3.546875 8.046875q0 21.515625 0 23.859375q0 2.34375 2.140625 2.34375q0.46875 0 1.015625 -0.109375q0.546875 -0.125 1.0625 -0.28125l0 5.28125q-0.9375 0.546875 -2.171875 0.84375q-1.234375 0.296875 -2.671875 0.296875q-2.8125 0 -4.296875 -1.578125q-1.484375 -1.59375 -1.484375 -4.84375q-2.703125 3.203125 -6.375 4.8125q-3.671875 1.609375 -8.203125 1.609375q-6.40625 0 -10.046875 -3.03125q-3.625 -3.03125 -3.625 -8.578125q0 -5.59375 3.546875 -8.84375q3.5625 -3.265625 16.734375 -4.90625q4.453125 -0.59375 6.03125 -1.71875q1.578125 -1.140625 1.578125 -3.40625q0 -3.4375 -2.203125 -5.125q-2.203125 -1.703125 -7.015625 -1.703125q-5.03125 0 -7.5625 1.921875q-2.515625 1.90625 -2.703125 5.921875l-6.796875 0q0.3125 -6.875 4.84375 -10.34375q4.53125 -3.484375 12.6875 -3.484375zm-11.953125 31.171875q0 2.890625 2.109375 4.5q2.109375 1.59375 5.90625 1.59375q5.734375 0 9.171875 -2.84375q3.4375 -2.859375 3.4375 -6.375l0 -7.109375q-1.71875 1.21875 -4.453125 1.65625q-2.734375 0.421875 -7.265625 1.046875q-4.53125 0.65625 -6.71875 2.453125q-2.1875 1.796875 -2.1875 5.078125zm41.609375 -30.234375l11.59375 34.5l0.15625 0l11.296875 -34.5l7.109375 0l-15.125 41.375l-7.265625 0l-15.34375 -41.375l7.578125 0zm53.59375 -0.9375q8.90625 0 13.828125 6.40625q4.921875 6.40625 4.921875 16.453125l0 0.8125l-30.984375 0l0 0.515625q0 5.890625 3.4375 9.484375q3.4375 3.59375 9.453125 3.59375q4.53125 0 7.203125 -2.109375q2.6875 -2.109375 3.5 -5.96875l6.71875 0q-1.359375 6.875 -6.015625 10.5q-4.640625 3.609375 -11.640625 3.609375q-6.515625 0 -11.03125 -2.953125q-4.515625 -2.953125 -6.671875 -8.203125q-2.140625 -5.265625 -2.140625 -10.765625q0 -9.140625 5.5 -15.25q5.515625 -6.125 13.921875 -6.125zm-12.234375 17.65625l23.75 0q-0.3125 -5.03125 -3.65625 -8.34375q-3.328125 -3.328125 -8.328125 -3.328125q-4.6875 0 -8.015625 3.171875q-3.3125 3.15625 -3.75 8.5zm78.08594 -17.65625q9.375 0 14.71875 6.0625q5.359375 6.046875 5.359375 15.625q0 9.640625 -5.46875 15.625q-5.46875 5.984375 -14.609375 5.984375q-8.984375 0 -14.53125 -5.875q-5.546875 -5.890625 -5.546875 -15.734375q0 -9.84375 5.421875 -15.765625q5.4375 -5.921875 14.65625 -5.921875zm-12.890625 21.6875q0 7.109375 3.625 11.34375q3.640625 4.234375 9.265625 4.234375q5.59375 0 9.234375 -4.25q3.65625 -4.265625 3.65625 -11.328125q0 -7.078125 -3.640625 -11.390625q-3.625 -4.3125 -9.328125 -4.3125q-5.46875 0 -9.140625 4.234375q-3.671875 4.234375 -3.671875 11.46875zm61.5625 -21.71875q0.234375 0 0.421875 0q0.203125 0 0.515625 0.03125l0 7.1875q-7.65625 0 -11.3125 4.0625q-3.640625 4.0625 -3.640625 12.546875l0 18.515625l-6.796875 0l0 -41.375l6.40625 0l0 8.71875l0.15625 0q2.375 -4.921875 5.875 -7.296875q3.5 -2.390625 8.375 -2.390625zm35.476562 -14.765625l0 8.3125l-6.796875 0l0 -8.3125l6.796875 0zm0 15.734375l0 41.375l-6.796875 0l0 -41.375l6.796875 0zm30.617188 -0.9375q7.46875 0 10.84375 3.828125q3.375 3.828125 3.375 10.9375l0 27.546875l-6.796875 0l0 -28.25q0 -3.515625 -2.25 -5.796875q-2.234375 -2.28125 -6.21875 -2.28125q-5.75 0 -8.96875 3.53125q-3.21875 3.53125 -3.21875 9.15625l0 23.640625l-6.796875 0l0 -41.375l6.40625 0l0 6.5625l0.15625 0q2.265625 -3.859375 5.5625 -5.671875q3.296875 -1.828125 7.90625 -1.828125zm28.054688 0.9375l11.59375 34.5l0.15625 0l11.296875 -34.5l7.109375 0l-15.125 41.375l-7.265625 0l-15.34375 -41.375l7.578125 0zm53.59375 -0.9375q8.90625 0 13.828125 6.40625q4.921875 6.40625 4.921875 16.453125l0 0.8125l-30.984375 0l0 0.515625q0 5.890625 3.4375 9.484375q3.4375 3.59375 9.453125 3.59375q4.53125 0 7.203125 -2.109375q2.6875 -2.109375 3.5 -5.96875l6.71875 0q-1.359375 6.875 -6.015625 10.5q-4.640625 3.609375 -11.640625 3.609375q-6.515625 0 -11.03125 -2.953125q-4.515625 -2.953125 -6.671875 -8.203125q-2.140625 -5.265625 -2.140625 -10.765625q0 -9.140625 5.5 -15.25q5.515625 -6.125 13.921875 -6.125zm-12.234375 17.65625l23.75 0q-0.3125 -5.03125 -3.65625 -8.34375q-3.328125 -3.328125 -8.328125 -3.328125q-4.6875 0 -8.015625 3.171875q-3.3125 3.15625 -3.75 8.5zm51.765625 -17.65625q8.359375 0 12.421875 3.25q4.0625 3.234375 4.453125 9.6875l-6.796875 0l0 -0.078125q-0.28125 -3.28125 -2.875 -5.078125q-2.59375 -1.796875 -6.703125 -1.796875q-4.09375 0 -6.46875 1.390625q-2.359375 1.375 -2.359375 3.875q0 2.265625 2.09375 3.71875q2.09375 1.4375 6.3125 2.34375l6.40625 1.4375q6.015625 1.328125 9.140625 4.09375q3.125 2.75 3.125 7.390625q0 6.09375 -4.734375 9.578125q-4.71875 3.484375 -12.890625 3.484375q-7.921875 0 -12.578125 -3.5625q-4.640625 -3.5625 -4.953125 -10.46875l6.828125 0q0.125 3.859375 3.046875 5.9375q2.9375 2.0625 8.046875 2.0625q4.921875 0 7.453125 -1.5625q2.546875 -1.5625 2.546875 -4.609375q0 -2.765625 -2.515625 -4.390625q-2.515625 -1.625 -10.328125 -3.1875q-7.8125 -1.515625 -11.0 -4.3125q-3.1875 -2.796875 -3.1875 -7.4375q0 -5.4375 4.40625 -8.59375q4.421875 -3.171875 11.109375 -3.171875zm35.703125 -11.4375l0 12.375l8.234375 0l0 6.015625l-8.234375 0l0 25.90625q0 3.078125 2.046875 3.265625q2.046875 0.171875 4.28125 0.171875l1.90625 0l0 6.015625l-5.625 0q-5.578125 0 -7.5 -1.984375q-1.90625 -2.0 -1.90625 -6.6875l0 -26.6875l-7.078125 0l0 -6.015625l7.078125 0l0 -12.375l6.796875 0zm15.0390625 -4.734375q6.359375 9.84375 9.4375 18.859375q3.09375 9.0 3.09375 18.5625q0 9.734375 -3.25 19.234375q-3.234375 9.484375 -9.28125 17.6875l-5.203125 0q5.359375 -8.46875 7.953125 -17.421875q2.59375 -8.953125 2.59375 -19.5q0 -10.625 -2.59375 -19.703125q-2.59375 -9.078125 -7.953125 -17.71875l5.203125 0z" fill-rule="nonzero"/><path fill="#f3f3f3" d="m52.21186 328.59122l-23.671875 59.859375l-5.875 0l23.6875 -59.859375l5.859375 0zm42.304688 0q-5.390625 8.4375 -7.96875 17.390625q-2.578125 8.9375 -2.578125 19.484375q0 10.703125 2.546875 19.734375q2.5625 9.03125 8.0 17.734375l-5.203125 0q-6.875 -10.703125 -9.734375 -19.5625q-2.84375 -8.875 -2.84375 -17.90625q0 -9.375 3.203125 -19.0q3.203125 -9.625 9.375 -17.875l5.203125 0zm13.75 4.734375l0 12.375l8.234375 0l0 6.015625l-8.234375 0l0 25.90625q0 3.078125 2.046875 3.265625q2.046875 0.171875 4.28125 0.171875l1.90625 0l0 6.015625l-5.625 0q-5.578125 0 -7.5 -1.984375q-1.90625 -2.0 -1.90625 -6.6875l0 -26.6875l-7.078125 0l0 -6.015625l7.078125 0l0 -12.375l6.796875 0zm32.64843 11.4375q8.4375 0 11.96875 3.015625q3.546875 3.0 3.546875 8.046875q0 21.515625 0 23.859375q0 2.34375 2.140625 2.34375q0.46875 0 1.015625 -0.109375q0.546875 -0.125 1.0625 -0.28125l0 5.28125q-0.9375 0.546875 -2.171875 0.84375q-1.234375 0.296875 -2.671875 0.296875q-2.8125 0 -4.296875 -1.578125q-1.484375 -1.59375 -1.484375 -4.84375q-2.703125 3.203125 -6.375 4.8125q-3.671875 1.609375 -8.203125 1.609375q-6.40625 0 -10.046867 -3.03125q-3.625 -3.03125 -3.625 -8.578125q0 -5.59375 3.546875 -8.84375q3.5624924 -3.265625 16.734367 -4.90625q4.453125 -0.59375 6.03125 -1.71875q1.578125 -1.140625 1.578125 -3.40625q0 -3.4375 -2.203125 -5.125q-2.203125 -1.703125 -7.015625 -1.703125q-5.03125 0 -7.5625 1.921875q-2.515625 1.90625 -2.703125 5.921875l-6.7968674 0q0.3125 -6.875 4.8437424 -10.34375q4.53125 -3.484375 12.6875 -3.484375zm-11.953125 31.171875q0 2.890625 2.109375 4.5q2.109375 1.59375 5.90625 1.59375q5.734375 0 9.171875 -2.84375q3.4375 -2.859375 3.4375 -6.375l0 -7.109375q-1.71875 1.21875 -4.453125 1.65625q-2.734375 0.421875 -7.265625 1.046875q-4.53125 0.65625 -6.71875 2.453125q-2.1875 1.796875 -2.1875 5.078125zm45.203125 -45.96875l0 33.828125l18.90625 -18.09375l9.09375 0l-16.40625 15.046875l17.625 26.328125l-8.640625 0l-14.171875 -21.609375l-6.40625 5.9375l0 15.671875l-6.796875 0l0 -57.109375l6.796875 0zm51.210938 14.796875q8.90625 0 13.828125 6.40625q4.921875 6.40625 4.921875 16.453125l0 0.8125l-30.984375 0l0 0.515625q0 5.890625 3.4375 9.484375q3.4375 3.59375 9.453125 3.59375q4.53125 0 7.203125 -2.109375q2.6875 -2.109375 3.5 -5.96875l6.71875 0q-1.359375 6.875 -6.015625 10.5q-4.640625 3.609375 -11.640625 3.609375q-6.515625 0 -11.03125 -2.953125q-4.515625 -2.953125 -6.671875 -8.203125q-2.140625 -5.265625 -2.140625 -10.765625q0 -9.140625 5.5 -15.25q5.515625 -6.125 13.921875 -6.125zm-12.234375 17.65625l23.75 0q-0.3125 -5.03125 -3.65625 -8.34375q-3.328125 -3.328125 -8.328125 -3.328125q-4.6875 0 -8.015625 3.171875q-3.3125 3.15625 -3.75 8.5zm67.03906 -32.453125l0 21.828125l0.15625 0q1.484375 -3.3125 5.03125 -5.171875q3.5625 -1.859375 8.046875 -1.859375q7.46875 0 10.84375 3.828125q3.375 3.828125 3.375 10.9375l0 27.546875l-6.796875 0l0 -28.25q0 -3.515625 -2.25 -5.796875q-2.234375 -2.28125 -6.21875 -2.28125q-5.75 0 -8.96875 3.53125q-3.21875 3.53125 -3.21875 9.15625l0 23.640625l-6.796875 0l0 -57.109375l6.796875 0zm55.539062 14.796875q9.375 0 14.71875 6.0625q5.359375 6.046875 5.359375 15.625q0 9.640625 -5.46875 15.625q-5.46875 5.984375 -14.609375 5.984375q-8.984375 0 -14.53125 -5.875q-5.546875 -5.890625 -5.546875 -15.734375q0 -9.84375 5.421875 -15.765625q5.4375 -5.921875 14.65625 -5.921875zm-12.890625 21.6875q0 7.109375 3.625 11.34375q3.640625 4.234375 9.265625 4.234375q5.59375 0 9.234375 -4.25q3.65625 -4.265625 3.65625 -11.328125q0 -7.078125 -3.640625 -11.390625q-3.625 -4.3125 -9.328125 -4.3125q-5.46875 0 -9.140625 4.234375q-3.671875 4.234375 -3.671875 11.46875zm60.90625 -21.6875q4.53125 0 7.390625 1.84375q2.875 1.828125 3.96875 5.1875q2.109375 -3.3125 5.5 -5.171875q3.40625 -1.859375 7.515625 -1.859375q6.984375 0 10.34375 3.171875q3.359375 3.15625 3.359375 8.546875l0 30.59375l-6.796875 0l0 -27.421875q0 -4.453125 -1.890625 -6.671875q-1.890625 -2.234375 -6.109375 -2.234375q-5.078125 0 -7.9375 2.96875q-2.84375 2.96875 -2.84375 7.375l0 25.984375l-6.84375 0l0 -27.421875q0 -4.453125 -1.875 -6.671875q-1.875 -2.234375 -5.859375 -2.234375q-3.234375 0 -5.734375 1.5625q-2.5 1.5625 -3.90625 4.28125q-1.40625 2.703125 -1.40625 4.578125l0 25.90625l-6.796875 0l0 -41.375l6.40625 0l0 6.09375l0.15625 0q2.34375 -3.546875 5.65625 -5.28125q3.328125 -1.75 7.703125 -1.75zm65.50781 0q8.90625 0 13.828125 6.40625q4.921875 6.40625 4.921875 16.453125l0 0.8125l-30.984375 0l0 0.515625q0 5.890625 3.4375 9.484375q3.4375 3.59375 9.453125 3.59375q4.53125 0 7.203125 -2.109375q2.6875 -2.109375 3.5 -5.96875l6.71875 0q-1.359375 6.875 -6.015625 10.5q-4.640625 3.609375 -11.640625 3.609375q-6.515625 0 -11.03125 -2.953125q-4.515625 -2.953125 -6.671875 -8.203125q-2.140625 -5.265625 -2.140625 -10.765625q0 -9.140625 5.5 -15.25q5.515625 -6.125 13.921875 -6.125zm-12.234375 17.65625l23.75 0q-0.3125 -5.03125 -3.65625 -8.34375q-3.328125 -3.328125 -8.328125 -3.328125q-4.6875 0 -8.015625 3.171875q-3.3125 3.15625 -3.75 8.5zm80.63281 -17.65625q8.859375 0 13.953125 6.09375q5.109375 6.09375 5.109375 15.671875q0 9.609375 -5.078125 15.578125q-5.078125 5.953125 -13.796875 5.953125q-3.859375 0 -7.5625 -1.609375q-3.6875 -1.609375 -5.828125 -4.890625l-0.15625 0l0 21.375l-6.796875 0l0 -57.234375l6.796875 0l0 5.625l0.15625 0q1.59375 -3.203125 5.046875 -4.875q3.46875 -1.6875 8.15625 -1.6875zm-13.59375 21.609375q0 7.1875 3.46875 11.421875q3.484375 4.234375 9.578125 4.234375q5.890625 0 9.125 -4.21875q3.25 -4.21875 3.25 -11.75q0 -6.6875 -3.421875 -11.0q-3.40625 -4.3125 -9.421875 -4.3125q-5.984375 0 -9.28125 4.375q-3.296875 4.375 -3.296875 11.25zm57.53125 -21.609375q8.4375 0 11.96875 3.015625q3.546875 3.0 3.546875 8.046875q0 21.515625 0 23.859375q0 2.34375 2.140625 2.34375q0.46875 0 1.015625 -0.109375q0.546875 -0.125 1.0625 -0.28125l0 5.28125q-0.9375 0.546875 -2.171875 0.84375q-1.234375 0.296875 -2.671875 0.296875q-2.8125 0 -4.296875 -1.578125q-1.484375 -1.59375 -1.484375 -4.84375q-2.703125 3.203125 -6.375 4.8125q-3.671875 1.609375 -8.203125 1.609375q-6.40625 0 -10.046875 -3.03125q-3.625 -3.03125 -3.625 -8.578125q0 -5.59375 3.546875 -8.84375q3.5625 -3.265625 16.734375 -4.90625q4.453125 -0.59375 6.03125 -1.71875q1.578125 -1.140625 1.578125 -3.40625q0 -3.4375 -2.203125 -5.125q-2.203125 -1.703125 -7.015625 -1.703125q-5.03125 0 -7.5625 1.921875q-2.515625 1.90625 -2.703125 5.921875l-6.796875 0q0.3125 -6.875 4.84375 -10.34375q4.53125 -3.484375 12.6875 -3.484375zm-11.953125 31.171875q0 2.890625 2.109375 4.5q2.109375 1.59375 5.90625 1.59375q5.734375 0 9.171875 -2.84375q3.4375 -2.859375 3.4375 -6.375l0 -7.109375q-1.71875 1.21875 -4.453125 1.65625q-2.734375 0.421875 -7.265625 1.046875q-4.53125 0.65625 -6.71875 2.453125q-2.1875 1.796875 -2.1875 5.078125zm41.21875 -30.234375l12.0625 33.828125l0.15625 0l11.609375 -33.828125l7.21875 0l-17.578125 45.796875q-2.765625 7.140625 -5.328125 9.640625q-2.5625 2.5 -7.09375 2.5q-1.25 0 -2.421875 -0.15625q-1.171875 -0.15625 -2.296875 -0.546875l0 -6.25q0.96875 0.3125 1.96875 0.625q1.0 0.3125 2.015625 0.3125q4.140625 0 5.78125 -4.140625q1.640625 -4.140625 2.609375 -6.640625l-16.40625 -41.140625l7.703125 0zm36.09375 -17.109375q6.359375 9.84375 9.4375 18.859375q3.09375 9.0 3.09375 18.5625q0 9.734375 -3.25 19.234375q-3.234375 9.484375 -9.28125 17.6875l-5.203125 0q5.359375 -8.46875 7.953125 -17.421875q2.59375 -8.953125 2.59375 -19.5q0 -10.625 -2.59375 -19.703125q-2.59375 -9.078125 -7.953125 -17.71875l5.203125 0zm82.64844 27.421875l0 5.46875l-40.3125 0l0 -5.46875l40.3125 0zm0 16.171875l0 5.4375l-40.3125 0l0 -5.4375l40.3125 0zm90.984375 -42.890625l-42.96875 59.546875l-6.875 0l43.046875 -59.546875l6.796875 0zm-44.578125 1.0625q6.484375 0 9.640625 4.078125q3.171875 4.078125 3.171875 11.890625q0 7.421875 -3.34375 11.765625q-3.328125 4.328125 -9.46875 4.328125q-6.359375 0 -9.671875 -4.109375q-3.296875 -4.125 -3.296875 -11.703125q0 -7.78125 3.3125 -12.015625q3.328125 -4.234375 9.65625 -4.234375zm-6.953125 16.125q0 6.09375 1.75 8.828125q1.765625 2.734375 4.96875 2.734375q3.40625 0 5.21875 -2.890625q1.8125 -2.890625 1.8125 -8.78125q0 -6.09375 -1.71875 -8.84375q-1.71875 -2.765625 -5.109375 -2.765625q-3.28125 0 -5.109375 2.921875q-1.8125 2.90625 -1.8125 8.796875zm46.484375 9.453125q6.328125 0 9.5625 4.015625q3.25 4.0 3.25 11.96875q0 7.265625 -3.34375 11.703125q-3.328125 4.4375 -9.46875 4.4375q-6.25 0 -9.609375 -4.0625q-3.359375 -4.078125 -3.359375 -11.8125q0 -7.765625 3.3125 -12.0q3.328125 -4.25 9.65625 -4.25zm-6.953125 16.09375q0 6.140625 1.734375 8.875q1.75 2.734375 4.984375 2.734375q3.515625 0 5.265625 -2.953125q1.765625 -2.953125 1.765625 -8.765625q0 -5.9375 -1.734375 -8.75q-1.734375 -2.8125 -5.09375 -2.8125q-3.28125 0 -5.109375 2.890625q-1.8125 2.890625 -1.8125 8.78125z" fill-rule="nonzero"/></g></svg>