<svg version="1.1" viewBox="0.0 0.0 960.0 540.0" fill="none" stroke="none" stroke-linecap="square" stroke-miterlimit="10" xmlns:xlink="http://www.w3.org/1999/xlink" xmlns="http://www.w3.org/2000/svg"><clipPath id="g13e308dba53_0_21.0"><path d="m0 0l960.0 0l0 540.0l-960.0 0l0 -540.0z" clip-rule="nonzero"/></clipPath><g clip-path="url(#g13e308dba53_0_21.0)"><path fill="#121212" d="m0 0l960.0 0l0 540.0l-960.0 0z" fill-rule="evenodd"/><path fill="#000000" fill-opacity="0.0" d="m930.0852 515.117l0 0c-8.514893 0.2816162 -16.82782 -1.8654785 -23.029663 -5.948181c-6.2018433 -4.0827026 -9.7595215 -9.750092 -9.855896 -15.700562l31.399536 -0.24795532z" fill-rule="evenodd"/><path fill="#000000" fill-opacity="0.0" d="m930.0852 515.117l0 0c-8.514893 0.2816162 -16.82782 -1.8654785 -23.029663 -5.948181c-6.2018433 -4.0827026 -9.7595215 -9.750092 -9.855896 -15.700562" fill-rule="evenodd"/><path stroke="#ffffff" stroke-width="2.0" stroke-linejoin="round" stroke-linecap="butt" d="m930.0852 515.117l0 0c-8.514893 0.2816162 -16.82782 -1.8654785 -23.029663 -5.948181c-6.2018433 -4.0827026 -9.7595215 -9.750092 -9.855896 -15.700562" fill-rule="evenodd"/><path fill="#000000" fill-opacity="0.0" d="m891.86096 492.13654l0.1574707 31.968506" fill-rule="evenodd"/><path stroke="#ffffff" stroke-width="2.0" stroke-linejoin="round" stroke-linecap="butt" d="m891.86096 492.13654l0.1574707 31.968506" fill-rule="evenodd"/><path fill="#000000" fill-opacity="0.0" d="m891.86096 522.99115l40.125977 0.28344727" fill-rule="evenodd"/><path stroke="#ffffff" stroke-width="2.0" stroke-linejoin="round" stroke-linecap="butt" d="m891.86096 522.99115l40.125977 0.28344727" fill-rule="evenodd"/><path fill="#000000" fill-opacity="0.0" d="m11.9763775 38.10499l920.0 0l0 148.6614l-920.0 0z" fill-rule="evenodd"/><path fill="#f3f3f3" d="m44.992004 73.36436l31.765625 51.09375l0.203125 0l0 -51.09375l15.671875 0l0 76.14062l-16.71875 0l-31.703125 -50.984367l-0.21875 0l0 50.984367l-15.671877 0l0 -76.14062l16.671877 0zm86.289154 19.53125q12.234375 0 19.546875 8.421875q7.328125 8.40625 7.328125 21.46875l-0.109375 2.8125l-39.78125 0q0.3125 7.1406174 3.71875 10.578117q3.40625 3.4375 9.765625 3.4375q4.109375 0 7.59375 -2.109375q3.5 -2.109375 4.4375 -5.078125l13.328125 0q-3.078125 9.375 -9.484375 13.984375q-6.40625 4.609375 -16.34375 4.609375q-12.765625 0 -20.46875 -8.078125q-7.703125 -8.078125 -7.703125 -20.937492q0 -12.34375 7.890625 -20.71875q7.890625 -8.390625 20.28125 -8.390625zm-13.015625 23.125l24.625 0q-1.09375 -6.09375 -3.9375 -8.90625q-2.828125 -2.8125 -8.203125 -2.8125q-5.515625 0 -8.75 3.125q-3.21875 3.125 -3.734375 8.59375zm67.96277 -38.171875l0 16.5l11.078125 0l0 10.15625l-11.078125 0l0 27.656242q0 3.390625 1.265625 4.71875q1.28125 1.328125 5.125 1.328125q1.3125 0 2.5 -0.109375q1.203125 -0.109375 2.1875 -0.3125l0 11.828125q-1.875 0.3125 -4.1875 0.40625q-2.3125 0.109375 -4.5625 0.109375q-9.828125 0 -13.65625 -3.359375q-3.828125 -3.359375 -3.828125 -9.40625l0 -32.859367l-9.171875 0l0 -10.15625l9.171875 0l0 -16.5l15.15625 0zm59.30594 -4.484375l12.03125 51.8125l0.203125 0l13.234375 -51.8125l15.671875 0l13.03125 52.4375l0.203125 0l12.5 -52.4375l16.40625 0l-20.46875 76.14062l-16.671875 0l-12.859375 -51.812492l-0.203125 0l-12.71875 51.812492l-16.96875 0l-20.15625 -76.14062l16.765625 0zm113.27142 19.53125q12.96875 0 20.78125 8.0q7.8125 7.984375 7.8125 21.109375q0 13.171867 -7.890625 21.093742q-7.890625 7.921875 -20.703125 7.921875q-12.8125 0 -20.65625 -7.96875q-7.828125 -7.96875 -7.828125 -21.046867q0 -13.0625 7.703125 -21.078125q7.71875 -8.03125 20.78125 -8.03125zm-13.328125 29.109375q0 8.703117 3.5625 13.156242q3.578125 4.453125 9.765625 4.453125q6.453125 0 9.9375 -4.609375q3.5 -4.609375 3.5 -12.999992q0 -8.21875 -3.390625 -12.953125q-3.375 -4.75 -10.15625 -4.75q-6.078125 0 -9.65625 4.40625q-3.5625 4.390625 -3.5625 13.296875zm83.8374 -29.109375q1.0 0 1.828125 0.140625q0.828125 0.125 1.5625 0.375l0 14.0625q-1.296875 -0.25 -2.53125 -0.375q-1.21875 -0.140625 -2.890625 -0.140625q-7.65625 0 -11.328125 4.6875q-3.65625 4.6875 -3.65625 12.546875l0 25.312492l-15.109375 0l0 -55.156242l14.375 0l0 10.265625l0.203125 0q2.40625 -5.421875 7.15625 -8.5625q4.765625 -3.15625 10.390625 -3.15625zm28.865723 -15.046875l0 16.5l11.078125 0l0 10.15625l-11.078125 0l0 27.656242q0 3.390625 1.265625 4.71875q1.28125 1.328125 5.125 1.328125q1.3125 0 2.5 -0.109375q1.203125 -0.109375 2.1875 -0.3125l0 11.828125q-1.875 0.3125 -4.1875 0.40625q-2.3125 0.109375 -4.5625 0.109375q-9.828125 0 -13.65625 -3.359375q-3.828125 -3.359375 -3.828125 -9.40625l0 -32.859367l-9.171875 0l0 -10.15625l9.171875 0l0 -16.5l15.15625 0zm33.4859 -4.484375l0 28.703125l0.359375 0q2.390625 -4.125 6.78125 -6.640625q4.40625 -2.53125 9.40625 -2.53125q10.53125 0 15.296875 5.375q4.765625 5.359375 4.765625 16.765625l0 34.468742l-15.15625 0l0 -31.609367q0 -6.453125 -2.21875 -9.765625q-2.21875 -3.3125 -7.46875 -3.3125q-6.296875 0 -9.03125 3.75q-2.734375 3.75 -2.734375 11.515625l0 29.421867l-15.109375 0l0 -76.14062l15.109375 0z" fill-rule="nonzero"/><path fill="#000000" fill-opacity="0.0" d="m15.118111 205.27559l929.7638 0l0 213.32283l-929.7638 0z" fill-rule="evenodd"/><path fill="#f3f3f3" d="m38.258736 233.96622l0 20.625l-5.421875 0l0 -20.625l5.421875 0zm11.21875 0l0 20.625l-5.4375 0l0 -20.625l5.4375 0zm30.734375 14.796875q8.4375 0 11.96875 3.015625q3.546875 3.0 3.546875 8.046875q0 21.515625 0 23.859375q0 2.34375 2.140625 2.34375q0.46875 0 1.015625 -0.109375q0.546875 -0.125 1.0625 -0.28125l0 5.28125q-0.9375 0.546875 -2.171875 0.84375q-1.234375 0.296875 -2.671875 0.296875q-2.8125 0 -4.296875 -1.578125q-1.484375 -1.59375 -1.484375 -4.84375q-2.703125 3.203125 -6.375 4.8125q-3.671875 1.609375 -8.203125 1.609375q-6.40625 0 -10.046875 -3.03125q-3.625 -3.03125 -3.625 -8.578125q0 -5.59375 3.546875 -8.84375q3.5625 -3.265625 16.734375 -4.90625q4.453125 -0.59375 6.03125 -1.71875q1.578125 -1.140625 1.578125 -3.40625q0 -3.4375 -2.203125 -5.125q-2.203125 -1.703125 -7.015625 -1.703125q-5.03125 0 -7.5625 1.921875q-2.515625 1.90625 -2.703125 5.921875l-6.796875 0q0.3125 -6.875 4.84375 -10.34375q4.53125 -3.484375 12.6875 -3.484375zm-11.953125 31.171875q0 2.890625 2.109375 4.5q2.109375 1.59375 5.90625 1.59375q5.734375 0 9.171875 -2.84375q3.4375 -2.859375 3.4375 -6.375l0 -7.109375q-1.71875 1.21875 -4.453125 1.65625q-2.734375 0.421875 -7.265625 1.046875q-4.53125 0.65625 -6.71875 2.453125q-2.1875 1.796875 -2.1875 5.078125zm51.765625 -31.171875q8.359367 0 12.421867 3.25q4.0625 3.234375 4.453125 9.6875l-6.796875 0l0 -0.078125q-0.28125 -3.28125 -2.8749924 -5.078125q-2.59375 -1.796875 -6.703125 -1.796875q-4.09375 0 -6.46875 1.390625q-2.359375 1.375 -2.359375 3.875q0 2.265625 2.09375 3.71875q2.09375 1.4375 6.3125 2.34375l6.40625 1.4375q6.0156174 1.328125 9.140617 4.09375q3.125 2.75 3.125 7.390625q0 6.09375 -4.734375 9.578125q-4.71875 3.484375 -12.890617 3.484375q-7.921875 0 -12.578125 -3.5625q-4.640625 -3.5625 -4.953125 -10.46875l6.828125 0q0.125 3.859375 3.046875 5.9375q2.9375 2.0625 8.046875 2.0625q4.921875 0 7.4531174 -1.5625q2.546875 -1.5625 2.546875 -4.609375q0 -2.765625 -2.515625 -4.390625q-2.5156174 -1.625 -10.328117 -3.1875q-7.8125 -1.515625 -11.0 -4.3125q-3.1875 -2.796875 -3.1875 -7.4375q0 -5.4375 4.40625 -8.59375q4.421875 -3.171875 11.109375 -3.171875zm39.999992 0q8.359375 0 12.421875 3.25q4.0625 3.234375 4.453125 9.6875l-6.796875 0l0 -0.078125q-0.28125 -3.28125 -2.875 -5.078125q-2.59375 -1.796875 -6.703125 -1.796875q-4.09375 0 -6.46875 1.390625q-2.359375 1.375 -2.359375 3.875q0 2.265625 2.09375 3.71875q2.09375 1.4375 6.3125 2.34375l6.40625 1.4375q6.015625 1.328125 9.140625 4.09375q3.125 2.75 3.125 7.390625q0 6.09375 -4.734375 9.578125q-4.71875 3.484375 -12.890625 3.484375q-7.921875 0 -12.578125 -3.5625q-4.640625 -3.5625 -4.953125 -10.46875l6.828125 0q0.125 3.859375 3.046875 5.9375q2.9375 2.0625 8.046875 2.0625q4.921875 0 7.453125 -1.5625q2.546875 -1.5625 2.546875 -4.609375q0 -2.765625 -2.515625 -4.390625q-2.515625 -1.625 -10.328125 -3.1875q-7.8125 -1.515625 -11.0 -4.3125q-3.1875 -2.796875 -3.1875 -7.4375q0 -5.4375 4.40625 -8.59375q4.421875 -3.171875 11.109375 -3.171875zm43.4375 0q8.90625 0 13.828125 6.40625q4.921875 6.40625 4.921875 16.453125l0 0.8125l-30.984375 0l0 0.515625q0 5.890625 3.4375 9.484375q3.4375 3.59375 9.453125 3.59375q4.53125 0 7.203125 -2.109375q2.6875 -2.109375 3.5 -5.96875l6.71875 0q-1.359375 6.875 -6.015625 10.5q-4.640625 3.609375 -11.640625 3.609375q-6.515625 0 -11.03125 -2.953125q-4.515625 -2.953125 -6.671875 -8.203125q-2.140625 -5.265625 -2.140625 -10.765625q0 -9.140625 5.5 -15.25q5.515625 -6.125 13.921875 -6.125zm-12.234375 17.65625l23.75 0q-0.3125 -5.03125 -3.65625 -8.34375q-3.328125 -3.328125 -8.328125 -3.328125q-4.6875 0 -8.015625 3.171875q-3.3125 3.15625 -3.75 8.5zm47.46875 -29.09375l0 12.375l8.234375 0l0 6.015625l-8.234375 0l0 25.90625q0 3.078125 2.046875 3.265625q2.046875 0.171875 4.28125 0.171875l1.90625 0l0 6.015625l-5.625 0q-5.578125 0 -7.5 -1.984375q-1.90625 -2.0 -1.90625 -6.6875l0 -26.6875l-7.078125 0l0 -6.015625l7.078125 0l0 -12.375l6.796875 0zm29.492188 11.4375q8.359375 0 12.421875 3.25q4.0625 3.234375 4.453125 9.6875l-6.796875 0l0 -0.078125q-0.28125 -3.28125 -2.875 -5.078125q-2.59375 -1.796875 -6.703125 -1.796875q-4.09375 0 -6.46875 1.390625q-2.359375 1.375 -2.359375 3.875q0 2.265625 2.09375 3.71875q2.09375 1.4375 6.3125 2.34375l6.40625 1.4375q6.015625 1.328125 9.140625 4.09375q3.125 2.75 3.125 7.390625q0 6.09375 -4.734375 9.578125q-4.71875 3.484375 -12.890625 3.484375q-7.921875 0 -12.578125 -3.5625q-4.640625 -3.5625 -4.953125 -10.46875l6.828125 0q0.125 3.859375 3.046875 5.9375q2.9375 2.0625 8.046875 2.0625q4.921875 0 7.453125 -1.5625q2.546875 -1.5625 2.546875 -4.609375q0 -2.765625 -2.515625 -4.390625q-2.515625 -1.625 -10.328125 -3.1875q-7.8125 -1.515625 -11.0 -4.3125q-3.1875 -2.796875 -3.1875 -7.4375q0 -5.4375 4.40625 -8.59375q4.421875 -3.171875 11.109375 -3.171875zm35.265625 -14.796875l0 20.625l-5.421875 0l0 -20.625l5.421875 0zm11.21875 0l0 20.625l-5.4375 0l0 -20.625l5.4375 0zm58.039062 31.671875l0 6.40625l-23.125 0l0 -6.40625l23.125 0zm40.390625 -31.671875l0 20.625l-5.421875 0l0 -20.625l5.421875 0zm11.21875 0l0 20.625l-5.4375 0l0 -20.625l5.4375 0zm21.015625 0l0 57.109375l-6.796875 0l0 -57.109375l6.796875 0zm17.773438 0l0 8.3125l-6.796875 0l0 -8.3125l6.796875 0zm0 15.734375l0 41.375l-6.796875 0l0 -41.375l6.796875 0zm27.492188 -0.9375q8.4375 0 11.96875 3.015625q3.546875 3.0 3.546875 8.046875q0 21.515625 0 23.859375q0 2.34375 2.140625 2.34375q0.46875 0 1.015625 -0.109375q0.546875 -0.125 1.0625 -0.28125l0 5.28125q-0.9375 0.546875 -2.171875 0.84375q-1.234375 0.296875 -2.671875 0.296875q-2.8125 0 -4.296875 -1.578125q-1.484375 -1.59375 -1.484375 -4.84375q-2.703125 3.203125 -6.375 4.8125q-3.671875 1.609375 -8.203125 1.609375q-6.40625 0 -10.046875 -3.03125q-3.625 -3.03125 -3.625 -8.578125q0 -5.59375 3.546875 -8.84375q3.5625 -3.265625 16.734375 -4.90625q4.453125 -0.59375 6.03125 -1.71875q1.578125 -1.140625 1.578125 -3.40625q0 -3.4375 -2.203125 -5.125q-2.203125 -1.703125 -7.015625 -1.703125q-5.03125 0 -7.5625 1.921875q-2.515625 1.90625 -2.703125 5.921875l-6.796875 0q0.3125 -6.875 4.84375 -10.34375q4.53125 -3.484375 12.6875 -3.484375zm-11.953125 31.171875q0 2.890625 2.109375 4.5q2.109375 1.59375 5.90625 1.59375q5.734375 0 9.171875 -2.84375q3.4375 -2.859375 3.4375 -6.375l0 -7.109375q-1.71875 1.21875 -4.453125 1.65625q-2.734375 0.421875 -7.265625 1.046875q-4.53125 0.65625 -6.71875 2.453125q-2.1875 1.796875 -2.1875 5.078125zm45.046875 -45.96875l0 21.359375l0.15625 0q1.59375 -3.203125 5.015625 -4.875q3.421875 -1.6875 8.1875 -1.6875q8.859375 0 13.953125 6.09375q5.109375 6.09375 5.109375 15.671875q0 9.609375 -5.078125 15.578125q-5.078125 5.953125 -13.796875 5.953125q-3.859375 0 -7.5625 -1.609375q-3.6875 -1.609375 -5.828125 -4.890625l-0.15625 0l0 5.515625l-6.796875 0l0 -57.109375l6.796875 0zm-0.234375 36.40625q0 7.1875 3.46875 11.421875q3.484375 4.234375 9.578125 4.234375q5.890625 0 9.125 -4.21875q3.25 -4.21875 3.25 -11.75q0 -6.6875 -3.421875 -11.0q-3.40625 -4.3125 -9.421875 -4.3125q-5.984375 0 -9.28125 4.375q-3.296875 4.375 -3.296875 11.25zm47.8125 -36.40625l0 8.3125l-6.796875 0l0 -8.3125l6.796875 0zm0 15.734375l0 41.375l-6.796875 0l0 -41.375l6.796875 0zm17.773438 -15.734375l0 57.109375l-6.796875 0l0 -57.109375l6.796875 0zm17.773438 0l0 8.3125l-6.796875 0l0 -8.3125l6.796875 0zm0 15.734375l0 41.375l-6.796875 0l0 -41.375l6.796875 0zm20.039062 -12.375l0 12.375l8.234375 0l0 6.015625l-8.234375 0l0 25.90625q0 3.078125 2.046875 3.265625q2.046875 0.171875 4.28125 0.171875l1.90625 0l0 6.015625l-5.625 0q-5.578125 0 -7.5 -1.984375q-1.90625 -2.0 -1.90625 -6.6875l0 -26.6875l-7.078125 0l0 -6.015625l7.078125 0l0 -12.375l6.796875 0zm22.929688 -3.359375l0 8.3125l-6.796875 0l0 -8.3125l6.796875 0zm0 15.734375l0 41.375l-6.796875 0l0 -41.375l6.796875 0zm27.773438 -0.9375q8.90625 0 13.828125 6.40625q4.921875 6.40625 4.921875 16.453125l0 0.8125l-30.984375 0l0 0.515625q0 5.890625 3.4375 9.484375q3.4375 3.59375 9.453125 3.59375q4.53125 0 7.203125 -2.109375q2.6875 -2.109375 3.5 -5.96875l6.71875 0q-1.359375 6.875 -6.015625 10.5q-4.640625 3.609375 -11.640625 3.609375q-6.515625 0 -11.03125 -2.953125q-4.515625 -2.953125 -6.671875 -8.203125q-2.140625 -5.265625 -2.140625 -10.765625q0 -9.140625 5.5 -15.25q5.515625 -6.125 13.921875 -6.125zm-12.234375 17.65625l23.75 0q-0.3125 -5.03125 -3.65625 -8.34375q-3.328125 -3.328125 -8.328125 -3.328125q-4.6875 0 -8.015625 3.171875q-3.3125 3.15625 -3.75 8.5zm51.765625 -17.65625q8.359375 0 12.421875 3.25q4.0625 3.234375 4.453125 9.6875l-6.796875 0l0 -0.078125q-0.28125 -3.28125 -2.875 -5.078125q-2.59375 -1.796875 -6.703125 -1.796875q-4.09375 0 -6.46875 1.390625q-2.359375 1.375 -2.359375 3.875q0 2.265625 2.09375 3.71875q2.09375 1.4375 6.3125 2.34375l6.40625 1.4375q6.015625 1.328125 9.140625 4.09375q3.125 2.75 3.125 7.390625q0 6.09375 -4.734375 9.578125q-4.71875 3.484375 -12.890625 3.484375q-7.921875 0 -12.578125 -3.5625q-4.640625 -3.5625 -4.953125 -10.46875l6.828125 0q0.125 3.859375 3.046875 5.9375q2.9375 2.0625 8.046875 2.0625q4.921875 0 7.453125 -1.5625q2.546875 -1.5625 2.546875 -4.609375q0 -2.765625 -2.515625 -4.390625q-2.515625 -1.625 -10.328125 -3.1875q-7.8125 -1.515625 -11.0 -4.3125q-3.1875 -2.796875 -3.1875 -7.4375q0 -5.4375 4.40625 -8.59375q4.421875 -3.171875 11.109375 -3.171875zm35.265625 -14.796875l0 20.625l-5.421875 0l0 -20.625l5.421875 0zm11.21875 0l0 20.625l-5.4375 0l0 -20.625l5.4375 0zm75.07031 26.046875l0 5.46875l-40.3125 0l0 -5.46875l40.3125 0zm0 16.171875l0 5.4375l-40.3125 0l0 -5.4375l40.3125 0z" fill-rule="nonzero"/><path fill="#f3f3f3" d="m44.196236 323.3256l4.421875 0l0 5.34375q6.28125 0.75 10.140625 4.703125q3.875 3.9375 5.59375 11.125l-6.796875 0q-0.8125 -4.109375 -3.15625 -6.390625q-2.34375 -2.28125 -5.78125 -2.875l0 19.6875l5.0 1.328125q3.0 0.828125 6.0625 2.875q3.078125 2.046875 4.75 5.09375q1.6875 3.046875 1.6875 6.84375q0 7.34375 -4.671875 11.984375q-4.671875 4.625 -12.796875 5.40625l0 6.5625l-4.453125 0l0 -6.5625q-8.15625 -0.90625 -12.765625 -5.765625q-4.609375 -4.875 -5.3125 -13.03125l6.796875 0q0.234375 5.109375 3.171875 8.296875q2.953125 3.1875 8.109375 4.078125l0 -21.203125q-9.171875 -2.15625 -12.796875 -5.53125q-3.609375 -3.375 -3.609375 -9.90625q0 -6.71875 4.40625 -11.40625q4.421875 -4.6875 12.0 -5.390625l0 -5.265625zm-9.171875 21.359375q0 3.515625 2.046875 5.578125q2.046875 2.046875 7.125 3.453125l0 -18.71875q-4.21875 0.4375 -6.703125 2.953125q-2.46875 2.515625 -2.46875 6.734375zm13.59375 37.34375q5.15625 -0.390625 7.734375 -3.0q2.578125 -2.625 2.578125 -7.234375q0 -3.515625 -2.15625 -5.78125q-2.140625 -2.265625 -8.15625 -4.0625l0 20.078125zm67.375 -37.265625q7.46875 0 10.84375 3.828125q3.3749924 3.828125 3.3749924 10.9375l0 27.546875l-6.7968674 0l0 -28.25q0 -3.515625 -2.25 -5.796875q-2.234375 -2.28125 -6.21875 -2.28125q-5.75 0 -8.96875 3.53125q-3.21875 3.53125 -3.21875 9.15625l0 23.640625l-6.796875 0l0 -41.375l6.40625 0l0 6.5625l0.15625 0q2.265625 -3.859375 5.5625 -5.671875q3.296875 -1.828125 7.90625 -1.828125zm41.64843 0q8.90625 0 13.828125 6.40625q4.921875 6.40625 4.921875 16.453125l0 0.8125l-30.984375 0l0 0.515625q0 5.890625 3.4375 9.484375q3.4375 3.59375 9.453125 3.59375q4.53125 0 7.203125 -2.109375q2.6875 -2.109375 3.5 -5.96875l6.71875 0q-1.359375 6.875 -6.015625 10.5q-4.640625 3.609375 -11.640625 3.609375q-6.515625 0 -11.03125 -2.953125q-4.515625 -2.953125 -6.671875 -8.203125q-2.140625 -5.265625 -2.140625 -10.765625q0 -9.140625 5.5 -15.25q5.515625 -6.125 13.921875 -6.125zm-12.234375 17.65625l23.75 0q-0.3125 -5.03125 -3.65625 -8.34375q-3.328125 -3.328125 -8.328125 -3.328125q-4.6875 0 -8.015625 3.171875q-3.3125 3.15625 -3.75 8.5zm47.46875 -29.09375l0 12.375l8.234375 0l0 6.015625l-8.234375 0l0 25.90625q0 3.078125 2.046875 3.265625q2.046875 0.171875 4.28125 0.171875l1.90625 0l0 6.015625l-5.625 0q-5.578125 0 -7.5 -1.984375q-1.90625 -2.0 -1.90625 -6.6875l0 -26.6875l-7.078125 0l0 -6.015625l7.078125 0l0 -12.375l6.796875 0zm41.71875 12.375l9.375 33.828125l0.15625 0l8.3125 -33.828125l7.421875 0l8.640625 33.640625l0.078125 0.1875l0.109375 0l9.265625 -33.828125l7.0625 0l-13.15625 41.25l-0.078125 0.125l-7.1875 0l-8.359375 -32.703125l-0.078125 -0.1875l-0.125 0l-8.3125 32.890625l-7.34375 0l-13.28125 -41.375l7.5 0zm74.71875 -0.9375q9.375 0 14.71875 6.0625q5.359375 6.046875 5.359375 15.625q0 9.640625 -5.46875 15.625q-5.46875 5.984375 -14.609375 5.984375q-8.984375 0 -14.53125 -5.875q-5.546875 -5.890625 -5.546875 -15.734375q0 -9.84375 5.421875 -15.765625q5.4375 -5.921875 14.65625 -5.921875zm-12.890625 21.6875q0 7.109375 3.625 11.34375q3.640625 4.234375 9.265625 4.234375q5.59375 0 9.234375 -4.25q3.65625 -4.265625 3.65625 -11.328125q0 -7.078125 -3.640625 -11.390625q-3.625 -4.3125 -9.328125 -4.3125q-5.46875 0 -9.140625 4.234375q-3.671875 4.234375 -3.671875 11.46875zm61.5625 -21.71875q0.234375 0 0.421875 0q0.203125 0 0.515625 0.03125l0 7.1875q-7.65625 0 -11.3125 4.0625q-3.640625 4.0625 -3.640625 12.546875l0 18.515625l-6.796875 0l0 -41.375l6.40625 0l0 8.71875l0.15625 0q2.375 -4.921875 5.875 -7.296875q3.5 -2.390625 8.375 -2.390625zm15.90625 -11.40625l0 12.375l8.234375 0l0 6.015625l-8.234375 0l0 25.90625q0 3.078125 2.046875 3.265625q2.046875 0.171875 4.28125 0.171875l1.90625 0l0 6.015625l-5.625 0q-5.578125 0 -7.5 -1.984375q-1.90625 -2.0 -1.90625 -6.6875l0 -26.6875l-7.078125 0l0 -6.015625l7.078125 0l0 -12.375l6.796875 0zm22.539062 -3.359375l0 21.828125l0.15625 0q1.484375 -3.3125 5.03125 -5.171875q3.5625 -1.859375 8.046875 -1.859375q7.46875 0 10.84375 3.828125q3.375 3.828125 3.375 10.9375l0 27.546875l-6.796875 0l0 -28.25q0 -3.515625 -2.25 -5.796875q-2.234375 -2.28125 -6.21875 -2.28125q-5.75 0 -8.96875 3.53125q-3.21875 3.53125 -3.21875 9.15625l0 23.640625l-6.796875 0l0 -57.109375l6.796875 0z" fill-rule="nonzero"/></g></svg>