<svg version="1.1" viewBox="0.0 0.0 960.0 540.0" fill="none" stroke="none" stroke-linecap="square" stroke-miterlimit="10" xmlns:xlink="http://www.w3.org/1999/xlink" xmlns="http://www.w3.org/2000/svg"><clipPath id="g12a8c0f292d_0_11.0"><path d="m0 0l960.0 0l0 540.0l-960.0 0l0 -540.0z" clip-rule="nonzero"/></clipPath><g clip-path="url(#g12a8c0f292d_0_11.0)"><path fill="#000000" d="m0 0l960.0 0l0 540.0l-960.0 0z" fill-rule="evenodd"/><path fill="#000000" fill-opacity="0.0" d="m0 109.10236l960.0 0l0 321.7953l-960.0 0z" fill-rule="evenodd"/><path fill="#ffffff" d="m48.050415 306.79688q-6.203125 0 -11.609375 -2.59375q-5.390625 -2.609375 -8.796875 -7.5l5.8125 -6.796875q2.890625 4.0 6.53125 6.15625q3.65625 2.140625 8.0625 2.140625q12.0 0 12.0 -14.203125l0 -39.296875l-25.296875 0l0 -8.703125l35.203125 0l0 47.5q0 11.703125 -5.5625 17.5q-5.546875 5.796875 -16.34375 5.796875zm63.206207 -0.203125q-6.8125 0 -11.96875 -2.5q-5.140625 -2.5 -8.0 -7.640625q-2.84375 -5.15625 -2.84375 -12.953125l0 -30.5l9.609375 0l0 29.40625q0 7.796875 3.75 11.703125q3.75 3.890625 10.546875 3.890625q5.0 0 8.703125 -2.046875q3.703125 -2.046875 5.703125 -6.0q2.0 -3.953125 2.0 -9.546875l0 -27.40625l9.59375 0l0 53.0l-9.09375 0l0 -14.296875l1.5 3.796875q-2.609375 5.296875 -7.8125 8.203125q-5.1875 2.890625 -11.6875 2.890625zm60.59056 0q-6.59375 0 -12.546875 -1.796875q-5.953125 -1.796875 -9.34375 -4.390625l4.0 -7.609375q3.390625 2.296875 8.390625 3.90625q5.0 1.59375 10.203125 1.59375q6.703125 0 9.640625 -1.890625q2.953125 -1.90625 2.953125 -5.3125q0 -2.5 -1.796875 -3.890625q-1.796875 -1.40625 -4.75 -2.09375q-2.953125 -0.703125 -6.546875 -1.25q-3.59375 -0.5625 -7.203125 -1.40625q-3.59375 -0.859375 -6.59375 -2.40625q-3.0 -1.546875 -4.8125 -4.296875q-1.796875 -2.75 -1.796875 -7.34375q0 -4.8125 2.703125 -8.40625q2.703125 -3.59375 7.65625 -5.546875q4.953125 -1.953125 11.75 -1.953125q5.203125 0 10.546875 1.25q5.34375 1.25 8.75 3.546875l-4.09375 7.609375q-3.609375 -2.40625 -7.515625 -3.296875q-3.890625 -0.90625 -7.796875 -0.90625q-6.296875 0 -9.40625 2.046875q-3.09375 2.046875 -3.09375 5.25q0 2.703125 1.84375 4.15625q1.859375 1.4375 4.8125 2.25q2.953125 0.796875 6.546875 1.34375q3.609375 0.546875 7.203125 1.40625q3.59375 0.84375 6.546875 2.34375q2.953125 1.5 4.796875 4.203125q1.859375 2.703125 1.859375 7.203125q0 4.796875 -2.8125 8.296875q-2.796875 3.5 -7.890625 5.453125q-5.09375 1.9375 -12.203125 1.9375zm53.099945 0q-8.0 0 -12.40625 -4.296875q-4.390625 -4.296875 -4.390625 -12.296875l0 -48.59375l9.59375 0l0 48.1875q0 4.3125 2.15625 6.609375q2.15625 2.296875 6.15625 2.296875q4.5 0 7.5 -2.5l3.0 6.90625q-2.203125 1.890625 -5.265625 2.796875q-3.046875 0.890625 -6.34375 0.890625zm-25.796875 -45.6875l0 -7.90625l33.796875 0l0 7.90625l-33.796875 0zm52.306213 45.6875q-2.8125 0 -4.8125 -1.9375q-2.0 -1.953125 -2.0 -4.953125q0 -3.0 2.0 -4.890625q2.0 -1.90625 4.8125 -1.90625q2.6875 0 4.6406403 1.90625q1.953125 1.890625 1.953125 4.890625q0 3.0 -1.953125 4.953125q-1.9531403 1.9375 -4.6406403 1.9375zm30.590591 -17.5l-0.5 -12.1875l39.703125 -40.90625l11.40625 0l-30.703125 32.40625l-5.609375 6.1875l-14.296875 14.5zm-8.796875 16.90625l0 -70.0l10.0 0l0 70.0l-10.0 0zm49.59375 0l-28.6875 -33.40625l6.6875 -7.390625l33.703125 40.796875l-11.703125 0zm42.20932 0.59375q-8.5 0 -14.953125 -3.5q-6.453125 -3.5 -10.0 -9.59375q-3.546875 -6.09375 -3.546875 -14.0q0 -7.90625 3.4375 -14.0q3.453125 -6.09375 9.5 -9.546875q6.0625 -3.453125 13.65625 -3.453125q7.703125 0 13.59375 3.40625q5.90625 3.390625 9.25 9.546875q3.359375 6.140625 3.359375 14.34375q0 0.609375 -0.046875 1.40625q-0.046875 0.796875 -0.15625 1.5l-45.09375 0l0 -6.90625l40.09375 0l-3.890625 2.40625q0.09375 -5.109375 -2.109375 -9.109375q-2.203125 -4.0 -6.046875 -6.25q-3.84375 -2.25 -8.953125 -2.25q-5.0 0 -8.90625 2.25q-3.890625 2.25 -6.09375 6.3125q-2.203125 4.046875 -2.203125 9.25l0 1.59375q0 5.296875 2.453125 9.453125q2.453125 4.140625 6.84375 6.453125q4.40625 2.296875 10.109375 2.296875q4.703125 0 8.546875 -1.59375q3.859375 -1.609375 6.75 -4.8125l5.296875 6.203125q-3.59375 4.203125 -8.953125 6.40625q-5.34375 2.1875 -11.9375 2.1875zm61.19992 0q-8.5 0 -14.953125 -3.5q-6.453125 -3.5 -10.0 -9.59375q-3.546875 -6.09375 -3.546875 -14.0q0 -7.90625 3.4375 -14.0q3.453125 -6.09375 9.5 -9.546875q6.0625 -3.453125 13.65625 -3.453125q7.703125 0 13.59375 3.40625q5.90625 3.390625 9.25 9.546875q3.359375 6.140625 3.359375 14.34375q0 0.609375 -0.046875 1.40625q-0.046875 0.796875 -0.15625 1.5l-45.09375 0l0 -6.90625l40.09375 0l-3.890625 2.40625q0.09375 -5.109375 -2.109375 -9.109375q-2.203125 -4.0 -6.046875 -6.25q-3.84375 -2.25 -8.953125 -2.25q-5.0 0 -8.90625 2.25q-3.890625 2.25 -6.09375 6.3125q-2.203125 4.046875 -2.203125 9.25l0 1.59375q0 5.296875 2.453125 9.453125q2.453125 4.140625 6.84375 6.453125q4.40625 2.296875 10.109375 2.296875q4.703125 0 8.546875 -1.59375q3.859375 -1.609375 6.75 -4.8125l5.296875 6.203125q-3.59375 4.203125 -8.953125 6.40625q-5.34375 2.1875 -11.9375 2.1875zm65.69995 0q-6.609375 0 -12.0625 -3.046875q-5.4375 -3.046875 -8.6875 -9.046875q-3.25 -6.0 -3.25 -15.0q0 -9.0 3.140625 -15.0q3.15625 -6.0 8.609375 -9.0q5.453125 -3.0 12.25 -3.0q7.796875 0 13.796875 3.40625q6.0 3.390625 9.5 9.453125q3.5 6.046875 3.5 14.140625q0 8.09375 -3.5 14.203125q-3.5 6.09375 -9.5 9.5q-6.0 3.390625 -13.796875 3.390625zm-28.109375 18.8125l0 -72.40625l9.203125 0l0 14.296875l-0.59375 12.296875l1.0 12.3125l0 33.5l-9.609375 0zm27.3125 -27.203125q5.09375 0 9.140625 -2.296875q4.046875 -2.3125 6.390625 -6.5625q2.359375 -4.25 2.359375 -9.84375q0 -5.703125 -2.359375 -9.84375q-2.34375 -4.15625 -6.390625 -6.453125q-4.046875 -2.296875 -9.140625 -2.296875q-5.0 0 -9.0625 2.296875q-4.046875 2.296875 -6.40625 6.453125q-2.34375 4.140625 -2.34375 9.84375q0 5.59375 2.34375 9.84375q2.359375 4.25 6.40625 6.5625q4.0625 2.296875 9.0625 2.296875zm41.99994 8.390625q-2.8125 0 -4.8125 -1.9375q-2.0 -1.953125 -2.0 -4.953125q0 -3.0 2.0 -4.890625q2.0 -1.90625 4.8125 -1.90625q2.6875 0 4.640625 1.90625q1.953125 1.890625 1.953125 4.890625q0 3.0 -1.953125 4.953125q-1.953125 1.9375 -4.640625 1.9375z" fill-rule="nonzero"/><path fill="#00ffff" d="m554.94995 306.0l0 -70.0l31.40625 0q12.09375 0 18.59375 4.859375q6.5 4.84375 6.5 13.234375q0 5.703125 -2.546875 9.609375q-2.546875 3.890625 -6.859375 6.0q-4.296875 2.09375 -9.296875 2.09375l1.796875 -3.0q6.0 0 10.59375 2.109375q4.609375 2.09375 7.3125 6.140625q2.703125 4.046875 2.703125 10.046875q0 9.0 -6.75 13.953125q-6.75 4.953125 -20.046875 4.953125l-33.40625 0zm10.0 -8.09375l23.0 0q8.296875 0 12.6875 -2.796875q4.40625 -2.8125 4.40625 -8.8125q0 -6.09375 -4.40625 -8.890625q-4.390625 -2.8125 -12.6875 -2.8125l-23.90625 0l0 -8.09375l21.40625 0q7.59375 0 11.796875 -2.796875q4.203125 -2.796875 4.203125 -8.40625q0 -5.59375 -4.203125 -8.390625q-4.203125 -2.8125 -11.796875 -2.8125l-20.5 0l0 53.8125zm86.6062 8.6875q-6.8125 0 -11.96875 -2.5q-5.140625 -2.5 -8.0 -7.640625q-2.84375 -5.15625 -2.84375 -12.953125l0 -30.5l9.609375 0l0 29.40625q0 7.796875 3.75 11.703125q3.75 3.890625 10.546875 3.890625q5.0 0 8.703125 -2.046875q3.703125 -2.046875 5.703125 -6.0q2.0 -3.953125 2.0 -9.546875l0 -27.40625l9.59375 0l0 53.0l-9.09375 0l0 -14.296875l1.5 3.796875q-2.609375 5.296875 -7.8125 8.203125q-5.1875 2.890625 -11.6875 2.890625zm47.69989 19.40625q-3.8125 0 -7.40625 -1.25q-3.59375 -1.25 -6.203125 -3.65625l4.109375 -7.1875q2.0 1.890625 4.390625 2.890625q2.40625 1.0 5.109375 1.0q3.5 0 5.796875 -1.796875q2.296875 -1.796875 4.296875 -6.40625l3.296875 -7.296875l1.0 -1.203125l20.796875 -48.09375l9.40625 0l-25.703125 58.296875q-2.296875 5.609375 -5.15625 8.796875q-2.84375 3.203125 -6.25 4.546875q-3.390625 1.359375 -7.484375 1.359375zm12.59375 -18.296875l-24.203125 -54.703125l10.0 0l20.609375 47.203125l-6.40625 7.5zm40.993713 -1.703125l0 -53.0l9.609375 0l0 53.0l-9.609375 0zm4.8125 -63.203125q-2.796875 0 -4.65625 -1.796875q-1.84375 -1.796875 -1.84375 -4.40625q0 -2.6875 1.84375 -4.484375q1.859375 -1.8125 4.65625 -1.8125q2.796875 0 4.640625 1.75q1.859375 1.75 1.859375 4.359375q0 2.6875 -1.796875 4.546875q-1.796875 1.84375 -4.703125 1.84375zm51.399963 9.703125q6.5 0 11.4375 2.5q4.953125 2.5 7.75 7.609375q2.8125 5.09375 2.8125 12.890625l0 30.5l-9.609375 0l0 -29.40625q0 -7.6875 -3.75 -11.59375q-3.75 -3.90625 -10.546875 -3.90625q-5.09375 0 -8.90625 2.0q-3.796875 2.0 -5.84375 5.90625q-2.046875 3.90625 -2.046875 9.703125l0 27.296875l-9.609375 0l0 -53.0l9.203125 0l0 14.296875l-1.5 -3.796875q2.609375 -5.203125 8.0 -8.09375q5.40625 -2.90625 12.609375 -2.90625zm62.99054 73.5q-7.296875 0 -14.15625 -2.046875q-6.84375 -2.046875 -11.140625 -5.859375l4.59375 -7.390625q3.703125 3.203125 9.09375 5.046875q5.40625 1.84375 11.3125 1.84375q9.40625 0 13.796875 -4.40625q4.40625 -4.390625 4.40625 -13.390625l0 -11.203125l1.0 -10.5l-0.5 -10.59375l0 -14.5l9.09375 0l0 45.796875q0 14.0 -7.0 20.59375q-7.0 6.609375 -20.5 6.609375zm-1.203125 -22.203125q-7.6875 0 -13.75 -3.25q-6.046875 -3.25 -9.59375 -9.046875q-3.546875 -5.796875 -3.546875 -13.40625q0 -7.6875 3.546875 -13.4375q3.546875 -5.75 9.59375 -8.953125q6.0625 -3.203125 13.75 -3.203125q6.8125 0 12.40625 2.75q5.59375 2.75 8.9375 8.453125q3.359375 5.703125 3.359375 14.390625q0 8.609375 -3.359375 14.3125q-3.34375 5.6875 -8.9375 8.546875q-5.59375 2.84375 -12.40625 2.84375zm1.109375 -8.390625q5.296875 0 9.390625 -2.203125q4.109375 -2.203125 6.453125 -6.09375q2.359375 -3.90625 2.359375 -9.015625q0 -5.09375 -2.359375 -8.984375q-2.34375 -3.90625 -6.453125 -6.046875q-4.09375 -2.15625 -9.390625 -2.15625q-5.296875 0 -9.453125 2.15625q-4.15625 2.140625 -6.5 6.046875q-2.34375 3.890625 -2.34375 8.984375q0 5.109375 2.34375 9.015625q2.34375 3.890625 6.5 6.09375q4.15625 2.203125 9.453125 2.203125zm48.203125 11.1875q-2.8125 0 -4.8125 -1.9375q-2.0 -1.953125 -2.0 -4.953125q0 -3.0 2.0 -4.890625q2.0 -1.90625 4.8125 -1.90625q2.6875 0 4.640625 1.90625q1.953125 1.890625 1.953125 4.890625q0 3.0 -1.953125 4.953125q-1.953125 1.9375 -4.640625 1.9375z" fill-rule="nonzero"/><path fill="#000000" fill-opacity="0.0" d="m930.0852 515.117l0 0c-8.514893 0.2816162 -16.82782 -1.8654785 -23.029663 -5.948181c-6.2018433 -4.0827026 -9.7595215 -9.750092 -9.855896 -15.700562l31.399536 -0.24795532z" fill-rule="evenodd"/><path fill="#000000" fill-opacity="0.0" d="m930.0852 515.117l0 0c-8.514893 0.2816162 -16.82782 -1.8654785 -23.029663 -5.948181c-6.2018433 -4.0827026 -9.7595215 -9.750092 -9.855896 -15.700562" fill-rule="evenodd"/><path stroke="#ffffff" stroke-width="2.0" stroke-linejoin="round" stroke-linecap="butt" d="m930.0852 515.117l0 0c-8.514893 0.2816162 -16.82782 -1.8654785 -23.029663 -5.948181c-6.2018433 -4.0827026 -9.7595215 -9.750092 -9.855896 -15.700562" fill-rule="evenodd"/><path fill="#000000" fill-opacity="0.0" d="m891.86096 492.13654l0.1574707 31.968506" fill-rule="evenodd"/><path stroke="#ffffff" stroke-width="2.0" stroke-linejoin="round" stroke-linecap="butt" d="m891.86096 492.13654l0.1574707 31.968506" fill-rule="evenodd"/><path fill="#000000" fill-opacity="0.0" d="m891.86096 522.99115l40.125977 0.28344727" fill-rule="evenodd"/><path stroke="#ffffff" stroke-width="2.0" stroke-linejoin="round" stroke-linecap="butt" d="m891.86096 522.99115l40.125977 0.28344727" fill-rule="evenodd"/></g></svg>