<svg version="1.1" viewBox="0.0 0.0 960.0 540.0" fill="none" stroke="none" stroke-linecap="square" stroke-miterlimit="10" xmlns:xlink="http://www.w3.org/1999/xlink" xmlns="http://www.w3.org/2000/svg"><clipPath id="g77fb879b8d_1_8.0"><path d="m0 0l960.0 0l0 540.0l-960.0 0l0 -540.0z" clip-rule="nonzero"/></clipPath><g clip-path="url(#g77fb879b8d_1_8.0)"><path fill="#003026" d="m0 0l960.0 0l0 540.0l-960.0 0z" fill-rule="evenodd"/><path fill="#000000" fill-opacity="0.0" d="m684.11676 324.5277l0 0c-88.13135 2.0125427 -173.9281 -16.708374 -237.92401 -51.91513c-63.99591 -35.20677 -100.76538 -83.91461 -101.96591 -135.07228l327.0248 -2.5822906z" fill-rule="evenodd"/><path fill="#000000" fill-opacity="0.0" d="m684.11676 324.5277l0 0c-88.13135 2.0125427 -173.9281 -16.708374 -237.92401 -51.91513c-63.99591 -35.20677 -100.76538 -83.91461 -101.96591 -135.07228" fill-rule="evenodd"/><path stroke="#ffffff" stroke-width="16.0" stroke-linejoin="round" stroke-linecap="butt" d="m684.11676 324.5277l0 0c-88.13135 2.0125427 -173.9281 -16.708374 -237.92401 -51.91513c-63.99591 -35.20677 -100.76538 -83.91461 -101.96591 -135.07228" fill-rule="evenodd"/><path fill="#000000" fill-opacity="0.0" d="m288.61954 125.552284l1.669281 276.53543" fill-rule="evenodd"/><path stroke="#ffffff" stroke-width="16.0" stroke-linejoin="round" stroke-linecap="butt" d="m288.61954 125.552284l1.669281 276.53543" fill-rule="evenodd"/><path fill="#000000" fill-opacity="0.0" d="m296.7639 393.706l417.73227 2.330719" fill-rule="evenodd"/><path stroke="#ffffff" stroke-width="16.0" stroke-linejoin="round" stroke-linecap="butt" d="m296.7639 393.706l417.73227 2.330719" fill-rule="evenodd"/></g></svg>