<svg version="1.1" viewBox="0.0 0.0 960.0 540.0" fill="none" stroke="none" stroke-linecap="square" stroke-miterlimit="10" xmlns:xlink="http://www.w3.org/1999/xlink" xmlns="http://www.w3.org/2000/svg"><clipPath id="g8b471e538b_0_0.0"><path d="m0 0l960.0 0l0 540.0l-960.0 0l0 -540.0z" clip-rule="nonzero"/></clipPath><g clip-path="url(#g8b471e538b_0_0.0)"><path fill="#212121" d="m0 0l960.0 0l0 540.0l-960.0 0z" fill-rule="evenodd"/><path fill="#000000" fill-opacity="0.0" d="m41.19685 269.9999l877.6063 0l0 141.13385l-877.6063 0z" fill-rule="evenodd"/><path fill="#ffffff" d="m62.303967 319.9174l38.281254 0l0 5.1875l-38.281254 0l0 -5.1875zm0 20.328125l38.281254 0l0 5.1875l-38.281254 0l0 -5.1875zm116.15605 6.78125l-34.3125 0l-7.390625 16.453125l-6.78125 0l28.171875 -61.59375l6.421875 0l28.15625 61.59375l-6.859375 0l-7.40625 -16.453125zm-2.375 -5.28125l-14.78125 -33.09375l-14.78125 33.09375l29.5625 0zm37.499786 22.171875q-5.640625 0 -10.796875 -1.625q-5.140625 -1.625 -8.046875 -4.09375l2.828125 -4.921875q2.90625 2.28125 7.296875 3.734375q4.40625 1.453125 9.15625 1.453125q6.328125 0 9.359375 -1.96875q3.046875 -1.984375 3.046875 -5.59375q0 -2.5625 -1.671875 -4.015625q-1.671875 -1.453125 -4.234375 -2.1875q-2.546875 -0.75 -6.765625 -1.453125q-5.640625 -1.0625 -9.078125 -2.15625q-3.421875 -1.109375 -5.84375 -3.75q-2.421875 -2.640625 -2.421875 -7.296875q0 -5.8125 4.84375 -9.5q4.84375 -3.703125 13.46875 -3.703125q4.484375 0 8.96875 1.1875q4.5 1.1875 7.390625 3.125l-2.71875 5.015625q-5.71875 -3.953125 -13.640625 -3.953125q-5.984375 0 -9.03125 2.109375q-3.03125 2.109375 -3.03125 5.546875q0 2.640625 1.71875 4.21875q1.71875 1.578125 4.265625 2.328125q2.5625 0.75 7.046875 1.546875q5.546875 1.046875 8.890625 2.109375q3.34375 1.046875 5.71875 3.609375q2.375 2.546875 2.375 7.03125q0 6.078125 -5.0625 9.640625q-5.0625 3.5625 -14.03125 3.5625zm43.032013 0q-5.6406097 0 -10.79686 -1.625q-5.140625 -1.625 -8.046875 -4.09375l2.828125 -4.921875q2.90625 2.28125 7.296875 3.734375q4.40625 1.453125 9.156235 1.453125q6.328125 0 9.359375 -1.96875q3.046875 -1.984375 3.046875 -5.59375q0 -2.5625 -1.671875 -4.015625q-1.671875 -1.453125 -4.234375 -2.1875q-2.546875 -0.75 -6.765625 -1.453125q-5.6406097 -1.0625 -9.07811 -2.15625q-3.421875 -1.109375 -5.84375 -3.75q-2.421875 -2.640625 -2.421875 -7.296875q0 -5.8125 4.84375 -9.5q4.84375 -3.703125 13.468735 -3.703125q4.484375 0 8.96875 1.1875q4.5 1.1875 7.390625 3.125l-2.71875 5.015625q-5.71875 -3.953125 -13.640625 -3.953125q-5.9843597 0 -9.031235 2.109375q-3.03125 2.109375 -3.03125 5.546875q0 2.640625 1.71875 4.21875q1.71875 1.578125 4.265625 2.328125q2.5625 0.75 7.0468597 1.546875q5.546875 1.046875 8.890625 2.109375q3.34375 1.046875 5.71875 3.609375q2.375 2.546875 2.375 7.03125q0 6.078125 -5.0625 9.640625q-5.0625 3.5625 -14.03125 3.5625zm70.92267 -21.640625l-38.71875 0q0.53125 7.21875 5.546875 11.65625q5.015625 4.4375 12.671875 4.4375q4.3125 0 7.921875 -1.53125q3.609375 -1.546875 6.25 -4.53125l3.515625 4.046875q-3.078125 3.6875 -7.703125 5.625q-4.625 1.9375 -10.15625 1.9375q-7.140625 0 -12.640625 -3.03125q-5.5 -3.03125 -8.578125 -8.40625q-3.078125 -5.375 -3.078125 -12.140625q0 -6.78125 2.9375 -12.140625q2.953125 -5.375 8.09375 -8.359375q5.15625 -3.0 11.578125 -3.0q6.4375 0 11.53125 3.0q5.109375 2.984375 8.015625 8.3125q2.90625 5.3125 2.90625 12.1875l-0.09375 1.9375zm-22.359375 -20.0625q-6.6875 0 -11.21875 4.265625q-4.53125 4.265625 -5.140625 11.125l32.828125 0q-0.625 -6.859375 -5.15625 -11.125q-4.53125 -4.265625 -11.3125 -4.265625zm59.58954 38.453125q-1.765625 1.578125 -4.359375 2.421875q-2.59375 0.828125 -5.421875 0.828125q-6.5 0 -10.03125 -3.515625q-3.515625 -3.515625 -3.515625 -9.953125l0 -27.984375l-8.265625 0l0 -5.265625l8.265625 0l0 -10.125l6.25 0l0 10.125l14.078125 0l0 5.265625l-14.078125 0l0 27.640625q0 4.140625 2.0625 6.296875q2.078125 2.15625 5.953125 2.15625q1.921875 0 3.71875 -0.609375q1.8125 -0.625 3.140625 -1.765625l2.203125 4.484375zm23.759277 3.25q-5.640625 0 -10.796875 -1.625q-5.140625 -1.625 -8.046875 -4.09375l2.828125 -4.921875q2.90625 2.28125 7.296875 3.734375q4.40625 1.453125 9.15625 1.453125q6.328125 0 9.359375 -1.96875q3.046875 -1.984375 3.046875 -5.59375q0 -2.5625 -1.671875 -4.015625q-1.671875 -1.453125 -4.234375 -2.1875q-2.546875 -0.75 -6.765625 -1.453125q-5.640625 -1.0625 -9.078125 -2.15625q-3.421875 -1.109375 -5.84375 -3.75q-2.421875 -2.640625 -2.421875 -7.296875q0 -5.8125 4.84375 -9.5q4.84375 -3.703125 13.46875 -3.703125q4.484375 0 8.96875 1.1875q4.5 1.1875 7.390625 3.125l-2.71875 5.015625q-5.71875 -3.953125 -13.640625 -3.953125q-5.984375 0 -9.03125 2.109375q-3.03125 2.109375 -3.03125 5.546875q0 2.640625 1.71875 4.21875q1.71875 1.578125 4.265625 2.328125q2.5625 0.75 7.046875 1.546875q5.546875 1.046875 8.890625 2.109375q3.34375 1.046875 5.71875 3.609375q2.375 2.546875 2.375 7.03125q0 6.078125 -5.0625 9.640625q-5.0625 3.5625 -14.03125 3.5625zm50.244324 -27.015625l23.0625 0l0 5.453125l-23.0625 0l0 -5.453125zm61.42206 -35.015625l6.515625 0l0 55.96875l34.5 0l0 5.625l-41.015625 0l0 -61.59375zm50.51953 15.3125l6.234375 0l0 46.28125l-6.234375 0l0 -46.28125zm3.15625 -10.125q-1.9375 0 -3.25 -1.3125q-1.3125 -1.328125 -1.3125 -3.171875q0 -1.765625 1.3125 -3.078125q1.3125 -1.328125 3.25 -1.328125q1.9375 0 3.25 1.28125q1.328125 1.265625 1.328125 3.03125q0 1.9375 -1.328125 3.265625q-1.3125 1.3125 -3.25 1.3125zm36.703247 9.765625q9.0625 0 13.890625 4.53125q4.84375 4.53125 4.84375 13.421875l0 28.6875l-5.984375 0l0 -7.21875q-2.109375 3.609375 -6.203125 5.640625q-4.078125 2.015625 -9.71875 2.015625q-7.75 0 -12.328125 -3.6875q-4.5625 -3.703125 -4.5625 -9.78125q0 -5.890625 4.265625 -9.5q4.265625 -3.609375 13.59375 -3.609375l14.703125 0l0 -2.8125q0 -5.984375 -3.34375 -9.109375q-3.34375 -3.125 -9.78125 -3.125q-4.390625 0 -8.4375 1.453125q-4.046875 1.453125 -6.953125 4.0l-2.8125 -4.65625q3.515625 -3.0 8.4375 -4.625q4.9375 -1.625 10.390625 -1.625zm-2.203125 42.15625q5.28125 0 9.0625 -2.421875q3.78125 -2.421875 5.640625 -7.0l0 -7.5625l-14.53125 0q-11.875 0 -11.875 8.265625q0 4.046875 3.078125 6.390625q3.078125 2.328125 8.625 2.328125zm61.77942 -42.15625q6.515625 0 11.78125 2.953125q5.28125 2.9375 8.265625 8.3125q3.0 5.359375 3.0 12.234375q0 6.859375 -3.0 12.234375q-2.984375 5.359375 -8.265625 8.359375q-5.265625 2.984375 -11.78125 2.984375q-5.8125 0 -10.4375 -2.453125q-4.609375 -2.46875 -7.421875 -7.140625l0 9.15625l-5.984375 0l0 -65.296875l6.234375 0l0 27.8125q2.90625 -4.484375 7.4375 -6.8125q4.53125 -2.34375 10.171875 -2.34375zm-0.4375 41.53125q4.828125 0 8.78125 -2.234375q3.96875 -2.25 6.21875 -6.375q2.25 -4.140625 2.25 -9.421875q0 -5.28125 -2.25 -9.421875q-2.25 -4.140625 -6.21875 -6.375q-3.953125 -2.25 -8.78125 -2.25q-4.9375 0 -8.859375 2.25q-3.90625 2.234375 -6.15625 6.375q-2.234375 4.140625 -2.234375 9.421875q0 5.28125 2.234375 9.421875q2.25 4.125 6.15625 6.375q3.921875 2.234375 8.859375 2.234375zm36.257812 -41.171875l6.234375 0l0 46.28125l-6.234375 0l0 -46.28125zm3.15625 -10.125q-1.9375 0 -3.25 -1.3125q-1.3125 -1.328125 -1.3125 -3.171875q0 -1.765625 1.3125 -3.078125q1.3125 -1.328125 3.25 -1.328125q1.9375 0 3.25 1.28125q1.328125 1.265625 1.328125 3.03125q0 1.9375 -1.328125 3.265625q-1.3125 1.3125 -3.25 1.3125zm20.515747 -8.890625l6.234375 0l0 65.296875l-6.234375 0l0 -65.296875zm23.671997 19.015625l6.234375 0l0 46.28125l-6.234375 0l0 -46.28125zm3.15625 -10.125q-1.9375 0 -3.25 -1.3125q-1.3125 -1.328125 -1.3125 -3.171875q0 -1.765625 1.3125 -3.078125q1.3125 -1.328125 3.25 -1.328125q1.9375 0 3.25 1.28125q1.328125 1.265625 1.328125 3.03125q0 1.9375 -1.328125 3.265625q-1.3125 1.3125 -3.25 1.3125zm44.890747 53.59375q-1.765625 1.578125 -4.359375 2.421875q-2.59375 0.828125 -5.421875 0.828125q-6.5 0 -10.03125 -3.515625q-3.515625 -3.515625 -3.515625 -9.953125l0 -27.984375l-8.265625 0l0 -5.265625l8.265625 0l0 -10.125l6.25 0l0 10.125l14.078125 0l0 5.265625l-14.078125 0l0 27.640625q0 4.140625 2.0625 6.296875q2.078125 2.15625 5.953125 2.15625q1.921875 0 3.71875 -0.609375q1.8125 -0.625 3.140625 -1.765625l2.203125 4.484375zm11.353027 -43.46875l6.234375 0l0 46.28125l-6.234375 0l0 -46.28125zm3.15625 -10.125q-1.9375 0 -3.25 -1.3125q-1.3125 -1.328125 -1.3125 -3.171875q0 -1.765625 1.3125 -3.078125q1.3125 -1.328125 3.25 -1.328125q1.9375 0 3.25 1.28125q1.328125 1.265625 1.328125 3.03125q0 1.9375 -1.328125 3.265625q-1.3125 1.3125 -3.25 1.3125zm60.812622 35.203125l-38.71875 0q0.53125 7.21875 5.546875 11.65625q5.015625 4.4375 12.671875 4.4375q4.3125 0 7.921875 -1.53125q3.609375 -1.546875 6.25 -4.53125l3.515625 4.046875q-3.078125 3.6875 -7.703125 5.625q-4.625 1.9375 -10.15625 1.9375q-7.140625 0 -12.640625 -3.03125q-5.5 -3.03125 -8.578125 -8.40625q-3.078125 -5.375 -3.078125 -12.140625q0 -6.78125 2.9375 -12.140625q2.953125 -5.375 8.09375 -8.359375q5.15625 -3.0 11.578125 -3.0q6.4375 0 11.53125 3.0q5.109375 2.984375 8.015625 8.3125q2.90625 5.3125 2.90625 12.1875l-0.09375 1.9375zm-22.359375 -20.0625q-6.6875 0 -11.21875 4.265625q-4.53125 4.265625 -5.140625 11.125l32.828125 0q-0.625 -6.859375 -5.15625 -11.125q-4.53125 -4.265625 -11.3125 -4.265625zm47.62079 41.703125q-5.640625 0 -10.796875 -1.625q-5.140625 -1.625 -8.046875 -4.09375l2.828125 -4.921875q2.90625 2.28125 7.296875 3.734375q4.40625 1.453125 9.15625 1.453125q6.328125 0 9.359375 -1.96875q3.046875 -1.984375 3.046875 -5.59375q0 -2.5625 -1.671875 -4.015625q-1.671875 -1.453125 -4.234375 -2.1875q-2.546875 -0.75 -6.765625 -1.453125q-5.640625 -1.0625 -9.078125 -2.15625q-3.421875 -1.109375 -5.84375 -3.75q-2.421875 -2.640625 -2.421875 -7.296875q0 -5.8125 4.84375 -9.5q4.84375 -3.703125 13.46875 -3.703125q4.484375 0 8.96875 1.1875q4.5 1.1875 7.390625 3.125l-2.71875 5.015625q-5.71875 -3.953125 -13.640625 -3.953125q-5.984375 0 -9.03125 2.109375q-3.03125 2.109375 -3.03125 5.546875q0 2.640625 1.71875 4.21875q1.71875 1.578125 4.265625 2.328125q2.5625 0.75 7.046875 1.546875q5.546875 1.046875 8.890625 2.109375q3.34375 1.046875 5.71875 3.609375q2.375 2.546875 2.375 7.03125q0 6.078125 -5.0625 9.640625q-5.0625 3.5625 -14.03125 3.5625z" fill-rule="nonzero"/><path fill="#000000" fill-opacity="0.0" d="m930.0852 515.117l0 0c-8.514893 0.2816162 -16.82782 -1.8654785 -23.029663 -5.948181c-6.2018433 -4.0827026 -9.7595215 -9.750092 -9.855896 -15.700562l31.399536 -0.24795532z" fill-rule="evenodd"/><path fill="#000000" fill-opacity="0.0" d="m930.0852 515.117l0 0c-8.514893 0.2816162 -16.82782 -1.8654785 -23.029663 -5.948181c-6.2018433 -4.0827026 -9.7595215 -9.750092 -9.855896 -15.700562" fill-rule="evenodd"/><path stroke="#ffffff" stroke-width="2.0" stroke-linejoin="round" stroke-linecap="butt" d="m930.0852 515.117l0 0c-8.514893 0.2816162 -16.82782 -1.8654785 -23.029663 -5.948181c-6.2018433 -4.0827026 -9.7595215 -9.750092 -9.855896 -15.700562" fill-rule="evenodd"/><path fill="#000000" fill-opacity="0.0" d="m891.86096 492.13654l0.1574707 31.968506" fill-rule="evenodd"/><path stroke="#ffffff" stroke-width="2.0" stroke-linejoin="round" stroke-linecap="butt" d="m891.86096 492.13654l0.1574707 31.968506" fill-rule="evenodd"/><path fill="#000000" fill-opacity="0.0" d="m891.86096 522.99115l40.125977 0.28344727" fill-rule="evenodd"/><path stroke="#ffffff" stroke-width="2.0" stroke-linejoin="round" stroke-linecap="butt" d="m891.86096 522.99115l40.125977 0.28344727" fill-rule="evenodd"/><path fill="#000000" fill-opacity="0.0" d="m50.992126 95.26509l858.01575 0l0 125.22835l-858.01575 0z" fill-rule="evenodd"/><path fill="#ffffff" d="m196.5 173.03926l0 -68.71875l13.5 0l28.125 45.890625l0 -45.890625l12.890625 0l0 68.71875l-13.921875 0l-27.703125 -44.8125l0 44.8125l-12.890625 0zm69.1875 0l0 -68.71875l50.953125 0l0 11.625l-37.078125 0l0 15.234375l34.5 0l0 11.578125l-34.5 0l0 18.703125l38.390625 0l0 11.578125l-52.265625 0zm79.5 0l0 -57.09375l-20.390625 0l0 -11.625l54.609375 0l0 11.625l-20.34375 0l0 57.09375l-13.875 0zm79.59375 0l-16.40625 -68.71875l14.203125 0l10.359375 47.203125l12.5625 -47.203125l16.5 0l12.046875 48.0l10.546875 -48.0l13.96875 0l-16.6875 68.71875l-14.71875 0l-13.6875 -51.375l-13.640625 51.375l-15.046875 0zm78.046875 -33.9375q0 -10.5 3.140625 -17.625q2.34375 -5.25 6.390625 -9.421875q4.0625 -4.171875 8.890625 -6.1875q6.421875 -2.71875 14.8125 -2.71875q15.1875 0 24.296875 9.421875q9.125 9.421875 9.125 26.203125q0 16.640625 -9.046875 26.046875q-9.046875 9.390625 -24.1875 9.390625q-15.328125 0 -24.375 -9.34375q-9.046875 -9.359375 -9.046875 -25.765625zm14.296875 -0.46875q0 11.671875 5.390625 17.703125q5.390625 6.015625 13.6875 6.015625q8.296875 0 13.609375 -5.96875q5.328125 -5.984375 5.328125 -17.9375q0 -11.8125 -5.1875 -17.625q-5.171875 -5.8125 -13.75 -5.8125q-8.578125 0 -13.828125 5.890625q-5.25 5.875 -5.25 17.734375zm63.234375 34.40625l0 -68.71875l29.203125 0q11.015625 0 16.0 1.859375q5.0 1.84375 8.0 6.578125q3.0 4.734375 3.0 10.828125q0 7.734375 -4.546875 12.78125q-4.546875 5.03125 -13.59375 6.34375q4.5 2.625 7.421875 5.765625q2.9375 3.140625 7.90625 11.15625l8.390625 13.40625l-16.59375 0l-10.03125 -14.953125q-5.34375 -8.015625 -7.3125 -10.09375q-1.96875 -2.09375 -4.171875 -2.859375q-2.203125 -0.78125 -6.984375 -0.78125l-2.8125 0l0 28.6875l-13.875 0zm13.875 -39.65625l10.265625 0q9.984375 0 12.46875 -0.84375q2.484375 -0.84375 3.890625 -2.90625q1.40625 -2.0625 1.40625 -5.15625q0 -3.46875 -1.859375 -5.59375q-1.84375 -2.140625 -5.21875 -2.703125q-1.6875 -0.234375 -10.125 -0.234375l-10.828125 0l0 17.4375zm70.875 39.65625l0 -57.09375l-20.390625 0l0 -11.625l54.609375 0l0 11.625l-20.34375 0l0 57.09375l-13.875 0zm43.21875 0l0 -68.71875l13.875 0l0 27.046875l27.1875 0l0 -27.046875l13.875 0l0 68.71875l-13.875 0l0 -30.046875l-27.1875 0l0 30.046875l-13.875 0z" fill-rule="nonzero"/></g></svg>