<svg version="1.1" viewBox="0.0 0.0 960.0 540.0" fill="none" stroke="none" stroke-linecap="square" stroke-miterlimit="10" xmlns:xlink="http://www.w3.org/1999/xlink" xmlns="http://www.w3.org/2000/svg"><clipPath id="g852724b3a7_0_212.0"><path d="m0 0l960.0 0l0 540.0l-960.0 0l0 -540.0z" clip-rule="nonzero"/></clipPath><g clip-path="url(#g852724b3a7_0_212.0)"><path fill="#212121" d="m0 0l960.0 0l0 540.0l-960.0 0z" fill-rule="evenodd"/><path fill="#000000" fill-opacity="0.0" d="m43.648293 228.68767l440.126 0l0 189.70079l-440.126 0z" fill-rule="evenodd"/><path fill="#ffffff" d="m85.94517 273.6314q4.140625 0.890625 6.390625 3.5625q2.25 2.671875 2.25 6.875q0 5.40625 -4.0 8.3125q-3.984375 2.90625 -11.78125 2.90625l-19.3125 0l0 -42.0l18.109375 0q7.03125 0 10.890625 2.828125q3.875 2.8125 3.875 7.96875q0 3.484375 -1.71875 5.921875q-1.703125 2.421875 -4.703125 3.625zm-22.015625 -16.6875l0 15.25l13.375 0q5.109375 0 7.859375 -1.953125q2.765625 -1.953125 2.765625 -5.671875q0 -3.71875 -2.765625 -5.671875q-2.75 -1.953125 -7.859375 -1.953125l-13.375 0zm14.8125 34.6875q5.640625 0 8.515625 -1.921875q2.890625 -1.921875 2.890625 -6.0q0 -7.859375 -11.40625 -7.859375l-14.8125 0l0 15.78125l14.8125 0zm36.130585 -28.140625q6.171875 0 9.46875 3.09375q3.3125 3.078125 3.3125 9.140625l0 19.5625l-4.078125 0l0 -4.921875q-1.453125 2.46875 -4.25 3.84375q-2.78125 1.375 -6.625 1.375q-5.265625 0 -8.390625 -2.515625q-3.125 -2.515625 -3.125 -6.65625q0 -4.03125 2.90625 -6.484375q2.921875 -2.453125 9.28125 -2.453125l10.015625 0l0 -1.921875q0 -4.078125 -2.28125 -6.203125q-2.28125 -2.140625 -6.65625 -2.140625q-3.0 0 -5.765625 1.0q-2.75 0.984375 -4.734375 2.71875l-1.921875 -3.1875q2.40625 -2.03125 5.765625 -3.140625q3.359375 -1.109375 7.078125 -1.109375zm-1.5 28.734375q3.59375 0 6.171875 -1.640625q2.578125 -1.65625 3.84375 -4.78125l0 -5.15625l-9.90625 0q-8.09375 0 -8.09375 5.640625q0 2.765625 2.09375 4.359375q2.109375 1.578125 5.890625 1.578125zm41.93122 -28.734375q5.9375 0 9.453125 3.453125q3.515625 3.4375 3.515625 10.046875l0 18.296875l-4.265625 0l0 -17.875q0 -4.921875 -2.46875 -7.5q-2.453125 -2.578125 -7.015625 -2.578125q-5.09375 0 -8.0625 3.03125q-2.96875 3.015625 -2.96875 8.359375l0 16.5625l-4.265625 0l0 -31.5625l4.078125 0l0 5.828125q1.75 -2.890625 4.828125 -4.46875q3.09375 -1.59375 7.171875 -1.59375zm36.244965 15.953125l-7.4375 6.84375l0 9.0l-4.265625 0l0 -44.515625l4.265625 0l0 30.171875l18.84375 -17.21875l5.265625 0l-13.5 12.90625l14.765625 18.65625l-5.21875 0l-12.71875 -15.84375zm67.4362 -5.8125q4.140625 0.890625 6.390625 3.5625q2.25 2.671875 2.25 6.875q0 5.40625 -4.0 8.3125q-3.984375 2.90625 -11.78125 2.90625l-19.3125 0l0 -42.0l18.109375 0q7.03125 0 10.890625 2.828125q3.875 2.8125 3.875 7.96875q0 3.484375 -1.71875 5.921875q-1.703125 2.421875 -4.703125 3.625zm-22.015625 -16.6875l0 15.25l13.375 0q5.109375 0 7.859375 -1.953125q2.765625 -1.953125 2.765625 -5.671875q0 -3.71875 -2.765625 -5.671875q-2.75 -1.953125 -7.859375 -1.953125l-13.375 0zm14.8125 34.6875q5.640625 0 8.515625 -1.921875q2.890625 -1.921875 2.890625 -6.0q0 -7.859375 -11.40625 -7.859375l-14.8125 0l0 15.78125l14.8125 0zm36.130585 -28.140625q6.171875 0 9.46875 3.09375q3.3124695 3.078125 3.3124695 9.140625l0 19.5625l-4.0780945 0l0 -4.921875q-1.453125 2.46875 -4.25 3.84375q-2.78125 1.375 -6.625 1.375q-5.265625 0 -8.390625 -2.515625q-3.125 -2.515625 -3.125 -6.65625q0 -4.03125 2.90625 -6.484375q2.921875 -2.453125 9.28125 -2.453125l10.015625 0l0 -1.921875q0 -4.078125 -2.28125 -6.203125q-2.28125 -2.140625 -6.65625 -2.140625q-3.0 0 -5.765625 1.0q-2.75 0.984375 -4.734375 2.71875l-1.921875 -3.1875q2.40625 -2.03125 5.765625 -3.140625q3.359375 -1.109375 7.078125 -1.109375zm-1.5 28.734375q3.59375 0 6.171875 -1.640625q2.578125 -1.65625 3.84375 -4.78125l0 -5.15625l-9.90625 0q-8.09375 0 -8.09375 5.640625q0 2.765625 2.09375 4.359375q2.109375 1.578125 5.890625 1.578125zm25.853058 -41.453125l4.265625 0l0 44.515625l-4.265625 0l0 -44.515625zm27.18689 12.71875q6.171875 0 9.46875 3.09375q3.3125 3.078125 3.3125 9.140625l0 19.5625l-4.078125 0l0 -4.921875q-1.453125 2.46875 -4.25 3.84375q-2.78125 1.375 -6.625 1.375q-5.265625 0 -8.390625 -2.515625q-3.125 -2.515625 -3.125 -6.65625q0 -4.03125 2.90625 -6.484375q2.921875 -2.453125 9.28125 -2.453125l10.015625 0l0 -1.921875q0 -4.078125 -2.28125 -6.203125q-2.28125 -2.140625 -6.65625 -2.140625q-3.0 0 -5.765625 1.0q-2.75 0.984375 -4.734375 2.71875l-1.921875 -3.1875q2.40625 -2.03125 5.765625 -3.140625q3.359375 -1.109375 7.078125 -1.109375zm-1.5 28.734375q3.59375 0 6.171875 -1.640625q2.578125 -1.65625 3.84375 -4.78125l0 -5.15625l-9.90625 0q-8.09375 0 -8.09375 5.640625q0 2.765625 2.09375 4.359375q2.109375 1.578125 5.890625 1.578125zm41.931213 -28.734375q5.9375 0 9.453125 3.453125q3.515625 3.4375 3.515625 10.046875l0 18.296875l-4.265625 0l0 -17.875q0 -4.921875 -2.46875 -7.5q-2.453125 -2.578125 -7.015625 -2.578125q-5.09375 0 -8.0625 3.03125q-2.96875 3.015625 -2.96875 8.359375l0 16.5625l-4.265625 0l0 -31.5625l4.078125 0l0 5.828125q1.75 -2.890625 4.828125 -4.46875q3.09375 -1.59375 7.171875 -1.59375zm37.73996 32.09375q-4.671875 0 -8.375 -2.03125q-3.6875 -2.046875 -5.78125 -5.734375q-2.09375 -3.6875 -2.09375 -8.3125q0 -4.625 2.09375 -8.28125q2.09375 -3.65625 5.78125 -5.6875q3.703125 -2.046875 8.375 -2.046875q4.078125 0 7.28125 1.59375q3.21875 1.578125 5.078125 4.640625l-3.171875 2.15625q-1.5625 -2.328125 -3.96875 -3.5q-2.390625 -1.171875 -5.21875 -1.171875q-3.421875 0 -6.15625 1.53125q-2.71875 1.53125 -4.25 4.359375q-1.53125 2.8125 -1.53125 6.40625q0 3.65625 1.53125 6.453125q1.53125 2.78125 4.25 4.3125q2.734375 1.53125 6.15625 1.53125q2.828125 0 5.21875 -1.140625q2.40625 -1.140625 3.96875 -3.46875l3.171875 2.15625q-1.859375 3.0625 -5.09375 4.65625q-3.234375 1.578125 -7.265625 1.578125zm47.64621 -14.75l-26.40625 0q0.359375 4.90625 3.78125 7.9375q3.421875 3.03125 8.640625 3.03125q2.9375 0 5.390625 -1.046875q2.46875 -1.046875 4.265625 -3.09375l2.40625 2.765625q-2.09375 2.515625 -5.25 3.84375q-3.15625 1.3125 -6.9375 1.3125q-4.859375 0 -8.609375 -2.0625q-3.75 -2.078125 -5.84375 -5.734375q-2.09375 -3.65625 -2.09375 -8.28125q0 -4.625 2.0 -8.28125q2.015625 -3.65625 5.515625 -5.6875q3.515625 -2.046875 7.90625 -2.046875q4.375 0 7.84375 2.046875q3.484375 2.03125 5.46875 5.671875q1.984375 3.625 1.984375 8.296875l-0.0625 1.328125zm-15.234375 -13.6875q-4.5625 0 -7.65625 2.921875q-3.09375 2.90625 -3.515625 7.578125l22.390625 0q-0.421875 -4.671875 -3.515625 -7.578125q-3.09375 -2.921875 -7.703125 -2.921875z" fill-rule="nonzero"/><path fill="#ffffff" d="m85.83579 367.0689l-23.40625 0l-5.046875 11.21875l-4.609375 0l19.1875 -42.0l4.390625 0l19.203125 42.0l-4.6875 0l-5.03125 -11.21875zm-1.625 -3.59375l-10.078125 -22.5625l-10.078125 22.5625l20.15625 0zm42.350586 -16.75l-14.03125 31.5625l-4.375 0l-13.984375 -31.5625l4.4375 0l11.8125 26.875l11.953125 -26.875l4.1875 0zm32.588737 17.109375l-26.40625 0q0.359375 4.90625 3.78125 7.9375q3.421875 3.03125 8.640625 3.03125q2.9375 0 5.390625 -1.046875q2.46875 -1.046875 4.265625 -3.09375l2.40625 2.765625q-2.09375 2.515625 -5.25 3.84375q-3.15625 1.3125 -6.9375 1.3125q-4.859375 0 -8.609375 -2.0625q-3.75 -2.078125 -5.84375 -5.734375q-2.09375 -3.65625 -2.09375 -8.28125q0 -4.625 2.0 -8.28125q2.015625 -3.65625 5.515625 -5.6875q3.515625 -2.046875 7.90625 -2.046875q4.375 0 7.84375 2.046875q3.484375 2.03125 5.46875 5.671875q1.984375 3.625 1.984375 8.296875l-0.0625 1.328125zm-15.234375 -13.6875q-4.5625 0 -7.65625 2.921875q-3.09375 2.90625 -3.515625 7.578125l22.390625 0q-0.421875 -4.671875 -3.515625 -7.578125q-3.09375 -2.921875 -7.703125 -2.921875zm28.068085 2.765625q1.5 -3.1875 4.46875 -4.796875q2.96875 -1.625 7.359375 -1.625l0 4.140625l-1.03125 -0.0625q-4.96875 0 -7.796875 3.0625q-2.8125 3.0625 -2.8125 8.578125l0 16.078125l-4.265625 0l0 -31.5625l4.078125 0l0 6.1875zm30.488739 -6.421875q6.171875 0 9.46875 3.09375q3.3125 3.078125 3.3125 9.140625l0 19.5625l-4.078125 0l0 -4.921875q-1.453125 2.46875 -4.25 3.84375q-2.78125 1.375 -6.625 1.375q-5.265625 0 -8.390625 -2.515625q-3.125 -2.515625 -3.125 -6.65625q0 -4.03125 2.90625 -6.484375q2.921875 -2.453125 9.28125 -2.453125l10.015625 0l0 -1.921875q0 -4.078125 -2.28125 -6.203125q-2.28125 -2.140625 -6.65625 -2.140625q-3.0 0 -5.765625 1.0q-2.75 0.984375 -4.734375 2.71875l-1.921875 -3.1875q2.40625 -2.03125 5.765625 -3.140625q3.359375 -1.109375 7.078125 -1.109375zm-1.5 28.734375q3.59375 0 6.171875 -1.640625q2.578125 -1.65625 3.84375 -4.78125l0 -5.15625l-9.90625 0q-8.09375 0 -8.09375 5.640625q0 2.765625 2.09375 4.359375q2.109375 1.578125 5.890625 1.578125zm55.191833 -28.5l0 27.71875q0 8.046875 -3.9375 11.90625q-3.921875 3.875 -11.84375 3.875q-4.375 0 -8.3125 -1.296875q-3.921875 -1.28125 -6.375 -3.5625l2.15625 -3.234375q2.28125 2.03125 5.546875 3.171875q3.265625 1.140625 6.875 1.140625q6.0 0 8.8125 -2.796875q2.828125 -2.78125 2.828125 -8.65625l0 -4.015625q-1.984375 3.0 -5.203125 4.5625q-3.203125 1.546875 -7.109375 1.546875q-4.4375 0 -8.0625 -1.9375q-3.625 -1.953125 -5.703125 -5.46875q-2.0625 -3.515625 -2.0625 -7.953125q0 -4.4375 2.0625 -7.90625q2.078125 -3.484375 5.671875 -5.40625q3.59375 -1.921875 8.09375 -1.921875q4.03125 0 7.265625 1.625q3.234375 1.609375 5.21875 4.671875l0 -6.0625l4.078125 0zm-16.140625 26.578125q3.421875 0 6.171875 -1.46875q2.765625 -1.46875 4.296875 -4.109375q1.53125 -2.640625 1.53125 -6.0q0 -3.359375 -1.53125 -5.96875q-1.53125 -2.609375 -4.265625 -4.078125q-2.71875 -1.46875 -6.203125 -1.46875q-3.421875 0 -6.15625 1.4375q-2.71875 1.4375 -4.25 4.078125q-1.53125 2.640625 -1.53125 6.0q0 3.359375 1.53125 6.0q1.53125 2.640625 4.25 4.109375q2.734375 1.46875 6.15625 1.46875zm55.566193 -9.46875l-26.40625 0q0.359375 4.90625 3.78125 7.9375q3.421875 3.03125 8.640625 3.03125q2.9375 0 5.390625 -1.046875q2.46875 -1.046875 4.265625 -3.09375l2.40625 2.765625q-2.09375 2.515625 -5.25 3.84375q-3.15625 1.3125 -6.9375 1.3125q-4.859375 0 -8.609375 -2.0625q-3.75 -2.078125 -5.84375 -5.734375q-2.09375 -3.65625 -2.09375 -8.28125q0 -4.625 2.0 -8.28125q2.015625 -3.65625 5.515625 -5.6875q3.515625 -2.046875 7.90625 -2.046875q4.375 0 7.84375 2.046875q3.484375 2.03125 5.46875 5.671875q1.984375 3.625 1.984375 8.296875l-0.0625 1.328125zm-15.234375 -13.6875q-4.5625 0 -7.65625 2.921875q-3.09375 2.90625 -3.515625 7.578125l22.390625 0q-0.421875 -4.671875 -3.515625 -7.578125q-3.09375 -2.921875 -7.703125 -2.921875zm67.069305 6.484375q4.140625 0.890625 6.390625 3.5625q2.25 2.671875 2.25 6.875q0 5.40625 -4.0 8.3125q-3.984375 2.90625 -11.78125 2.90625l-19.3125 0l0 -42.0l18.109375 0q7.03125 0 10.890625 2.828125q3.875 2.8125 3.875 7.96875q0 3.484375 -1.71875 5.921875q-1.703125 2.421875 -4.703125 3.625zm-22.015625 -16.6875l0 15.25l13.375 0q5.109375 0 7.859375 -1.953125q2.765625 -1.953125 2.765625 -5.671875q0 -3.71875 -2.765625 -5.671875q-2.75 -1.953125 -7.859375 -1.953125l-13.375 0zm14.8125 34.6875q5.640625 0 8.515625 -1.921875q2.890625 -1.921875 2.890625 -6.0q0 -7.859375 -11.40625 -7.859375l-14.8125 0l0 15.78125l14.8125 0zm53.52121 -27.90625l0 31.5625l-4.078125 0l0 -5.765625q-1.671875 2.890625 -4.625 4.484375q-2.9375 1.578125 -6.71875 1.578125q-6.171875 0 -9.75 -3.4375q-3.5625 -3.453125 -3.5625 -10.125l0 -18.296875l4.265625 0l0 17.875q0 4.984375 2.453125 7.5625q2.453125 2.578125 7.015625 2.578125q4.984375 0 7.859375 -3.015625q2.890625 -3.03125 2.890625 -8.4375l0 -16.5625l4.25 0zm16.0206 6.1875q1.5 -3.1875 4.46875 -4.796875q2.96875 -1.625 7.359375 -1.625l0 4.140625l-1.03125 -0.0625q-4.96875 0 -7.796875 3.0625q-2.8125 3.0625 -2.8125 8.578125l0 16.078125l-4.265625 0l0 -31.5625l4.078125 0l0 6.1875zm35.579987 -6.421875q5.9375 0 9.453125 3.453125q3.515625 3.4375 3.515625 10.046875l0 18.296875l-4.265625 0l0 -17.875q0 -4.921875 -2.46875 -7.5q-2.453125 -2.578125 -7.015625 -2.578125q-5.09375 0 -8.0625 3.03125q-2.96875 3.015625 -2.96875 8.359375l0 16.5625l-4.265625 0l0 -31.5625l4.078125 0l0 5.828125q1.75 -2.890625 4.828125 -4.46875q3.09375 -1.59375 7.171875 -1.59375z" fill-rule="nonzero"/><path fill="#000000" fill-opacity="0.0" d="m42.30971 319.45932l442.80313 -1.1653442" fill-rule="evenodd"/><path stroke="#ffffff" stroke-width="12.0" stroke-linejoin="round" stroke-linecap="butt" d="m42.30971 319.45932l442.80313 -1.1653442" fill-rule="evenodd"/><path fill="#000000" fill-opacity="0.0" d="m930.0852 515.117l0 0c-8.514893 0.2816162 -16.82782 -1.8654785 -23.029663 -5.948181c-6.2018433 -4.0827026 -9.7595215 -9.750092 -9.855896 -15.700562l31.399536 -0.24795532z" fill-rule="evenodd"/><path fill="#000000" fill-opacity="0.0" d="m930.0852 515.117l0 0c-8.514893 0.2816162 -16.82782 -1.8654785 -23.029663 -5.948181c-6.2018433 -4.0827026 -9.7595215 -9.750092 -9.855896 -15.700562" fill-rule="evenodd"/><path stroke="#ffffff" stroke-width="2.0" stroke-linejoin="round" stroke-linecap="butt" d="m930.0852 515.117l0 0c-8.514893 0.2816162 -16.82782 -1.8654785 -23.029663 -5.948181c-6.2018433 -4.0827026 -9.7595215 -9.750092 -9.855896 -15.700562" fill-rule="evenodd"/><path fill="#000000" fill-opacity="0.0" d="m891.86096 492.13654l0.1574707 31.968506" fill-rule="evenodd"/><path stroke="#ffffff" stroke-width="2.0" stroke-linejoin="round" stroke-linecap="butt" d="m891.86096 492.13654l0.1574707 31.968506" fill-rule="evenodd"/><path fill="#000000" fill-opacity="0.0" d="m891.86096 522.99115l40.125977 0.28344727" fill-rule="evenodd"/><path stroke="#ffffff" stroke-width="2.0" stroke-linejoin="round" stroke-linecap="butt" d="m891.86096 522.99115l40.125977 0.28344727" fill-rule="evenodd"/><path fill="#000000" fill-opacity="0.0" d="m42.30971 81.732285l858.01575 0l0 125.22835l-858.01575 0z" fill-rule="evenodd"/><path fill="#ffffff" d="m269.42697 159.50645l0 -68.71875l29.203125 0q11.015625 0 16.0 1.859375q5.0 1.84375 8.0 6.578125q3.0 4.734375 3.0 10.828125q0 7.734375 -4.546875 12.78125q-4.546875 5.03125 -13.59375 6.34375q4.5 2.625 7.421875 5.765625q2.9375 3.140625 7.90625 11.15625l8.390625 13.40625l-16.59375 0l-10.03125 -14.953125q-5.34375 -8.015625 -7.3125 -10.09375q-1.96875 -2.09375 -4.171875 -2.859375q-2.203125 -0.78125 -6.984375 -0.78125l-2.8125 0l0 28.6875l-13.875 0zm13.875 -39.65625l10.265625 0q9.984375 0 12.46875 -0.84375q2.484375 -0.84375 3.890625 -2.90625q1.40625 -2.0625 1.40625 -5.15625q0 -3.46875 -1.859375 -5.59375q-1.84375 -2.140625 -5.21875 -2.703125q-1.6875 -0.234375 -10.125 -0.234375l-10.828125 0l0 17.4375zm55.3125 -29.0625l13.875 0l0 37.21875q0 8.859375 0.515625 11.484375q0.890625 4.21875 4.234375 6.78125q3.359375 2.546875 9.171875 2.546875q5.90625 0 8.90625 -2.40625q3.0 -2.421875 3.609375 -5.9375q0.609375 -3.515625 0.609375 -11.671875l0 -38.015625l13.875 0l0 36.09375q0 12.375 -1.125 17.484375q-1.125 5.109375 -4.15625 8.625q-3.015625 3.515625 -8.078125 5.609375q-5.0625 2.078125 -13.21875 2.078125q-9.84375 0 -14.9375 -2.265625q-5.078125 -2.28125 -8.03125 -5.90625q-2.953125 -3.640625 -3.890625 -7.625q-1.359375 -5.90625 -1.359375 -17.4375l0 -36.65625zm69.5625 68.71875l0 -68.71875l13.5 0l28.125 45.890625l0 -45.890625l12.890625 0l0 68.71875l-13.921875 0l-27.703125 -44.8125l0 44.8125l-12.890625 0zm78.9375 0l-16.40625 -68.71875l14.203125 0l10.359375 47.203125l12.5625 -47.203125l16.49997 0l12.046875 48.0l10.546875 -48.0l13.96875 0l-16.6875 68.71875l-14.71875 0l-13.6875 -51.375l-13.6405945 51.375l-15.046875 0zm137.53122 0l-15.09375 0l-6.0 -15.609375l-27.46875 0l-5.671875 15.609375l-14.71875 0l26.765625 -68.71875l14.671875 0l27.515625 68.71875zm-25.546875 -27.1875l-9.46875 -25.5l-9.28125 25.5l18.75 0zm42.140625 27.1875l0 -28.921875l-25.171875 -39.796875l16.265625 0l16.171875 27.1875l15.84375 -27.1875l15.984375 0l-25.265625 39.890625l0 28.828125l-13.828125 0z" fill-rule="nonzero"/><path fill="#000000" fill-opacity="0.0" d="m483.7743 263.1916l454.2992 0l0 150.70868l-454.2992 0z" fill-rule="evenodd"/><path fill="#ffffff" d="m531.50867 311.73224l-34.65625 0l0 -6.015625l34.65625 0l0 6.015625zm0 15.921875l-34.65625 0l0 -6.015625l34.65625 0l0 6.015625zm2.9786987 29.515625l0 -4.65625l42.71875 0l0 4.65625l-42.71875 0zm40.781616 0l0 -4.65625l42.71875 0l0 4.65625l-42.71875 0zm45.57849 -13.6875l3.109375 -15.25l-6.046875 0l0 -5.328125l7.125 0l2.65625 -13.0l-9.78125 0l0 -5.34375l10.84375 0l3.125 -15.359375l5.375 0l-3.125 15.359375l11.28125 0l3.109375 -15.359375l5.40625 0l-3.109375 15.359375l6.1875 0l0 5.34375l-7.265625 0l-2.6875 13.0l9.953125 0l0 5.328125l-11.015625 0l-3.125 15.25l-5.359375 0l3.078125 -15.25l-11.25 0l-3.109375 15.25l-5.375 0zm9.5625 -20.578125l11.234375 0l2.6875 -13.0l-11.28125 0l-2.640625 13.0zm53.34204 19.6875l0 -52.484375l10.453125 0l12.4375 37.15625q1.71875 5.203125 2.5 7.765625q0.890625 -2.859375 2.796875 -8.40625l12.5625 -36.515625l9.34375 0l0 52.484375l-6.6875 0l0 -43.9375l-15.265625 43.9375l-6.265625 0l-15.171875 -44.6875l0 44.6875l-6.703125 0zm58.082886 -19.015625q0 -10.5625 5.875 -15.640625q4.90625 -4.234375 11.953125 -4.234375q7.84375 0 12.8125 5.140625q4.984375 5.140625 4.984375 14.203125q0 7.34375 -2.203125 11.546875q-2.203125 4.203125 -6.40625 6.53125q-4.203125 2.328125 -9.1875 2.328125q-7.984375 0 -12.90625 -5.109375q-4.921875 -5.125 -4.921875 -14.765625zm6.625 0q0 7.3125 3.1875 10.953125q3.1875 3.625 8.015625 3.625q4.796875 0 7.984375 -3.65625q3.1875 -3.65625 3.1875 -11.140625q0 -7.046875 -3.203125 -10.671875q-3.203125 -3.640625 -7.96875 -3.640625q-4.828125 0 -8.015625 3.625q-3.1875 3.609375 -3.1875 10.90625zm36.54724 19.015625l0 -38.03125l5.8125 0l0 5.40625q4.1875 -6.265625 12.09375 -6.265625q3.4375 0 6.3125 1.25q2.890625 1.234375 4.3125 3.234375q1.4375 2.0 2.015625 4.765625q0.359375 1.78125 0.359375 6.265625l0 23.375l-6.453125 0l0 -23.125q0 -3.9375 -0.75 -5.890625q-0.75 -1.953125 -2.671875 -3.109375q-1.90625 -1.171875 -4.484375 -1.171875q-4.109375 0 -7.109375 2.609375q-2.984375 2.609375 -2.984375 9.921875l0 20.765625l-6.453125 0zm54.85974 -5.765625l0.921875 5.6875q-2.71875 0.578125 -4.859375 0.578125q-3.515625 0 -5.453125 -1.109375q-1.921875 -1.109375 -2.71875 -2.90625q-0.78125 -1.8125 -0.78125 -7.625l0 -21.875l-4.734375 0l0 -5.015625l4.734375 0l0 -9.40625l6.40625 -3.875l0 13.28125l6.484375 0l0 5.015625l-6.484375 0l0 22.234375q0 2.765625 0.34375 3.5625q0.34375 0.78125 1.109375 1.25q0.765625 0.453125 2.203125 0.453125q1.078125 0 2.828125 -0.25zm6.2948 5.765625l0 -52.484375l6.453125 0l0 18.828125q4.515625 -5.234375 11.390625 -5.234375q4.21875 0 7.328125 1.671875q3.125 1.671875 4.46875 4.609375q1.34375 2.921875 1.34375 8.515625l0 24.09375l-6.453125 0l0 -24.09375q0 -4.84375 -2.09375 -7.03125q-2.09375 -2.203125 -5.921875 -2.203125q-2.875 0 -5.40625 1.484375q-2.515625 1.484375 -3.59375 4.03125q-1.0625 2.53125 -1.0625 7.015625l0 20.796875l-6.453125 0zm38.20349 -11.34375l6.375 -1.015625q0.546875 3.84375 3.0 5.890625q2.453125 2.03125 6.84375 2.03125q4.453125 0 6.59375 -1.8125q2.15625 -1.8125 2.15625 -4.234375q0 -2.1875 -1.90625 -3.4375q-1.328125 -0.859375 -6.59375 -2.1875q-7.078125 -1.796875 -9.828125 -3.09375q-2.734375 -1.3125 -4.15625 -3.625q-1.40625 -2.3125 -1.40625 -5.09375q0 -2.546875 1.15625 -4.703125q1.171875 -2.171875 3.171875 -3.609375q1.515625 -1.109375 4.109375 -1.875q2.59375 -0.78125 5.5625 -0.78125q4.484375 0 7.859375 1.296875q3.390625 1.28125 5.0 3.484375q1.609375 2.203125 2.21875 5.890625l-6.296875 0.859375q-0.4375 -2.9375 -2.5 -4.578125q-2.0625 -1.640625 -5.8125 -1.640625q-4.4375 0 -6.34375 1.46875q-1.890625 1.453125 -1.890625 3.4375q0 1.25 0.78125 2.25q0.796875 1.03125 2.46875 1.71875q0.96875 0.359375 5.703125 1.640625q6.828125 1.828125 9.53125 3.0q2.703125 1.15625 4.234375 3.375q1.546875 2.21875 1.546875 5.515625q0 3.21875 -1.875 6.078125q-1.875 2.84375 -5.421875 4.40625q-3.546875 1.546875 -8.015625 1.546875q-7.421875 0 -11.3125 -3.078125q-3.875 -3.078125 -4.953125 -9.125z" fill-rule="nonzero"/></g></svg>