<svg version="1.1" viewBox="0.0 0.0 960.0 540.0" fill="none" stroke="none" stroke-linecap="square" stroke-miterlimit="10" xmlns:xlink="http://www.w3.org/1999/xlink" xmlns="http://www.w3.org/2000/svg"><clipPath id="g9fa12cde0d_0_0.0"><path d="m0 0l960.0 0l0 540.0l-960.0 0l0 -540.0z" clip-rule="nonzero"/></clipPath><g clip-path="url(#g9fa12cde0d_0_0.0)"><path fill="#212121" d="m0 0l960.0 0l0 540.0l-960.0 0z" fill-rule="evenodd"/><path fill="#000000" fill-opacity="0.0" d="m64.173225 66.40945l831.65356 0l0 407.1811l-831.65356 0z" fill-rule="evenodd"/><path fill="#ffffff" d="m112.08344 109.78875l-3.9375 14.078125l-5.328125 0l4.796875 -14.078125l4.46875 0zm10.96875 0l-3.9375 14.078125l-5.328125 0l4.796875 -14.078125l4.46875 0zm10.911339 0l9.4375 34.500008l0.125 0l10.203125 -34.500008l5.515625 0l10.140625 34.500008l0.125 0l9.609375 -34.500008l5.171875 0l-12.203125 41.531258l-5.34375 0l-10.265625 -35.187508l-0.109375 0l-10.328125 35.187508l-5.390625 0l-12.140625 -41.531258l5.453125 0zm64.74422 13.375q6.109375 0 9.53125 3.84375q3.4375 3.8437576 3.5 10.875008l0 1.125l-22.171875 0q0.34375 3.8125 2.859375 6.28125q2.53125 2.453125 6.171875 2.515625q5.578125 0 8.671875 -4.171875l3.46875 2.703125q-2.171875 2.8125 -5.109375 4.25q-2.921875 1.4375 -7.03125 1.4375q-6.28125 0 -10.09375 -4.078125q-3.8125 -4.078125 -3.875 -10.34375q0 -6.21875 3.90625 -10.265633q3.90625 -4.046875 10.171875 -4.171875zm8.09375 11.968758q-0.171875 -3.578125 -2.3125 -5.65625q-2.140625 -2.0937576 -6.015625 -2.0937576q-3.515625 0 -5.921875 2.0000076q-2.40625 2.0 -2.984375 5.75l17.234375 0zm20.472229 -25.343758l-4.796875 14.078125l-4.46875 0l3.9375 -14.078125l5.328125 0zm21.353302 13.375q1.0625 0 1.875 0.296875l-0.28125 4.6250076q-1.296875 -0.34375763 -2.46875 -0.34375763q-3.984375 0 -6.015625 2.6093826q-2.015625 2.609375 -2.015625 7.359375l0 13.609375l-4.578125 0l0 -21.34375q0 -0.828125 -0.234375 -6.1093826l4.34375 0q0.109375 4.109375 0.109375 4.5156326l0.125 0q1.109375 -2.3437576 3.59375 -3.7812576q2.5 -1.4375 5.546875 -1.4375zm18.590988 0q6.109375 0 9.53125 3.84375q3.4375 3.8437576 3.5 10.875008l0 1.125l-22.171875 0q0.34375 3.8125 2.859375 6.28125q2.53125 2.453125 6.171875 2.515625q5.578125 0 8.671875 -4.171875l3.46875 2.703125q-2.171875 2.8125 -5.109375 4.25q-2.921875 1.4375 -7.03125 1.4375q-6.28125 0 -10.09375 -4.078125q-3.8125 -4.078125 -3.875 -10.34375q0 -6.21875 3.90625 -10.265633q3.90625 -4.046875 10.171875 -4.171875zm8.09375 11.968758q-0.171875 -3.578125 -2.3125 -5.65625q-2.140625 -2.0937576 -6.015625 -2.0937576q-3.515625 0 -5.921875 2.0000076q-2.40625 2.0 -2.984375 5.75l17.234375 0zm29.919281 -11.265633l8.5625 21.531258l0.125 0l8.1562195 -21.531258l4.921875 0l-10.8593445 27.453133l-5.03125 0l-11.203125 -27.453133l5.328125 0zm39.178528 -0.703125q6.109375 0 9.53125 3.84375q3.4375 3.8437576 3.5 10.875008l0 1.125l-22.171875 0q0.34375 3.8125 2.859375 6.28125q2.53125 2.453125 6.171875 2.515625q5.578125 0 8.671875 -4.171875l3.46875 2.703125q-2.171875 2.8125 -5.109375 4.25q-2.921875 1.4375 -7.03125 1.4375q-6.28125 0 -10.09375 -4.078125q-3.8125 -4.078125 -3.875 -10.34375q0 -6.21875 3.90625 -10.265633q3.90625 -4.046875 10.171875 -4.171875zm8.09375 11.968758q-0.171875 -3.578125 -2.3125 -5.65625q-2.140625 -2.0937576 -6.015625 -2.0937576q-3.515625 0 -5.921875 2.0000076q-2.40625 2.0 -2.984375 5.75l17.234375 0zm25.519104 -11.968758q1.0625 0 1.875 0.296875l-0.28125 4.6250076q-1.296875 -0.34375763 -2.46875 -0.34375763q-3.984375 0 -6.015625 2.6093826q-2.015625 2.609375 -2.015625 7.359375l0 13.609375l-4.578125 0l0 -21.34375q0 -0.828125 -0.234375 -6.1093826l4.34375 0q0.109375 4.109375 0.109375 4.5156326l0.125 0q1.109375 -2.3437576 3.59375 -3.7812576q2.5 -1.4375 5.546875 -1.4375zm8.740753 0.703125l8.5 21.531258l0.125 0l8.15625 -21.531258l4.984375 0l-13.4375 34.203133q-1.578125 4.09375 -3.609375 5.703125q-2.015625 1.625 -5.359375 1.625q-2.53125 0 -4.109375 -0.703125l0.59375 -3.984375q0.8125 0.46875 3.390625 0.46875q3.296875 0 4.75 -4.046875l2.0625 -5.640625l-11.375 -27.625008l5.328125 0zm55.953705 -0.703125q3.171875 0 5.84375 1.46875q2.671875 1.46875 3.90625 3.9218826l0.109375 0l0 -4.6875076l4.578125 0l0 26.515633q0 7.03125 -3.765625 10.953125q-3.75 3.9375 -11.1875 4.0625q-4.046875 0 -7.34375 -1.171875q-3.28125 -1.171875 -6.15625 -4.046875l3.28125 -3.75q4.40625 4.75 10.21875 4.75q10.375 0 10.375 -11.03125l0 -3.578125l-0.109375 0q-1.53125 2.46875 -4.234375 3.796875q-2.6875 1.3125 -5.515625 1.3125q-6.328125 0 -10.375 -3.953125q-4.046875 -3.96875 -4.171875 -10.125q0 -6.640625 3.984375 -10.500008q4.0 -3.875 10.5625 -3.9375zm-9.609375 14.437508q0 4.09375 2.8125 6.9375q2.8125 2.84375 6.859375 2.90625q4.453125 0 7.125 -2.875q2.671875 -2.875 2.671875 -7.09375q0 -4.515625 -2.734375 -7.265625q-2.71875 -2.7656326 -7.125 -2.8281326q-4.15625 0 -6.890625 2.9375076q-2.71875 2.9375 -2.71875 7.28125zm45.573334 -14.437508q6.390625 0 10.4375 3.96875q4.046875 3.9531326 4.21875 10.468758q0 6.265625 -4.109375 10.296875q-4.09375 4.015625 -10.546875 4.125q-6.453125 0 -10.5 -4.078125q-4.046875 -4.078125 -4.171875 -10.34375q0 -6.34375 4.109375 -10.359383q4.109375 -4.015625 10.5625 -4.078125zm-9.734375 14.437508q0 4.515625 2.71875 7.296875q2.734375 2.78125 7.015625 2.90625q4.28125 0 6.96875 -2.84375q2.703125 -2.84375 2.765625 -7.359375q0 -4.46875 -2.734375 -7.34375q-2.71875 -2.8750076 -7.0625 -2.8750076q-4.21875 0 -6.921875 2.8593826q-2.6875 2.84375 -2.75 7.359375zm44.57617 -14.437508q6.390625 0 10.4375 3.96875q4.046875 3.9531326 4.21875 10.468758q0 6.265625 -4.109375 10.296875q-4.09375 4.015625 -10.546875 4.125q-6.453125 0 -10.5 -4.078125q-4.046875 -4.078125 -4.171875 -10.34375q0 -6.34375 4.109375 -10.359383q4.109375 -4.015625 10.5625 -4.078125zm-9.734375 14.437508q0 4.515625 2.71875 7.296875q2.734375 2.78125 7.015625 2.90625q4.28125 0 6.96875 -2.84375q2.703125 -2.84375 2.765625 -7.359375q0 -4.46875 -2.734375 -7.34375q-2.71875 -2.8750076 -7.0625 -2.8750076q-4.21875 0 -6.921875 2.8593826q-2.6875 2.84375 -2.75 7.359375zm58.88867 -30.625008l0 44.343758l-4.578125 0l0 -4.875l-0.109375 0q-1.421875 2.640625 -4.296875 4.109375q-2.859375 1.46875 -6.265625 1.46875q-5.8125 0 -9.71875 -4.125q-3.890625 -4.140625 -4.015625 -10.296875q0 -6.28125 4.015625 -10.328133q4.03125 -4.046875 10.421875 -4.109375q5.921875 0 9.859375 4.6875l0.109375 0l0 -20.875l4.578125 0zm-24.046875 30.625008q0 4.515625 2.71875 7.328125q2.734375 2.8125 7.015625 2.875q4.28125 0 6.953125 -2.8125q2.671875 -2.828125 2.78125 -7.390625q0 -4.46875 -2.734375 -7.34375q-2.71875 -2.8750076 -7.0625 -2.8750076q-4.21875 0 -6.890625 2.8593826q-2.671875 2.84375 -2.78125 7.359375zm59.364075 -14.437508q5.96875 0 8.703125 2.8125q2.734375 2.8125076 2.78125 8.515633l0 12.3125q0 1.765625 0.421875 4.515625l-4.40625 0q-0.296875 -0.53125 -0.296875 -4.109375l-0.109375 0q-3.109375 4.703125 -9.03125 4.8125q-4.515625 0 -7.375 -2.25q-2.84375 -2.265625 -2.84375 -5.90625q0 -4.984375 4.109375 -7.296875q4.109375 -2.3125 12.84375 -2.3125l2.109375 0l0 -0.765625q0 -5.9843826 -6.796875 -6.1093826q-4.921875 0 -8.15625 3.0000076l-2.875 -3.0000076q4.234375 -4.09375 10.921875 -4.21875zm-7.21875 20.234383q0 4.640625 6.03125 4.75q3.578125 0 5.828125 -2.28125q2.265625 -2.296875 2.265625 -6.6875l0 -1.0625l-5.03125 0q-4.046875 0 -6.546875 1.296875q-2.484375 1.296875 -2.546875 3.984375zm34.020752 -27.328133l0 7.796875l8.09375 0l0 3.875l-8.09375 0l0 14.656258q0 3.296875 1.046875 4.359375q1.0625 1.046875 3.0625 1.046875q2.28125 0 4.046875 -0.9375l0.171875 4.15625q-2.34375 1.0 -5.34375 1.0q-4.21875 0 -5.890625 -2.078125q-1.671875 -2.078125 -1.671875 -6.84375l0 -15.359383l-5.984375 0l0 -3.875l5.984375 0l0 -7.796875l4.578125 0zm36.95343 0l0 7.796875l8.09375 0l0 3.875l-8.09375 0l0 14.656258q0 3.296875 1.046875 4.359375q1.0625 1.046875 3.0625 1.046875q2.28125 0 4.046875 -0.9375l0.171875 4.15625q-2.34375 1.0 -5.34375 1.0q-4.21875 0 -5.890625 -2.078125q-1.671875 -2.078125 -1.671875 -6.84375l0 -15.359383l-5.984375 0l0 -3.875l5.984375 0l0 -7.796875l4.578125 0zm18.303223 -9.09375l0 20.703125l0.109375 0q1.234375 -2.046875 3.640625 -3.28125q2.40625 -1.234375 5.21875 -1.234375q5.15625 0 7.765625 3.0q2.609375 2.9843826 2.609375 7.9687576l0 17.1875l-4.5625 0l0 -16.65625q0 -3.171875 -1.46875 -5.1875q-1.46875 -2.0312576 -4.8125 -2.0937576q-4.21875 0 -6.359375 2.7968826q-2.140625 2.78125 -2.140625 7.53125l0 13.609375l-4.578125 0l0 -44.343758l4.578125 0zm30.722229 2.8125q1.359375 0 2.34375 0.96875q1.0 0.96875 1.0 2.375q0 1.46875 -0.9375 2.40625q-0.9375 0.9375 -2.40625 0.9375q-1.453125 0 -2.390625 -0.9375q-0.9375 -0.9375 -0.9375 -2.40625q0 -1.40625 0.984375 -2.375q1.0 -0.96875 2.34375 -0.96875zm2.296875 14.078125l0 27.453133l-4.578125 0l0 -27.453133l4.578125 0zm22.577515 -0.703125q5.171875 0 7.796875 3.0q2.640625 2.9843826 2.640625 7.9687576l0 17.1875l-4.5625 0l0 -16.65625q0 -3.171875 -1.46875 -5.1875q-1.46875 -2.0312576 -4.8125 -2.0937576q-4.21875 0 -6.359375 2.7968826q-2.140625 2.78125 -2.140625 7.703125l0 13.4375l-4.578125 0l0 -21.34375q0 -0.296875 -0.234375 -6.1093826l4.34375 0q0.109375 4.109375 0.109375 4.5156326l0.125 0q1.109375 -2.3437576 3.59375 -3.7812576q2.5 -1.4375 5.546875 -1.4375zm23.706604 -16.1875l0 28.968758l12.484375 -12.078133l6.515625 0l-13.265625 12.500008l14.609375 14.953125l-6.734375 0l-13.609375 -14.421875l0 14.421875l-4.578125 0l0 -44.343758l4.578125 0zm27.4375 2.8125q1.359375 0 2.34375 0.96875q1.0 0.96875 1.0 2.375q0 1.46875 -0.9375 2.40625q-0.9375 0.9375 -2.40625 0.9375q-1.453125 0 -2.390625 -0.9375q-0.9375 -0.9375 -0.9375 -2.40625q0 -1.40625 0.984375 -2.375q1.0 -0.96875 2.34375 -0.96875zm2.296875 14.078125l0 27.453133l-4.578125 0l0 -27.453133l4.578125 0zm22.577515 -0.703125q5.171875 0 7.796875 3.0q2.640625 2.9843826 2.640625 7.9687576l0 17.1875l-4.5625 0l0 -16.65625q0 -3.171875 -1.46875 -5.1875q-1.46875 -2.0312576 -4.8125 -2.0937576q-4.21875 0 -6.359375 2.7968826q-2.140625 2.78125 -2.140625 7.703125l0 13.4375l-4.578125 0l0 -21.34375q0 -0.296875 -0.234375 -6.1093826l4.34375 0q0.109375 4.109375 0.109375 4.5156326l0.125 0q1.109375 -2.3437576 3.59375 -3.7812576q2.5 -1.4375 5.546875 -1.4375zm32.081604 0q3.171875 0 5.84375 1.46875q2.671875 1.46875 3.90625 3.9218826l0.109375 0l0 -4.6875076l4.578125 0l0 26.515633q0 7.03125 -3.765625 10.953125q-3.75 3.9375 -11.1875 4.0625q-4.046875 0 -7.34375 -1.171875q-3.28125 -1.171875 -6.15625 -4.046875l3.28125 -3.75q4.40625 4.75 10.21875 4.75q10.375 0 10.375 -11.03125l0 -3.578125l-0.109375 0q-1.53125 2.46875 -4.234375 3.796875q-2.6875 1.3125 -5.515625 1.3125q-6.328125 0 -10.375 -3.953125q-4.046875 -3.96875 -4.171875 -10.125q0 -6.640625 3.984375 -10.500008q4.0 -3.875 10.5625 -3.9375zm-9.609375 14.437508q0 4.09375 2.8125 6.9375q2.8125 2.84375 6.859375 2.90625q4.453125 0 7.125 -2.875q2.671875 -2.875 2.671875 -7.09375q0 -4.515625 -2.734375 -7.265625q-2.71875 -2.7656326 -7.125 -2.8281326q-4.15625 0 -6.890625 2.9375076q-2.71875 2.9375 -2.71875 7.28125z" fill-rule="nonzero"/><path fill="#ffffff" d="m104.10935 193.16376q5.96875 0 8.703125 2.8125q2.734375 2.8125 2.78125 8.515625l0 12.3125q0 1.765625 0.421875 4.515625l-4.40625 0q-0.296875 -0.53125 -0.296875 -4.109375l-0.109375 0q-3.109375 4.703125 -9.03125 4.8125q-4.515625 0 -7.375 -2.25q-2.84375 -2.265625 -2.84375 -5.90625q0 -4.984375 4.109375 -7.296875q4.109375 -2.3125 12.84375 -2.3125l2.109375 0l0 -0.765625q0 -5.984375 -6.796875 -6.109375q-4.921875 0 -8.15625 3.0l-2.875 -3.0q4.234375 -4.09375 10.921875 -4.21875zm-7.21875 20.234375q0 4.640625 6.03125 4.75q3.578125 0 5.828125 -2.28125q2.265625 -2.296875 2.265625 -6.6875l0 -1.0625l-5.03125 0q-4.046875 0 -6.546875 1.296875q-2.484375 1.296875 -2.546875 3.984375zm31.442589 -36.421875l0 20.875l0.109375 0q3.984375 -4.625 9.859375 -4.6875q6.5 0 10.4375 4.078125q3.9375 4.078125 3.984375 10.359375q0 6.09375 -3.9375 10.203125q-3.921875 4.109375 -9.78125 4.21875q-3.515625 0 -6.375 -1.515625q-2.84375 -1.53125 -4.1875 -4.0625l-0.109375 0l0 4.875l-4.5781326 0l0 -44.34375l4.5781326 0zm0 30.625q0 4.515625 2.78125 7.359375q2.78125 2.84375 6.953125 2.84375q4.28125 0 6.96875 -2.84375q2.703125 -2.84375 2.765625 -7.359375q0 -4.46875 -2.734375 -7.34375q-2.71875 -2.875 -7.0625 -2.875q-4.21875 0 -6.921875 2.859375q-2.703125 2.84375 -2.75 7.359375zm44.57332 -14.4375q6.390625 0 10.4375 3.96875q4.046875 3.953125 4.21875 10.46875q0 6.265625 -4.109375 10.296875q-4.09375 4.015625 -10.546875 4.125q-6.453125 0 -10.5 -4.078125q-4.046875 -4.078125 -4.171875 -10.34375q0 -6.34375 4.109375 -10.359375q4.109375 -4.015625 10.5625 -4.078125zm-9.734375 14.4375q0 4.515625 2.71875 7.296875q2.734375 2.78125 7.015625 2.90625q4.28125 0 6.96875 -2.84375q2.703125 -2.84375 2.765625 -7.359375q0 -4.46875 -2.734375 -7.34375q-2.71875 -2.875 -7.0625 -2.875q-4.21875 0 -6.921875 2.859375q-2.6875 2.84375 -2.75 7.359375zm36.07617 -13.734375l0 16.65625q0 3.171875 1.484375 5.203125q1.5 2.015625 4.78125 2.078125q4.234375 0 6.375 -2.8125q2.140625 -2.828125 2.140625 -7.515625l0 -13.609375l4.5625 0l0 21.359375q0.0625 1.640625 0.234375 6.09375l-4.328125 0q-0.0625 -2.8125 -0.125 -4.515625l-0.109375 0q-1.0625 2.28125 -3.5625 3.75q-2.484375 1.46875 -5.65625 1.46875q-5.046875 -0.0625 -7.71875 -3.015625q-2.65625 -2.96875 -2.65625 -7.953125l0 -17.1875l4.578125 0zm34.956604 -7.796875l0 7.796875l8.09375 0l0 3.875l-8.09375 0l0 14.65625q0 3.296875 1.046875 4.359375q1.0625 1.046875 3.0625 1.046875q2.28125 0 4.046875 -0.9375l0.171875 4.15625q-2.34375 1.0 -5.34375 1.0q-4.21875 0 -5.890625 -2.078125q-1.671875 -2.078125 -1.671875 -6.84375l0 -15.359375l-5.984375 0l0 -3.875l5.984375 0l0 -7.796875l4.578125 0zm38.422165 7.09375q6.5625 0.0625 9.328125 4.984375l-3.828125 2.53125q-1.984375 -3.296875 -5.796875 -3.296875q-2.296875 0 -3.859375 1.0625q-1.546875 1.0625 -1.546875 2.75q0 2.765625 6.875 4.0q4.921875 0.875 6.96875 2.875q2.0625 1.984375 2.0625 5.328125q0 4.046875 -3.0 6.34375q-2.984375 2.28125 -7.96875 2.28125q-3.875 0 -6.375 -1.234375q-2.484375 -1.234375 -4.296875 -3.875l3.625 -2.8125q1.703125 2.0625 3.34375 2.890625q1.640625 0.8125 3.703125 0.8125q2.640625 0 4.328125 -1.140625q1.703125 -1.15625 1.703125 -3.09375q0 -1.984375 -1.796875 -2.984375q-1.78125 -1.0 -5.9375 -1.8125q-4.109375 -0.890625 -5.953125 -2.640625q-1.84375 -1.765625 -1.84375 -4.875q0 -3.453125 2.84375 -5.734375q2.84375 -2.296875 7.421875 -2.359375zm21.175049 -16.1875l0 20.703125l0.109375 0q1.234375 -2.046875 3.640625 -3.28125q2.40625 -1.234375 5.21875 -1.234375q5.15625 0 7.765625 3.0q2.609375 2.984375 2.609375 7.96875l0 17.1875l-4.5625 0l0 -16.65625q0 -3.171875 -1.46875 -5.1875q-1.46875 -2.03125 -4.8125 -2.09375q-4.21875 0 -6.359375 2.796875q-2.140625 2.78125 -2.140625 7.53125l0 13.609375l-4.578125 0l0 -44.34375l4.578125 0zm41.112854 16.1875q6.390625 0 10.4375 3.96875q4.046875 3.953125 4.21875 10.46875q0 6.265625 -4.109375 10.296875q-4.09375 4.015625 -10.546875 4.125q-6.453125 0 -10.5 -4.078125q-4.046875 -4.078125 -4.171875 -10.34375q0 -6.34375 4.109375 -10.359375q4.109375 -4.015625 10.5625 -4.078125zm-9.734375 14.4375q0 4.515625 2.71875 7.296875q2.734375 2.78125 7.015625 2.90625q4.28125 0 6.96875 -2.84375q2.703125 -2.84375 2.765625 -7.359375q0 -4.46875 -2.734375 -7.34375q-2.71875 -2.875 -7.0625 -2.875q-4.21875 0 -6.921875 2.859375q-2.6875 2.84375 -2.75 7.359375zm44.98239 -14.4375q1.0625 0 1.875 0.296875l-0.28125 4.625q-1.296875 -0.34375 -2.46875 -0.34375q-3.984375 0 -6.015625 2.609375q-2.015625 2.609375 -2.015625 7.359375l0 13.609375l-4.578125 0l0 -21.34375q0 -0.828125 -0.234375 -6.109375l4.34375 0q0.109375 4.109375 0.109375 4.515625l0.125 0q1.109375 -2.34375 3.59375 -3.78125q2.5 -1.4375 5.546875 -1.4375zm14.084473 -7.09375l0 7.796875l8.09375 0l0 3.875l-8.09375 0l0 14.65625q0 3.296875 1.046875 4.359375q1.0625 1.046875 3.0625 1.046875q2.28125 0 4.046875 -0.9375l0.171875 4.15625q-2.34375 1.0 -5.34375 1.0q-4.21875 0 -5.890625 -2.078125q-1.671875 -2.078125 -1.671875 -6.84375l0 -15.359375l-5.984375 0l0 -3.875l5.984375 0l0 -7.796875l4.578125 0zm36.9534 0l0 7.796875l8.09375 0l0 3.875l-8.09375 0l0 14.65625q0 3.296875 1.046875 4.359375q1.0625 1.046875 3.0625 1.046875q2.28125 0 4.046875 -0.9375l0.171875 4.15625q-2.34375 1.0 -5.34375 1.0q-4.21875 0 -5.890625 -2.078125q-1.671875 -2.078125 -1.671875 -6.84375l0 -15.359375l-5.984375 0l0 -3.875l5.984375 0l0 -7.796875l4.578125 0zm26.209503 7.09375q6.109375 0 9.53125 3.84375q3.4375 3.84375 3.5 10.875l0 1.125l-22.171875 0q0.34375 3.8125 2.859375 6.28125q2.53125 2.453125 6.171875 2.515625q5.578125 0 8.671875 -4.171875l3.46875 2.703125q-2.171875 2.8125 -5.109375 4.25q-2.921875 1.4375 -7.03125 1.4375q-6.28125 0 -10.09375 -4.078125q-3.8125 -4.078125 -3.875 -10.34375q0 -6.21875 3.90625 -10.265625q3.90625 -4.046875 10.171875 -4.171875zm8.09375 11.96875q-0.171875 -3.578125 -2.3125 -5.65625q-2.140625 -2.09375 -6.015625 -2.09375q-3.515625 0 -5.921875 2.0q-2.40625 2.0 -2.984375 5.75l17.234375 0zm25.519104 -11.96875q1.0625 0 1.875 0.296875l-0.28125 4.625q-1.296875 -0.34375 -2.46875 -0.34375q-3.984375 0 -6.015625 2.609375q-2.015625 2.609375 -2.015625 7.359375l0 13.609375l-4.578125 0l0 -21.34375q0 -0.828125 -0.234375 -6.109375l4.34375 0q0.109375 4.109375 0.109375 4.515625l0.125 0q1.109375 -2.34375 3.59375 -3.78125q2.5 -1.4375 5.546875 -1.4375zm20.709473 0q6.28125 0 8.625 5.21875q1.640625 -2.6875 3.6875305 -3.953125q2.0625 -1.265625 5.046875 -1.265625q5.34375 0 7.859375 2.796875q2.53125 2.78125 2.53125 8.40625l0 16.953125l-4.578125 0l0 -16.59375q0 -7.21875 -6.6875 -7.34375q-3.109375 0 -5.109375 2.328125q-1.9844055 2.3125 -1.9844055 5.59375l0 16.015625l-4.578125 0l0 -15.890625q0 -4.046875 -1.171875 -6.046875q-1.171875 -2.0 -4.171875 -2.0q-4.15625 0 -6.296875 2.796875q-2.140625 2.78125 -2.140625 7.703125l0 13.4375l-4.578125 0l0 -21.34375q-0.0625 -2.0625 -0.234375 -6.109375l4.34375 0q0.109375 4.046875 0.109375 4.515625l0.125 0q1.109375 -2.34375 3.5625 -3.78125q2.46875 -1.4375 5.640625 -1.4375zm65.406525 0q6.5 0 10.5 4.34375l-3.640625 3.21875q-2.765625 -3.34375 -6.921875 -3.34375q-4.28125 0 -6.78125 2.796875q-2.484375 2.78125 -2.484375 7.421875q0 4.390625 2.65625 7.265625q2.671875 2.875 6.609375 2.9375q4.515625 0 6.984375 -3.40625l3.390625 3.21875q-3.8125 4.34375 -10.375 4.40625q-6.28125 -0.0625 -10.1875 -3.984375q-3.890625 -3.9375 -4.015625 -10.4375q0.0625 -6.578125 4.109375 -10.5q4.046875 -3.9375 10.15625 -3.9375zm26.162903 0q5.96875 0 8.703125 2.8125q2.734375 2.8125 2.78125 8.515625l0 12.3125q0 1.765625 0.421875 4.515625l-4.40625 0q-0.296875 -0.53125 -0.296875 -4.109375l-0.109375 0q-3.109375 4.703125 -9.03125 4.8125q-4.515625 0 -7.375 -2.25q-2.84375 -2.265625 -2.84375 -5.90625q0 -4.984375 4.109375 -7.296875q4.109375 -2.3125 12.84375 -2.3125l2.109375 0l0 -0.765625q0 -5.984375 -6.796875 -6.109375q-4.921875 0 -8.15625 3.0l-2.875 -3.0q4.234375 -4.09375 10.921875 -4.21875zm-7.21875 20.234375q0 4.640625 6.03125 4.75q3.578125 0 5.828125 -2.28125q2.265625 -2.296875 2.265625 -6.6875l0 -1.0625l-5.03125 0q-4.046875 0 -6.546875 1.296875q-2.484375 1.296875 -2.546875 3.984375zm34.020752 -27.328125l0 7.796875l8.09375 0l0 3.875l-8.09375 0l0 14.65625q0 3.296875 1.046875 4.359375q1.0625 1.046875 3.0625 1.046875q2.28125 0 4.046875 -0.9375l0.171875 4.15625q-2.34375 1.0 -5.34375 1.0q-4.21875 0 -5.890625 -2.078125q-1.671875 -2.078125 -1.671875 -6.84375l0 -15.359375l-5.984375 0l0 -3.875l5.984375 0l0 -7.796875l4.578125 0zm24.287598 7.09375q5.96875 0 8.703125 2.8125q2.734375 2.8125 2.78125 8.515625l0 12.3125q0 1.765625 0.421875 4.515625l-4.40625 0q-0.296875 -0.53125 -0.296875 -4.109375l-0.109375 0q-3.109375 4.703125 -9.03125 4.8125q-4.515625 0 -7.375 -2.25q-2.84375 -2.265625 -2.84375 -5.90625q0 -4.984375 4.109375 -7.296875q4.109375 -2.3125 12.84375 -2.3125l2.109375 0l0 -0.765625q0 -5.984375 -6.796875 -6.109375q-4.921875 0 -8.15625 3.0l-2.875 -3.0q4.234375 -4.09375 10.921875 -4.21875zm-7.21875 20.234375q0 4.640625 6.03125 4.75q3.578125 0 5.828125 -2.28125q2.265625 -2.296875 2.265625 -6.6875l0 -1.0625l-5.03125 0q-4.046875 0 -6.546875 1.296875q-2.484375 1.296875 -2.546875 3.984375zm35.48938 -20.234375q6.5625 0.0625 9.328125 4.984375l-3.828125 2.53125q-1.984375 -3.296875 -5.796875 -3.296875q-2.296875 0 -3.859375 1.0625q-1.546875 1.0625 -1.546875 2.75q0 2.765625 6.875 4.0q4.921875 0.875 6.96875 2.875q2.0625 1.984375 2.0625 5.328125q0 4.046875 -3.0 6.34375q-2.984375 2.28125 -7.96875 2.28125q-3.875 0 -6.375 -1.234375q-2.484375 -1.234375 -4.296875 -3.875l3.625 -2.8125q1.703125 2.0625 3.34375 2.890625q1.640625 0.8125 3.703125 0.8125q2.640625 0 4.328125 -1.140625q1.703125 -1.15625 1.703125 -3.09375q0 -1.984375 -1.796875 -2.984375q-1.78125 -1.0 -5.9375 -1.8125q-4.109375 -0.890625 -5.953125 -2.640625q-1.84375 -1.765625 -1.84375 -4.875q0 -3.453125 2.84375 -5.734375q2.84375 -2.296875 7.421875 -2.359375zm23.518799 -7.09375l0 7.796875l8.09375 0l0 3.875l-8.09375 0l0 14.65625q0 3.296875 1.046875 4.359375q1.0625 1.046875 3.0625 1.046875q2.28125 0 4.046875 -0.9375l0.171875 4.15625q-2.34375 1.0 -5.34375 1.0q-4.21875 0 -5.890625 -2.078125q-1.671875 -2.078125 -1.671875 -6.84375l0 -15.359375l-5.984375 0l0 -3.875l5.984375 0l0 -7.796875l4.578125 0zm27.209473 7.09375q1.0625 0 1.875 0.296875l-0.28125 4.625q-1.296875 -0.34375 -2.46875 -0.34375q-3.984375 0 -6.015625 2.609375q-2.015625 2.609375 -2.015625 7.359375l0 13.609375l-4.578125 0l0 -21.34375q0 -0.828125 -0.234375 -6.109375l4.34375 0q0.109375 4.109375 0.109375 4.515625l0.125 0q1.109375 -2.34375 3.59375 -3.78125q2.5 -1.4375 5.546875 -1.4375zm19.184814 0q6.390625 0 10.4375 3.96875q4.046875 3.953125 4.21875 10.46875q0 6.265625 -4.109375 10.296875q-4.09375 4.015625 -10.546875 4.125q-6.453125 0 -10.5 -4.078125q-4.046875 -4.078125 -4.171875 -10.34375q0 -6.34375 4.109375 -10.359375q4.109375 -4.015625 10.5625 -4.078125zm-9.734375 14.4375q0 4.515625 2.71875 7.296875q2.734375 2.78125 7.015625 2.90625q4.28125 0 6.96875 -2.84375q2.703125 -2.84375 2.765625 -7.359375q0 -4.46875 -2.734375 -7.34375q-2.71875 -2.875 -7.0625 -2.875q-4.21875 0 -6.921875 2.859375q-2.6875 2.84375 -2.75 7.359375zm45.810547 -14.4375q6.5 0 10.4375 4.109375q3.9375 4.109375 3.984375 10.328125q0 6.15625 -3.984375 10.234375q-3.984375 4.078125 -9.734375 4.1875q-3.515625 0 -6.375 -1.515625q-2.84375 -1.53125 -4.1875 -4.0625l-0.109375 0l0 18.25l-4.578125 0l0 -40.828125l4.578125 0l0 3.984375l0.109375 0q4.046875 -4.6875 9.859375 -4.6875zm-9.96875 14.4375q0 4.515625 2.71875 7.296875q2.734375 2.78125 7.015625 2.90625q4.28125 0 6.96875 -2.84375q2.703125 -2.84375 2.765625 -7.359375q0 -4.46875 -2.734375 -7.34375q-2.71875 -2.875 -7.0625 -2.875q-4.21875 0 -6.921875 2.859375q-2.703125 2.84375 -2.75 7.359375zm36.073242 -30.625l0 20.703125l0.109375 0q1.234375 -2.046875 3.640625 -3.28125q2.40625 -1.234375 5.21875 -1.234375q5.15625 0 7.765625 3.0q2.609375 2.984375 2.609375 7.96875l0 17.1875l-4.5625 0l0 -16.65625q0 -3.171875 -1.46875 -5.1875q-1.46875 -2.03125 -4.8125 -2.09375q-4.21875 0 -6.359375 2.796875q-2.140625 2.78125 -2.140625 7.53125l0 13.609375l-4.578125 0l0 -44.34375l4.578125 0zm30.72229 2.8125q1.359375 0 2.34375 0.96875q1.0 0.96875 1.0 2.375q0 1.46875 -0.9375 2.40625q-0.9375 0.9375 -2.40625 0.9375q-1.453125 0 -2.390625 -0.9375q-0.9375 -0.9375 -0.9375 -2.40625q0 -1.40625 0.984375 -2.375q1.0 -0.96875 2.34375 -0.96875zm2.296875 14.078125l0 27.453125l-4.578125 0l0 -27.453125l4.578125 0zm21.765015 -0.703125q6.5 0 10.5 4.34375l-3.640625 3.21875q-2.765625 -3.34375 -6.921875 -3.34375q-4.28125 0 -6.78125 2.796875q-2.484375 2.78125 -2.484375 7.421875q0 4.390625 2.65625 7.265625q2.671875 2.875 6.609375 2.9375q4.515625 0 6.984375 -3.40625l3.390625 3.21875q-3.8125 4.34375 -10.375 4.40625q-6.28125 -0.0625 -10.1875 -3.984375q-3.890625 -3.9375 -4.015625 -10.4375q0.0625 -6.578125 4.109375 -10.5q4.046875 -3.9375 10.15625 -3.9375z" fill-rule="nonzero"/><path fill="#ffffff" d="m122.42835 263.16376q1.0625 0 1.875 0.296875l-0.28125 4.625q-1.296875 -0.34375 -2.46875 -0.34375q-3.984375 0 -6.015625 2.609375q-2.015625 2.609375 -2.015625 7.359375l0 13.609375l-4.578125 0l0 -21.34375q0 -0.828125 -0.234375 -6.109375l4.34375 0q0.109375 4.109375 0.109375 4.515625l0.125 0q1.109375 -2.34375 3.59375 -3.78125q2.5 -1.4375 5.546875 -1.4375zm9.850121 -13.375q1.359375 0 2.34375 0.96875q1.0 0.96875 1.0 2.375q0 1.46875 -0.9375 2.40625q-0.9375 0.9375 -2.40625 0.9375q-1.453125 0 -2.390625 -0.9375q-0.9375 -0.9375 -0.9375 -2.40625q0 -1.40625 0.984375 -2.375q1.0 -0.96875 2.34375 -0.96875zm2.296875 14.078125l0 27.453125l-4.578125 0l0 -27.453125l4.578125 0zm17.48375 -0.703125q6.5625 0.0625 9.328125 4.984375l-3.828125 2.53125q-1.984375 -3.296875 -5.796875 -3.296875q-2.296875 0 -3.859375 1.0625q-1.546875 1.0625 -1.546875 2.75q0 2.765625 6.875 4.0q4.921875 0.875 6.96875 2.875q2.0625 1.984375 2.0625 5.328125q0 4.046875 -3.0 6.34375q-2.984375 2.28125 -7.96875 2.28125q-3.875 0 -6.375 -1.234375q-2.484375 -1.234375 -4.296875 -3.875l3.625 -2.8125q1.703125 2.0625 3.34375 2.890625q1.640625 0.8125 3.703125 0.8125q2.640625 0 4.328125 -1.140625q1.703125 -1.15625 1.703125 -3.09375q0 -1.984375 -1.796875 -2.984375q-1.78125 -1.0 -5.9375 -1.8125q-4.109375 -0.890625 -5.953125 -2.640625q-1.84375 -1.765625 -1.84375 -4.875q0 -3.453125 2.84375 -5.734375q2.84375 -2.296875 7.421875 -2.359375zm21.175049 -16.1875l0 28.96875l12.484375 -12.078125l6.515625 0l-13.265625 12.5l14.609375 14.953125l-6.734375 0l-13.609375 -14.421875l0 14.421875l-4.578125 0l0 -44.34375l4.578125 0zm32.781235 38.359375l-4.8125 14.078125l-4.515625 0l3.984375 -14.078125l5.34375 0zm28.925354 -38.359375l0 20.875l0.109375 0q3.984375 -4.625 9.859375 -4.6875q6.5 0 10.4375 4.078125q3.9375 4.078125 3.984375 10.359375q0 6.09375 -3.9375 10.203125q-3.921875 4.109375 -9.78125 4.21875q-3.515625 0 -6.375 -1.515625q-2.84375 -1.53125 -4.1875 -4.0625l-0.109375 0l0 4.875l-4.578125 0l0 -44.34375l4.578125 0zm0 30.625q0 4.515625 2.78125 7.359375q2.78125 2.84375 6.953125 2.84375q4.28125 0 6.96875 -2.84375q2.703125 -2.84375 2.765625 -7.359375q0 -4.46875 -2.734375 -7.34375q-2.71875 -2.875 -7.0625 -2.875q-4.21875 0 -6.921875 2.859375q-2.703125 2.84375 -2.75 7.359375zm36.073303 -13.734375l0 16.65625q0 3.171875 1.484375 5.203125q1.5 2.015625 4.78125 2.078125q4.234375 0 6.375 -2.8125q2.140625 -2.828125 2.140625 -7.515625l0 -13.609375l4.5625 0l0 21.359375q0.0625 1.640625 0.234375 6.09375l-4.328125 0q-0.0625 -2.8125 -0.125 -4.515625l-0.109375 0q-1.0625 2.28125 -3.5625 3.75q-2.484375 1.46875 -5.65625 1.46875q-5.046875 -0.0625 -7.71875 -3.015625q-2.65625 -2.96875 -2.65625 -7.953125l0 -17.1875l4.578125 0zm34.956604 -7.796875l0 7.796875l8.09375 0l0 3.875l-8.09375 0l0 14.65625q0 3.296875 1.046875 4.359375q1.0625 1.046875 3.0625 1.046875q2.28125 0 4.046875 -0.9375l0.171875 4.15625q-2.34375 1.0 -5.34375 1.0q-4.21875 0 -5.890625 -2.078125q-1.671875 -2.078125 -1.671875 -6.84375l0 -15.359375l-5.984375 0l0 -3.875l5.984375 0l0 -7.796875l4.578125 0zm31.60968 7.796875l8.5625 21.53125l0.125 0l8.15625 -21.53125l4.921875 0l-10.859375 27.453125l-5.03125 0l-11.203125 -27.453125l5.328125 0zm39.178528 -0.703125q6.109375 0 9.53125 3.84375q3.4375 3.84375 3.5 10.875l0 1.125l-22.171875 0q0.34375 3.8125 2.859375 6.28125q2.53125 2.453125 6.171875 2.515625q5.578125 0 8.671875 -4.171875l3.46875 2.703125q-2.171875 2.8125 -5.109375 4.25q-2.921875 1.4375 -7.03125 1.4375q-6.28125 0 -10.09375 -4.078125q-3.8125 -4.078125 -3.875 -10.34375q0 -6.21875 3.90625 -10.265625q3.90625 -4.046875 10.171875 -4.171875zm8.09375 11.96875q-0.171875 -3.578125 -2.3125 -5.65625q-2.140625 -2.09375 -6.015625 -2.09375q-3.515625 0 -5.921875 2.0q-2.40625 2.0 -2.984375 5.75l17.234375 0zm25.519104 -11.96875q1.0625 0 1.875 0.296875l-0.28125 4.625q-1.296875 -0.34375 -2.46875 -0.34375q-3.984375 0 -6.015625 2.609375q-2.015625 2.609375 -2.015625 7.359375l0 13.609375l-4.578125 0l0 -21.34375q0 -0.828125 -0.234375 -6.109375l4.34375 0q0.109375 4.109375 0.109375 4.515625l0.125 0q1.109375 -2.34375 3.59375 -3.78125q2.5 -1.4375 5.546875 -1.4375zm8.740723 0.703125l8.5 21.53125l0.125 0l8.15625 -21.53125l4.984375 0l-13.4375 34.203125q-1.578125 4.09375 -3.609375 5.703125q-2.015625 1.625 -5.359375 1.625q-2.53125 0 -4.109375 -0.703125l0.59375 -3.984375q0.8125 0.46875 3.390625 0.46875q3.296875 0 4.75 -4.046875l2.0625 -5.640625l-11.375 -27.625l5.328125 0zm47.34433 -16.890625l0 20.875l0.109375 0q3.984375 -4.625 9.859375 -4.6875q6.5 0 10.4375 4.078125q3.9375 4.078125 3.984375 10.359375q0 6.09375 -3.9375 10.203125q-3.921875 4.109375 -9.78125 4.21875q-3.515625 0 -6.375 -1.515625q-2.84375 -1.53125 -4.1875 -4.0625l-0.109375 0l0 4.875l-4.578125 0l0 -44.34375l4.578125 0zm0 30.625q0 4.515625 2.78125 7.359375q2.78125 2.84375 6.953125 2.84375q4.28125 0 6.96875 -2.84375q2.703125 -2.84375 2.765625 -7.359375q0 -4.46875 -2.734375 -7.34375q-2.71875 -2.875 -7.0625 -2.875q-4.21875 0 -6.921875 2.859375q-2.703125 2.84375 -2.75 7.359375zm42.05771 -14.4375q5.96875 0 8.703125 2.8125q2.734375 2.8125 2.78125 8.515625l0 12.3125q0 1.765625 0.421875 4.515625l-4.40625 0q-0.296875 -0.53125 -0.296875 -4.109375l-0.109375 0q-3.109375 4.703125 -9.03125 4.8125q-4.515625 0 -7.375 -2.25q-2.84375 -2.265625 -2.84375 -5.90625q0 -4.984375 4.109375 -7.296875q4.109375 -2.3125 12.84375 -2.3125l2.109375 0l0 -0.765625q0 -5.984375 -6.796875 -6.109375q-4.921875 0 -8.15625 3.0l-2.875 -3.0q4.234375 -4.09375 10.921875 -4.21875zm-7.21875 20.234375q0 4.640625 6.03125 4.75q3.578125 0 5.828125 -2.28125q2.265625 -2.296875 2.265625 -6.6875l0 -1.0625l-5.03125 0q-4.046875 0 -6.546875 1.296875q-2.484375 1.296875 -2.546875 3.984375zm54.48944 -36.421875l0 44.34375l-4.578125 0l0 -4.875l-0.109375 0q-1.421875 2.640625 -4.296875 4.109375q-2.859375 1.46875 -6.265625 1.46875q-5.8125 0 -9.71875 -4.125q-3.890625 -4.140625 -4.015625 -10.296875q0 -6.28125 4.015625 -10.328125q4.03125 -4.046875 10.421875 -4.109375q5.921875 0 9.859375 4.6875l0.109375 0l0 -20.875l4.578125 0zm-24.046875 30.625q0 4.515625 2.71875 7.328125q2.734375 2.8125 7.015625 2.875q4.28125 0 6.953125 -2.8125q2.671875 -2.828125 2.78125 -7.390625q0 -4.46875 -2.734375 -7.34375q-2.71875 -2.875 -7.0625 -2.875q-4.21875 0 -6.890625 2.859375q-2.671875 2.84375 -2.78125 7.359375zm59.364136 -14.4375q5.96875 0 8.703125 2.8125q2.734375 2.8125 2.78125 8.515625l0 12.3125q0 1.765625 0.421875 4.515625l-4.40625 0q-0.296875 -0.53125 -0.296875 -4.109375l-0.109375 0q-3.109375 4.703125 -9.03125 4.8125q-4.515625 0 -7.375 -2.25q-2.84375 -2.265625 -2.84375 -5.90625q0 -4.984375 4.109375 -7.296875q4.109375 -2.3125 12.84375 -2.3125l2.109375 0l0 -0.765625q0 -5.984375 -6.796875 -6.109375q-4.921875 0 -8.15625 3.0l-2.875 -3.0q4.234375 -4.09375 10.921875 -4.21875zm-7.21875 20.234375q0 4.640625 6.03125 4.75q3.578125 0 5.828125 -2.28125q2.265625 -2.296875 2.265625 -6.6875l0 -1.0625l-5.03125 0q-4.046875 0 -6.546875 1.296875q-2.484375 1.296875 -2.546875 3.984375zm34.02069 -27.328125l0 7.796875l8.09375 0l0 3.875l-8.09375 0l0 14.65625q0 3.296875 1.046875 4.359375q1.0625 1.046875 3.0625 1.046875q2.28125 0 4.046875 -0.9375l0.171875 4.15625q-2.34375 1.0 -5.34375 1.0q-4.21875 0 -5.890625 -2.078125q-1.671875 -2.078125 -1.671875 -6.84375l0 -15.359375l-5.984375 0l0 -3.875l5.984375 0l0 -7.796875l4.578125 0zm36.95343 0l0 7.796875l8.09375 0l0 3.875l-8.09375 0l0 14.65625q0 3.296875 1.046875 4.359375q1.0625 1.046875 3.0625 1.046875q2.28125 0 4.046875 -0.9375l0.171875 4.15625q-2.34375 1.0 -5.34375 1.0q-4.21875 0 -5.890625 -2.078125q-1.671875 -2.078125 -1.671875 -6.84375l0 -15.359375l-5.984375 0l0 -3.875l5.984375 0l0 -7.796875l4.578125 0zm18.303223 -9.09375l0 20.703125l0.109375 0q1.234375 -2.046875 3.640625 -3.28125q2.40625 -1.234375 5.21875 -1.234375q5.15625 0 7.765625 3.0q2.609375 2.984375 2.609375 7.96875l0 17.1875l-4.5625 0l0 -16.65625q0 -3.171875 -1.46875 -5.1875q-1.46875 -2.03125 -4.8125 -2.09375q-4.21875 0 -6.359375 2.796875q-2.140625 2.78125 -2.140625 7.53125l0 13.609375l-4.578125 0l0 -44.34375l4.578125 0zm30.722229 2.8125q1.359375 0 2.34375 0.96875q1.0 0.96875 1.0 2.375q0 1.46875 -0.9375 2.40625q-0.9375 0.9375 -2.40625 0.9375q-1.453125 0 -2.390625 -0.9375q-0.9375 -0.9375 -0.9375 -2.40625q0 -1.40625 0.984375 -2.375q1.0 -0.96875 2.34375 -0.96875zm2.296875 14.078125l0 27.453125l-4.578125 0l0 -27.453125l4.578125 0zm22.577515 -0.703125q5.171875 0 7.796875 3.0q2.640625 2.984375 2.640625 7.96875l0 17.1875l-4.5625 0l0 -16.65625q0 -3.171875 -1.46875 -5.1875q-1.46875 -2.03125 -4.8125 -2.09375q-4.21875 0 -6.359375 2.796875q-2.140625 2.78125 -2.140625 7.703125l0 13.4375l-4.578125 0l0 -21.34375q0 -0.296875 -0.234375 -6.109375l4.34375 0q0.109375 4.109375 0.109375 4.515625l0.125 0q1.109375 -2.34375 3.59375 -3.78125q2.5 -1.4375 5.546875 -1.4375zm23.706604 -16.1875l0 28.96875l12.484375 -12.078125l6.515625 0l-13.265625 12.5l14.609375 14.953125l-6.734375 0l-13.609375 -14.421875l0 14.421875l-4.578125 0l0 -44.34375l4.578125 0zm27.4375 2.8125q1.359375 0 2.34375 0.96875q1.0 0.96875 1.0 2.375q0 1.46875 -0.9375 2.40625q-0.9375 0.9375 -2.40625 0.9375q-1.453125 0 -2.390625 -0.9375q-0.9375 -0.9375 -0.9375 -2.40625q0 -1.40625 0.984375 -2.375q1.0 -0.96875 2.34375 -0.96875zm2.296875 14.078125l0 27.453125l-4.578125 0l0 -27.453125l4.578125 0zm22.577515 -0.703125q5.171875 0 7.796875 3.0q2.640625 2.984375 2.640625 7.96875l0 17.1875l-4.5625 0l0 -16.65625q0 -3.171875 -1.46875 -5.1875q-1.46875 -2.03125 -4.8125 -2.09375q-4.21875 0 -6.359375 2.796875q-2.140625 2.78125 -2.140625 7.703125l0 13.4375l-4.578125 0l0 -21.34375q0 -0.296875 -0.234375 -6.109375l4.34375 0q0.109375 4.109375 0.109375 4.515625l0.125 0q1.109375 -2.34375 3.59375 -3.78125q2.5 -1.4375 5.546875 -1.4375zm32.081604 0q3.171875 0 5.84375 1.46875q2.671875 1.46875 3.90625 3.921875l0.109375 0l0 -4.6875l4.578125 0l0 26.515625q0 7.03125 -3.765625 10.953125q-3.75 3.9375 -11.1875 4.0625q-4.046875 0 -7.34375 -1.171875q-3.28125 -1.171875 -6.15625 -4.046875l3.28125 -3.75q4.40625 4.75 10.21875 4.75q10.375 0 10.375 -11.03125l0 -3.578125l-0.109375 0q-1.53125 2.46875 -4.234375 3.796875q-2.6875 1.3125 -5.515625 1.3125q-6.328125 0 -10.375 -3.953125q-4.046875 -3.96875 -4.171875 -10.125q0 -6.640625 3.984375 -10.5q4.0 -3.875 10.5625 -3.9375zm-9.609375 14.4375q0 4.09375 2.8125 6.9375q2.8125 2.84375 6.859375 2.90625q4.453125 0 7.125 -2.875q2.671875 -2.875 2.671875 -7.09375q0 -4.515625 -2.734375 -7.265625q-2.71875 -2.765625 -7.125 -2.828125q-4.15625 0 -6.890625 2.9375q-2.71875 2.9375 -2.71875 7.28125z" fill-rule="nonzero"/><path fill="#ffffff" d="m109.593666 333.16376q5.96875 0 8.703125 2.8125q2.734375 2.8125 2.78125 8.515625l0 12.3125q0 1.765625 0.421875 4.515625l-4.40625 0q-0.296875 -0.53125 -0.296875 -4.109375l-0.109375 0q-3.109375 4.703125 -9.03125 4.8125q-4.515625 0 -7.375 -2.25q-2.84375 -2.265625 -2.84375 -5.90625q0 -4.984375 4.109375 -7.296875q4.109375 -2.3125 12.84375 -2.3125l2.109375 0l0 -0.765625q0 -5.984375 -6.796875 -6.109375q-4.921875 0 -8.15625 3.0l-2.875 -3.0q4.234375 -4.09375 10.921875 -4.21875zm-7.21875 20.234375q0 4.640625 6.03125 4.75q3.578125 0 5.828125 -2.28125q2.265625 -2.296875 2.265625 -6.6875l0 -1.0625l-5.03125 0q-4.046875 0 -6.546875 1.296875q-2.484375 1.296875 -2.546875 3.984375zm31.442589 -36.421875l0 20.875l0.109375 0q3.984375 -4.625 9.859375 -4.6875q6.5 0 10.4375 4.078125q3.9375 4.078125 3.984375 10.359375q0 6.09375 -3.9375 10.203125q-3.921875 4.109375 -9.78125 4.21875q-3.515625 0 -6.375 -1.515625q-2.84375 -1.53125 -4.1875 -4.0625l-0.109375 0l0 4.875l-4.578125 0l0 -44.34375l4.578125 0zm0 30.625q0 4.515625 2.78125 7.359375q2.78125 2.84375 6.953125 2.84375q4.28125 0 6.96875 -2.84375q2.703125 -2.84375 2.765625 -7.359375q0 -4.46875 -2.734375 -7.34375q-2.71875 -2.875 -7.0625 -2.875q-4.21875 0 -6.921875 2.859375q-2.703125 2.84375 -2.75 7.359375zm44.57332 -14.4375q6.390625 0 10.4375 3.96875q4.046875 3.953125 4.21875 10.46875q0 6.265625 -4.109375 10.296875q-4.09375 4.015625 -10.546875 4.125q-6.453125 0 -10.5 -4.078125q-4.046875 -4.078125 -4.171875 -10.34375q0 -6.34375 4.109375 -10.359375q4.109375 -4.015625 10.5625 -4.078125zm-9.734375 14.4375q0 4.515625 2.71875 7.296875q2.734375 2.78125 7.015625 2.90625q4.28125 0 6.96875 -2.84375q2.703125 -2.84375 2.765625 -7.359375q0 -4.46875 -2.734375 -7.34375q-2.71875 -2.875 -7.0625 -2.875q-4.21875 0 -6.921875 2.859375q-2.6875 2.84375 -2.75 7.359375zm36.07617 -13.734375l0 16.65625q0 3.171875 1.484375 5.203125q1.5 2.015625 4.78125 2.078125q4.234375 0 6.375 -2.8125q2.140625 -2.828125 2.140625 -7.515625l0 -13.609375l4.5625 0l0 21.359375q0.0625 1.640625 0.234375 6.09375l-4.328125 0q-0.0625 -2.8125 -0.125 -4.515625l-0.109375 0q-1.0625 2.28125 -3.5625 3.75q-2.484375 1.46875 -5.65625 1.46875q-5.046875 -0.0625 -7.71875 -3.015625q-2.65625 -2.96875 -2.65625 -7.953125l0 -17.1875l4.578125 0zm34.956604 -7.796875l0 7.796875l8.09375 0l0 3.875l-8.09375 0l0 14.65625q0 3.296875 1.046875 4.359375q1.0625 1.046875 3.0625 1.046875q2.28125 0 4.046875 -0.9375l0.171875 4.15625q-2.34375 1.0 -5.34375 1.0q-4.21875 0 -5.890625 -2.078125q-1.671875 -2.078125 -1.671875 -6.84375l0 -15.359375l-5.984375 0l0 -3.875l5.984375 0l0 -7.796875l4.578125 0zm35.015915 -9.09375l0 44.34375l-4.578125 0l0 -44.34375l4.578125 0zm22.171234 16.1875q6.390625 0 10.4375 3.96875q4.046875 3.953125 4.21875 10.46875q0 6.265625 -4.109375 10.296875q-4.09375 4.015625 -10.546875 4.125q-6.453125 0 -10.5 -4.078125q-4.046875 -4.078125 -4.171875 -10.34375q0 -6.34375 4.109375 -10.359375q4.109375 -4.015625 10.5625 -4.078125zm-9.734375 14.4375q0 4.515625 2.71875 7.296875q2.734375 2.78125 7.015625 2.90625q4.28125 0 6.96875 -2.84375q2.703125 -2.84375 2.765625 -7.359375q0 -4.46875 -2.734375 -7.34375q-2.71875 -2.875 -7.0625 -2.875q-4.21875 0 -6.921875 2.859375q-2.6875 2.84375 -2.75 7.359375zm44.98242 -14.4375q5.171875 0 7.796875 3.0q2.640625 2.984375 2.640625 7.96875l0 17.1875l-4.5625 0l0 -16.65625q0 -3.171875 -1.46875 -5.1875q-1.46875 -2.03125 -4.8125 -2.09375q-4.21875 0 -6.359375 2.796875q-2.140625 2.78125 -2.140625 7.703125l0 13.4375l-4.578125 0l0 -21.34375q0 -0.296875 -0.234375 -6.109375l4.34375 0q0.109375 4.109375 0.109375 4.515625l0.125 0q1.109375 -2.34375 3.59375 -3.78125q2.5 -1.4375 5.546875 -1.4375zm32.081604 0q3.171875 0 5.84375 1.46875q2.671875 1.46875 3.90625 3.921875l0.109375 0l0 -4.6875l4.578125 0l0 26.515625q0 7.03125 -3.765625 10.953125q-3.75 3.9375 -11.1875 4.0625q-4.046875 0 -7.34375 -1.171875q-3.28125 -1.171875 -6.15625 -4.046875l3.28125 -3.75q4.40625 4.75 10.21875 4.75q10.375 0 10.375 -11.03125l0 -3.578125l-0.109375 0q-1.53125 2.46875 -4.234375 3.796875q-2.6875 1.3125 -5.515625 1.3125q-6.328125 0 -10.375 -3.953125q-4.046875 -3.96875 -4.171875 -10.125q0 -6.640625 3.984375 -10.5q4.0 -3.875 10.5625 -3.9375zm-9.609375 14.4375q0 4.09375 2.8125 6.9375q2.8125 2.84375 6.859375 2.90625q4.453125 0 7.125 -2.875q2.671875 -2.875 2.671875 -7.09375q0 -4.515625 -2.734375 -7.265625q-2.71875 -2.765625 -7.125 -2.828125q-4.15625 0 -6.890625 2.9375q-2.71875 2.9375 -2.71875 7.28125zm55.72348 -21.53125l0 7.796875l8.09375 0l0 3.875l-8.09375 0l0 14.65625q0 3.296875 1.046875 4.359375q1.0625 1.046875 3.0625 1.046875q2.28125 0 4.046875 -0.9375l0.171875 4.15625q-2.34375 1.0 -5.34375 1.0q-4.21875 0 -5.890625 -2.078125q-1.671875 -2.078125 -1.671875 -6.84375l0 -15.359375l-5.984375 0l0 -3.875l5.984375 0l0 -7.796875l4.578125 0zm26.209503 7.09375q6.109375 0 9.53125 3.84375q3.4375 3.84375 3.5 10.875l0 1.125l-22.171875 0q0.34375 3.8125 2.859375 6.28125q2.53125 2.453125 6.171875 2.515625q5.578125 0 8.671875 -4.171875l3.46875 2.703125q-2.171875 2.8125 -5.109375 4.25q-2.921875 1.4375 -7.03125 1.4375q-6.28125 0 -10.09375 -4.078125q-3.8125 -4.078125 -3.875 -10.34375q0 -6.21875 3.90625 -10.265625q3.90625 -4.046875 10.171875 -4.171875zm8.09375 11.96875q-0.171875 -3.578125 -2.3125 -5.65625q-2.140625 -2.09375 -6.015625 -2.09375q-3.515625 0 -5.921875 2.0q-2.40625 2.0 -2.984375 5.75l17.234375 0zm25.519104 -11.96875q1.0625 0 1.875 0.296875l-0.28125 4.625q-1.296875 -0.34375 -2.46875 -0.34375q-3.984375 0 -6.015625 2.609375q-2.015625 2.609375 -2.015625 7.359375l0 13.609375l-4.578125 0l0 -21.34375q0 -0.828125 -0.234375 -6.109375l4.34375 0q0.109375 4.109375 0.109375 4.515625l0.125 0q1.109375 -2.34375 3.59375 -3.78125q2.5 -1.4375 5.546875 -1.4375zm20.709473 0q6.28125 0 8.625 5.21875q1.640625 -2.6875 3.6875 -3.953125q2.0625 -1.265625 5.046875 -1.265625q5.3437805 0 7.8594055 2.796875q2.53125 2.78125 2.53125 8.40625l0 16.953125l-4.578125 0l0 -16.59375q0 -7.21875 -6.6875305 -7.34375q-3.109375 0 -5.109375 2.328125q-1.984375 2.3125 -1.984375 5.59375l0 16.015625l-4.578125 0l0 -15.890625q0 -4.046875 -1.171875 -6.046875q-1.171875 -2.0 -4.171875 -2.0q-4.15625 0 -6.296875 2.796875q-2.140625 2.78125 -2.140625 7.703125l0 13.4375l-4.578125 0l0 -21.34375q-0.0625 -2.0625 -0.234375 -6.109375l4.34375 0q0.109375 4.046875 0.109375 4.515625l0.125 0q1.109375 -2.34375 3.5625 -3.78125q2.46875 -1.4375 5.640625 -1.4375zm65.406525 0q6.5 0 10.5 4.34375l-3.640625 3.21875q-2.765625 -3.34375 -6.921875 -3.34375q-4.28125 0 -6.78125 2.796875q-2.484375 2.78125 -2.484375 7.421875q0 4.390625 2.65625 7.265625q2.671875 2.875 6.609375 2.9375q4.515625 0 6.984375 -3.40625l3.390625 3.21875q-3.8125 4.34375 -10.375 4.40625q-6.28125 -0.0625 -10.1875 -3.984375q-3.890625 -3.9375 -4.015625 -10.4375q0.0625 -6.578125 4.109375 -10.5q4.046875 -3.9375 10.15625 -3.9375zm20.178528 -16.1875l0 20.703125l0.109375 0q1.234375 -2.046875 3.640625 -3.28125q2.40625 -1.234375 5.21875 -1.234375q5.15625 0 7.765625 3.0q2.609375 2.984375 2.609375 7.96875l0 17.1875l-4.5625 0l0 -16.65625q0 -3.171875 -1.46875 -5.1875q-1.46875 -2.03125 -4.8125 -2.09375q-4.21875 0 -6.359375 2.796875q-2.140625 2.78125 -2.140625 7.53125l0 13.609375l-4.578064 0l0 -44.34375l4.578064 0zm41.519165 16.1875q1.0625 0 1.875 0.296875l-0.28125 4.625q-1.296875 -0.34375 -2.46875 -0.34375q-3.984375 0 -6.015625 2.609375q-2.015625 2.609375 -2.015625 7.359375l0 13.609375l-4.578125 0l0 -21.34375q0 -0.828125 -0.234375 -6.109375l4.34375 0q0.109375 4.109375 0.109375 4.515625l0.125 0q1.109375 -2.34375 3.59375 -3.78125q2.5 -1.4375 5.546875 -1.4375zm19.184692 0q6.390625 0 10.4375 3.96875q4.046875 3.953125 4.21875 10.46875q0 6.265625 -4.109375 10.296875q-4.09375 4.015625 -10.546875 4.125q-6.453125 0 -10.5 -4.078125q-4.046875 -4.078125 -4.171875 -10.34375q0 -6.34375 4.109375 -10.359375q4.109375 -4.015625 10.5625 -4.078125zm-9.734375 14.4375q0 4.515625 2.71875 7.296875q2.734375 2.78125 7.015625 2.90625q4.28125 0 6.96875 -2.84375q2.703125 -2.84375 2.765625 -7.359375q0 -4.46875 -2.734375 -7.34375q-2.71875 -2.875 -7.0625 -2.875q-4.21875 0 -6.921875 2.859375q-2.6875 2.84375 -2.75 7.359375zm44.98242 -14.4375q5.171875 0 7.796875 3.0q2.640625 2.984375 2.640625 7.96875l0 17.1875l-4.5625 0l0 -16.65625q0 -3.171875 -1.46875 -5.1875q-1.46875 -2.03125 -4.8125 -2.09375q-4.21875 0 -6.359375 2.796875q-2.140625 2.78125 -2.140625 7.703125l0 13.4375l-4.578125 0l0 -21.34375q0 -0.296875 -0.234375 -6.109375l4.34375 0q0.109375 4.109375 0.109375 4.515625l0.125 0q1.109375 -2.34375 3.59375 -3.78125q2.5 -1.4375 5.546875 -1.4375zm21.81604 -13.375q1.359375 0 2.34375 0.96875q1.0 0.96875 1.0 2.375q0 1.46875 -0.9375 2.40625q-0.9375 0.9375 -2.40625 0.9375q-1.453125 0 -2.390625 -0.9375q-0.9375 -0.9375 -0.9375 -2.40625q0 -1.40625 0.984375 -2.375q1.0 -0.96875 2.34375 -0.96875zm2.296875 14.078125l0 27.453125l-4.578125 0l0 -27.453125l4.578125 0zm21.765015 -0.703125q6.5 0 10.5 4.34375l-3.640625 3.21875q-2.765625 -3.34375 -6.921875 -3.34375q-4.28125 0 -6.78125 2.796875q-2.484375 2.78125 -2.484375 7.421875q0 4.390625 2.65625 7.265625q2.671875 2.875 6.609375 2.9375q4.515625 0 6.984375 -3.40625l3.390625 3.21875q-3.8125 4.34375 -10.375 4.40625q-6.28125 -0.0625 -10.1875 -3.984375q-3.890625 -3.9375 -4.015625 -10.4375q0.0625 -6.578125 4.109375 -10.5q4.046875 -3.9375 10.15625 -3.9375zm45.391113 0q1.0625 0 1.875 0.296875l-0.28125 4.625q-1.296875 -0.34375 -2.46875 -0.34375q-3.984375 0 -6.015625 2.609375q-2.015625 2.609375 -2.015625 7.359375l0 13.609375l-4.578125 0l0 -21.34375q0 -0.828125 -0.234375 -6.109375l4.34375 0q0.109375 4.109375 0.109375 4.515625l0.125 0q1.109375 -2.34375 3.59375 -3.78125q2.5 -1.4375 5.546875 -1.4375zm9.850098 -13.375q1.359375 0 2.34375 0.96875q1.0 0.96875 1.0 2.375q0 1.46875 -0.9375 2.40625q-0.9375 0.9375 -2.40625 0.9375q-1.453125 0 -2.390625 -0.9375q-0.9375 -0.9375 -0.9375 -2.40625q0 -1.40625 0.984375 -2.375q1.0 -0.96875 2.34375 -0.96875zm2.296875 14.078125l0 27.453125l-4.578125 0l0 -27.453125l4.578125 0zm17.483765 -0.703125q6.5625 0.0625 9.328125 4.984375l-3.828125 2.53125q-1.984375 -3.296875 -5.796875 -3.296875q-2.296875 0 -3.859375 1.0625q-1.546875 1.0625 -1.546875 2.75q0 2.765625 6.875 4.0q4.921875 0.875 6.96875 2.875q2.0625 1.984375 2.0625 5.328125q0 4.046875 -3.0 6.34375q-2.984375 2.28125 -7.96875 2.28125q-3.875 0 -6.375 -1.234375q-2.484375 -1.234375 -4.296875 -3.875l3.625 -2.8125q1.703125 2.0625 3.34375 2.890625q1.640625 0.8125 3.703125 0.8125q2.640625 0 4.328125 -1.140625q1.703125 -1.15625 1.703125 -3.09375q0 -1.984375 -1.796875 -2.984375q-1.78125 -1.0 -5.9375 -1.8125q-4.109375 -0.890625 -5.953125 -2.640625q-1.84375 -1.765625 -1.84375 -4.875q0 -3.453125 2.84375 -5.734375q2.84375 -2.296875 7.421875 -2.359375zm21.175049 -16.1875l0 28.96875l12.484375 -12.078125l6.515625 0l-13.265625 12.5l14.609375 14.953125l-6.734375 0l-13.609375 -14.421875l0 14.421875l-4.578125 0l0 -44.34375l4.578125 0zm34.78125 2.8125l-4.8125 14.078125l-4.453125 0l3.921875 -14.078125l5.34375 0zm10.96875 0l-4.8125 14.078125l-4.453125 0l3.921875 -14.078125l5.34375 0z" fill-rule="nonzero"/><path fill="#ffffff" d="m327.9939 415.1325l0 4.21875l-14.375 0l0 -4.21875l14.375 0zm19.876282 -26.390625q7.578125 0 11.625 4.859375l-4.046875 3.515625q-2.34375 -3.6875 -7.578125 -3.8125q-3.921875 0 -6.390625 1.890625q-2.453125 1.875 -2.453125 5.09375q0 2.8125 1.875 4.46875q1.875 1.640625 7.03125 3.21875q6.6875 1.9375 9.46875 4.71875q2.796875 2.78125 2.796875 7.53125q0 5.515625 -4.109375 8.8125q-4.109375 3.28125 -10.5 3.34375q-4.28125 0 -7.625 -1.53125q-3.34375 -1.53125 -5.15625 -4.21875l4.21875 -3.46875q1.34375 2.234375 3.75 3.4375q2.40625 1.203125 5.109375 1.203125q3.6875 0 6.359375 -2.078125q2.671875 -2.09375 2.671875 -5.140625q0 -2.75 -1.5625 -4.328125q-1.546875 -1.59375 -5.125 -2.703125l-4.75 -1.59375q-5.34375 -1.8125 -7.546875 -4.53125q-2.1875 -2.734375 -2.1875 -6.734375q0 -5.265625 3.921875 -8.578125q3.9375 -3.328125 10.203125 -3.375zm30.222229 14.421875q5.96875 0 8.703125 2.8125q2.734375 2.8125 2.78125 8.515625l0 12.3125q0 1.765625 0.421875 4.515625l-4.40625 0q-0.296875 -0.53125 -0.296875 -4.109375l-0.109375 0q-3.109375 4.703125 -9.03125 4.8125q-4.515625 0 -7.375 -2.25q-2.84375 -2.265625 -2.84375 -5.90625q0 -4.984375 4.109375 -7.296875q4.109375 -2.3125 12.84375 -2.3125l2.109375 0l0 -0.765625q0 -5.984375 -6.796875 -6.109375q-4.921875 0 -8.15625 3.0l-2.875 -3.0q4.234375 -4.09375 10.921875 -4.21875zm-7.21875 20.234375q0 4.640625 6.03125 4.75q3.578125 0 5.828125 -2.28125q2.265625 -2.296875 2.265625 -6.6875l0 -1.0625l-5.03125 0q-4.046875 0 -6.546875 1.296875q-2.484375 1.296875 -2.546875 3.984375zm40.64569 -20.234375q6.28125 0 8.625 5.21875q1.640625 -2.6875 3.6875 -3.953125q2.0625 -1.265625 5.046875 -1.265625q5.34375 0 7.859375 2.796875q2.53125 2.78125 2.53125 8.40625l0 16.953125l-4.578125 0l0 -16.59375q0 -7.21875 -6.6875 -7.34375q-3.109375 0 -5.109375 2.328125q-1.984375 2.3125 -1.984375 5.59375l0 16.015625l-4.578125 0l0 -15.890625q0 -4.046875 -1.171875 -6.046875q-1.171875 -2.0 -4.171875 -2.0q-4.15625 0 -6.296875 2.796875q-2.140625 2.78125 -2.140625 7.703125l0 13.4375l-4.578125 0l0 -21.34375q-0.0625 -2.0625 -0.234375 -6.109375l4.34375 0q0.109375 4.046875 0.109375 4.515625l0.125 0q1.109375 -2.34375 3.5625 -3.78125q2.46875 -1.4375 5.640625 -1.4375zm71.67215 -13.375l17.65625 41.53125l-5.75 0l-4.21875 -10.203125l-20.765625 0l-4.28125 10.203125l-5.5625 0l18.296875 -41.53125l4.625 0zm-2.515625 6.34375l-8.625 20.40625l16.953125 0l-8.21875 -20.40625l-0.109375 0zm29.856476 -9.15625l0 44.34375l-4.578125 0l0 -44.34375l4.578125 0zm16.015015 9.09375l0 7.796875l8.09375 0l0 3.875l-8.09375 0l0 14.65625q0 3.296875 1.046875 4.359375q1.0625 1.046875 3.0625 1.046875q2.28125 0 4.046875 -0.9375l0.171875 4.15625q-2.34375 1.0 -5.34375 1.0q-4.21875 0 -5.890625 -2.078125q-1.671875 -2.078125 -1.671875 -6.84375l0 -15.359375l-5.984375 0l0 -3.875l5.984375 0l0 -7.796875l4.578125 0zm27.271973 7.09375q6.28125 0 8.625 5.21875q1.640625 -2.6875 3.6875 -3.953125q2.0625 -1.265625 5.046875 -1.265625q5.34375 0 7.859375 2.796875q2.53125 2.78125 2.53125 8.40625l0 16.953125l-4.578125 0l0 -16.59375q0 -7.21875 -6.6875 -7.34375q-3.109375 0 -5.109375 2.328125q-1.984375 2.3125 -1.984375 5.59375l0 16.015625l-4.578125 0l0 -15.890625q0 -4.046875 -1.171875 -6.046875q-1.171875 -2.0 -4.171875 -2.0q-4.15625 0 -6.296875 2.796875q-2.140625 2.78125 -2.140625 7.703125l0 13.4375l-4.578125 0l0 -21.34375q-0.0625 -2.0625 -0.234375 -6.109375l4.34375 0q0.109375 4.046875 0.109375 4.515625l0.125 0q1.109375 -2.34375 3.5625 -3.78125q2.46875 -1.4375 5.640625 -1.4375zm46.990723 0q5.96875 0 8.703125 2.8125q2.734375 2.8125 2.78125 8.515625l0 12.3125q0 1.765625 0.421875 4.515625l-4.40625 0q-0.296875 -0.53125 -0.296875 -4.109375l-0.109375 0q-3.109375 4.703125 -9.03125 4.8125q-4.515625 0 -7.375 -2.25q-2.84375 -2.265625 -2.84375 -5.90625q0 -4.984375 4.109375 -7.296875q4.109375 -2.3125 12.84375 -2.3125l2.109375 0l0 -0.765625q0 -5.984375 -6.796875 -6.109375q-4.921875 0 -8.15625 3.0l-2.875 -3.0q4.234375 -4.09375 10.921875 -4.21875zm-7.21875 20.234375q0 4.640625 6.03125 4.75q3.578125 0 5.828125 -2.28125q2.265625 -2.296875 2.265625 -6.6875l0 -1.0625l-5.03125 0q-4.046875 0 -6.546875 1.296875q-2.484375 1.296875 -2.546875 3.984375zm40.58319 -20.234375q5.171875 0 7.796875 3.0q2.640625 2.984375 2.640625 7.96875l0 17.1875l-4.5625 0l0 -16.65625q0 -3.171875 -1.46875 -5.1875q-1.46875 -2.03125 -4.8125 -2.09375q-4.21875 0 -6.359375 2.796875q-2.140625 2.78125 -2.140625 7.703125l0 13.4375l-4.578125 0l0 -21.34375q0 -0.296875 -0.234375 -6.109375l4.34375 0q0.109375 4.109375 0.109375 4.515625l0.125 0q1.109375 -2.34375 3.59375 -3.78125q2.5 -1.4375 5.546875 -1.4375z" fill-rule="nonzero"/><path fill="#000000" fill-opacity="0.0" d="m930.0852 515.117l0 0c-8.514893 0.2816162 -16.82782 -1.8654785 -23.029663 -5.948181c-6.2018433 -4.0827026 -9.7595215 -9.750092 -9.855896 -15.700562l31.399536 -0.24795532z" fill-rule="evenodd"/><path fill="#000000" fill-opacity="0.0" d="m930.0852 515.117l0 0c-8.514893 0.2816162 -16.82782 -1.8654785 -23.029663 -5.948181c-6.2018433 -4.0827026 -9.7595215 -9.750092 -9.855896 -15.700562" fill-rule="evenodd"/><path stroke="#ffffff" stroke-width="2.0" stroke-linejoin="round" stroke-linecap="butt" d="m930.0852 515.117l0 0c-8.514893 0.2816162 -16.82782 -1.8654785 -23.029663 -5.948181c-6.2018433 -4.0827026 -9.7595215 -9.750092 -9.855896 -15.700562" fill-rule="evenodd"/><path fill="#000000" fill-opacity="0.0" d="m891.86096 492.13654l0.1574707 31.968506" fill-rule="evenodd"/><path stroke="#ffffff" stroke-width="2.0" stroke-linejoin="round" stroke-linecap="butt" d="m891.86096 492.13654l0.1574707 31.968506" fill-rule="evenodd"/><path fill="#000000" fill-opacity="0.0" d="m891.86096 522.99115l40.125977 0.28344727" fill-rule="evenodd"/><path stroke="#ffffff" stroke-width="2.0" stroke-linejoin="round" stroke-linecap="butt" d="m891.86096 522.99115l40.125977 0.28344727" fill-rule="evenodd"/></g></svg>