<svg version="1.1" viewBox="0.0 0.0 960.0 540.0" fill="none" stroke="none" stroke-linecap="square" stroke-miterlimit="10" xmlns:xlink="http://www.w3.org/1999/xlink" xmlns="http://www.w3.org/2000/svg"><clipPath id="g8f78838b2e_0_23.0"><path d="m0 0l960.0 0l0 540.0l-960.0 0l0 -540.0z" clip-rule="nonzero"/></clipPath><g clip-path="url(#g8f78838b2e_0_23.0)"><path fill="#ffffff" d="m0 0l960.0 0l0 540.0l-960.0 0z" fill-rule="evenodd"/><path fill="#000000" fill-opacity="0.0" d="m47.906826 80.97769l858.01575 0l0 125.22835l-858.01575 0z" fill-rule="evenodd"/><path fill="#000000" d="m127.46157 136.39249l13.500008 -1.3125q1.21875 6.796875 4.9375 9.984375q3.734375 3.1875 10.0625 3.1875q6.703125 0 10.09375 -2.828125q3.40625 -2.84375 3.40625 -6.640625q0 -2.4375 -1.4375 -4.140625q-1.421875 -1.71875 -4.984375 -2.984375q-2.4375 -0.84375 -11.109375 -3.0q-11.15625 -2.765625 -15.65625 -6.796875q-6.328125 -5.671875 -6.328125 -13.828125q0 -5.25 2.96875 -9.8125q2.984375 -4.578125 8.578125 -6.96875q5.609375 -2.390625 13.53125 -2.390625q12.9375 0 19.46875 5.671875q6.546875 5.671875 6.875 15.140625l-13.875 0.609375q-0.890625 -5.296875 -3.828125 -7.609375q-2.921875 -2.328125 -8.78125 -2.328125q-6.046875 0 -9.46875 2.484375q-2.203125 1.59375 -2.203125 4.265625q0 2.4375 2.0625 4.171875q2.625 2.203125 12.75 4.59375q10.125 2.390625 14.96875 4.953125q4.859375 2.546875 7.59375 6.984375q2.75 4.421875 2.75 10.9375q0 5.90625 -3.28125 11.0625q-3.28125 5.15625 -9.28125 7.671875q-6.0 2.5 -14.953125 2.5q-13.03125 0 -20.015625 -6.015625q-6.984375 -6.03125 -8.343758 -17.5625zm129.51562 22.359375l-15.09375 0l-6.0 -15.609375l-27.46875 0l-5.671875 15.609375l-14.71875 0l26.765625 -68.71875l14.671875 0l27.515625 68.71875zm-25.546875 -27.1875l-9.46875 -25.5l-9.28125 25.5l18.75 0zm43.3125 27.1875l-24.5625 -68.71875l15.046875 0l17.390625 50.859375l16.828125 -50.859375l14.71875 0l-24.609375 68.71875l-14.8125 0zm46.078125 0l0 -68.71875l13.875 0l0 68.71875l-13.875 0zm27.234375 0l0 -68.71875l13.5 0l28.125 45.890625l0 -45.890625l12.890625 0l0 68.71875l-13.921875 0l-27.703125 -44.8125l0 44.8125l-12.890625 0zm101.15625 -25.265625l0 -11.578125l29.90625 0l0 27.375q-4.359375 4.21875 -12.640625 7.4375q-8.265625 3.203125 -16.75 3.203125q-10.78125 0 -18.796875 -4.515625q-8.015625 -4.53125 -12.046875 -12.9375q-4.03125 -8.421875 -4.03125 -18.3125q0 -10.734375 4.5 -19.078125q4.5 -8.34375 13.171875 -12.796875q6.609375 -3.421875 16.453125 -3.421875q12.796875 0 19.984375 5.375q7.203125 5.359375 9.265625 14.828125l-13.78125 2.578125q-1.453125 -5.0625 -5.46875 -7.984375q-4.0 -2.9375 -10.0 -2.9375q-9.09375 0 -14.46875 5.765625q-5.359375 5.765625 -5.359375 17.109375q0 12.234375 5.4375 18.359375q5.4375 6.109375 14.25 6.109375q4.359375 0 8.734375 -1.703125q4.390625 -1.71875 7.53125 -4.15625l0 -8.71875l-15.890625 0zm39.1875 2.90625l13.5 -1.3125q1.21875 6.796875 4.9375 9.984375q3.734375 3.1875 10.0624695 3.1875q6.703125 0 10.09375 -2.828125q3.40625 -2.84375 3.40625 -6.640625q0 -2.4375 -1.4375 -4.140625q-1.421875 -1.71875 -4.984375 -2.984375q-2.4375 -0.84375 -11.109375 -3.0q-11.1562195 -2.765625 -15.6562195 -6.796875q-6.328125 -5.671875 -6.328125 -13.828125q0 -5.25 2.96875 -9.8125q2.984375 -4.578125 8.578125 -6.96875q5.609375 -2.390625 13.5312195 -2.390625q12.9375 0 19.46875 5.671875q6.546875 5.671875 6.875 15.140625l-13.875 0.609375q-0.890625 -5.296875 -3.828125 -7.609375q-2.921875 -2.328125 -8.78125 -2.328125q-6.0468445 0 -9.4687195 2.484375q-2.203125 1.59375 -2.203125 4.265625q0 2.4375 2.0625 4.171875q2.625 2.203125 12.7499695 4.59375q10.125 2.390625 14.96875 4.953125q4.859375 2.546875 7.59375 6.984375q2.75 4.421875 2.75 10.9375q0 5.90625 -3.28125 11.0625q-3.28125 5.15625 -9.28125 7.671875q-6.0 2.5 -14.953125 2.5q-13.0312195 0 -20.015594 -6.015625q-6.984375 -6.03125 -8.34375 -17.5625zm94.265594 22.359375l0 -68.71875l29.203125 0q11.015625 0 16.0 1.859375q5.0 1.84375 8.0 6.578125q3.0 4.734375 3.0 10.828125q0 7.734375 -4.546875 12.78125q-4.546875 5.03125 -13.59375 6.34375q4.5 2.625 7.421875 5.765625q2.9375 3.140625 7.90625 11.15625l8.390625 13.40625l-16.59375 0l-10.03125 -14.953125q-5.34375 -8.015625 -7.3125 -10.09375q-1.96875 -2.09375 -4.171875 -2.859375q-2.203125 -0.78125 -6.984375 -0.78125l-2.8125 0l0 28.6875l-13.875 0zm13.875 -39.65625l10.265625 0q9.984375 0 12.46875 -0.84375q2.484375 -0.84375 3.890625 -2.90625q1.40625 -2.0625 1.40625 -5.15625q0 -3.46875 -1.859375 -5.59375q-1.84375 -2.140625 -5.21875 -2.703125q-1.6875 -0.234375 -10.125 -0.234375l-10.828125 0l0 17.4375zm117.375 39.65625l-15.09375 0l-6.0 -15.609375l-27.46875 0l-5.671875 15.609375l-14.71875 0l26.765625 -68.71875l14.671875 0l27.515625 68.71875zm-25.546875 -27.1875l-9.46875 -25.5l-9.28125 25.5l18.75 0zm41.25 27.1875l0 -57.09375l-20.390625 0l0 -11.625l54.609375 0l0 11.625l-20.34375 0l0 57.09375l-13.875 0zm43.171875 0l0 -68.71875l50.953125 0l0 11.625l-37.078125 0l0 15.234375l34.5 0l0 11.578125l-34.5 0l0 18.703125l38.390625 0l0 11.578125l-52.265625 0z" fill-rule="nonzero"/><path fill="#000000" fill-opacity="0.0" d="m930.0852 515.117l0 0c-8.514893 0.2816162 -16.82782 -1.8654785 -23.029663 -5.948181c-6.2018433 -4.0827026 -9.7595215 -9.750092 -9.855896 -15.700562l31.399536 -0.24795532z" fill-rule="evenodd"/><path fill="#000000" fill-opacity="0.0" d="m930.0852 515.117l0 0c-8.514893 0.2816162 -16.82782 -1.8654785 -23.029663 -5.948181c-6.2018433 -4.0827026 -9.7595215 -9.750092 -9.855896 -15.700562" fill-rule="evenodd"/><path stroke="#000000" stroke-width="2.0" stroke-linejoin="round" stroke-linecap="butt" d="m930.0852 515.117l0 0c-8.514893 0.2816162 -16.82782 -1.8654785 -23.029663 -5.948181c-6.2018433 -4.0827026 -9.7595215 -9.750092 -9.855896 -15.700562" fill-rule="evenodd"/><path fill="#000000" fill-opacity="0.0" d="m891.86096 492.13654l0.1574707 31.968506" fill-rule="evenodd"/><path stroke="#000000" stroke-width="2.0" stroke-linejoin="round" stroke-linecap="butt" d="m891.86096 492.13654l0.1574707 31.968506" fill-rule="evenodd"/><path fill="#000000" fill-opacity="0.0" d="m891.86096 522.99115l40.125977 0.28344727" fill-rule="evenodd"/><path stroke="#000000" stroke-width="2.0" stroke-linejoin="round" stroke-linecap="butt" d="m891.86096 522.99115l40.125977 0.28344727" fill-rule="evenodd"/><path fill="#000000" fill-opacity="0.0" d="m87.79528 232.8924l567.937 0l0 170.2677l-567.937 0z" fill-rule="evenodd"/><path fill="#000000" d="m140.13593 299.85178q-4.6875 0 -8.984375 -1.5q-4.2812576 -1.5 -6.6250076 -3.953125l1.75 -3.421875q2.2812576 2.28125 6.0625076 3.6875q3.78125 1.40625 7.796875 1.40625q5.640625 0 8.453125 -2.0625q2.828125 -2.078125 2.828125 -5.375q0 -2.515625 -1.53125 -4.015625q-1.53125 -1.5 -3.75 -2.3125q-2.21875 -0.8125 -6.1875 -1.765625q-4.734375 -1.203125 -7.5625 -2.3125q-2.8125 -1.109375 -4.8281326 -3.390625q-2.0 -2.28125 -2.0 -6.1875q0 -3.171875 1.671875 -5.78125q1.6875076 -2.609375 5.1562576 -4.171875q3.484375 -1.5625 8.640625 -1.5625q3.609375 0 7.046875 1.0q3.453125 0.984375 5.984375 2.71875l-1.5 3.546875q-2.640625 -1.75 -5.640625 -2.609375q-3.0 -0.875 -5.890625 -0.875q-5.515625 0 -8.3125 2.140625q-2.78125 2.125 -2.78125 5.484375q0 2.515625 1.53125 4.046875q1.53125 1.53125 3.84375 2.34375q2.3125 0.796875 6.203125 1.765625q4.625 1.140625 7.46875 2.25q2.859375 1.109375 4.828125 3.359375q1.984375 2.25 1.984375 6.09375q0 3.171875 -1.71875 5.78125q-1.703125 2.609375 -5.25 4.140625q-3.53125 1.53125 -8.6875 1.53125zm35.462463 -32.15625q6.171875 0 9.46875 3.09375q3.3125 3.078125 3.3125 9.140625l0 19.5625l-4.078125 0l0 -4.921875q-1.453125 2.46875 -4.25 3.84375q-2.78125 1.375 -6.625 1.375q-5.265625 0 -8.390625 -2.515625q-3.125 -2.515625 -3.125 -6.65625q0 -4.03125 2.90625 -6.484375q2.921875 -2.453125 9.28125 -2.453125l10.015625 0l0 -1.921875q0 -4.078125 -2.28125 -6.203125q-2.28125 -2.140625 -6.65625 -2.140625q-3.0 0 -5.765625 1.0q-2.75 0.984375 -4.734375 2.71875l-1.921875 -3.1875q2.40625 -2.03125 5.765625 -3.140625q3.359375 -1.109375 7.078125 -1.109375zm-1.5 28.734375q3.59375 0 6.171875 -1.640625q2.578125 -1.65625 3.84375 -4.78125l0 -5.15625l-9.90625 0q-8.09375 0 -8.09375 5.640625q0 2.765625 2.09375 4.359375q2.109375 1.578125 5.890625 1.578125zm51.768707 -28.5l-14.03125 31.5625l-4.375 0l-13.984375 -31.5625l4.4375 0l11.8125 26.875l11.953125 -26.875l4.1875 0zm6.0043488 0l4.265625 0l0 31.5625l-4.265625 0l0 -31.5625zm2.15625 -6.890625q-1.3125 0 -2.21875 -0.90625q-0.90625 -0.90625 -0.90625 -2.15625q0 -1.203125 0.90625 -2.0937653q0.90625 -0.90625 2.21875 -0.90625q1.3125 0 2.21875 0.875q0.90625 0.85939026 0.90625 2.0625153q0 1.3125 -0.90625 2.21875q-0.90625 0.90625 -2.21875 0.90625zm30.061844 6.65625q5.9375 0 9.453125 3.453125q3.515625 3.4375 3.515625 10.046875l0 18.296875l-4.265625 0l0 -17.875q0 -4.921875 -2.46875 -7.5q-2.453125 -2.578125 -7.015625 -2.578125q-5.09375 0 -8.062485 3.03125q-2.96875 3.015625 -2.96875 8.359375l0 16.5625l-4.265625 0l0 -31.5625l4.078125 0l0 5.828125q1.75 -2.890625 4.8281097 -4.46875q3.09375 -1.59375 7.171875 -1.59375zm53.880585 0.234375l0 27.71875q0 8.046875 -3.9375 11.90625q-3.921875 3.875 -11.84375 3.875q-4.375 0 -8.3125 -1.296875q-3.921875 -1.28125 -6.375 -3.5625l2.15625 -3.234375q2.28125 2.03125 5.546875 3.171875q3.265625 1.140625 6.875 1.140625q6.0 0 8.8125 -2.796875q2.828125 -2.78125 2.828125 -8.65625l0 -4.015625q-1.984375 3.0 -5.203125 4.5625q-3.203125 1.546875 -7.109375 1.546875q-4.4375 0 -8.0625 -1.9375q-3.625 -1.953125 -5.703125 -5.46875q-2.0625 -3.515625 -2.0625 -7.953125q0 -4.4375 2.0625 -7.90625q2.078125 -3.484375 5.671875 -5.40625q3.59375 -1.921875 8.09375 -1.921875q4.03125 0 7.265625 1.625q3.234375 1.609375 5.21875 4.671875l0 -6.0625l4.078125 0zm-16.140625 26.578125q3.421875 0 6.171875 -1.46875q2.765625 -1.46875 4.296875 -4.109375q1.53125 -2.640625 1.53125 -6.0q0 -3.359375 -1.53125 -5.96875q-1.53125 -2.609375 -4.265625 -4.078125q-2.71875 -1.46875 -6.203125 -1.46875q-3.421875 0 -6.15625 1.4375q-2.71875 1.4375 -4.25 4.078125q-1.53125 2.640625 -1.53125 6.0q0 3.359375 1.53125 6.0q1.53125 2.640625 4.25 4.109375q2.734375 1.46875 6.15625 1.46875zm40.441223 -45.531265l3.90625 0l-19.796875 56.51564l-3.90625 0l19.796875 -56.51564zm8.646851 8.51564l4.4375 0l0 42.0l-4.4375 0l0 -42.0zm33.29184 10.203125q5.9375 0 9.453125 3.453125q3.515625 3.4375 3.515625 10.046875l0 18.296875l-4.265625 0l0 -17.875q0 -4.921875 -2.46875 -7.5q-2.453125 -2.578125 -7.015625 -2.578125q-5.09375 0 -8.0625 3.03125q-2.96875 3.015625 -2.96875 8.359375l0 16.5625l-4.265625 0l0 -31.5625l4.078125 0l0 5.828125q1.75 -2.890625 4.828125 -4.46875q3.09375 -1.59375 7.171875 -1.59375zm50.45746 0.234375l-14.03125 31.5625l-4.375 0l-13.984375 -31.5625l4.4375 0l11.8125 26.875l11.953125 -26.875l4.1875 0zm32.588745 17.109375l-26.40625 0q0.359375 4.90625 3.78125 7.9375q3.421875 3.03125 8.640625 3.03125q2.9375 0 5.390625 -1.046875q2.46875 -1.046875 4.265625 -3.09375l2.40625 2.765625q-2.09375 2.515625 -5.25 3.84375q-3.15625 1.3125 -6.9375 1.3125q-4.859375 0 -8.609375 -2.0625q-3.75 -2.078125 -5.84375 -5.734375q-2.09375 -3.65625 -2.09375 -8.28125q0 -4.625 2.0 -8.28125q2.015625 -3.65625 5.515625 -5.6875q3.515625 -2.046875 7.90625 -2.046875q4.375 0 7.84375 2.046875q3.484375 2.03125 5.46875 5.671875q1.984375 3.625 1.984375 8.296875l-0.0625 1.328125zm-15.234375 -13.6875q-4.5625 0 -7.65625 2.921875q-3.09375 2.90625 -3.515625 7.578125l22.390625 0q-0.421875 -4.671875 -3.515625 -7.578125q-3.09375 -2.921875 -7.703125 -2.921875zm32.45871 28.4375q-3.84375 0 -7.359375 -1.109375q-3.5 -1.109375 -5.484375 -2.78125l1.921875 -3.359375q1.96875 1.546875 4.96875 2.546875q3.0 0.984375 6.25 0.984375q4.3125 0 6.375 -1.34375q2.078125 -1.359375 2.078125 -3.8125q0 -1.734375 -1.140625 -2.71875q-1.140625 -1.0 -2.875 -1.5q-1.734375 -0.515625 -4.625 -1.0q-3.828125 -0.71875 -6.171875 -1.46875q-2.34375 -0.75 -4.0 -2.546875q-1.640625 -1.8125 -1.640625 -4.984375q0 -3.96875 3.296875 -6.484375q3.296875 -2.515625 9.1875 -2.515625q3.046875 0 6.109375 0.8125q3.0625 0.796875 5.046875 2.125l-1.859375 3.421875q-3.90625 -2.703125 -9.296875 -2.703125q-4.09375 0 -6.171875 1.4375q-2.0625 1.4375 -2.0625 3.78125q0 1.796875 1.171875 2.890625q1.171875 1.078125 2.90625 1.59375q1.75 0.5 4.8125 1.03125q3.78125 0.71875 6.0625 1.453125q2.28125 0.71875 3.890625 2.453125q1.625 1.734375 1.625 4.796875q0 4.140625 -3.453125 6.578125q-3.453125 2.421875 -9.5625 2.421875zm37.496185 -2.21875q-1.203125 1.078125 -2.984375 1.65625q-1.765625 0.5625 -3.671875 0.5625q-4.4530945 0 -6.8593445 -2.390625q-2.390625 -2.40625 -2.390625 -6.78125l0 -19.078125l-5.640625 0l0 -3.609375l5.640625 0l0 -6.890625l4.265625 0l0 6.890625l9.5937195 0l0 3.609375l-9.5937195 0l0 18.828125q0 2.828125 1.40625 4.296875q1.4062195 1.46875 4.0468445 1.46875q1.328125 0 2.546875 -0.421875q1.234375 -0.421875 2.140625 -1.203125l1.5 3.0625zm7.7349854 -29.640625l4.265625 0l0 31.5625l-4.265625 0l0 -31.5625zm2.15625 -6.890625q-1.3125 0 -2.21875 -0.90625q-0.90625 -0.90625 -0.90625 -2.15625q0 -1.203125 0.90625 -2.0937653q0.90625 -0.90625 2.21875 -0.90625q1.3125 0 2.21875 0.875q0.90625 0.85939026 0.90625 2.0625153q0 1.3125 -0.90625 2.21875q-0.90625 0.90625 -2.21875 0.90625zm30.061829 6.65625q5.9375 0 9.453125 3.453125q3.515625 3.4375 3.515625 10.046875l0 18.296875l-4.265625 0l0 -17.875q0 -4.921875 -2.46875 -7.5q-2.453125 -2.578125 -7.015625 -2.578125q-5.09375 0 -8.0625 3.03125q-2.96875 3.015625 -2.96875 8.359375l0 16.5625l-4.265625 0l0 -31.5625l4.078125 0l0 5.828125q1.75 -2.890625 4.828125 -4.46875q3.09375 -1.59375 7.171875 -1.59375zm53.880615 0.234375l0 27.71875q0 8.046875 -3.9375 11.90625q-3.921875 3.875 -11.84375 3.875q-4.375 0 -8.3125 -1.296875q-3.921875 -1.28125 -6.375 -3.5625l2.15625 -3.234375q2.28125 2.03125 5.546875 3.171875q3.265625 1.140625 6.875 1.140625q6.0 0 8.8125 -2.796875q2.828125 -2.78125 2.828125 -8.65625l0 -4.015625q-1.984375 3.0 -5.203125 4.5625q-3.203125 1.546875 -7.109375 1.546875q-4.4375 0 -8.0625 -1.9375q-3.625 -1.953125 -5.703125 -5.46875q-2.0625 -3.515625 -2.0625 -7.953125q0 -4.4375 2.0625 -7.90625q2.078125 -3.484375 5.671875 -5.40625q3.59375 -1.921875 8.09375 -1.921875q4.03125 0 7.265625 1.625q3.234375 1.609375 5.21875 4.671875l0 -6.0625l4.078125 0zm-16.140625 26.578125q3.421875 0 6.171875 -1.46875q2.765625 -1.46875 4.296875 -4.109375q1.53125 -2.640625 1.53125 -6.0q0 -3.359375 -1.53125 -5.96875q-1.53125 -2.609375 -4.265625 -4.078125q-2.71875 -1.46875 -6.203125 -1.46875q-3.421875 0 -6.15625 1.4375q-2.71875 1.4375 -4.25 4.078125q-1.53125 2.640625 -1.53125 6.0q0 3.359375 1.53125 6.0q1.53125 2.640625 4.25 4.109375q2.734375 1.46875 6.15625 1.46875z" fill-rule="nonzero"/><path fill="#000000" d="m149.61401 344.33615l-14.765625 0l0 -3.84375l33.96875 0l0 3.84375l-14.765625 0l0 38.15625l-4.4375 0l0 -38.15625zm34.68434 6.359375q6.171875 0 9.46875 3.09375q3.3125 3.078125 3.3125 9.140625l0 19.5625l-4.078125 0l0 -4.921875q-1.453125 2.46875 -4.25 3.84375q-2.78125 1.375 -6.625 1.375q-5.265625 0 -8.390625 -2.515625q-3.125 -2.515625 -3.125 -6.65625q0 -4.03125 2.90625 -6.484375q2.921875 -2.453125 9.28125 -2.453125l10.015625 0l0 -1.921875q0 -4.078125 -2.28125 -6.203125q-2.28125 -2.140625 -6.65625 -2.140625q-3.0 0 -5.765625 1.0q-2.75 0.984375 -4.734375 2.71875l-1.921875 -3.1875q2.40625 -2.03125 5.765625 -3.140625q3.359375 -1.109375 7.078125 -1.109375zm-1.5 28.734375q3.59375 0 6.171875 -1.640625q2.578125 -1.65625 3.84375 -4.78125l0 -5.15625l-9.90625 0q-8.09375 0 -8.09375 5.640625q0 2.765625 2.09375 4.359375q2.109375 1.578125 5.890625 1.578125zm37.556213 -12.78125l-7.4375 6.84375l0 9.0l-4.265625 0l0 -44.515625l4.265625 0l0 30.171875l18.84375 -17.21875l5.265625 0l-13.5 12.90625l14.765625 18.65625l-5.21875 0l-12.71875 -15.84375zm50.581223 1.390625l-26.40625 0q0.359375 4.90625 3.78125 7.9375q3.421875 3.03125 8.640625 3.03125q2.9375 0 5.390625 -1.046875q2.46875 -1.046875 4.265625 -3.09375l2.40625 2.765625q-2.09375 2.515625 -5.25 3.84375q-3.15625 1.3125 -6.9375 1.3125q-4.859375 0 -8.609375 -2.0625q-3.75 -2.078125 -5.84375 -5.734375q-2.09375 -3.65625 -2.09375 -8.28125q0 -4.625 2.0 -8.28125q2.015625 -3.65625 5.515625 -5.6875q3.515625 -2.046875 7.90625 -2.046875q4.375 0 7.84375 2.046875q3.484375 2.03125 5.46875 5.671875q1.984375 3.625 1.984375 8.296875l-0.0625 1.328125zm-15.234375 -13.6875q-4.5625 0 -7.65625 2.921875q-3.09375 2.90625 -3.515625 7.578125l22.390625 0q-0.421875 -4.671875 -3.515625 -7.578125q-3.09375 -2.921875 -7.703125 -2.921875zm22.246216 10.015625l15.71875 0l0 3.71875l-15.71875 0l0 -3.71875zm61.263733 -23.875l0 42.0l-4.375 0l0 -19.375l-26.28125 0l0 19.375l-4.4375 0l0 -42.0l4.4375 0l0 18.71875l26.28125 0l0 -18.71875l4.375 0zm25.686218 42.296875q-4.5625 0 -8.234375 -2.0625q-3.65625 -2.078125 -5.75 -5.734375q-2.09375 -3.65625 -2.09375 -8.28125q0 -4.625 2.09375 -8.28125q2.09375 -3.65625 5.75 -5.6875q3.671875 -2.046875 8.234375 -2.046875q4.5625 0 8.21875 2.046875q3.65625 2.03125 5.71875 5.6875q2.078125 3.65625 2.078125 8.28125q0 4.625 -2.078125 8.28125q-2.0625 3.65625 -5.71875 5.734375q-3.65625 2.0625 -8.21875 2.0625zm0 -3.78125q3.359375 0 6.03125 -1.53125q2.671875 -1.53125 4.171875 -4.34375q1.5 -2.828125 1.5 -6.421875q0 -3.59375 -1.5 -6.40625q-1.5 -2.828125 -4.171875 -4.359375q-2.671875 -1.53125 -6.03125 -1.53125q-3.359375 0 -6.03125 1.53125q-2.671875 1.53125 -4.203125 4.359375q-1.53125 2.8125 -1.53125 6.40625q0 3.59375 1.53125 6.421875q1.53125 2.8125 4.203125 4.34375q2.671875 1.53125 6.03125 1.53125zm64.07306 -28.3125q5.9375 0 9.328125 3.421875q3.390625 3.421875 3.390625 10.078125l0 18.296875l-4.25 0l0 -17.875q0 -4.921875 -2.375 -7.5q-2.375 -2.578125 -6.6875 -2.578125q-4.921875 0 -7.75 3.03125q-2.8125 3.015625 -2.8125 8.359375l0 16.5625l-4.265625 0l0 -17.875q0 -4.921875 -2.375 -7.5q-2.359375 -2.578125 -6.734375 -2.578125q-4.859375 0 -7.71875 3.03125q-2.84375 3.015625 -2.84375 8.359375l0 16.5625l-4.265625 0l0 -31.5625l4.078125 0l0 5.765625q1.6875 -2.890625 4.6875 -4.4375q3.0 -1.5625 6.890625 -1.5625q3.96875 0 6.875 1.6875q2.90625 1.671875 4.34375 4.96875q1.75 -3.125 5.015625 -4.890625q3.265625 -1.765625 7.46875 -1.765625zm51.90497 17.34375l-26.40625 0q0.359375 4.90625 3.78125 7.9375q3.421875 3.03125 8.640625 3.03125q2.9375 0 5.390625 -1.046875q2.46875 -1.046875 4.265625 -3.09375l2.40625 2.765625q-2.09375 2.515625 -5.25 3.84375q-3.15625 1.3125 -6.9375 1.3125q-4.859375 0 -8.609375 -2.0625q-3.75 -2.078125 -5.84375 -5.734375q-2.09375 -3.65625 -2.09375 -8.28125q0 -4.625 2.0 -8.28125q2.015625 -3.65625 5.515625 -5.6875q3.515625 -2.046875 7.90625 -2.046875q4.375 0 7.84375 2.046875q3.484375 2.03125 5.46875 5.671875q1.984375 3.625 1.984375 8.296875l-0.0625 1.328125zm-15.234375 -13.6875q-4.5625 0 -7.65625 2.921875q-3.09375 2.90625 -3.515625 7.578125l22.390625 0q-0.421875 -4.671875 -3.515625 -7.578125q-3.09375 -2.921875 -7.703125 -2.921875zm56.33496 -13.859375q8.03125 0 12.59375 3.84375q4.5625 3.84375 4.5625 10.5625q0 6.71875 -4.5625 10.53125q-4.5625 3.796875 -12.59375 3.796875l-11.28125 0l0 13.265625l-4.4375 0l0 -42.0l15.71875 0zm-0.125 24.84375q6.25 0 9.546875 -2.734375q3.296875 -2.734375 3.296875 -7.703125q0 -5.109375 -3.296875 -7.828125q-3.296875 -2.734375 -9.546875 -2.734375l-11.15625 0l0 21.0l11.15625 0zm36.726807 -14.640625q6.171875 0 9.46875 3.09375q3.3125 3.078125 3.3125 9.140625l0 19.5625l-4.078125 0l0 -4.921875q-1.453125 2.46875 -4.25 3.84375q-2.78125 1.375 -6.625 1.375q-5.265625 0 -8.390625 -2.515625q-3.125 -2.515625 -3.125 -6.65625q0 -4.03125 2.90625 -6.484375q2.921875 -2.453125 9.28125 -2.453125l10.015625 0l0 -1.921875q0 -4.078125 -2.28125 -6.203125q-2.28125 -2.140625 -6.65625 -2.140625q-3.0 0 -5.765625 1.0q-2.75 0.984375 -4.734375 2.71875l-1.921875 -3.1875q2.40625 -2.03125 5.765625 -3.140625q3.359375 -1.109375 7.078125 -1.109375zm-1.5 28.734375q3.59375 0 6.171875 -1.640625q2.578125 -1.65625 3.84375 -4.78125l0 -5.15625l-9.90625 0q-8.09375 0 -8.09375 5.640625q0 2.765625 2.09375 4.359375q2.109375 1.578125 5.890625 1.578125zm51.768738 -28.5l-15.765625 35.34375q-1.921875 4.4375 -4.453125 6.296875q-2.515625 1.859375 -6.046875 1.859375q-2.28125 0 -4.265625 -0.71875q-1.984375 -0.71875 -3.421875 -2.15625l1.984375 -3.1875q2.390625 2.40625 5.75 2.40625q2.171875 0 3.6875 -1.203125q1.53125 -1.203125 2.859375 -4.078125l1.375 -3.0625l-14.09375 -31.5l4.4375 0l11.875 26.828125l11.890625 -26.828125l4.1875 0z" fill-rule="nonzero"/><path fill="#000000" fill-opacity="0.0" d="m102.56562 322.96326l553.16534 0.31497192" fill-rule="evenodd"/><path stroke="#595959" stroke-width="12.0" stroke-linejoin="round" stroke-linecap="butt" d="m102.56562 322.96326l553.16534 0.31497192" fill-rule="evenodd"/><path fill="#000000" fill-opacity="0.0" d="m655.73096 267.41995l216.47247 0l0 111.71652l-216.47247 0z" fill-rule="evenodd"/><path fill="#000000" d="m703.46533 315.96057l-34.65625 0l0 -6.015625l34.65625 0l0 6.015625zm0 15.921875l-34.65625 0l0 -6.015625l34.65625 0l0 6.015625zm2.9787598 29.515625l0 -4.65625l42.71875 0l0 4.65625l-42.71875 0zm40.781616 0l0 -4.65625l42.71875 0l0 4.65625l-42.71875 0zm46.156616 -54.46875q0 -5.625 2.828125 -9.5625q2.828125 -3.9375 8.1875 -3.9375q4.953125 0 8.1875 3.53125q3.234375 3.53125 3.234375 10.359375q0 6.671875 -3.28125 10.265625q-3.265625 3.59375 -8.0625 3.59375q-4.765625 0 -7.9375 -3.53125q-3.15625 -3.546875 -3.15625 -10.71875zm11.203125 -9.046875q-2.40625 0 -4.0 2.078125q-1.59375 2.0625 -1.59375 7.625q0 5.046875 1.609375 7.109375q1.625 2.046875 3.984375 2.046875q2.4375 0 4.03125 -2.078125q1.59375 -2.078125 1.59375 -7.59375q0 -5.078125 -1.625 -7.125q-1.609375 -2.0625 -4.0 -2.0625zm0.03125 50.875l28.71875 -55.328125l5.234375 0l-28.609375 55.328125l-5.34375 0zm22.703125 -14.25q0 -5.65625 2.828125 -9.578125q2.828125 -3.921875 8.234375 -3.921875q4.9375 0 8.171875 3.53125q3.25 3.515625 3.25 10.359375q0 6.65625 -3.28125 10.265625q-3.265625 3.59375 -8.109375 3.59375q-4.75 0 -7.921875 -3.5625q-3.171875 -3.5625 -3.171875 -10.6875zm11.25 -9.0625q-2.4375 0 -4.03125 2.078125q-1.59375 2.078125 -1.59375 7.625q0 5.015625 1.609375 7.09375q1.609375 2.078125 3.96875 2.078125q2.46875 0 4.0625 -2.078125q1.59375 -2.078125 1.59375 -7.59375q0 -5.09375 -1.609375 -7.140625q-1.609375 -2.0625 -4.0 -2.0625z" fill-rule="nonzero"/></g></svg>