<svg version="1.1" viewBox="0.0 0.0 960.0 540.0" fill="none" stroke="none" stroke-linecap="square" stroke-miterlimit="10" xmlns:xlink="http://www.w3.org/1999/xlink" xmlns="http://www.w3.org/2000/svg"><clipPath id="g88b9d99396_0_7.0"><path d="m0 0l960.0 0l0 540.0l-960.0 0l0 -540.0z" clip-rule="nonzero"/></clipPath><g clip-path="url(#g88b9d99396_0_7.0)"><path fill="#212121" d="m0 0l960.0 0l0 540.0l-960.0 0z" fill-rule="evenodd"/><path fill="#000000" fill-opacity="0.0" d="m145.1588 55.259842l322.55115 0l0 429.4803l-322.55115 0z" fill-rule="evenodd"/><path fill="#ffffff" d="m171.75255 178.20563q-4.671875 0 -7.609375 -1.78125q-2.9375 -1.796875 -4.28125 -4.859375q-1.34375 -3.078125 -1.34375 -6.921875l5.75 0q0 2.9375 0.859375 4.921875q0.875 1.984375 2.59375 2.953125q1.734375 0.953125 4.359375 0.953125q3.90625 0 5.984375 -2.015625q2.078125 -2.015625 2.90625 -5.859375q0.828125 -3.84375 0.90625 -9.140625q-0.84375 1.40625 -2.515625 2.65625q-1.65625 1.234375 -3.859375 1.984375q-2.203125 0.734375 -4.703125 0.734375q-4.734375 0 -7.8125 -1.890625q-3.0625 -1.890625 -4.578125 -5.15625q-1.5 -3.265625 -1.5 -7.296875q0 -4.484375 1.921875 -7.78125q1.921875 -3.296875 5.25 -5.109375q3.328125 -1.828125 7.484375 -1.828125q3.78125 0 6.78125 1.09375q3.015625 1.078125 5.09375 3.515625q2.078125 2.4375 3.15625 6.5625q1.09375 4.125 1.09375 10.265625q0 6.71875 -1.0625 11.328125q-1.046875 4.609375 -3.09375 7.390625q-2.046875 2.78125 -5.03125 4.03125q-2.96875 1.25 -6.75 1.25zm0.203125 -21.046875q3.125 0 5.203125 -1.34375q2.09375 -1.34375 3.109375 -3.578125q1.03125 -2.25 1.03125 -5.0q0 -2.6875 -1.0 -4.890625q-0.984375 -2.21875 -3.078125 -3.53125q-2.078125 -1.3125 -5.203125 -1.3125q-3.140625 0 -5.1875 1.375q-2.046875 1.375 -3.046875 3.625q-0.984375 2.234375 -0.984375 5.046875q0 2.625 0.953125 4.8125q0.96875 2.171875 2.984375 3.484375q2.015625 1.3125 5.21875 1.3125zm24.578186 20.28125l0 -6.71875l6.265625 0l0 6.71875l-6.265625 0zm31.227966 0.765625q-3.78125 0 -6.765625 -1.078125q-2.96875 -1.09375 -5.046875 -3.515625q-2.078125 -2.4375 -3.171875 -6.5625q-1.078125 -4.140625 -1.078125 -10.28125q0 -6.78125 1.078125 -11.359375q1.09375 -4.578125 3.109375 -7.359375q2.015625 -2.78125 4.984375 -4.03125q2.984375 -1.25 6.765625 -1.25q4.734375 0 7.640625 1.796875q2.90625 1.78125 4.25 4.828125q1.34375 3.03125 1.34375 6.9375l-5.75 0q0 -2.9375 -0.84375 -4.921875q-0.828125 -1.984375 -2.59375 -2.9375q-1.75 -0.96875 -4.375 -0.96875q-3.84375 0 -5.984375 2.015625q-2.140625 2.015625 -2.9375 5.859375q-0.796875 3.84375 -0.875 9.15625q0.90625 -1.484375 2.53125 -2.6875q1.640625 -1.21875 3.875 -1.953125q2.234375 -0.734375 4.734375 -0.734375q4.734375 0 7.796875 1.890625q3.078125 1.875 4.546875 5.140625q1.484375 3.265625 1.484375 7.296875q0 4.421875 -1.921875 7.75q-1.921875 3.328125 -5.25 5.15625q-3.328125 1.8125 -7.546875 1.8125zm-0.390625 -4.734375q3.140625 0 5.1875 -1.375q2.046875 -1.375 3.03125 -3.640625q1.0 -2.28125 1.0 -5.03125q0 -2.625 -0.96875 -4.796875q-0.953125 -2.171875 -2.96875 -3.484375q-2.015625 -1.3125 -5.15625 -1.3125q-3.125 0 -5.25 1.34375q-2.109375 1.34375 -3.140625 3.546875q-1.015625 2.203125 -1.015625 5.015625q0 2.625 1.015625 4.875q1.03125 2.234375 3.078125 3.546875q2.0625 1.3125 5.1875 1.3125zm29.95317 3.96875l31.6875 -43.90625l5.109375 0l-31.734375 43.90625l-5.0625 0zm3.515625 -21.5625q-3.0 0 -5.2187347 -1.0625q-2.203125 -1.0625 -3.359375 -3.546875q-1.140625 -2.5 -1.140625 -6.921875q0 -4.46875 1.140625 -6.96875q1.15625 -2.5 3.359375 -3.546875q2.2187347 -1.0625 5.2187347 -1.0625q3.078125 0 5.1875 1.0625q2.109375 1.046875 3.296875 3.546875q1.1875 2.5 1.1875 6.96875q0 4.421875 -1.1875 6.953125q-1.1875 2.53125 -3.296875 3.5625q-2.109375 1.015625 -5.1875 1.015625zm0 -3.78125q2.890625 0 3.84375 -1.953125q0.96875 -1.953125 0.96875 -5.46875l0 -0.640625q0 -2.375 -0.390625 -4.03125q-0.390625 -1.671875 -1.453125 -2.5625q-1.046875 -0.890625 -2.96875 -0.890625q-2.8125 0 -3.84375 1.953125q-1.0156097 1.953125 -1.0156097 5.53125l0 0.640625q0 3.515625 1.0156097 5.46875q1.03125 1.953125 3.84375 1.953125zm29.703125 26.109375q-3.015625 0 -5.1875 -1.046875q-2.171875 -1.0625 -3.328125 -3.5625q-1.15625 -2.5 -1.15625 -6.90625q0 -4.484375 1.15625 -6.96875q1.15625 -2.5 3.328125 -3.5625q2.171875 -1.0625 5.1875 -1.0625q3.078125 0 5.21875 1.0625q2.140625 1.0625 3.28125 3.5625q1.15625 2.484375 1.15625 6.96875q0 4.40625 -1.15625 6.9375q-1.140625 2.53125 -3.28125 3.5625q-2.140625 1.015625 -5.21875 1.015625zm0 -3.78125q2.9375 0 3.859375 -1.9375q0.9375 -1.953125 0.9375 -5.546875l0 -0.578125q0 -2.359375 -0.390625 -4.015625q-0.375 -1.671875 -1.40625 -2.5625q-1.015625 -0.90625 -3.0 -0.90625q-2.8125 0 -3.8125 1.953125q-0.984375 1.953125 -0.984375 5.53125l0 0.578125q0 3.59375 0.984375 5.546875q1.0 1.9375 3.8125 1.9375z" fill-rule="nonzero"/><path fill="#ffffff" d="m157.36192 254.44l0 -1.859375q0 -2.6875 1.046875 -4.953125q1.0625 -2.28125 2.8125 -4.15625q1.765625 -1.890625 4.0 -3.609375q2.25 -1.734375 4.546875 -3.40625q3.140625 -2.171875 5.796875 -4.34375q2.65625 -2.1875 4.25 -4.703125q1.609375 -2.53125 1.609375 -5.671875q0 -1.984375 -0.9375 -3.609375q-0.921875 -1.640625 -2.78125 -2.59375q-1.84375 -0.96875 -4.734375 -0.96875q-3.390625 0 -5.4375 1.15625q-2.046875 1.15625 -2.984375 3.078125q-0.921875 1.90625 -0.921875 4.21875l0 2.625l-5.5625 0q-0.0625 -0.328125 -0.125 -1.0q-0.0625 -0.671875 -0.0625 -1.5625q0 -4.734375 2.109375 -7.640625q2.109375 -2.921875 5.625 -4.296875q3.515625 -1.375 7.625 -1.375q3.640625 0 6.265625 1.0q2.625 0.984375 4.34375 2.71875q1.734375 1.71875 2.5625 3.9375q0.84375 2.203125 0.84375 4.625q0 3.015625 -1.0625 5.515625q-1.0625 2.484375 -2.953125 4.640625q-1.875 2.140625 -4.40625 4.125q-2.53125 1.984375 -5.46875 4.03125q-2.046875 1.34375 -4.03125 2.84375q-1.984375 1.5 -3.390625 3.046875q-1.40625 1.53125 -1.796875 2.9375l23.359375 0l0 5.25l-30.140625 0zm51.64731 0.765625q-4.609375 0 -8.0625 -1.71875q-3.453125 -1.734375 -5.375 -4.96875q-1.921875 -3.234375 -1.921875 -7.703125l5.6875 0q0 3.0 1.28125 5.1875q1.28125 2.171875 3.484375 3.328125q2.21875 1.140625 4.90625 1.140625q2.75 0 4.859375 -1.109375q2.109375 -1.125 3.296875 -3.421875q1.1875 -2.3125 1.1875 -5.84375q0 -3.1875 -1.09375 -5.265625q-1.078125 -2.09375 -3.09375 -3.109375q-2.015625 -1.03125 -4.640625 -1.03125q-1.921875 0 -3.65625 0.609375q-1.71875 0.609375 -3.109375 1.703125q-1.375 1.078125 -2.265625 2.6875l-5.3125 -0.828125l1.859375 -24.328125l24.890625 0l0 5.25l-19.96875 0l-1.015625 13.703125q1.078125 -0.96875 2.453125 -1.765625q1.390625 -0.796875 3.171875 -1.28125q1.796875 -0.484375 4.09375 -0.484375q3.78125 0 6.84375 1.484375q3.078125 1.46875 4.875 4.546875q1.796875 3.0625 1.796875 7.921875q0 4.796875 -1.828125 8.265625q-1.828125 3.453125 -5.21875 5.25q-3.390625 1.78125 -8.125 1.78125zm30.075195 -0.765625l31.687485 -43.90625l5.109375 0l-31.73436 43.90625l-5.0625 0zm3.515625 -21.5625q-3.0 0 -5.21875 -1.0625q-2.203125 -1.0625 -3.359375 -3.546875q-1.140625 -2.5 -1.140625 -6.921875q0 -4.46875 1.140625 -6.96875q1.15625 -2.5 3.359375 -3.546875q2.21875 -1.0625 5.21875 -1.0625q3.078125 0 5.1875 1.0625q2.109375 1.046875 3.296875 3.546875q1.1875 2.5 1.1875 6.96875q0 4.421875 -1.1875 6.953125q-1.1875 2.53125 -3.296875 3.5625q-2.109375 1.015625 -5.1875 1.015625zm0 -3.78125q2.890625 0 3.84375 -1.953125q0.96875 -1.953125 0.96875 -5.46875l0 -0.640625q0 -2.375 -0.390625 -4.03125q-0.390625 -1.671875 -1.453125 -2.5625q-1.046875 -0.890625 -2.96875 -0.890625q-2.8125 0 -3.84375 1.953125q-1.015625 1.953125 -1.015625 5.53125l0 0.640625q0 3.515625 1.015625 5.46875q1.03125 1.953125 3.84375 1.953125zm29.70311 26.109375q-3.015625 0 -5.1875 -1.046875q-2.171875 -1.0625 -3.328125 -3.5625q-1.15625 -2.5 -1.15625 -6.90625q0 -4.484375 1.15625 -6.96875q1.15625 -2.5 3.328125 -3.5625q2.171875 -1.0625 5.1875 -1.0625q3.078125 0 5.21875 1.0625q2.140625 1.0625 3.28125 3.5625q1.15625 2.484375 1.15625 6.96875q0 4.40625 -1.15625 6.9375q-1.140625 2.53125 -3.28125 3.5625q-2.140625 1.015625 -5.21875 1.015625zm0 -3.78125q2.9375 0 3.859375 -1.9375q0.9375 -1.953125 0.9375 -5.546875l0 -0.578125q0 -2.359375 -0.390625 -4.015625q-0.375 -1.671875 -1.40625 -2.5625q-1.015625 -0.90625 -3.0 -0.90625q-2.8125 0 -3.8125 1.953125q-0.984375 1.953125 -0.984375 5.53125l0 0.578125q0 3.59375 0.984375 5.546875q1.0 1.9375 3.8125 1.9375z" fill-rule="nonzero"/><path fill="#ffffff" d="m172.7213 332.20563q-4.609375 0 -8.0625 -1.71875q-3.453125 -1.734375 -5.375 -4.96875q-1.921875 -3.234375 -1.921875 -7.703125l5.6875 0q0 3.0 1.28125 5.1875q1.28125 2.171875 3.484375 3.328125q2.21875 1.140625 4.90625 1.140625q2.75 0 4.859375 -1.109375q2.109375 -1.125 3.296875 -3.421875q1.1875 -2.3125 1.1875 -5.84375q0 -3.1875 -1.09375 -5.265625q-1.078125 -2.09375 -3.09375 -3.109375q-2.015625 -1.03125 -4.640625 -1.03125q-1.921875 0 -3.65625 0.609375q-1.71875 0.609375 -3.109375 1.703125q-1.375 1.078125 -2.265625 2.6875l-5.3125 -0.828125l1.859375 -24.328125l24.890625 0l0 5.25l-19.96875 0l-1.015625 13.703125q1.078125 -0.96875 2.453125 -1.765625q1.390625 -0.796875 3.171875 -1.28125q1.796875 -0.484375 4.09375 -0.484375q3.78125 0 6.84375 1.484375q3.078125 1.46875 4.875 4.546875q1.796875 3.0625 1.796875 7.921875q0 4.796875 -1.828125 8.265625q-1.828125 3.453125 -5.21875 5.25q-3.390625 1.78125 -8.125 1.78125zm36.356445 0q-3.59375 0 -6.40625 -1.046875q-2.8125 -1.0625 -4.796875 -3.65625q-1.984375 -2.59375 -3.015625 -6.96875q-1.015625 -4.390625 -1.015625 -11.046875q0 -6.65625 1.015625 -11.03125q1.03125 -4.390625 3.015625 -6.984375q1.984375 -2.59375 4.796875 -3.640625q2.8125 -1.0625 6.40625 -1.0625q3.578125 0 6.359375 1.0625q2.78125 1.046875 4.765625 3.640625q1.984375 2.59375 3.0 6.984375q1.03125 4.375 1.03125 11.03125q0 6.65625 -1.03125 11.046875q-1.015625 4.375 -3.0 6.96875q-1.984375 2.59375 -4.765625 3.65625q-2.78125 1.046875 -6.359375 1.046875zm0 -4.734375q3.640625 0 5.65625 -1.859375q2.015625 -1.859375 2.8125 -5.5q0.796875 -3.640625 0.796875 -9.09375l0 -2.9375q0 -5.5 -0.796875 -9.171875q-0.796875 -3.6875 -2.8125 -5.546875q-2.015625 -1.859375 -5.65625 -1.859375q-3.65625 0 -5.703125 1.859375q-2.046875 1.859375 -2.84375 5.515625q-0.796875 3.640625 -0.796875 9.140625l0 2.875q0 5.4375 0.796875 9.15625q0.796875 3.703125 2.84375 5.5625q2.046875 1.859375 5.703125 1.859375zm30.390686 3.96875l31.687485 -43.90625l5.109375 0l-31.73436 43.90625l-5.0625 0zm3.515625 -21.5625q-3.0 0 -5.21875 -1.0625q-2.203125 -1.0625 -3.359375 -3.546875q-1.140625 -2.5 -1.140625 -6.921875q0 -4.46875 1.140625 -6.96875q1.15625 -2.5 3.359375 -3.546875q2.21875 -1.0625 5.21875 -1.0625q3.078125 0 5.1875 1.0625q2.109375 1.046875 3.296875 3.546875q1.1875 2.5 1.1875 6.96875q0 4.421875 -1.1875 6.953125q-1.1875 2.53125 -3.296875 3.5625q-2.109375 1.015625 -5.1875 1.015625zm0 -3.78125q2.890625 0 3.84375 -1.953125q0.96875 -1.953125 0.96875 -5.46875l0 -0.640625q0 -2.375 -0.390625 -4.03125q-0.390625 -1.671875 -1.453125 -2.5625q-1.046875 -0.890625 -2.96875 -0.890625q-2.8125 0 -3.84375 1.953125q-1.015625 1.953125 -1.015625 5.53125l0 0.640625q0 3.515625 1.015625 5.46875q1.03125 1.953125 3.84375 1.953125zm29.70311 26.109375q-3.015625 0 -5.1875 -1.046875q-2.171875 -1.0625 -3.328125 -3.5625q-1.15625 -2.5 -1.15625 -6.90625q0 -4.484375 1.15625 -6.96875q1.15625 -2.5 3.328125 -3.5625q2.171875 -1.0625 5.1875 -1.0625q3.078125 0 5.21875 1.0625q2.140625 1.0625 3.28125 3.5625q1.15625 2.484375 1.15625 6.96875q0 4.40625 -1.15625 6.9375q-1.140625 2.53125 -3.28125 3.5625q-2.140625 1.015625 -5.21875 1.015625zm0 -3.78125q2.9375 0 3.859375 -1.9375q0.9375 -1.953125 0.9375 -5.546875l0 -0.578125q0 -2.359375 -0.390625 -4.015625q-0.375 -1.671875 -1.40625 -2.5625q-1.015625 -0.90625 -3.0 -0.90625q-2.8125 0 -3.8125 1.953125q-0.984375 1.953125 -0.984375 5.53125l0 0.578125q0 3.59375 0.984375 5.546875q1.0 1.9375 3.8125 1.9375z" fill-rule="nonzero"/><path fill="#ffffff" d="m163.44005 408.44q0 -5.953125 1.53125 -11.453125q1.546875 -5.5 4.0 -10.421875q2.46875 -4.9375 5.40625 -9.15625q2.953125 -4.234375 5.765625 -7.625l-23.484375 0l0 -5.25l30.90625 0l0 3.515625q-2.359375 2.765625 -4.890625 6.125q-2.53125 3.359375 -4.84375 7.109375q-2.296875 3.734375 -4.15625 7.765625q-1.859375 4.03125 -2.953125 8.15625q-1.078125 4.125 -1.078125 8.21875l0 3.015625l-6.203125 0zm44.673187 0.765625q-4.609375 0 -8.0625 -1.71875q-3.453125 -1.734375 -5.375 -4.96875q-1.921875 -3.234375 -1.921875 -7.703125l5.6875 0q0 3.0 1.28125 5.1875q1.28125 2.171875 3.484375 3.328125q2.21875 1.140625 4.90625 1.140625q2.75 0 4.859375 -1.109375q2.109375 -1.125 3.296875 -3.421875q1.1875 -2.3125 1.1875 -5.84375q0 -3.1875 -1.09375 -5.265625q-1.078125 -2.09375 -3.09375 -3.109375q-2.015625 -1.03125 -4.640625 -1.03125q-1.921875 0 -3.65625 0.609375q-1.71875 0.609375 -3.109375 1.703125q-1.375 1.078125 -2.265625 2.6875l-5.3125 -0.828125l1.859375 -24.328125l24.890625 0l0 5.25l-19.96875 0l-1.015625 13.703125q1.078125 -0.96875 2.453125 -1.765625q1.390625 -0.796875 3.171875 -1.28125q1.796875 -0.484375 4.09375 -0.484375q3.78125 0 6.84375 1.484375q3.078125 1.46875 4.875 4.546875q1.796875 3.0625 1.796875 7.921875q0 4.796875 -1.828125 8.265625q-1.828125 3.453125 -5.21875 5.25q-3.390625 1.78125 -8.125 1.78125zm30.075195 -0.765625l31.687485 -43.90625l5.109375 0l-31.73436 43.90625l-5.0625 0zm3.515625 -21.5625q-3.0 0 -5.21875 -1.0625q-2.203125 -1.0625 -3.359375 -3.546875q-1.140625 -2.5 -1.140625 -6.921875q0 -4.46875 1.140625 -6.96875q1.15625 -2.5 3.359375 -3.546875q2.21875 -1.0625 5.21875 -1.0625q3.078125 0 5.1875 1.0625q2.109375 1.046875 3.296875 3.546875q1.1875 2.5 1.1875 6.96875q0 4.421875 -1.1875 6.953125q-1.1875 2.53125 -3.296875 3.5625q-2.109375 1.015625 -5.1875 1.015625zm0 -3.78125q2.890625 0 3.84375 -1.953125q0.96875 -1.953125 0.96875 -5.46875l0 -0.640625q0 -2.375 -0.390625 -4.03125q-0.390625 -1.671875 -1.453125 -2.5625q-1.046875 -0.890625 -2.96875 -0.890625q-2.8125 0 -3.84375 1.953125q-1.015625 1.953125 -1.015625 5.53125l0 0.640625q0 3.515625 1.015625 5.46875q1.03125 1.953125 3.84375 1.953125zm29.70311 26.109375q-3.015625 0 -5.1875 -1.046875q-2.171875 -1.0625 -3.328125 -3.5625q-1.15625 -2.5 -1.15625 -6.90625q0 -4.484375 1.15625 -6.96875q1.15625 -2.5 3.328125 -3.5625q2.171875 -1.0625 5.1875 -1.0625q3.078125 0 5.21875 1.0625q2.140625 1.0625 3.28125 3.5625q1.15625 2.484375 1.15625 6.96875q0 4.40625 -1.15625 6.9375q-1.140625 2.53125 -3.28125 3.5625q-2.140625 1.015625 -5.21875 1.015625zm0 -3.78125q2.9375 0 3.859375 -1.9375q0.9375 -1.953125 0.9375 -5.546875l0 -0.578125q0 -2.359375 -0.390625 -4.015625q-0.375 -1.671875 -1.40625 -2.5625q-1.015625 -0.90625 -3.0 -0.90625q-2.8125 0 -3.8125 1.953125q-0.984375 1.953125 -0.984375 5.53125l0 0.578125q0 3.59375 0.984375 5.546875q1.0 1.9375 3.8125 1.9375z" fill-rule="nonzero"/><path fill="#000000" fill-opacity="0.0" d="m930.0852 515.117l0 0c-8.514893 0.2816162 -16.82782 -1.8654785 -23.029663 -5.948181c-6.2018433 -4.0827026 -9.7595215 -9.750092 -9.855896 -15.700562l31.399536 -0.24795532z" fill-rule="evenodd"/><path fill="#000000" fill-opacity="0.0" d="m930.0852 515.117l0 0c-8.514893 0.2816162 -16.82782 -1.8654785 -23.029663 -5.948181c-6.2018433 -4.0827026 -9.7595215 -9.750092 -9.855896 -15.700562" fill-rule="evenodd"/><path stroke="#ffffff" stroke-width="2.0" stroke-linejoin="round" stroke-linecap="butt" d="m930.0852 515.117l0 0c-8.514893 0.2816162 -16.82782 -1.8654785 -23.029663 -5.948181c-6.2018433 -4.0827026 -9.7595215 -9.750092 -9.855896 -15.700562" fill-rule="evenodd"/><path fill="#000000" fill-opacity="0.0" d="m891.86096 492.13654l0.1574707 31.968506" fill-rule="evenodd"/><path stroke="#ffffff" stroke-width="2.0" stroke-linejoin="round" stroke-linecap="butt" d="m891.86096 492.13654l0.1574707 31.968506" fill-rule="evenodd"/><path fill="#000000" fill-opacity="0.0" d="m891.86096 522.99115l40.125977 0.28344727" fill-rule="evenodd"/><path stroke="#ffffff" stroke-width="2.0" stroke-linejoin="round" stroke-linecap="butt" d="m891.86096 522.99115l40.125977 0.28344727" fill-rule="evenodd"/><path fill="#000000" fill-opacity="0.0" d="m459.21915 55.259842l355.62204 0l0 429.4803l-355.62204 0z" fill-rule="evenodd"/><path fill="#ffffff" d="m527.3802 178.20563q-4.609375 0 -8.0625 -1.71875q-3.453125 -1.734375 -5.375 -4.96875q-1.921875 -3.234375 -1.921875 -7.703125l5.6875 0q0 3.0 1.28125 5.1875q1.28125 2.171875 3.484375 3.328125q2.21875 1.140625 4.90625 1.140625q2.75 0 4.859375 -1.109375q2.109375 -1.125 3.296875 -3.421875q1.1875 -2.3125 1.1875 -5.84375q0 -3.1875 -1.09375 -5.265625q-1.078125 -2.09375 -3.09375 -3.109375q-2.015625 -1.03125 -4.640625 -1.03125q-1.921875 0 -3.65625 0.609375q-1.71875 0.609375 -3.109375 1.703125q-1.375 1.078125 -2.265625 2.6875l-5.3125 -0.828125l1.859375 -24.328125l24.890625 0l0 5.25l-19.96875 0l-1.015625 13.703125q1.078125 -0.96875 2.453125 -1.765625q1.390625 -0.796875 3.171875 -1.28125q1.796875 -0.484375 4.09375 -0.484375q3.78125 0 6.84375 1.484375q3.078125 1.46875 4.875 4.546875q1.796875 3.0625 1.796875 7.921875q0 4.796875 -1.828125 8.265625q-1.828125 3.453125 -5.21875 5.25q-3.390625 1.78125 -8.125 1.78125zm21.18457 -0.765625l0 -1.859375q0 -2.6875 1.046875 -4.953125q1.0625 -2.28125 2.8125 -4.15625q1.765625 -1.890625 4.0 -3.609375q2.25 -1.734375 4.546875 -3.40625q3.140625 -2.171875 5.796875 -4.34375q2.65625 -2.1875 4.25 -4.703125q1.609375 -2.53125 1.609375 -5.671875q0 -1.984375 -0.9375 -3.609375q-0.921875 -1.640625 -2.78125 -2.59375q-1.84375 -0.96875 -4.734375 -0.96875q-3.390625 0 -5.4375 1.15625q-2.046875 1.15625 -2.984375 3.078125q-0.921875 1.90625 -0.921875 4.21875l0 2.625l-5.5625 0q-0.0625 -0.328125 -0.125 -1.0q-0.0625 -0.671875 -0.0625 -1.5625q0 -4.734375 2.109375 -7.640625q2.109375 -2.921875 5.625 -4.296875q3.515625 -1.375 7.625 -1.375q3.640625 0 6.265625 1.0q2.625 0.984375 4.34375 2.71875q1.734375 1.71875 2.5625 3.9375q0.84375 2.203125 0.84375 4.625q0 3.015625 -1.0625 5.515625q-1.0625 2.484375 -2.953125 4.640625q-1.875 2.140625 -4.40625 4.125q-2.53125 1.984375 -5.46875 4.03125q-2.046875 1.34375 -4.03125 2.84375q-1.984375 1.5 -3.390625 3.046875q-1.40625 1.53125 -1.796875 2.9375l23.359375 0l0 5.25l-30.140625 0zm38.787964 0l0 -6.71875l6.265625 0l0 6.71875l-6.265625 0zm15.227966 0l0 -1.859375q0 -2.6875 1.046875 -4.953125q1.0625 -2.28125 2.8125 -4.15625q1.765625 -1.890625 4.0 -3.609375q2.25 -1.734375 4.546875 -3.40625q3.140625 -2.171875 5.796875 -4.34375q2.65625 -2.1875 4.25 -4.703125q1.609375 -2.53125 1.609375 -5.671875q0 -1.984375 -0.9375 -3.609375q-0.921875 -1.640625 -2.78125 -2.59375q-1.84375 -0.96875 -4.734375 -0.96875q-3.390625 0 -5.4375 1.15625q-2.046875 1.15625 -2.984375 3.078125q-0.921875 1.90625 -0.921875 4.21875l0 2.625l-5.5625 0q-0.0625 -0.328125 -0.125 -1.0q-0.0625 -0.671875 -0.0625 -1.5625q0 -4.734375 2.109375 -7.640625q2.109375 -2.921875 5.625 -4.296875q3.515625 -1.375 7.625 -1.375q3.640625 0 6.265625 1.0q2.625 0.984375 4.34375 2.71875q1.734375 1.71875 2.5625 3.9375q0.84375 2.203125 0.84375 4.625q0 3.015625 -1.0625 5.515625q-1.0625 2.484375 -2.953125 4.640625q-1.875 2.140625 -4.40625 4.125q-2.53125 1.984375 -5.46875 4.03125q-2.046875 1.34375 -4.03125 2.84375q-1.984375 1.5 -3.390625 3.046875q-1.40625 1.53125 -1.796875 2.9375l23.359375 0l0 5.25l-30.140625 0zm61.502625 0l0 -18.234375l-17.28125 -25.671875l6.96875 0l13.375 20.296875l0.328125 0l13.3125 -20.296875l6.65625 0l-17.21875 25.671875l0 18.234375l-6.140625 0zm35.777405 0.765625q-5.0 0 -8.421875 -1.890625q-3.421875 -1.890625 -5.1875 -5.78125q-1.75 -3.90625 -1.75 -9.921875q0 -6.078125 1.75 -9.953125q1.765625 -3.875 5.21875 -5.765625q3.453125 -1.890625 8.640625 -1.890625q4.734375 0 7.9375 1.828125q3.203125 1.828125 4.828125 5.453125q1.640625 3.609375 1.640625 9.046875l0 2.6875l-24.203125 0q0.140625 4.03125 1.1875 6.625q1.0625 2.59375 3.171875 3.78125q2.109375 1.171875 5.3125 1.171875q2.171875 0 3.796875 -0.53125q1.640625 -0.546875 2.75 -1.5625q1.125 -1.03125 1.703125 -2.4375q0.578125 -1.421875 0.640625 -3.078125l5.515625 0q-0.078125 2.6875 -1.03125 4.96875q-0.953125 2.265625 -2.8125 3.859375q-1.859375 1.59375 -4.546875 2.5q-2.6875 0.890625 -6.140625 0.890625zm-9.40625 -20.40625l18.234375 0q0 -2.828125 -0.640625 -4.734375q-0.640625 -1.921875 -1.828125 -3.140625q-1.171875 -1.21875 -2.75 -1.765625q-1.5625 -0.546875 -3.546875 -0.546875q-2.953125 0 -5.0 1.09375q-2.046875 1.09375 -3.140625 3.328125q-1.078125 2.234375 -1.328125 5.765625zm39.47821 20.40625q-1.84375 0 -3.703125 -0.453125q-1.859375 -0.4375 -3.46875 -1.453125q-1.59375 -1.03125 -2.5625 -2.859375q-0.953125 -1.828125 -0.953125 -4.578125q0 -3.453125 1.65625 -5.6875q1.671875 -2.25 4.640625 -3.5q2.984375 -1.25 7.078125 -1.71875q4.09375 -0.484375 8.90625 -0.484375l0 -3.84375q0 -1.84375 -0.640625 -3.1875q-0.640625 -1.359375 -2.28125 -2.09375q-1.625 -0.734375 -4.640625 -0.734375q-2.875 0 -4.578125 0.734375q-1.6875 0.734375 -2.359375 1.890625q-0.671875 1.15625 -0.671875 2.5625l0 0.953125l-5.4375 0q-0.0625 -0.3125 -0.0625 -0.625q0 -0.328125 0 -0.78125q0 -3.0625 1.6875 -5.140625q1.703125 -2.078125 4.765625 -3.140625q3.078125 -1.0625 7.046875 -1.0625q4.21875 0 7.0625 1.21875q2.859375 1.21875 4.296875 3.46875q1.4375 2.234375 1.4375 5.359375l0 18.25q0 1.21875 0.578125 1.703125q0.578125 0.46875 1.40625 0.46875l2.5 0l0 3.71875q-0.90625 0.375 -2.0 0.65625q-1.078125 0.296875 -2.484375 0.296875q-1.65625 0 -2.75 -0.671875q-1.09375 -0.671875 -1.671875 -1.859375q-0.5625 -1.1875 -0.765625 -2.65625l-0.4375 0q-1.15625 1.609375 -2.921875 2.796875q-1.75 1.171875 -3.9375 1.8125q-2.171875 0.640625 -4.734375 0.640625zm1.40625 -4.734375q2.046875 0 3.875 -0.640625q1.828125 -0.640625 3.234375 -1.8125q1.40625 -1.1875 2.234375 -2.84375q0.84375 -1.671875 0.84375 -3.65625l0 -2.828125q-5.1875 0 -8.84375 0.578125q-3.640625 0.578125 -5.59375 2.0625q-1.953125 1.46875 -1.953125 4.15625q0 1.71875 0.765625 2.8125q0.765625 1.078125 2.171875 1.625q1.421875 0.546875 3.265625 0.546875zm25.036194 3.96875l0 -33.65625l4.53125 0l0.515625 5.5625l0.453125 0q0.515625 -1.609375 1.40625 -3.046875q0.890625 -1.4375 2.421875 -2.359375q1.546875 -0.9375 3.78125 -0.9375q0.96875 0 1.765625 0.171875q0.796875 0.15625 1.1875 0.34375l0 5.1875l-2.109375 0q-2.1875 0 -3.75 0.734375q-1.5625 0.734375 -2.59375 2.078125q-1.015625 1.34375 -1.5 3.203125q-0.484375 1.859375 -0.484375 3.96875l0 18.75l-5.625 0zm33.01361 0.765625q-3.453125 0 -6.078125 -0.703125q-2.625 -0.703125 -4.359375 -2.046875q-1.71875 -1.34375 -2.625 -3.203125q-0.890625 -1.859375 -0.890625 -4.21875q0 -0.328125 0 -0.609375q0 -0.28125 0.0625 -0.484375l5.578125 0q-0.0625 0.265625 -0.0625 0.453125q0 0.1875 0 0.390625q0.0625 2.234375 1.171875 3.515625q1.125 1.28125 3.109375 1.796875q1.984375 0.5 4.421875 0.5q2.109375 0 3.890625 -0.53125q1.796875 -0.546875 2.84375 -1.671875q1.0625 -1.125 1.0625 -2.84375q0 -2.125 -1.375 -3.234375q-1.375 -1.125 -3.609375 -1.765625q-2.234375 -0.640625 -4.671875 -1.34375q-2.046875 -0.578125 -4.09375 -1.28125q-2.046875 -0.703125 -3.6875 -1.71875q-1.625 -1.03125 -2.625 -2.65625q-0.984375 -1.640625 -0.984375 -4.140625q0 -2.234375 0.921875 -3.953125q0.9375 -1.734375 2.65625 -2.953125q1.734375 -1.21875 4.1875 -1.828125q2.46875 -0.609375 5.484375 -0.609375q3.203125 0 5.59375 0.71875q2.40625 0.703125 4.0 1.984375q1.609375 1.265625 2.375 2.90625q0.765625 1.625 0.765625 3.484375q0 0.390625 0 0.75q0 0.34375 -0.0625 0.53125l-5.5 0l0 -0.703125q0 -1.28125 -0.671875 -2.46875q-0.671875 -1.1875 -2.3125 -1.921875q-1.625 -0.734375 -4.515625 -0.734375q-1.84375 0 -3.203125 0.296875q-1.34375 0.28125 -2.234375 0.890625q-0.890625 0.609375 -1.34375 1.40625q-0.453125 0.796875 -0.453125 1.828125q0 1.65625 1.09375 2.5625q1.09375 0.890625 2.90625 1.46875q1.828125 0.578125 3.9375 1.28125q2.25 0.640625 4.578125 1.3125q2.34375 0.671875 4.296875 1.703125q1.953125 1.015625 3.125 2.78125q1.1875 1.75 1.1875 4.640625q0 2.6875 -1.03125 4.671875q-1.015625 1.96875 -2.90625 3.25q-1.890625 1.28125 -4.421875 1.890625q-2.515625 0.609375 -5.53125 0.609375z" fill-rule="nonzero"/><path fill="#ffffff" d="m529.6872 255.20563q-5.125 0 -8.65625 -1.5625q-3.515625 -1.578125 -5.3125 -4.453125q-1.78125 -2.875 -1.78125 -6.84375l0 -0.828125l5.703125 0l0 0.828125q0 3.96875 2.515625 6.046875q2.53125 2.078125 7.015625 2.078125q4.484375 0 7.234375 -1.953125q2.75 -1.953125 2.75 -6.234375q0 -3.140625 -1.484375 -4.796875q-1.46875 -1.671875 -3.8125 -2.34375q-2.328125 -0.671875 -4.953125 -0.671875l-4.59375 0l0 -4.734375l4.796875 0q2.421875 0 4.46875 -0.765625q2.0625 -0.765625 3.296875 -2.53125q1.25 -1.765625 1.25 -4.578125q0 -2.5625 -1.125 -4.15625q-1.109375 -1.59375 -3.03125 -2.390625q-1.921875 -0.8125 -4.21875 -0.8125q-2.5625 0 -4.609375 0.875q-2.046875 0.859375 -3.234375 2.59375q-1.1875 1.71875 -1.1875 4.34375l0 0.828125l-5.75 0l0 -1.15625q0 -3.640625 1.875 -6.390625q1.890625 -2.75 5.1875 -4.28125q3.296875 -1.546875 7.59375 -1.546875q4.21875 0 7.453125 1.34375q3.234375 1.34375 5.078125 3.96875q1.859375 2.625 1.859375 6.46875q0 2.8125 -1.03125 4.765625q-1.015625 1.953125 -2.6875 3.234375q-1.65625 1.28125 -3.578125 2.109375l0 0.25q3.515625 1.03125 5.890625 3.71875q2.375 2.6875 2.375 7.03125q0 3.90625 -1.953125 6.734375q-1.953125 2.8125 -5.453125 4.3125q-3.484375 1.5 -7.890625 1.5zm22.515686 -0.765625l0 -4.796875l11.078125 0l0 -30.40625l-11.140625 0l0 -3.578125q2.375 -0.1875 4.890625 -0.703125q2.53125 -0.515625 4.96875 -1.625q2.4375 -1.125 4.421875 -2.921875l2.5625 0l0 39.234375l10.421875 0l0 4.796875l-27.203125 0zm34.76581 0l0 -6.71875l6.265625 0l0 6.71875l-6.265625 0zm29.618591 0.765625q-4.671875 0 -7.609375 -1.78125q-2.9375 -1.796875 -4.28125 -4.859375q-1.34375 -3.078125 -1.34375 -6.921875l5.75 0q0 2.9375 0.859375 4.921875q0.875 1.984375 2.59375 2.953125q1.734375 0.953125 4.359375 0.953125q3.90625 0 5.984375 -2.015625q2.078125 -2.015625 2.90625 -5.859375q0.828125 -3.84375 0.90625 -9.140625q-0.84375 1.40625 -2.515625 2.65625q-1.65625 1.234375 -3.859375 1.984375q-2.203125 0.734375 -4.703125 0.734375q-4.734375 0 -7.8125 -1.890625q-3.0625 -1.890625 -4.578125 -5.15625q-1.5 -3.265625 -1.5 -7.296875q0 -4.484375 1.921875 -7.78125q1.921875 -3.296875 5.25 -5.109375q3.328125 -1.828125 7.484375 -1.828125q3.78125 0 6.78125 1.09375q3.015625 1.078125 5.09375 3.515625q2.078125 2.4375 3.15625 6.5625q1.09375 4.125 1.09375 10.265625q0 6.71875 -1.0625 11.328125q-1.046875 4.609375 -3.09375 7.390625q-2.046875 2.78125 -5.03125 4.03125q-2.96875 1.25 -6.75 1.25zm0.203125 -21.046875q3.125 0 5.203125 -1.34375q2.09375 -1.34375 3.109375 -3.578125q1.03125 -2.25 1.03125 -5.0q0 -2.6875 -1.0 -4.890625q-0.984375 -2.21875 -3.078125 -3.53125q-2.078125 -1.3125 -5.203125 -1.3125q-3.140625 0 -5.1875 1.375q-2.046875 1.375 -3.046875 3.625q-0.984375 2.234375 -0.984375 5.046875q0 2.625 0.953125 4.8125q0.96875 2.171875 2.984375 3.484375q2.015625 1.3125 5.21875 1.3125zm47.292908 20.28125l0 -18.234375l-17.28125 -25.671875l6.96875 0l13.375 20.296875l0.328125 0l13.3125 -20.296875l6.65625 0l-17.21875 25.671875l0 18.234375l-6.140625 0zm35.777466 0.765625q-5.0 0 -8.421875 -1.890625q-3.421875 -1.890625 -5.1875 -5.78125q-1.75 -3.90625 -1.75 -9.921875q0 -6.078125 1.75 -9.953125q1.765625 -3.875 5.21875 -5.765625q3.453125 -1.890625 8.640625 -1.890625q4.734375 0 7.9375 1.828125q3.203125 1.828125 4.828125 5.453125q1.640625 3.609375 1.640625 9.046875l0 2.6875l-24.203125 0q0.140625 4.03125 1.1875 6.625q1.0625 2.59375 3.171875 3.78125q2.109375 1.171875 5.3125 1.171875q2.171875 0 3.796875 -0.53125q1.640625 -0.546875 2.75 -1.5625q1.125 -1.03125 1.703125 -2.4375q0.578125 -1.421875 0.640625 -3.078125l5.515625 0q-0.078125 2.6875 -1.03125 4.96875q-0.953125 2.265625 -2.8125 3.859375q-1.859375 1.59375 -4.546875 2.5q-2.6875 0.890625 -6.140625 0.890625zm-9.40625 -20.40625l18.234375 0q0 -2.828125 -0.640625 -4.734375q-0.640625 -1.921875 -1.828125 -3.140625q-1.171875 -1.21875 -2.75 -1.765625q-1.5625 -0.546875 -3.546875 -0.546875q-2.953125 0 -5.0 1.09375q-2.046875 1.09375 -3.140625 3.328125q-1.078125 2.234375 -1.328125 5.765625zm39.47821 20.40625q-1.84375 0 -3.703125 -0.453125q-1.859375 -0.4375 -3.46875 -1.453125q-1.59375 -1.03125 -2.5625 -2.859375q-0.953125 -1.828125 -0.953125 -4.578125q0 -3.453125 1.65625 -5.6875q1.671875 -2.25 4.640625 -3.5q2.984375 -1.25 7.078125 -1.71875q4.09375 -0.484375 8.90625 -0.484375l0 -3.84375q0 -1.84375 -0.640625 -3.1875q-0.640625 -1.359375 -2.28125 -2.09375q-1.625 -0.734375 -4.640625 -0.734375q-2.875 0 -4.578125 0.734375q-1.6875 0.734375 -2.359375 1.890625q-0.671875 1.15625 -0.671875 2.5625l0 0.953125l-5.4375 0q-0.0625 -0.3125 -0.0625 -0.625q0 -0.328125 0 -0.78125q0 -3.0625 1.6875 -5.140625q1.703125 -2.078125 4.765625 -3.140625q3.078125 -1.0625 7.046875 -1.0625q4.21875 0 7.0625 1.21875q2.859375 1.21875 4.296875 3.46875q1.4375 2.234375 1.4375 5.359375l0 18.25q0 1.21875 0.578125 1.703125q0.578125 0.46875 1.40625 0.46875l2.5 0l0 3.71875q-0.90625 0.375 -2.0 0.65625q-1.078125 0.296875 -2.484375 0.296875q-1.65625 0 -2.75 -0.671875q-1.09375 -0.671875 -1.671875 -1.859375q-0.5625 -1.1875 -0.765625 -2.65625l-0.4375 0q-1.15625 1.609375 -2.921875 2.796875q-1.75 1.171875 -3.9375 1.8125q-2.171875 0.640625 -4.734375 0.640625zm1.40625 -4.734375q2.046875 0 3.875 -0.640625q1.828125 -0.640625 3.234375 -1.8125q1.40625 -1.1875 2.234375 -2.84375q0.84375 -1.671875 0.84375 -3.65625l0 -2.828125q-5.1875 0 -8.84375 0.578125q-3.640625 0.578125 -5.59375 2.0625q-1.953125 1.46875 -1.953125 4.15625q0 1.71875 0.765625 2.8125q0.765625 1.078125 2.171875 1.625q1.421875 0.546875 3.265625 0.546875zm25.036194 3.96875l0 -33.65625l4.53125 0l0.515625 5.5625l0.453125 0q0.515625 -1.609375 1.40625 -3.046875q0.890625 -1.4375 2.421875 -2.359375q1.546875 -0.9375 3.78125 -0.9375q0.96875 0 1.765625 0.171875q0.796875 0.15625 1.1875 0.34375l0 5.1875l-2.109375 0q-2.1875 0 -3.75 0.734375q-1.5625 0.734375 -2.59375 2.078125q-1.015625 1.34375 -1.5 3.203125q-0.484375 1.859375 -0.484375 3.96875l0 18.75l-5.625 0zm33.01355 0.765625q-3.453125 0 -6.078125 -0.703125q-2.625 -0.703125 -4.359375 -2.046875q-1.71875 -1.34375 -2.625 -3.203125q-0.890625 -1.859375 -0.890625 -4.21875q0 -0.328125 0 -0.609375q0 -0.28125 0.0625 -0.484375l5.578125 0q-0.0625 0.265625 -0.0625 0.453125q0 0.1875 0 0.390625q0.0625 2.234375 1.171875 3.515625q1.125 1.28125 3.109375 1.796875q1.984375 0.5 4.421875 0.5q2.109375 0 3.890625 -0.53125q1.796875 -0.546875 2.84375 -1.671875q1.0625 -1.125 1.0625 -2.84375q0 -2.125 -1.375 -3.234375q-1.375 -1.125 -3.609375 -1.765625q-2.234375 -0.640625 -4.671875 -1.34375q-2.046875 -0.578125 -4.09375 -1.28125q-2.046875 -0.703125 -3.6875 -1.71875q-1.625 -1.03125 -2.625 -2.65625q-0.984375 -1.640625 -0.984375 -4.140625q0 -2.234375 0.921875 -3.953125q0.9375 -1.734375 2.65625 -2.953125q1.734375 -1.21875 4.1875 -1.828125q2.46875 -0.609375 5.484375 -0.609375q3.203125 0 5.59375 0.71875q2.40625 0.703125 4.0 1.984375q1.609375 1.265625 2.375 2.90625q0.765625 1.625 0.765625 3.484375q0 0.390625 0 0.75q0 0.34375 -0.0625 0.53125l-5.5 0l0 -0.703125q0 -1.28125 -0.671875 -2.46875q-0.671875 -1.1875 -2.3125 -1.921875q-1.625 -0.734375 -4.515625 -0.734375q-1.84375 0 -3.203125 0.296875q-1.34375 0.28125 -2.234375 0.890625q-0.890625 0.609375 -1.34375 1.40625q-0.453125 0.796875 -0.453125 1.828125q0 1.65625 1.09375 2.5625q1.09375 0.890625 2.90625 1.46875q1.828125 0.578125 3.9375 1.28125q2.25 0.640625 4.578125 1.3125q2.34375 0.671875 4.296875 1.703125q1.953125 1.015625 3.125 2.78125q1.1875 1.75 1.1875 4.640625q0 2.6875 -1.03125 4.671875q-1.015625 1.96875 -2.90625 3.25q-1.890625 1.28125 -4.421875 1.890625q-2.515625 0.609375 -5.53125 0.609375z" fill-rule="nonzero"/><path fill="#ffffff" d="m515.53094 331.44l0 -4.796875l11.078125 0l0 -30.40625l-11.140625 0l0 -3.578125q2.375 -0.1875 4.890625 -0.703125q2.53125 -0.515625 4.96875 -1.625q2.4375 -1.125 4.421875 -2.921875l2.5625 0l0 39.234375l10.421875 0l0 4.796875l-27.203125 0zm48.26581 0.765625q-3.78125 0 -6.765625 -1.078125q-2.96875 -1.09375 -5.046875 -3.515625q-2.078125 -2.4375 -3.171875 -6.5625q-1.078125 -4.140625 -1.078125 -10.28125q0 -6.78125 1.078125 -11.359375q1.09375 -4.578125 3.109375 -7.359375q2.015625 -2.78125 4.984375 -4.03125q2.984375 -1.25 6.765625 -1.25q4.734375 0 7.640625 1.796875q2.90625 1.78125 4.25 4.828125q1.34375 3.03125 1.34375 6.9375l-5.75 0q0 -2.9375 -0.84375 -4.921875q-0.828125 -1.984375 -2.59375 -2.9375q-1.75 -0.96875 -4.375 -0.96875q-3.84375 0 -5.984375 2.015625q-2.140625 2.015625 -2.9375 5.859375q-0.796875 3.84375 -0.875 9.15625q0.90625 -1.484375 2.53125 -2.6875q1.640625 -1.21875 3.875 -1.953125q2.234375 -0.734375 4.734375 -0.734375q4.734375 0 7.796875 1.890625q3.078125 1.875 4.546875 5.140625q1.484375 3.265625 1.484375 7.296875q0 4.421875 -1.921875 7.75q-1.921875 3.328125 -5.25 5.15625q-3.328125 1.8125 -7.546875 1.8125zm-0.390625 -4.734375q3.140625 0 5.1875 -1.375q2.046875 -1.375 3.03125 -3.640625q1.0 -2.28125 1.0 -5.03125q0 -2.625 -0.96875 -4.796875q-0.953125 -2.171875 -2.96875 -3.484375q-2.015625 -1.3125 -5.15625 -1.3125q-3.125 0 -5.25 1.34375q-2.109375 1.34375 -3.140625 3.546875q-1.015625 2.203125 -1.015625 5.015625q0 2.625 1.015625 4.875q1.03125 2.234375 3.078125 3.546875q2.0625 1.3125 5.1875 1.3125zm23.562561 3.96875l0 -6.71875l6.265625 0l0 6.71875l-6.265625 0zm31.227966 0.765625q-3.78125 0 -6.765625 -1.078125q-2.96875 -1.09375 -5.046875 -3.515625q-2.078125 -2.4375 -3.171875 -6.5625q-1.078125 -4.140625 -1.078125 -10.28125q0 -6.78125 1.078125 -11.359375q1.09375 -4.578125 3.109375 -7.359375q2.015625 -2.78125 4.984375 -4.03125q2.984375 -1.25 6.765625 -1.25q4.734375 0 7.640625 1.796875q2.90625 1.78125 4.25 4.828125q1.34375 3.03125 1.34375 6.9375l-5.75 0q0 -2.9375 -0.84375 -4.921875q-0.828125 -1.984375 -2.59375 -2.9375q-1.75 -0.96875 -4.375 -0.96875q-3.84375 0 -5.984375 2.015625q-2.140625 2.015625 -2.9375 5.859375q-0.796875 3.84375 -0.875 9.15625q0.90625 -1.484375 2.53125 -2.6875q1.640625 -1.21875 3.875 -1.953125q2.234375 -0.734375 4.734375 -0.734375q4.734375 0 7.796875 1.890625q3.078125 1.875 4.546875 5.140625q1.484375 3.265625 1.484375 7.296875q0 4.421875 -1.921875 7.75q-1.921875 3.328125 -5.25 5.15625q-3.328125 1.8125 -7.546875 1.8125zm-0.390625 -4.734375q3.140625 0 5.1875 -1.375q2.046875 -1.375 3.03125 -3.640625q1.0 -2.28125 1.0 -5.03125q0 -2.625 -0.96875 -4.796875q-0.953125 -2.171875 -2.96875 -3.484375q-2.015625 -1.3125 -5.15625 -1.3125q-3.125 0 -5.25 1.34375q-2.109375 1.34375 -3.140625 3.546875q-1.015625 2.203125 -1.015625 5.015625q0 2.625 1.015625 4.875q1.03125 2.234375 3.078125 3.546875q2.0625 1.3125 5.1875 1.3125zm46.277283 3.96875l0 -18.234375l-17.28125 -25.671875l6.96875 0l13.375 20.296875l0.328125 0l13.3125 -20.296875l6.65625 0l-17.21875 25.671875l0 18.234375l-6.140625 0zm35.777466 0.765625q-5.0 0 -8.421875 -1.890625q-3.421875 -1.890625 -5.1875 -5.78125q-1.75 -3.90625 -1.75 -9.921875q0 -6.078125 1.75 -9.953125q1.765625 -3.875 5.21875 -5.765625q3.453125 -1.890625 8.640625 -1.890625q4.734375 0 7.9375 1.828125q3.203125 1.828125 4.828125 5.453125q1.640625 3.609375 1.640625 9.046875l0 2.6875l-24.203125 0q0.140625 4.03125 1.1875 6.625q1.0625 2.59375 3.171875 3.78125q2.109375 1.171875 5.3125 1.171875q2.171875 0 3.796875 -0.53125q1.640625 -0.546875 2.75 -1.5625q1.125 -1.03125 1.703125 -2.4375q0.578125 -1.421875 0.640625 -3.078125l5.515625 0q-0.078125 2.6875 -1.03125 4.96875q-0.953125 2.265625 -2.8125 3.859375q-1.859375 1.59375 -4.546875 2.5q-2.6875 0.890625 -6.140625 0.890625zm-9.40625 -20.40625l18.234375 0q0 -2.828125 -0.640625 -4.734375q-0.640625 -1.921875 -1.828125 -3.140625q-1.171875 -1.21875 -2.75 -1.765625q-1.5625 -0.546875 -3.546875 -0.546875q-2.953125 0 -5.0 1.09375q-2.046875 1.09375 -3.140625 3.328125q-1.078125 2.234375 -1.328125 5.765625zm39.47821 20.40625q-1.84375 0 -3.703125 -0.453125q-1.859375 -0.4375 -3.46875 -1.453125q-1.59375 -1.03125 -2.5625 -2.859375q-0.953125 -1.828125 -0.953125 -4.578125q0 -3.453125 1.65625 -5.6875q1.671875 -2.25 4.640625 -3.5q2.984375 -1.25 7.078125 -1.71875q4.09375 -0.484375 8.90625 -0.484375l0 -3.84375q0 -1.84375 -0.640625 -3.1875q-0.640625 -1.359375 -2.28125 -2.09375q-1.625 -0.734375 -4.640625 -0.734375q-2.875 0 -4.578125 0.734375q-1.6875 0.734375 -2.359375 1.890625q-0.671875 1.15625 -0.671875 2.5625l0 0.953125l-5.4375 0q-0.0625 -0.3125 -0.0625 -0.625q0 -0.328125 0 -0.78125q0 -3.0625 1.6875 -5.140625q1.703125 -2.078125 4.765625 -3.140625q3.078125 -1.0625 7.046875 -1.0625q4.21875 0 7.0625 1.21875q2.859375 1.21875 4.296875 3.46875q1.4375 2.234375 1.4375 5.359375l0 18.25q0 1.21875 0.578125 1.703125q0.578125 0.46875 1.40625 0.46875l2.5 0l0 3.71875q-0.90625 0.375 -2.0 0.65625q-1.078125 0.296875 -2.484375 0.296875q-1.65625 0 -2.75 -0.671875q-1.09375 -0.671875 -1.671875 -1.859375q-0.5625 -1.1875 -0.765625 -2.65625l-0.4375 0q-1.15625 1.609375 -2.921875 2.796875q-1.75 1.171875 -3.9375 1.8125q-2.171875 0.640625 -4.734375 0.640625zm1.40625 -4.734375q2.046875 0 3.875 -0.640625q1.828125 -0.640625 3.234375 -1.8125q1.40625 -1.1875 2.234375 -2.84375q0.84375 -1.671875 0.84375 -3.65625l0 -2.828125q-5.1875 0 -8.84375 0.578125q-3.640625 0.578125 -5.59375 2.0625q-1.953125 1.46875 -1.953125 4.15625q0 1.71875 0.765625 2.8125q0.765625 1.078125 2.171875 1.625q1.421875 0.546875 3.265625 0.546875zm25.036194 3.96875l0 -33.65625l4.53125 0l0.515625 5.5625l0.453125 0q0.515625 -1.609375 1.40625 -3.046875q0.890625 -1.4375 2.421875 -2.359375q1.546875 -0.9375 3.78125 -0.9375q0.96875 0 1.765625 0.171875q0.796875 0.15625 1.1875 0.34375l0 5.1875l-2.109375 0q-2.1875 0 -3.75 0.734375q-1.5625 0.734375 -2.59375 2.078125q-1.015625 1.34375 -1.5 3.203125q-0.484375 1.859375 -0.484375 3.96875l0 18.75l-5.625 0zm33.01355 0.765625q-3.453125 0 -6.078125 -0.703125q-2.625 -0.703125 -4.359375 -2.046875q-1.71875 -1.34375 -2.625 -3.203125q-0.890625 -1.859375 -0.890625 -4.21875q0 -0.328125 0 -0.609375q0 -0.28125 0.0625 -0.484375l5.578125 0q-0.0625 0.265625 -0.0625 0.453125q0 0.1875 0 0.390625q0.0625 2.234375 1.171875 3.515625q1.125 1.28125 3.109375 1.796875q1.984375 0.5 4.421875 0.5q2.109375 0 3.890625 -0.53125q1.796875 -0.546875 2.84375 -1.671875q1.0625 -1.125 1.0625 -2.84375q0 -2.125 -1.375 -3.234375q-1.375 -1.125 -3.609375 -1.765625q-2.234375 -0.640625 -4.671875 -1.34375q-2.046875 -0.578125 -4.09375 -1.28125q-2.046875 -0.703125 -3.6875 -1.71875q-1.625 -1.03125 -2.625 -2.65625q-0.984375 -1.640625 -0.984375 -4.140625q0 -2.234375 0.921875 -3.953125q0.9375 -1.734375 2.65625 -2.953125q1.734375 -1.21875 4.1875 -1.828125q2.46875 -0.609375 5.484375 -0.609375q3.203125 0 5.59375 0.71875q2.40625 0.703125 4.0 1.984375q1.609375 1.265625 2.375 2.90625q0.765625 1.625 0.765625 3.484375q0 0.390625 0 0.75q0 0.34375 -0.0625 0.53125l-5.5 0l0 -0.703125q0 -1.28125 -0.671875 -2.46875q-0.671875 -1.1875 -2.3125 -1.921875q-1.625 -0.734375 -4.515625 -0.734375q-1.84375 0 -3.203125 0.296875q-1.34375 0.28125 -2.234375 0.890625q-0.890625 0.609375 -1.34375 1.40625q-0.453125 0.796875 -0.453125 1.828125q0 1.65625 1.09375 2.5625q1.09375 0.890625 2.90625 1.46875q1.828125 0.578125 3.9375 1.28125q2.25 0.640625 4.578125 1.3125q2.34375 0.671875 4.296875 1.703125q1.953125 1.015625 3.125 2.78125q1.1875 1.75 1.1875 4.640625q0 2.6875 -1.03125 4.671875q-1.015625 1.96875 -2.90625 3.25q-1.890625 1.28125 -4.421875 1.890625q-2.515625 0.609375 -5.53125 0.609375z" fill-rule="nonzero"/><path fill="#ffffff" d="m566.1629 408.44q0 -5.953125 1.53125 -11.453125q1.546875 -5.5 4.0 -10.421875q2.46875 -4.9375 5.40625 -9.15625q2.953125 -4.234375 5.765625 -7.625l-23.484375 0l0 -5.25l30.90625 0l0 3.515625q-2.359375 2.765625 -4.890625 6.125q-2.53125 3.359375 -4.84375 7.109375q-2.296875 3.734375 -4.15625 7.765625q-1.859375 4.03125 -2.953125 8.15625q-1.078125 4.125 -1.078125 8.21875l0 3.015625l-6.203125 0zm24.13379 0l0 -6.71875l6.265625 0l0 6.71875l-6.265625 0zm16.306091 0l0 -4.796875l11.078125 0l0 -30.40625l-11.140625 0l0 -3.578125q2.375 -0.1875 4.890625 -0.703125q2.53125 -0.515625 4.96875 -1.625q2.4375 -1.125 4.421875 -2.921875l2.5625 0l0 39.234375l10.421875 0l0 4.796875l-27.203125 0zm57.48059 0l0 -18.234375l-17.28125 -25.671875l6.96875 0l13.375 20.296875l0.328125 0l13.3125 -20.296875l6.65625 0l-17.21875 25.671875l0 18.234375l-6.140625 0zm35.777405 0.765625q-5.0 0 -8.421875 -1.890625q-3.421875 -1.890625 -5.1875 -5.78125q-1.75 -3.90625 -1.75 -9.921875q0 -6.078125 1.75 -9.953125q1.765625 -3.875 5.21875 -5.765625q3.453125 -1.890625 8.640625 -1.890625q4.734375 0 7.9375 1.828125q3.203125 1.828125 4.828125 5.453125q1.640625 3.609375 1.640625 9.046875l0 2.6875l-24.203125 0q0.140625 4.03125 1.1875 6.625q1.0625 2.59375 3.171875 3.78125q2.109375 1.171875 5.3125 1.171875q2.171875 0 3.796875 -0.53125q1.640625 -0.546875 2.75 -1.5625q1.125 -1.03125 1.703125 -2.4375q0.578125 -1.421875 0.640625 -3.078125l5.515625 0q-0.078125 2.6875 -1.03125 4.96875q-0.953125 2.265625 -2.8125 3.859375q-1.859375 1.59375 -4.546875 2.5q-2.6875 0.890625 -6.140625 0.890625zm-9.40625 -20.40625l18.234375 0q0 -2.828125 -0.640625 -4.734375q-0.640625 -1.921875 -1.828125 -3.140625q-1.171875 -1.21875 -2.75 -1.765625q-1.5625 -0.546875 -3.546875 -0.546875q-2.953125 0 -5.0 1.09375q-2.046875 1.09375 -3.140625 3.328125q-1.078125 2.234375 -1.328125 5.765625zm39.47821 20.40625q-1.84375 0 -3.703125 -0.453125q-1.859375 -0.4375 -3.46875 -1.453125q-1.59375 -1.03125 -2.5625 -2.859375q-0.953125 -1.828125 -0.953125 -4.578125q0 -3.453125 1.65625 -5.6875q1.671875 -2.25 4.640625 -3.5q2.984375 -1.25 7.078125 -1.71875q4.09375 -0.484375 8.90625 -0.484375l0 -3.84375q0 -1.84375 -0.640625 -3.1875q-0.640625 -1.359375 -2.28125 -2.09375q-1.625 -0.734375 -4.640625 -0.734375q-2.875 0 -4.578125 0.734375q-1.6875 0.734375 -2.359375 1.890625q-0.671875 1.15625 -0.671875 2.5625l0 0.953125l-5.4375 0q-0.0625 -0.3125 -0.0625 -0.625q0 -0.328125 0 -0.78125q0 -3.0625 1.6875 -5.140625q1.703125 -2.078125 4.765625 -3.140625q3.078125 -1.0625 7.046875 -1.0625q4.21875 0 7.0625 1.21875q2.859375 1.21875 4.296875 3.46875q1.4375 2.234375 1.4375 5.359375l0 18.25q0 1.21875 0.578125 1.703125q0.578125 0.46875 1.40625 0.46875l2.5 0l0 3.71875q-0.90625 0.375 -2.0 0.65625q-1.078125 0.296875 -2.484375 0.296875q-1.65625 0 -2.75 -0.671875q-1.09375 -0.671875 -1.671875 -1.859375q-0.5625 -1.1875 -0.765625 -2.65625l-0.4375 0q-1.15625 1.609375 -2.921875 2.796875q-1.75 1.171875 -3.9375 1.8125q-2.171875 0.640625 -4.734375 0.640625zm1.40625 -4.734375q2.046875 0 3.875 -0.640625q1.828125 -0.640625 3.234375 -1.8125q1.40625 -1.1875 2.234375 -2.84375q0.84375 -1.671875 0.84375 -3.65625l0 -2.828125q-5.1875 0 -8.84375 0.578125q-3.640625 0.578125 -5.59375 2.0625q-1.953125 1.46875 -1.953125 4.15625q0 1.71875 0.765625 2.8125q0.765625 1.078125 2.171875 1.625q1.421875 0.546875 3.265625 0.546875zm25.036194 3.96875l0 -33.65625l4.53125 0l0.515625 5.5625l0.453125 0q0.515625 -1.609375 1.40625 -3.046875q0.890625 -1.4375 2.421875 -2.359375q1.546875 -0.9375 3.78125 -0.9375q0.96875 0 1.765625 0.171875q0.796875 0.15625 1.1875 0.34375l0 5.1875l-2.109375 0q-2.1875 0 -3.75 0.734375q-1.5625 0.734375 -2.59375 2.078125q-1.015625 1.34375 -1.5 3.203125q-0.484375 1.859375 -0.484375 3.96875l0 18.75l-5.625 0zm33.01361 0.765625q-3.453125 0 -6.078125 -0.703125q-2.625 -0.703125 -4.359375 -2.046875q-1.71875 -1.34375 -2.625 -3.203125q-0.890625 -1.859375 -0.890625 -4.21875q0 -0.328125 0 -0.609375q0 -0.28125 0.0625 -0.484375l5.578125 0q-0.0625 0.265625 -0.0625 0.453125q0 0.1875 0 0.390625q0.0625 2.234375 1.171875 3.515625q1.125 1.28125 3.109375 1.796875q1.984375 0.5 4.421875 0.5q2.109375 0 3.890625 -0.53125q1.796875 -0.546875 2.84375 -1.671875q1.0625 -1.125 1.0625 -2.84375q0 -2.125 -1.375 -3.234375q-1.375 -1.125 -3.609375 -1.765625q-2.234375 -0.640625 -4.671875 -1.34375q-2.046875 -0.578125 -4.09375 -1.28125q-2.046875 -0.703125 -3.6875 -1.71875q-1.625 -1.03125 -2.625 -2.65625q-0.984375 -1.640625 -0.984375 -4.140625q0 -2.234375 0.921875 -3.953125q0.9375 -1.734375 2.65625 -2.953125q1.734375 -1.21875 4.1875 -1.828125q2.46875 -0.609375 5.484375 -0.609375q3.203125 0 5.59375 0.71875q2.40625 0.703125 4.0 1.984375q1.609375 1.265625 2.375 2.90625q0.765625 1.625 0.765625 3.484375q0 0.390625 0 0.75q0 0.34375 -0.0625 0.53125l-5.5 0l0 -0.703125q0 -1.28125 -0.671875 -2.46875q-0.671875 -1.1875 -2.3125 -1.921875q-1.625 -0.734375 -4.515625 -0.734375q-1.84375 0 -3.203125 0.296875q-1.34375 0.28125 -2.234375 0.890625q-0.890625 0.609375 -1.34375 1.40625q-0.453125 0.796875 -0.453125 1.828125q0 1.65625 1.09375 2.5625q1.09375 0.890625 2.90625 1.46875q1.828125 0.578125 3.9375 1.28125q2.25 0.640625 4.578125 1.3125q2.34375 0.671875 4.296875 1.703125q1.953125 1.015625 3.125 2.78125q1.1875 1.75 1.1875 4.640625q0 2.6875 -1.03125 4.671875q-1.015625 1.96875 -2.90625 3.25q-1.890625 1.28125 -4.421875 1.890625q-2.515625 0.609375 -5.53125 0.609375z" fill-rule="nonzero"/></g></svg>