<svg version="1.1" viewBox="0.0 0.0 960.0 540.0" fill="none" stroke="none" stroke-linecap="square" stroke-miterlimit="10" xmlns:xlink="http://www.w3.org/1999/xlink" xmlns="http://www.w3.org/2000/svg"><clipPath id="g863613a65a_2_16.0"><path d="m0 0l960.0 0l0 540.0l-960.0 0l0 -540.0z" clip-rule="nonzero"/></clipPath><g clip-path="url(#g863613a65a_2_16.0)"><path fill="#000000" d="m0 0l960.0 0l0 540.0l-960.0 0z" fill-rule="evenodd"/><path fill="#000000" fill-opacity="0.0" d="m23.149607 63.85827l913.7008 0l0 206.14172l-913.7008 0z" fill-rule="evenodd"/><path fill="#ffffff" d="m122.43122 233.15437q-4.515625 3.6875 -10.859375 5.40625q-6.34375 1.71875 -13.234375 1.71875q-5.09375 0 -10.265625 -0.890625q-5.15625 -0.890625 -9.546875 -2.4375q-1.1875 -0.359375 -1.671875 -0.890625q-0.46875 -0.53125 -0.34375 -1.59375l1.0625 -8.90625q0.125 -1.0625 0.71875 -1.421875q0.59375 -0.359375 2.25 0.234375q3.09375 0.953125 6.171875 1.84375q3.09375 0.890625 6.296875 1.125q2.484375 0.234375 5.09375 0.359375q2.609375 0.109375 5.15625 -0.1875q2.5625 -0.296875 4.875 -1.0625q2.3125 -0.765625 4.328125 -2.1875q5.703125 -3.921875 5.703125 -11.875q0 -2.71875 -1.25 -5.265625q-1.25 -2.5625 -3.859375 -4.515625q-2.609375 -1.96875 -6.703125 -3.09375q-4.09375 -1.125 -9.796875 -1.125l-5.921875 0q-0.953125 0 -1.25 -0.296875q-0.296875 -0.296875 -0.296875 -1.25l0 -8.78125q0 -1.0625 0.296875 -1.296875q0.296875 -0.234375 1.25 -0.234375l5.6875 0q2.609375 0 6.28125 -0.765625q3.6875 -0.78125 7.125 -2.5625q3.453125 -1.78125 5.875 -4.5q2.4375 -2.734375 2.4375 -6.65625q0 -3.078125 -1.546875 -5.328125q-1.546875 -2.265625 -3.984375 -3.6875q-2.421875 -1.421875 -5.265625 -2.078125q-2.84375 -0.65625 -5.34375 -0.65625q-1.65625 0 -3.859375 0.359375q-2.1875 0.359375 -4.5 0.890625q-2.3125 0.53125 -4.6875 1.25q-2.375 0.71875 -4.28125 1.421875q-1.421875 0.59375 -2.015625 0.296875q-0.59375 -0.296875 -0.828125 -1.359375l-1.0625 -8.671875q-0.234375 -0.703125 0.109375 -1.296875q0.359375 -0.59375 1.671875 -1.078125q5.21875 -1.890625 10.203125 -2.953125q4.984375 -1.078125 9.96875 -1.078125q5.328125 0 10.484375 1.3125q5.171875 1.296875 9.140625 4.03125q3.984375 2.734375 6.4687576 7.125q2.5 4.390625 2.5 10.4375q0 3.203125 -1.125 6.40625q-1.125 3.203125 -3.1562576 6.0625q-2.015625 2.84375 -4.859375 5.09375q-2.84375 2.25 -6.171875 3.671875q7.828125 3.4375 11.859375 8.71875q4.0468826 5.28125 4.0468826 11.8125q0 6.296875 -2.4375 11.515625q-2.4375076 5.21875 -6.9375076 8.890625zm124.11375 4.75q-3.4375 0.953125 -8.3125 1.78125q-4.859375 0.828125 -11.265625 0.828125q-10.09375 0 -18.34375 -3.328125q-8.234375 -3.3125 -14.046875 -9.421875q-5.8125 -6.109375 -9.015625 -14.65625q-3.203125 -8.546875 -3.203125 -18.984375q0 -10.328125 3.140625 -18.859375q3.140625 -8.546875 8.953125 -14.65625q5.8125 -6.125 14.0625 -9.5q8.25 -3.375 18.453125 -3.375q5.34375 0 10.4375 0.53125q5.109375 0.53125 9.265625 1.828125q1.296875 0.359375 1.53125 0.90625q0.234375 0.53125 0.125 1.703125l-0.234375 8.78125q0 1.90625 -0.59375 1.90625q-0.59375 0 -2.015625 -0.46875q-8.90625 -2.734375 -18.515625 -2.734375q-7.359375 0 -13.109375 2.5q-5.75 2.484375 -9.734375 7.0q-3.96875 4.5 -6.046875 10.734375q-2.078125 6.21875 -2.078125 13.703125q0 7.359375 2.25 13.59375q2.25 6.21875 6.34375 10.796875q4.09375 4.5625 9.734375 7.171875q5.640625 2.609375 12.515625 2.609375q6.171875 0 10.5 -0.53125q4.34375 -0.546875 8.015625 -1.84375q1.546875 -0.59375 2.015625 -0.359375q0.46875 0.234375 0.46875 1.078125l0.484375 8.421875q0.109375 1.296875 -0.1875 1.890625q-0.296875 0.59375 -1.59375 0.953125zm81.0338 0.953125q-0.828125 0 -1.1875 -0.1875q-0.34375 -0.171875 -0.703125 -1.0l-8.546875 -21.359375l-38.671875 0l-8.546875 21.359375q-0.234375 0.828125 -0.59375 1.0q-0.359375 0.1875 -1.1875 0.1875l-10.921875 0q-2.1249847 0 -1.4218597 -1.671875l34.656235 -86.5q0.34375 -0.9375 0.515625 -1.109375q0.1875 -0.1875 1.375 -0.1875l11.03125 0q1.078125 0 1.3125 0.1875q0.234375 0.171875 0.59375 1.109375l34.640625 86.5q0.59375 1.671875 -1.421875 1.671875l-10.921875 0zm-44.25 -35.015625l28.828125 0l-14.359375 -36.53125l-14.46875 36.53125zm90.28955 -42.0l0 75.59375q0 1.421875 -1.421875 1.421875l-10.5625 0q-1.421875 0 -1.421875 -1.421875l0 -75.59375l-23.015625 0q-0.59375 0 -1.015625 -0.40625q-0.40625 -0.421875 -0.40625 -1.140625l0 -9.484375q0 -0.59375 0.40625 -1.0q0.421875 -0.421875 1.015625 -0.421875l59.5625 0q0.59375 0 1.0 0.421875q0.421875 0.40625 0.421875 1.0l0 9.484375q0 1.546875 -1.421875 1.546875l-23.140625 0zm39.870728 77.125q-2.375 0 -2.84375 -0.421875q-0.46875 -0.40625 -0.46875 -3.015625l0 -82.9375q0 -2.375 0.40625 -2.78125q0.421875 -0.421875 2.671875 -0.421875l42.125 0q1.296875 0 1.53125 0.421875q0.25 0.40625 0.25 1.46875l0 8.78125q0 1.1875 -0.359375 1.609375q-0.359375 0.40625 -1.421875 0.40625l-32.15625 0l0 24.21875l30.609375 0q1.78125 0 1.78125 1.890625l0 8.90625q0 2.015625 -1.78125 2.015625l-30.609375 0l0 27.046875l33.578125 0q1.65625 0 1.65625 2.015625l0 8.90625q0 1.890625 -1.65625 1.890625l-43.3125 0zm133.97098 -2.84375q-2.140625 1.0625 -5.234375 1.828125q-3.078125 0.78125 -6.703125 1.375q-3.609375 0.59375 -7.359375 0.890625q-3.734375 0.296875 -7.046875 0.296875q-9.8437805 0 -18.21878 -3.09375q-8.359375 -3.078125 -14.421875 -9.0q-6.046875 -5.9375 -9.484375 -14.59375q-3.4375 -8.671875 -3.4375 -19.703125q0 -10.09375 3.203125 -18.578125q3.203125 -8.484375 9.125 -14.640625q5.9375 -6.171875 14.359375 -9.609375q8.4375 -3.453125 18.984406 -3.453125q7.125 0 12.703125 0.78125q5.578125 0.765625 10.5625 2.3125q1.296875 0.34375 1.53125 0.765625q0.25 0.40625 0.125 0.890625l-1.421875 10.078125q-0.125 0.84375 -0.59375 1.203125q-0.46875 0.34375 -1.78125 -0.125q-5.578125 -1.78125 -10.5625 -2.546875q-4.984375 -0.78125 -10.671875 -0.78125q-7.125 0 -12.9375305 2.4375q-5.8125 2.421875 -9.96875 6.875q-4.15625 4.453125 -6.46875 10.625q-2.3125 6.171875 -2.3125 13.765625q0 8.1875 2.3125 14.53125q2.3125 6.34375 6.53125 10.6875q4.21875 4.328125 10.03125 6.53125q5.8125305 2.1875 12.8125305 2.1875q5.34375 0 9.25 -0.46875q3.921875 -0.484375 5.8125 -1.4375l0 -23.84375l-19.578125 0q-0.703125 0 -1.125 -0.40625q-0.40625 -0.421875 -0.40625 -1.015625l0 -9.5q0 -0.703125 0.53125 -1.171875q0.53125 -0.484375 1.125 -0.484375l30.375 0q1.78125 0 2.25 0.59375q0.484375 0.59375 0.484375 2.375l0 39.15625q0 1.78125 -0.71875 2.71875q-0.71875 0.953125 -1.65625 1.546875zm90.88141 -8.546875q-5.328125 6.765625 -12.875 10.03125q-7.53125 3.265625 -16.90625 3.265625q-10.4375 0 -17.96875 -3.75q-7.53125 -3.734375 -12.34375 -10.140625q-4.8125 -6.40625 -7.125 -14.890625q-2.3125 -8.484375 -2.3125 -17.96875q0 -9.265625 2.375 -17.75q2.375 -8.484375 7.234375 -14.890625q4.875 -6.40625 12.34375 -10.203125q7.484375 -3.796875 17.796875 -3.796875q10.09375 0 17.5625 3.859375q7.484375 3.859375 12.40625 10.265625q4.921875 6.40625 7.34375 14.828125q2.4375 8.421875 2.328125 17.6875q-0.125 10.4375 -2.5 18.8125q-2.375 8.359375 -7.359375 14.640625zm-29.78125 -67.390625q-6.875 0 -11.8125 3.03125q-4.921875 3.015625 -8.0625 7.828125q-3.140625 4.796875 -4.625 10.90625q-1.484375 6.109375 -1.484375 12.171875q0 6.046875 1.484375 12.15625q1.484375 6.109375 4.625 10.984375q3.140625 4.859375 8.0625 7.890625q4.9375 3.015625 11.8125 3.015625q6.890625 0 11.8125 -3.015625q4.921875 -3.03125 8.0 -7.890625q3.09375 -4.875 4.578125 -10.984375q1.484375 -6.109375 1.484375 -12.15625q0 -5.9375 -1.4375 -11.984375q-1.421875 -6.0625 -4.5625 -10.921875q-3.140625 -4.859375 -8.0625 -7.9375q-4.921875 -3.09375 -11.8125 -3.09375zm105.851135 78.671875q-1.3125 0 -1.84375 -0.1875q-0.53125 -0.171875 -1.125 -1.0l-18.15625 -35.125l-13.53125 0l0 34.765625q0 1.546875 -1.546875 1.546875l-10.546875 0q-1.4375 0 -1.4375 -1.546875l0 -86.5q0 -0.59375 0.421875 -1.0q0.421875 -0.421875 1.015625 -0.421875l23.96875 0q13.15625 0 20.875 6.40625q7.71875 6.40625 7.71875 19.9375q0 8.65625 -3.796875 14.65625q-3.796875 5.984375 -10.453125 9.0625l19.828125 37.734375q0.9375 1.671875 -1.4375 1.671875l-9.953125 0zm-34.65625 -77.015625l0 28.359375l9.734375 0q7.828125 0 12.453125 -3.375q4.625 -3.390625 4.625 -11.21875q0 -6.765625 -3.625 -10.265625q-3.609375 -3.5 -9.65625 -3.5l-13.53125 0zm71.31976 75.46875q0 1.546875 -1.546875 1.546875l-10.796875 0q-1.546875 0 -1.546875 -1.546875l0 -86.375q0 -1.546875 1.546875 -1.546875l10.796875 0q1.546875 0 1.546875 1.546875l0 86.375zm21.230408 1.65625q-2.375 0 -2.84375 -0.421875q-0.46875 -0.40625 -0.46875 -3.015625l0 -82.9375q0 -2.375 0.40625 -2.78125q0.421875 -0.421875 2.671875 -0.421875l42.125 0q1.296875 0 1.53125 0.421875q0.25 0.40625 0.25 1.46875l0 8.78125q0 1.1875 -0.359375 1.609375q-0.359375 0.40625 -1.421875 0.40625l-32.15625 0l0 24.21875l30.609375 0q1.78125 0 1.78125 1.890625l0 8.90625q0 2.015625 -1.78125 2.015625l-30.609375 0l0 27.046875l33.578125 0q1.65625 0 1.65625 2.015625l0 8.90625q0 1.890625 -1.65625 1.890625l-43.3125 0zm105.1272 -6.515625q-3.078125 3.3125 -7.890625 5.625q-4.796875 2.3125 -10.140625 2.796875q-2.84375 0.234375 -6.34375 0q-3.5 -0.234375 -6.765625 -0.78125q-3.265625 -0.53125 -5.9375 -1.1875q-2.671875 -0.640625 -3.859375 -1.234375q-1.765625 -0.828125 -2.125 -1.25q-0.359375 -0.421875 -0.125 -1.71875l0.828125 -8.78125q0.125 -0.953125 0.59375 -1.1875q0.484375 -0.234375 1.78125 0.359375q1.421875 0.59375 4.03125 1.359375q2.609375 0.765625 5.8125 1.3125q3.21875 0.53125 6.46875 0.65625q3.265625 0.109375 5.875 -0.484375q3.453125 -0.828125 5.578125 -2.1875q2.140625 -1.375 3.375 -3.203125q1.25 -1.84375 1.71875 -4.03125q0.484375 -2.203125 0.484375 -4.578125q0 -2.25 -2.90625 -6.171875q-2.90625 -3.921875 -8.359375 -7.125q-6.65625 -3.90625 -11.515625 -7.28125q-4.859375 -3.390625 -8.015625 -6.703125q-3.140625 -3.328125 -4.6875 -6.890625q-1.53125 -3.5625 -1.53125 -7.828125q0 -4.875 2.078125 -9.3125q2.078125 -4.453125 5.6875 -7.765625q3.625 -3.328125 8.65625 -5.28125q5.046875 -1.96875 11.109375 -1.96875q6.15625 0 10.125 0.78125q3.984375 0.765625 6.84375 1.828125q1.296875 0.46875 1.59375 1.015625q0.296875 0.53125 0.0625 1.359375l-1.546875 7.59375q-0.234375 1.296875 -0.765625 1.78125q-0.53125 0.46875 -1.84375 0q-1.78125 -0.59375 -3.921875 -1.125q-2.125 -0.546875 -4.390625 -0.890625q-2.25 -0.359375 -4.328125 -0.46875q-2.078125 -0.125 -3.734375 0.109375q-6.640625 1.0625 -9.3125 4.328125q-2.671875 3.265625 -2.671875 8.25q0 2.96875 3.078125 6.59375q3.09375 3.609375 9.03125 7.171875q7.46875 4.5 12.265625 8.0625q4.8125 3.5625 7.59375 6.828125q2.796875 3.265625 3.921875 6.59375q1.125 3.3125 1.125 7.234375q0 10.4375 -7.0 17.796875z" fill-rule="nonzero"/><path fill="#000000" fill-opacity="0.0" d="m77.19685 237.78609l805.6063 0l0 192.7874l-805.6063 0z" fill-rule="evenodd"/><path fill="#ffffff" d="m405.07812 292.26108l0 2.890625q-10.3125 1.015625 -16.84375 4.109375q-6.515625 3.078125 -12.890625 9.40625q-6.359375 6.328125 -10.546875 14.109375q-4.171875 7.765625 -6.984375 18.46875q11.25 -7.734375 22.578125 -7.734375q10.859375 0 18.828125 8.75q7.96875 8.75 7.96875 22.5q0 13.28125 -8.046875 24.21875q-9.6875 13.28125 -25.625 13.28125q-10.859375 0 -18.4375 -7.1875q-14.84375 -13.984375 -14.84375 -36.25q0 -14.21875 5.703125 -27.03125q5.703125 -12.8125 16.28125 -22.734375q10.59375 -9.921875 20.28125 -13.359375q9.6875 -3.4375 18.046875 -3.4375l4.53125 0zm-48.59375 54.6875q-1.40625 10.546875 -1.40625 17.03125q0 7.5 2.765625 16.296875q2.78125 8.78125 8.25 13.9375q3.984375 3.671875 9.6875 3.671875q6.796875 0 12.140625 -6.40625q5.359375 -6.40625 5.359375 -18.28125q0 -13.359375 -5.3125 -23.125q-5.3125 -9.765625 -15.078125 -9.765625q-2.96875 0 -6.375 1.25q-3.390625 1.25 -10.03125 5.390625zm130.23438 33.046875l-7.421875 20.390625l-62.5 0l0 -2.890625q27.578125 -25.15625 38.828125 -41.09375q11.25 -15.9375 11.25 -29.140625q0 -10.078125 -6.171875 -16.5625q-6.171875 -6.484375 -14.765625 -6.484375q-7.8125 0 -14.03125 4.578125q-6.203125 4.5625 -9.171875 13.390625l-2.890625 0q1.953125 -14.453125 10.03125 -22.1875q8.09375 -7.734375 20.203125 -7.734375q12.890625 0 21.515625 8.28125q8.640625 8.28125 8.640625 19.53125q0 8.046875 -3.75 16.09375q-5.78125 12.65625 -18.75 26.796875q-19.453125 21.25 -24.296875 25.625l27.65625 0q8.4375 0 11.828125 -0.625q3.40625 -0.625 6.140625 -2.53125q2.734375 -1.921875 4.765625 -5.4375l2.890625 0zm115.390625 -87.96875l-77.1875 112.734375l-6.953125 0l77.1875 -112.734375l6.953125 0zm-80.3125 0q10.546875 0 16.359375 8.75q5.828125 8.75 5.828125 20.078125q0 13.59375 -6.5625 21.015625q-6.5625 7.421875 -15.78125 7.421875q-6.171875 0 -11.328125 -3.390625q-5.15625 -3.40625 -8.25 -10.125q-3.078125 -6.71875 -3.078125 -14.921875q0 -8.203125 3.125 -15.109375q3.125 -6.921875 8.546875 -10.3125q5.4375 -3.40625 11.140625 -3.40625zm-0.234375 4.375q-3.984375 0 -7.078125 4.6875q-3.078125 4.6875 -3.078125 19.6875q0 10.859375 1.71875 16.5625q1.328125 4.296875 4.140625 6.640625q1.640625 1.40625 4.0625 1.40625q3.75 0 6.40625 -4.0625q3.90625 -6.015625 3.90625 -20.078125q0 -14.84375 -3.828125 -20.859375q-2.5 -3.984375 -6.25 -3.984375zm76.953125 51.40625q5.546875 0 11.046875 3.515625q5.515625 3.515625 8.515625 10.234375q3.015625 6.71875 3.015625 14.765625q0 13.828125 -6.640625 21.140625q-6.640625 7.296875 -15.703125 7.296875q-5.703125 0 -11.0625 -3.515625q-5.34375 -3.515625 -8.4375 -10.03125q-3.078125 -6.53125 -3.078125 -14.890625q0 -8.203125 3.078125 -15.0q3.09375 -6.796875 8.4375 -10.15625q5.359375 -3.359375 10.828125 -3.359375zm0.078125 4.140625q-3.75 0 -6.484375 4.21875q-3.515625 5.46875 -3.515625 20.703125q0 13.984375 3.59375 19.53125q2.65625 3.984375 6.40625 3.984375q3.59375 0 6.40625 -4.296875q3.75 -5.703125 3.75 -19.609375q0 -14.6875 -3.75 -20.546875q-2.578125 -3.984375 -6.40625 -3.984375z" fill-rule="nonzero"/><path fill="#000000" fill-opacity="0.0" d="m930.0852 515.117l0 0c-8.514893 0.2816162 -16.82782 -1.8654785 -23.029663 -5.948181c-6.2018433 -4.0827026 -9.7595215 -9.750092 -9.855896 -15.700562l31.399536 -0.24795532z" fill-rule="evenodd"/><path fill="#000000" fill-opacity="0.0" d="m930.0852 515.117l0 0c-8.514893 0.2816162 -16.82782 -1.8654785 -23.029663 -5.948181c-6.2018433 -4.0827026 -9.7595215 -9.750092 -9.855896 -15.700562" fill-rule="evenodd"/><path stroke="#ffffff" stroke-width="2.0" stroke-linejoin="round" stroke-linecap="butt" d="m930.0852 515.117l0 0c-8.514893 0.2816162 -16.82782 -1.8654785 -23.029663 -5.948181c-6.2018433 -4.0827026 -9.7595215 -9.750092 -9.855896 -15.700562" fill-rule="evenodd"/><path fill="#000000" fill-opacity="0.0" d="m891.86096 492.13654l0.1574707 31.968506" fill-rule="evenodd"/><path stroke="#ffffff" stroke-width="2.0" stroke-linejoin="round" stroke-linecap="butt" d="m891.86096 492.13654l0.1574707 31.968506" fill-rule="evenodd"/><path fill="#000000" fill-opacity="0.0" d="m891.86096 522.99115l40.125977 0.28344727" fill-rule="evenodd"/><path stroke="#ffffff" stroke-width="2.0" stroke-linejoin="round" stroke-linecap="butt" d="m891.86096 522.99115l40.125977 0.28344727" fill-rule="evenodd"/></g></svg>